%FSLAX25Y25*%
%MOIN*%
G70*
G01*
G75*
G04 Layer_Color=9021481*
%ADD10R,0.03150X0.02362*%
%ADD11R,0.04331X0.02559*%
%ADD12O,0.06693X0.01378*%
%ADD13R,0.02362X0.03150*%
%ADD14C,0.01500*%
%ADD15C,0.01000*%
%ADD16C,0.03000*%
%ADD17C,0.02500*%
%ADD18C,0.01300*%
%ADD19C,0.02000*%
%ADD20C,0.00800*%
%ADD21C,0.06496*%
%ADD22R,0.06496X0.06496*%
%ADD23R,0.06496X0.06496*%
%ADD24C,0.02000*%
G04:AMPARAMS|DCode=25|XSize=39.37mil|YSize=15.75mil|CornerRadius=3.94mil|HoleSize=0mil|Usage=FLASHONLY|Rotation=0.000|XOffset=0mil|YOffset=0mil|HoleType=Round|Shape=RoundedRectangle|*
%AMROUNDEDRECTD25*
21,1,0.03937,0.00787,0,0,0.0*
21,1,0.03150,0.01575,0,0,0.0*
1,1,0.00787,0.01575,-0.00394*
1,1,0.00787,-0.01575,-0.00394*
1,1,0.00787,-0.01575,0.00394*
1,1,0.00787,0.01575,0.00394*
%
%ADD25ROUNDEDRECTD25*%
G04:AMPARAMS|DCode=26|XSize=74.8mil|YSize=133.86mil|CornerRadius=0mil|HoleSize=0mil|Usage=FLASHONLY|Rotation=270.000|XOffset=0mil|YOffset=0mil|HoleType=Round|Shape=Octagon|*
%AMOCTAGOND26*
4,1,8,0.06693,0.01870,0.06693,-0.01870,0.04823,-0.03740,-0.04823,-0.03740,-0.06693,-0.01870,-0.06693,0.01870,-0.04823,0.03740,0.04823,0.03740,0.06693,0.01870,0.0*
%
%ADD26OCTAGOND26*%

%ADD27R,0.05512X0.03543*%
%ADD28R,0.07087X0.03543*%
%ADD29R,0.03740X0.03937*%
%ADD30R,0.08500X0.10799*%
%ADD31R,0.03937X0.03740*%
%ADD32R,0.02362X0.07480*%
%ADD33C,0.03500*%
%ADD34C,0.00984*%
%ADD35C,0.02362*%
%ADD36C,0.00700*%
%ADD37C,0.00787*%
%ADD38C,0.00600*%
%ADD39C,0.00500*%
D10*
X31262Y30600D02*
D03*
X26538D02*
D03*
X24258Y41739D02*
D03*
X28983D02*
D03*
X37338Y30600D02*
D03*
X42062D02*
D03*
X48738Y25400D02*
D03*
X53462D02*
D03*
X36462Y13900D02*
D03*
X31738D02*
D03*
X24158Y47339D02*
D03*
X28883D02*
D03*
X48738Y30600D02*
D03*
X53462D02*
D03*
X48162Y59500D02*
D03*
X43438D02*
D03*
X70738Y58500D02*
D03*
X75462D02*
D03*
X58962Y59500D02*
D03*
X54238D02*
D03*
X82338Y43500D02*
D03*
X87062D02*
D03*
X65538Y69600D02*
D03*
X70262D02*
D03*
D11*
X91724Y56440D02*
D03*
Y48960D02*
D03*
X82276D02*
D03*
Y52700D02*
D03*
Y56440D02*
D03*
D12*
X48480Y53457D02*
D03*
Y50898D02*
D03*
Y48339D02*
D03*
Y45779D02*
D03*
Y43220D02*
D03*
Y40661D02*
D03*
Y38102D02*
D03*
Y35543D02*
D03*
X70920Y53457D02*
D03*
Y50898D02*
D03*
Y48339D02*
D03*
Y45779D02*
D03*
Y43220D02*
D03*
Y40661D02*
D03*
Y38102D02*
D03*
Y35543D02*
D03*
D13*
X82700Y62838D02*
D03*
Y67562D02*
D03*
X77800Y36462D02*
D03*
Y31738D02*
D03*
X71000Y25538D02*
D03*
Y30262D02*
D03*
X31300Y19938D02*
D03*
Y24662D02*
D03*
X92200Y43062D02*
D03*
Y38338D02*
D03*
X34721Y41562D02*
D03*
Y36838D02*
D03*
X40220Y46862D02*
D03*
Y42138D02*
D03*
X34721Y51962D02*
D03*
Y47238D02*
D03*
X82900Y31738D02*
D03*
Y36462D02*
D03*
D20*
X57700Y-79851D02*
X61699D01*
X59699D01*
Y-85849D01*
X64698D02*
X66697D01*
X67697Y-84850D01*
Y-82850D01*
X66697Y-81851D01*
X64698D01*
X63698Y-82850D01*
Y-84850D01*
X64698Y-85849D01*
X69696Y-87849D02*
Y-81851D01*
X72695D01*
X73695Y-82850D01*
Y-84850D01*
X72695Y-85849D01*
X69696D01*
X81692D02*
Y-79851D01*
X84691D01*
X85691Y-80851D01*
Y-82850D01*
X84691Y-83850D01*
X81692D01*
X88690Y-81851D02*
X90689D01*
X91689Y-82850D01*
Y-85849D01*
X88690D01*
X87690Y-84850D01*
X88690Y-83850D01*
X91689D01*
X93688Y-85849D02*
X96687D01*
X97687Y-84850D01*
X96687Y-83850D01*
X94688D01*
X93688Y-82850D01*
X94688Y-81851D01*
X97687D01*
X100686Y-80851D02*
Y-81851D01*
X99686D01*
X101686D01*
X100686D01*
Y-84850D01*
X101686Y-85849D01*
X107684D02*
X105684D01*
X104685Y-84850D01*
Y-82850D01*
X105684Y-81851D01*
X107684D01*
X108684Y-82850D01*
Y-83850D01*
X104685D01*
M02*
