%FSLAX25Y25*%
%MOIN*%
G70*
G01*
G75*
G04 Layer_Physical_Order=2*
G04 Layer_Color=16711680*
%ADD10R,0.03150X0.02362*%
%ADD11R,0.04331X0.02559*%
%ADD12O,0.06693X0.01378*%
%ADD13R,0.02362X0.03150*%
%ADD14C,0.01500*%
%ADD15C,0.01000*%
%ADD16C,0.03000*%
%ADD17C,0.02500*%
%ADD18C,0.01300*%
%ADD19C,0.02000*%
%ADD20C,0.00800*%
%ADD21C,0.06496*%
%ADD22R,0.06496X0.06496*%
%ADD23R,0.06496X0.06496*%
%ADD24C,0.02000*%
G04:AMPARAMS|DCode=25|XSize=39.37mil|YSize=15.75mil|CornerRadius=3.94mil|HoleSize=0mil|Usage=FLASHONLY|Rotation=0.000|XOffset=0mil|YOffset=0mil|HoleType=Round|Shape=RoundedRectangle|*
%AMROUNDEDRECTD25*
21,1,0.03937,0.00787,0,0,0.0*
21,1,0.03150,0.01575,0,0,0.0*
1,1,0.00787,0.01575,-0.00394*
1,1,0.00787,-0.01575,-0.00394*
1,1,0.00787,-0.01575,0.00394*
1,1,0.00787,0.01575,0.00394*
%
%ADD25ROUNDEDRECTD25*%
G04:AMPARAMS|DCode=26|XSize=74.8mil|YSize=133.86mil|CornerRadius=0mil|HoleSize=0mil|Usage=FLASHONLY|Rotation=270.000|XOffset=0mil|YOffset=0mil|HoleType=Round|Shape=Octagon|*
%AMOCTAGOND26*
4,1,8,0.06693,0.01870,0.06693,-0.01870,0.04823,-0.03740,-0.04823,-0.03740,-0.06693,-0.01870,-0.06693,0.01870,-0.04823,0.03740,0.04823,0.03740,0.06693,0.01870,0.0*
%
%ADD26OCTAGOND26*%

%ADD27R,0.05512X0.03543*%
%ADD28R,0.07087X0.03543*%
%ADD29R,0.03740X0.03937*%
%ADD30R,0.08500X0.10799*%
%ADD31R,0.03937X0.03740*%
%ADD32R,0.02362X0.07480*%
%ADD33C,0.03500*%
G36*
X54140Y97315D02*
X58248Y96774D01*
X62293Y95877D01*
X66244Y94631D01*
X70072Y93045D01*
X73748Y91132D01*
X77242Y88906D01*
X80529Y86383D01*
X83584Y83584D01*
X86383Y80529D01*
X88906Y77242D01*
X91132Y73748D01*
X93045Y70072D01*
X94631Y66244D01*
X95877Y62293D01*
X96774Y58248D01*
X97315Y54140D01*
X97487Y50182D01*
X97451Y50000D01*
X97487Y49818D01*
X97315Y45860D01*
X96774Y41753D01*
X95877Y37707D01*
X94631Y33756D01*
X93045Y29928D01*
X91132Y26252D01*
X88906Y22758D01*
X86383Y19471D01*
X83584Y16416D01*
X80529Y13617D01*
X77242Y11094D01*
X73748Y8868D01*
X70072Y6955D01*
X66244Y5369D01*
X62293Y4123D01*
X58248Y3226D01*
X54140Y2685D01*
X50182Y2513D01*
X50000Y2549D01*
X49818Y2513D01*
X45860Y2685D01*
X41753Y3226D01*
X37707Y4123D01*
X33756Y5369D01*
X29928Y6955D01*
X26252Y8868D01*
X22758Y11094D01*
X19471Y13617D01*
X16416Y16416D01*
X13617Y19471D01*
X11094Y22758D01*
X8868Y26252D01*
X6955Y29928D01*
X5369Y33756D01*
X4123Y37707D01*
X3226Y41753D01*
X2685Y45860D01*
X2513Y49818D01*
X2549Y50000D01*
X2513Y50182D01*
X2685Y54140D01*
X3226Y58248D01*
X4123Y62293D01*
X5369Y66244D01*
X6955Y70072D01*
X8868Y73748D01*
X11094Y77242D01*
X13617Y80529D01*
X16416Y83584D01*
X19471Y86383D01*
X22758Y88906D01*
X26252Y91132D01*
X29928Y93045D01*
X33756Y94631D01*
X37707Y95877D01*
X41753Y96774D01*
X45860Y97315D01*
X49818Y97487D01*
X50000Y97451D01*
X50182Y97487D01*
X54140Y97315D01*
D02*
G37*
%LPC*%
G36*
X15000Y53582D02*
X13969Y53446D01*
X13009Y53049D01*
X12184Y52416D01*
X11551Y51591D01*
X11154Y50631D01*
X11018Y49600D01*
X11154Y48569D01*
X11551Y47609D01*
X12184Y46784D01*
X13009Y46151D01*
X13969Y45754D01*
X15000Y45618D01*
X16031Y45754D01*
X16991Y46151D01*
X17816Y46784D01*
X18449Y47609D01*
X18846Y48569D01*
X18982Y49600D01*
X18846Y50631D01*
X18449Y51591D01*
X17816Y52416D01*
X16991Y53049D01*
X16031Y53446D01*
X15000Y53582D01*
D02*
G37*
G36*
X32704Y44029D02*
X29554D01*
X29401Y43999D01*
X27920D01*
X27355Y43886D01*
X26875Y43566D01*
X20855Y37545D01*
X20534Y37066D01*
X20422Y36500D01*
Y16147D01*
X20299Y15963D01*
X20167Y15300D01*
X20299Y14637D01*
X20674Y14074D01*
X21237Y13699D01*
X21900Y13567D01*
X22563Y13699D01*
X23126Y14074D01*
X23501Y14637D01*
X23633Y15300D01*
X23501Y15963D01*
X23378Y16147D01*
Y35888D01*
X27515Y40025D01*
X28439Y39642D01*
Y39568D01*
X28524Y39141D01*
X28766Y38779D01*
X29128Y38537D01*
X29554Y38453D01*
X32704D01*
X33131Y38537D01*
X33492Y38779D01*
X33734Y39141D01*
X33819Y39568D01*
Y40355D01*
X33734Y40782D01*
X33492Y41144D01*
Y41338D01*
X33734Y41700D01*
X33819Y42127D01*
Y42914D01*
X33734Y43341D01*
X33492Y43703D01*
X33131Y43944D01*
X32704Y44029D01*
D02*
G37*
G36*
X15000Y43582D02*
X13969Y43446D01*
X13009Y43049D01*
X12184Y42416D01*
X11551Y41591D01*
X11154Y40631D01*
X11018Y39600D01*
X11154Y38569D01*
X11551Y37609D01*
X12184Y36784D01*
X13009Y36151D01*
X13969Y35754D01*
X15000Y35618D01*
X16031Y35754D01*
X16991Y36151D01*
X17816Y36784D01*
X18449Y37609D01*
X18846Y38569D01*
X18982Y39600D01*
X18846Y40631D01*
X18449Y41591D01*
X17816Y42416D01*
X16991Y43049D01*
X16031Y43446D01*
X15000Y43582D01*
D02*
G37*
G36*
X18948Y73548D02*
X11052D01*
Y65652D01*
X18948D01*
Y73548D01*
D02*
G37*
G36*
X47500Y94140D02*
X46469Y94004D01*
X45509Y93606D01*
X44684Y92973D01*
X44440Y92655D01*
X41157D01*
X40202Y92465D01*
X39391Y91924D01*
X34034Y86566D01*
X33492Y85756D01*
X33302Y84800D01*
Y80700D01*
X31649D01*
Y68500D01*
X33302D01*
Y64918D01*
X33230D01*
Y59581D01*
X33230Y59581D01*
X33230Y58619D01*
X33230D01*
Y53282D01*
X34322D01*
Y50412D01*
X33026Y49117D01*
X32857D01*
X32704Y49147D01*
X29554D01*
X29128Y49062D01*
X28766Y48821D01*
X28524Y48459D01*
X28439Y48032D01*
Y47245D01*
X28524Y46818D01*
X28766Y46456D01*
X29128Y46215D01*
X29554Y46130D01*
X32704D01*
X32857Y46160D01*
X33639D01*
X34204Y46273D01*
X34684Y46593D01*
X36845Y48755D01*
X37166Y49234D01*
X37278Y49800D01*
Y53282D01*
X38370D01*
Y53457D01*
X39982D01*
Y53130D01*
X45319D01*
Y53130D01*
X45319D01*
X45319Y53130D01*
X46281D01*
Y53130D01*
X51618D01*
Y53357D01*
X53230D01*
Y53282D01*
X58370D01*
D01*
X58370D01*
X58922Y52730D01*
Y49878D01*
X58149Y49244D01*
X57700Y49333D01*
X57037Y49201D01*
X56910Y49117D01*
X48999D01*
X48846Y49147D01*
X45696D01*
X45269Y49062D01*
X44908Y48821D01*
X44666Y48459D01*
X44581Y48032D01*
Y47245D01*
D01*
D01*
X44581Y47245D01*
X44581Y47245D01*
X44527Y46558D01*
X43162D01*
X42596Y46445D01*
X42117Y46125D01*
X40155Y44163D01*
X39834Y43683D01*
X39722Y43117D01*
Y40700D01*
X39834Y40134D01*
X39834Y40134D01*
X39834Y40134D01*
X40155Y39655D01*
X49786Y30024D01*
X49403Y29100D01*
X41351D01*
Y16900D01*
X50055D01*
X50501Y16812D01*
X57900D01*
X58661Y16963D01*
X59306Y17394D01*
X59737Y18039D01*
X59888Y18800D01*
X59737Y19561D01*
X59306Y20206D01*
X59919Y21123D01*
X65576D01*
Y26066D01*
X65576D01*
Y26148D01*
X66500Y26531D01*
X67971Y25060D01*
X76363D01*
X76745Y24136D01*
X69555Y16945D01*
X69555Y16945D01*
X68265Y15656D01*
X62278Y13207D01*
X61448Y13764D01*
Y15648D01*
X53552D01*
Y8478D01*
X41147D01*
X40963Y8601D01*
X40300Y8733D01*
X39637Y8601D01*
X39074Y8226D01*
X38699Y7663D01*
X38567Y7000D01*
X38699Y6337D01*
X39074Y5774D01*
X39637Y5399D01*
X40300Y5267D01*
X40963Y5399D01*
X41147Y5522D01*
X61100D01*
X61132Y5528D01*
X61163Y5523D01*
X61413Y5584D01*
X61666Y5634D01*
X61693Y5652D01*
X61724Y5660D01*
X71824Y10360D01*
X72032Y10512D01*
X72245Y10655D01*
X85445Y23855D01*
X85766Y24334D01*
X85785Y24428D01*
X85878Y24900D01*
Y41214D01*
X86651Y41848D01*
X87062Y41767D01*
X87726Y41899D01*
X88288Y42274D01*
X88664Y42837D01*
X88796Y43500D01*
X88664Y44163D01*
X88541Y44347D01*
Y65238D01*
X88428Y65803D01*
X88108Y66283D01*
X83345Y71046D01*
X83301Y71263D01*
X82926Y71826D01*
X82363Y72201D01*
X81700Y72333D01*
X81037Y72201D01*
X80853Y72078D01*
X69500D01*
X68934Y71966D01*
X68455Y71645D01*
X61654Y64845D01*
X61437Y64801D01*
X60874Y64426D01*
X60499Y63863D01*
X60367Y63200D01*
X60499Y62537D01*
X60874Y61974D01*
X61437Y61599D01*
X62100Y61467D01*
X62763Y61599D01*
X63326Y61974D01*
X63701Y62537D01*
X63744Y62754D01*
X70112Y69122D01*
X80853D01*
X81037Y68999D01*
X81254Y68955D01*
X85584Y64625D01*
Y60914D01*
X84660Y60531D01*
X82545Y62645D01*
X82066Y62966D01*
X81500Y63078D01*
X71647D01*
X71463Y63201D01*
X70800Y63333D01*
X70137Y63201D01*
X69574Y62826D01*
X69199Y62263D01*
X69067Y61600D01*
X69199Y60937D01*
X69574Y60374D01*
X70137Y59999D01*
X70800Y59867D01*
X71463Y59999D01*
X71647Y60122D01*
X80888D01*
X82922Y58088D01*
Y42096D01*
X81998Y41714D01*
X80045Y43667D01*
X80001Y43884D01*
X79626Y44446D01*
X79063Y44822D01*
X78577Y44919D01*
X78287Y45875D01*
X79145Y46734D01*
X79466Y47214D01*
X79578Y47780D01*
Y50453D01*
X79701Y50637D01*
X79833Y51300D01*
X79701Y51963D01*
X79326Y52526D01*
X78763Y52901D01*
X78100Y53033D01*
X77437Y52901D01*
X76874Y52526D01*
X76499Y51963D01*
X76367Y51300D01*
X76499Y50637D01*
X76622Y50453D01*
Y48392D01*
X75654Y47424D01*
X75437Y47381D01*
X74874Y47005D01*
X74499Y46443D01*
X74367Y45779D01*
X74499Y45116D01*
X74874Y44554D01*
X75437Y44178D01*
X76100Y44046D01*
X76100Y44046D01*
X76100Y44046D01*
X76799Y43884D01*
X76799D01*
D01*
X76667Y43220D01*
X76799Y42557D01*
X77174Y41995D01*
X77737Y41619D01*
X77954Y41576D01*
X80122Y39408D01*
Y33441D01*
X79198Y33059D01*
X78316Y33940D01*
X67971D01*
X66500Y32469D01*
X65576Y32852D01*
Y32934D01*
X65576D01*
Y37877D01*
X63598D01*
Y42333D01*
X63721Y42517D01*
X63853Y43180D01*
X63721Y43844D01*
X63345Y44406D01*
X62783Y44782D01*
X62431Y44852D01*
X61875Y45683D01*
X61878Y45700D01*
Y54500D01*
X61766Y55066D01*
X61445Y55545D01*
X59995Y56996D01*
X59515Y57316D01*
X58950Y57429D01*
X58370D01*
Y58619D01*
D01*
Y58619D01*
X58370Y58619D01*
Y59581D01*
X58370D01*
Y64918D01*
X58298D01*
Y68500D01*
X58951D01*
Y73411D01*
X67900D01*
X68245Y73479D01*
X70221D01*
Y80960D01*
X73961D01*
Y89840D01*
X70199D01*
Y82360D01*
X66481D01*
Y84862D01*
X66588Y85400D01*
X66481Y85938D01*
Y89840D01*
X62719D01*
Y88557D01*
X62279Y88375D01*
X61448Y88930D01*
Y93606D01*
X53552D01*
Y85710D01*
X58636D01*
X60352Y83994D01*
X60352Y83994D01*
X60352D01*
X60352Y83994D01*
X60352D01*
X60352Y83994D01*
Y83994D01*
Y83994D01*
D01*
D01*
X60352D01*
Y83994D01*
X60997Y83563D01*
X61757Y83412D01*
X62719D01*
Y80960D01*
X66459D01*
Y79350D01*
X64496Y77387D01*
X58951D01*
Y80700D01*
X49051D01*
Y68500D01*
X53302D01*
Y64918D01*
X53230D01*
Y59581D01*
X53230Y59581D01*
X53230Y58619D01*
D01*
X53230Y57843D01*
X51618D01*
Y58270D01*
X46281D01*
D01*
D01*
X46281Y58270D01*
X45319D01*
Y58270D01*
X39982D01*
Y57943D01*
X38370D01*
X38370Y58619D01*
D01*
Y59581D01*
X38370D01*
Y64918D01*
X38298D01*
Y68500D01*
X41549D01*
Y80700D01*
X38298D01*
Y83765D01*
X42192Y87660D01*
X44440D01*
X44684Y87342D01*
X45509Y86709D01*
X46469Y86311D01*
X47500Y86175D01*
X48531Y86311D01*
X49491Y86709D01*
X50316Y87342D01*
X50949Y88166D01*
X51346Y89127D01*
X51482Y90158D01*
X51346Y91188D01*
X50949Y92149D01*
X50316Y92973D01*
X49491Y93606D01*
X48531Y94004D01*
X47500Y94140D01*
D02*
G37*
G36*
X15000Y63582D02*
X13969Y63446D01*
X13009Y63049D01*
X12184Y62416D01*
X11551Y61591D01*
X11154Y60631D01*
X11018Y59600D01*
X11154Y58569D01*
X11551Y57609D01*
X12184Y56784D01*
X13009Y56151D01*
X13969Y55754D01*
X15000Y55618D01*
X16031Y55754D01*
X16991Y56151D01*
X17816Y56784D01*
X18449Y57609D01*
X18846Y58569D01*
X18982Y59600D01*
X18846Y60631D01*
X18449Y61591D01*
X17816Y62416D01*
X16991Y63049D01*
X16031Y63446D01*
X15000Y63582D01*
D02*
G37*
%LPD*%
D14*
X70600Y15900D02*
X81600Y26900D01*
X57500Y11700D02*
X62500D01*
X69100Y14400D02*
X70600Y15900D01*
X62500Y11700D02*
X69100Y14400D01*
X40300Y7000D02*
X61100D01*
X71200Y11700D02*
X84400Y24900D01*
X61100Y7000D02*
X71200Y11700D01*
X35800Y49800D02*
Y55950D01*
X33639Y47639D02*
X35800Y49800D01*
X31129Y47639D02*
X33639D01*
X69500Y70600D02*
X81700D01*
X62100Y63200D02*
X69500Y70600D01*
X58306Y23595D02*
X62120D01*
X41200Y40700D02*
X58306Y23595D01*
X41200Y40700D02*
Y43117D01*
X43162Y45079D01*
X47271D01*
X55000Y40300D02*
X60400Y45700D01*
X61220Y35605D02*
X62120Y36505D01*
Y43180D01*
Y35405D02*
Y36505D01*
X50339Y39961D02*
X56700Y33600D01*
X47271Y39961D02*
X50339D01*
X62907Y29500D02*
X73143D01*
X60400Y45700D02*
Y54500D01*
X55800Y55950D02*
X58950D01*
X60400Y54500D01*
X52780Y42520D02*
X55000Y40300D01*
X47271Y42520D02*
X52780D01*
X57661Y47639D02*
X57700Y47600D01*
X47271Y47639D02*
X57661D01*
X21900Y15300D02*
Y36500D01*
X27920Y42520D01*
X31129D01*
X78100Y47780D02*
Y51300D01*
X76100Y45779D02*
X78100Y47780D01*
X81700Y70600D02*
X87062Y65238D01*
Y43500D02*
Y65238D01*
X70800Y61600D02*
X81500D01*
X84400Y58700D01*
X81600Y26900D02*
Y40020D01*
X78400Y43220D02*
X81600Y40020D01*
X84400Y24900D02*
Y58700D01*
D15*
X57800Y11900D02*
X58550Y12650D01*
D16*
X50550Y55600D02*
X55700D01*
X36050Y55700D02*
X42650D01*
D17*
X50501Y18800D02*
X57900D01*
X46301Y23000D02*
X50501Y18800D01*
X47157Y90158D02*
X47500Y90500D01*
X47157Y90158D02*
X47500D01*
X65320Y75399D02*
X68090Y78170D01*
X54001Y74600D02*
X54800Y75399D01*
X57500Y89657D02*
X61757Y85400D01*
X64600D01*
X65320Y75399D02*
X67900D01*
X54800D02*
X65320D01*
D20*
X57700Y-79851D02*
Y-85849D01*
X60699D01*
X61699Y-84850D01*
Y-83850D01*
X60699Y-82850D01*
X57700D01*
X60699D01*
X61699Y-81851D01*
Y-80851D01*
X60699Y-79851D01*
X57700D01*
X64698Y-85849D02*
X66697D01*
X67697Y-84850D01*
Y-82850D01*
X66697Y-81851D01*
X64698D01*
X63698Y-82850D01*
Y-84850D01*
X64698Y-85849D01*
X70696Y-80851D02*
Y-81851D01*
X69696D01*
X71696D01*
X70696D01*
Y-84850D01*
X71696Y-85849D01*
X75694Y-80851D02*
Y-81851D01*
X74695D01*
X76694D01*
X75694D01*
Y-84850D01*
X76694Y-85849D01*
X80693D02*
X82692D01*
X83692Y-84850D01*
Y-82850D01*
X82692Y-81851D01*
X80693D01*
X79693Y-82850D01*
Y-84850D01*
X80693Y-85849D01*
X85691D02*
Y-81851D01*
X86691D01*
X87690Y-82850D01*
Y-85849D01*
Y-82850D01*
X88690Y-81851D01*
X89690Y-82850D01*
Y-85849D01*
X97687Y-79851D02*
Y-85849D01*
X101686D01*
X104685Y-81851D02*
X106684D01*
X107684Y-82850D01*
Y-85849D01*
X104685D01*
X103685Y-84850D01*
X104685Y-83850D01*
X107684D01*
X109683Y-81851D02*
Y-84850D01*
X110683Y-85849D01*
X113682D01*
Y-86849D01*
X112682Y-87849D01*
X111682D01*
X113682Y-85849D02*
Y-81851D01*
X118680Y-85849D02*
X116681D01*
X115681Y-84850D01*
Y-82850D01*
X116681Y-81851D01*
X118680D01*
X119680Y-82850D01*
Y-83850D01*
X115681D01*
X121679Y-81851D02*
Y-85849D01*
Y-83850D01*
X122679Y-82850D01*
X123679Y-81851D01*
X124678D01*
D21*
X47500Y90158D02*
D03*
X15000Y59600D02*
D03*
Y49600D02*
D03*
Y39600D02*
D03*
Y29600D02*
D03*
X47500Y11700D02*
D03*
D22*
X57500Y89657D02*
D03*
Y11700D02*
D03*
D23*
X15000Y69600D02*
D03*
D24*
X62120Y43180D02*
D03*
X55000Y40300D02*
D03*
X21900Y15300D02*
D03*
X71000Y23100D02*
D03*
X71400Y66600D02*
D03*
X63600Y47900D02*
D03*
X76100Y45779D02*
D03*
X81700Y70600D02*
D03*
X62100Y63200D02*
D03*
X40300Y7000D02*
D03*
X70800Y61600D02*
D03*
X78100Y51300D02*
D03*
X78400Y43220D02*
D03*
X25900Y53000D02*
D03*
X50900Y62100D02*
D03*
X86400Y74000D02*
D03*
X57700Y47600D02*
D03*
X56700Y33600D02*
D03*
X57900Y18800D02*
D03*
X65873Y29427D02*
D03*
X94500Y52600D02*
D03*
X87062Y43500D02*
D03*
D25*
X31129Y39961D02*
D03*
Y42520D02*
D03*
Y45079D02*
D03*
Y47639D02*
D03*
X47271Y39961D02*
D03*
Y42520D02*
D03*
Y45079D02*
D03*
Y47639D02*
D03*
D26*
X73143Y29500D02*
D03*
D27*
X62120Y35405D02*
D03*
Y23595D02*
D03*
D28*
X62907Y29500D02*
D03*
D29*
X35800Y55950D02*
D03*
Y62250D02*
D03*
X55800Y55950D02*
D03*
Y62250D02*
D03*
D30*
X54001Y74600D02*
D03*
X36599D02*
D03*
X46301Y23000D02*
D03*
X28899D02*
D03*
D31*
X48950Y55700D02*
D03*
X42650D02*
D03*
D32*
X72080Y85400D02*
D03*
X64600D02*
D03*
X68340Y77920D02*
D03*
D33*
X35800Y73801D02*
Y84800D01*
X41157Y90158D02*
X47157D01*
X35800Y84800D02*
X41157Y90158D01*
X35800Y62250D02*
Y73801D01*
X55800Y62250D02*
Y72801D01*
M02*
