<?xml version="1.0" standalone="no"?>
 <!DOCTYPE svg PUBLIC "-//W3C//DTD SVG 1.1//EN" 
 "http://www.w3.org/Graphics/SVG/1.1/DTD/svg11.dtd"> 
<svg
  xmlns:svg="http://www.w3.org/2000/svg"
  xmlns="http://www.w3.org/2000/svg"
  xmlns:xlink="http://www.w3.org/1999/xlink"
  version="1.1"
  width="242.3922mm" height="267.6144mm" viewBox="0.0000 0.0000 242.3922 267.6144">
<title>SVG Image created as FPGAs-Ard_RPi_BB-B_Silkscreen.svg date 2023/04/29 23:25:11 </title>
  <desc>Image generated by PCBNEW </desc>
<g style="fill:#000000; fill-opacity:1.0000;stroke:#000000; stroke-opacity:1.0000;
stroke-linecap:round; stroke-linejoin:round;"
 transform="translate(0 0) scale(1 1)">
</g>
<g style="fill:#000000; fill-opacity:0.0; 
stroke:#000000; stroke-width:0.0000; stroke-opacity:1; 
stroke-linecap:round; stroke-linejoin:round;">
</g>
<g style="fill:#E8B2A7; fill-opacity:0.0; 
stroke:#E8B2A7; stroke-width:0.0000; stroke-opacity:1; 
stroke-linecap:round; stroke-linejoin:round;">
</g>
<g style="fill:#E8B2A7; fill-opacity:0.0; 
stroke:#E8B2A7; stroke-width:0.1500; stroke-opacity:1; 
stroke-linecap:round; stroke-linejoin:round;">
<g transform="rotate(-90.000000 125.3792 40.4876)">
<text x="125.3792" y="40.9876"
textLength="1.1274" font-size="1.3333" lengthAdjust="spacingAndGlyphs"
text-anchor="middle" opacity="0">1</text>
</g>
<g class="stroked-text"><desc>1</desc>
<path d="M125.7465 40.2019
L125.7465 40.7733
" />
<path d="M125.7465 40.4876
L124.7465 40.4876
" />
<path d="M124.7465 40.4876
L124.8894 40.5828
" />
<path d="M124.8894 40.5828
L124.9846 40.6781
" />
<path d="M124.9846 40.6781
L125.0323 40.7733
" />
</g><text x="123.8418" y="53.7250"
textLength="1.1750" font-size="1.3333" lengthAdjust="spacingAndGlyphs"
text-anchor="middle" opacity="0">R</text>
<g class="stroked-text"><desc>R</desc>
<path d="M124.1513 53.5924
L123.8180 53.1162
" />
<path d="M123.5799 53.5924
L123.5799 52.5924
" />
<path d="M123.5799 52.5924
L123.9608 52.5924
" />
<path d="M123.9608 52.5924
L124.0561 52.6400
" />
<path d="M124.0561 52.6400
L124.1037 52.6876
" />
<path d="M124.1037 52.6876
L124.1513 52.7829
" />
<path d="M124.1513 52.7829
L124.1513 52.9257
" />
<path d="M124.1513 52.9257
L124.1037 53.0210
" />
<path d="M124.1037 53.0210
L124.0561 53.0686
" />
<path d="M124.0561 53.0686
L123.9608 53.1162
" />
<path d="M123.9608 53.1162
L123.5799 53.1162
" />
</g><text x="123.8418" y="42.5250"
textLength="1.0321" font-size="1.3333" lengthAdjust="spacingAndGlyphs"
text-anchor="middle" opacity="0">A</text>
<g class="stroked-text"><desc>A</desc>
<path d="M123.6037 42.1067
L124.0799 42.1067
" />
<path d="M123.5084 42.3924
L123.8418 41.3924
" />
<path d="M123.8418 41.3924
L124.1751 42.3924
" />
</g><g transform="rotate(-90.000000 136.5792 40.4876)">
<text x="136.5792" y="40.9876"
textLength="2.0798" font-size="1.3333" lengthAdjust="spacingAndGlyphs"
text-anchor="middle" opacity="0">15</text>
</g>
<g class="stroked-text"><desc>15</desc>
<path d="M136.9465 40.6781
L136.9465 41.2495
" />
<path d="M136.9465 40.9638
L135.9465 40.9638
" />
<path d="M135.9465 40.9638
L136.0894 41.0590
" />
<path d="M136.0894 41.0590
L136.1846 41.1543
" />
<path d="M136.1846 41.1543
L136.2323 41.2495
" />
<path d="M135.9465 39.7733
L135.9465 40.2495
" />
<path d="M135.9465 40.2495
L136.4227 40.2971
" />
<path d="M136.4227 40.2971
L136.3751 40.2495
" />
<path d="M136.3751 40.2495
L136.3275 40.1543
" />
<path d="M136.3275 40.1543
L136.3275 39.9162
" />
<path d="M136.3275 39.9162
L136.3751 39.8209
" />
<path d="M136.3751 39.8209
L136.4227 39.7733
" />
<path d="M136.4227 39.7733
L136.5180 39.7257
" />
<path d="M136.5180 39.7257
L136.7561 39.7257
" />
<path d="M136.7561 39.7257
L136.8513 39.7733
" />
<path d="M136.8513 39.7733
L136.8989 39.8209
" />
<path d="M136.8989 39.8209
L136.9465 39.9162
" />
<path d="M136.9465 39.9162
L136.9465 40.1543
" />
<path d="M136.9465 40.1543
L136.8989 40.2495
" />
<path d="M136.8989 40.2495
L136.8513 40.2971
" />
</g></g>
<g style="fill:#E8B2A7; fill-opacity:0.0; 
stroke:#E8B2A7; stroke-width:0.1200; stroke-opacity:1; 
stroke-linecap:round; stroke-linejoin:round;">
<circle cx="212.2381" cy="127.0807" r="0.3810" /> 
<circle cx="222.6086" cy="127.9242" r="0.3810" /> 
</g>
<g style="fill:#E8B2A7; fill-opacity:0.0; 
stroke:#E8B2A7; stroke-width:0.1500; stroke-opacity:1; 
stroke-linecap:round; stroke-linejoin:round;">
<path d="M213.9842 80.7850
L208.7842 80.7850
" />
<path d="M213.9842 70.5050
L213.9842 80.7850
" />
<path d="M213.9842 70.5050
L211.3842 70.5050
" />
<path d="M211.3842 73.1050
L208.7842 73.1050
" />
<path d="M211.3842 70.5050
L211.3842 73.1050
" />
<path d="M210.1142 70.5050
L208.7842 70.5050
" />
<path d="M208.7842 73.1050
L208.7842 80.7850
" />
<path d="M208.7842 70.5050
L208.7842 71.8350
" />
<path d="M211.8042 41.1400
L211.1617 41.1400
" />
<path d="M211.8042 34.6700
L211.8042 41.1400
" />
<path d="M211.8042 34.6700
L211.1617 34.6700
" />
<path d="M210.5466 41.1400
L209.8917 41.1400
" />
<path d="M210.5466 34.6700
L210.3442 34.6700
" />
<path d="M209.5842 34.6050
L208.6342 34.6050
" />
<path d="M209.2766 41.1400
L208.6342 41.1400
" />
<path d="M208.8242 36.0000
L208.6342 36.0000
" />
<path d="M208.6342 36.0000
L208.6342 41.1400
" />
<path d="M208.6342 34.6050
L208.6342 35.3650
" />
<g >
</g>
<g >
</g>
<g >
</g>
<g >
</g>
<g >
</g>
<g >
</g>
<g >
</g>
<g >
</g>
<g >
</g>
<g >
</g>
<g >
</g>
<g >
</g>
<g >
</g>
<g >
</g>
<g >
</g>
<g >
</g>
<g >
</g>
<g >
</g>
<g >
</g>
<g >
</g>
<g >
</g>
<g >
</g>
<g >
</g>
<g >
</g>
<g >
</g>
<g >
</g>
<g >
</g>
<g >
</g>
<g >
</g>
<g >
</g>
<g >
</g>
<g >
</g>
<g >
</g>
<g >
</g>
<g >
</g>
<g >
</g>
<g >
</g>
<g >
</g>
<g >
</g>
<g >
</g>
<g >
</g>
<g >
</g>
<g >
</g>
<g >
</g>
<g >
</g>
<g >
</g>
<g >
</g>
<g >
</g>
<g >
</g>
<g >
</g>
<g >
</g>
<g >
</g>
<g >
</g>
<g >
</g>
<g >
</g>
<g >
</g>
<g >
</g>
<g >
</g>
<g >
</g>
<g >
</g>
<g >
</g>
<g >
</g>
<g >
</g>
<g >
</g>
<g >
</g>
<g >
</g>
<g >
</g>
<g >
</g>
<g >
</g>
<g >
</g>
<g >
</g>
<g >
</g>
<g >
</g>
<g >
</g>
<g >
</g>
<g >
</g>
<g >
</g>
<g >
</g>
<g >
</g>
<g >
</g>
<g >
</g>
<g >
</g>
<g >
</g>
<g >
</g>
<g >
</g>
<g >
</g>
<g >
</g>
<g >
</g>
<g >
</g>
<g >
</g>
<g >
</g>
<g >
</g>
<g >
</g>
<g >
</g>
<g >
</g>
<g >
</g>
<g >
</g>
<g >
</g>
<g >
</g>
<g >
</g>
<g >
</g>
<g >
</g>
<g >
</g>
<g >
</g>
<g >
</g>
<g >
</g>
<g >
</g>
<g >
</g>
<g >
</g>
<g >
</g>
<g >
</g>
<g >
</g>
<g >
</g>
<g >
</g>
<g >
</g>
<g >
</g>
<g >
</g>
<g >
</g>
<g >
</g>
<g >
</g>
<g >
</g>
<g >
</g>
<g >
</g>
<g >
</g>
<g >
</g>
<g >
</g>
<g >
</g>
<g >
</g>
<g >
</g>
<g >
</g>
<g >
</g>
<g >
</g>
<g >
</g>
<g >
</g>
<g >
</g>
<g >
</g>
<g >
</g>
<g >
</g>
<g >
</g>
<g >
</g>
<g >
</g>
<g >
</g>
<g >
</g>
<g >
</g>
<g >
</g>
<g >
</g>
<g >
</g>
<g >
</g>
<g >
</g>
<g >
</g>
<g >
</g>
<g >
</g>
<g >
</g>
<g >
</g>
<g >
</g>
<g >
</g>
<g >
</g>
<g >
</g>
<g >
</g>
<g >
</g>
<g >
</g>
<g >
</g>
<g >
</g>
<g >
</g>
<g >
</g>
<g >
</g>
<g >
</g>
</g>
<g style="fill:#000000; fill-opacity:0.0; 
stroke:#000000; stroke-width:0.1500; stroke-opacity:1; 
stroke-linecap:round; stroke-linejoin:round;">
</g>
<g style="fill:#D0D2CD; fill-opacity:0.0; 
stroke:#D0D2CD; stroke-width:0.1500; stroke-opacity:1; 
stroke-linecap:round; stroke-linejoin:round;">
</g>
<g style="fill:#D0D2CD; fill-opacity:0.0; 
stroke:#D0D2CD; stroke-width:0.1000; stroke-opacity:1; 
stroke-linecap:round; stroke-linejoin:round;">
<path d="M185.2042 8.6250
L186.0542 8.6250
" />
<path d="M186.0542 8.6250
L186.0542 9.7250
" />
<path d="M186.0542 10.1250
L186.0542 11.2250
" />
<path d="M186.0542 11.6250
L186.0542 12.7250
" />
<path d="M186.0542 13.1250
L186.0542 14.2250
" />
<path d="M186.0542 14.6250
L186.0542 15.7250
" />
<path d="M186.0542 16.1250
L186.0542 17.2250
" />
<path d="M186.0542 17.6250
L186.0542 18.7250
" />
<path d="M186.0542 19.1250
L186.0542 19.1750
" />
<path d="M186.0542 19.1750
L185.2042 19.1750
" />
<path d="M185.2042 19.1750
L185.2042 18.0750
" />
<path d="M185.2042 17.6750
L185.2042 16.5750
" />
<path d="M185.2042 16.1750
L185.2042 15.0750
" />
<path d="M185.2042 14.6750
L185.2042 13.5750
" />
<path d="M185.2042 13.1750
L185.2042 12.0750
" />
<path d="M185.2042 11.6750
L185.2042 10.5750
" />
<path d="M185.2042 10.1750
L185.2042 9.0750
" />
<path d="M185.2042 8.6750
L185.2042 8.6250
" />
<path d="M74.9542 8.2250
L75.8042 8.2250
" />
<path d="M75.8042 8.2250
L75.8042 9.3250
" />
<path d="M75.8042 9.7250
L75.8042 10.8250
" />
<path d="M75.8042 11.2250
L75.8042 12.3250
" />
<path d="M75.8042 12.7250
L75.8042 13.8250
" />
<path d="M75.8042 14.2250
L75.8042 15.3250
" />
<path d="M75.8042 15.7250
L75.8042 16.8250
" />
<path d="M75.8042 17.2250
L75.8042 18.3250
" />
<path d="M75.8042 18.7250
L75.8042 19.8250
" />
<path d="M75.8042 20.2250
L75.8042 21.3250
" />
<path d="M75.8042 21.7250
L75.8042 22.8250
" />
<path d="M75.8042 23.2250
L75.8042 24.3250
" />
<path d="M75.8042 24.7250
L75.8042 25.8250
" />
<path d="M75.8042 26.2250
L75.8042 27.3250
" />
<path d="M75.8042 27.7250
L75.8042 28.8250
" />
<path d="M75.8042 29.2250
L75.8042 30.3250
" />
<path d="M75.8042 30.7250
L75.8042 31.8250
" />
<path d="M75.8042 32.2250
L75.8042 33.3250
" />
<path d="M75.8042 33.7250
L75.8042 34.8250
" />
<path d="M75.8042 35.2250
L75.8042 36.3250
" />
<path d="M75.8042 36.7250
L75.8042 37.8250
" />
<path d="M75.8042 38.2250
L75.8042 39.3250
" />
<path d="M75.8042 39.7250
L75.8042 40.8250
" />
<path d="M75.8042 41.2250
L75.8042 42.3250
" />
<path d="M75.8042 42.7250
L75.8042 43.8250
" />
<path d="M75.8042 44.2250
L75.8042 45.3250
" />
<path d="M75.8042 45.7250
L75.8042 46.8250
" />
<path d="M75.8042 47.2250
L75.8042 48.3250
" />
<path d="M75.8042 48.7250
L75.8042 49.8250
" />
<path d="M75.8042 50.2250
L75.8042 51.3250
" />
<path d="M75.8042 51.7250
L75.8042 52.8250
" />
<path d="M75.8042 53.2250
L75.8042 54.3250
" />
<path d="M75.8042 54.7250
L75.8042 55.8250
" />
<path d="M75.8042 56.2250
L75.8042 57.3250
" />
<path d="M75.8042 57.7250
L75.8042 58.8250
" />
<path d="M75.8042 59.2250
L75.8042 60.3250
" />
<path d="M75.8042 60.7250
L75.8042 61.8250
" />
<path d="M75.8042 62.2250
L75.8042 63.3250
" />
<path d="M75.8042 63.7250
L75.8042 64.8250
" />
<path d="M75.8042 65.2250
L75.8042 66.3250
" />
<path d="M75.8042 66.7250
L75.8042 67.8250
" />
<path d="M75.8042 68.2250
L75.8042 69.3250
" />
<path d="M75.8042 69.7250
L75.8042 70.8250
" />
<path d="M75.8042 71.2250
L75.8042 72.3250
" />
<path d="M75.8042 72.7250
L75.8042 73.8250
" />
<path d="M75.8042 74.2250
L75.8042 75.3250
" />
<path d="M75.8042 75.7250
L75.8042 76.8250
" />
<path d="M75.8042 77.2250
L75.8042 78.3250
" />
<path d="M75.8042 78.7250
L75.8042 79.8250
" />
<path d="M75.8042 80.2250
L75.8042 81.3250
" />
<path d="M75.8042 81.7250
L75.8042 82.8250
" />
<path d="M75.8042 83.2250
L75.8042 84.3250
" />
<path d="M75.8042 84.7250
L75.8042 85.8250
" />
<path d="M75.8042 86.2250
L75.8042 87.3250
" />
<path d="M75.8042 87.7250
L75.8042 88.8250
" />
<path d="M75.8042 89.2250
L75.8042 90.3250
" />
<path d="M75.8042 90.7250
L75.8042 91.4750
" />
<path d="M75.8042 91.4750
L74.9542 91.4750
" />
<path d="M74.9542 91.4750
L74.9542 90.3750
" />
<path d="M74.9542 89.9750
L74.9542 88.8750
" />
<path d="M74.9542 88.4750
L74.9542 87.3750
" />
<path d="M74.9542 86.9750
L74.9542 85.8750
" />
<path d="M74.9542 85.4750
L74.9542 84.3750
" />
<path d="M74.9542 83.9750
L74.9542 82.8750
" />
<path d="M74.9542 82.4750
L74.9542 81.3750
" />
<path d="M74.9542 80.9750
L74.9542 79.8750
" />
<path d="M74.9542 79.4750
L74.9542 78.3750
" />
<path d="M74.9542 77.9750
L74.9542 76.8750
" />
<path d="M74.9542 76.4750
L74.9542 75.3750
" />
<path d="M74.9542 74.9750
L74.9542 73.8750
" />
<path d="M74.9542 73.4750
L74.9542 72.3750
" />
<path d="M74.9542 71.9750
L74.9542 70.8750
" />
<path d="M74.9542 70.4750
L74.9542 69.3750
" />
<path d="M74.9542 68.9750
L74.9542 67.8750
" />
<path d="M74.9542 67.4750
L74.9542 66.3750
" />
<path d="M74.9542 65.9750
L74.9542 64.8750
" />
<path d="M74.9542 64.4750
L74.9542 63.3750
" />
<path d="M74.9542 62.9750
L74.9542 61.8750
" />
<path d="M74.9542 61.4750
L74.9542 60.3750
" />
<path d="M74.9542 59.9750
L74.9542 58.8750
" />
<path d="M74.9542 58.4750
L74.9542 57.3750
" />
<path d="M74.9542 56.9750
L74.9542 55.8750
" />
<path d="M74.9542 55.4750
L74.9542 54.3750
" />
<path d="M74.9542 53.9750
L74.9542 52.8750
" />
<path d="M74.9542 52.4750
L74.9542 51.3750
" />
<path d="M74.9542 50.9750
L74.9542 49.8750
" />
<path d="M74.9542 49.4750
L74.9542 48.3750
" />
<path d="M74.9542 47.9750
L74.9542 46.8750
" />
<path d="M74.9542 46.4750
L74.9542 45.3750
" />
<path d="M74.9542 44.9750
L74.9542 43.8750
" />
<path d="M74.9542 43.4750
L74.9542 42.3750
" />
<path d="M74.9542 41.9750
L74.9542 40.8750
" />
<path d="M74.9542 40.4750
L74.9542 39.3750
" />
<path d="M74.9542 38.9750
L74.9542 37.8750
" />
<path d="M74.9542 37.4750
L74.9542 36.3750
" />
<path d="M74.9542 35.9750
L74.9542 34.8750
" />
<path d="M74.9542 34.4750
L74.9542 33.3750
" />
<path d="M74.9542 32.9750
L74.9542 31.8750
" />
<path d="M74.9542 31.4750
L74.9542 30.3750
" />
<path d="M74.9542 29.9750
L74.9542 28.8750
" />
<path d="M74.9542 28.4750
L74.9542 27.3750
" />
<path d="M74.9542 26.9750
L74.9542 25.8750
" />
<path d="M74.9542 25.4750
L74.9542 24.3750
" />
<path d="M74.9542 23.9750
L74.9542 22.8750
" />
<path d="M74.9542 22.4750
L74.9542 21.3750
" />
<path d="M74.9542 20.9750
L74.9542 19.8750
" />
<path d="M74.9542 19.4750
L74.9542 18.3750
" />
<path d="M74.9542 17.9750
L74.9542 16.8750
" />
<path d="M74.9542 16.4750
L74.9542 15.3750
" />
<path d="M74.9542 14.9750
L74.9542 13.8750
" />
<path d="M74.9542 13.4750
L74.9542 12.3750
" />
<path d="M74.9542 11.9750
L74.9542 10.8750
" />
<path d="M74.9542 10.4750
L74.9542 9.3750
" />
<path d="M74.9542 8.9750
L74.9542 8.2250
" />
<path d="M185.2042 21.9250
L186.0542 21.9250
" />
<path d="M186.0542 21.9250
L186.0542 23.0250
" />
<path d="M186.0542 23.4250
L186.0542 24.5250
" />
<path d="M186.0542 24.9250
L186.0542 26.0250
" />
<path d="M186.0542 26.4250
L186.0542 27.5250
" />
<path d="M186.0542 27.9250
L186.0542 29.0250
" />
<path d="M186.0542 29.4250
L186.0542 30.5250
" />
<path d="M186.0542 30.9250
L186.0542 32.0250
" />
<path d="M186.0542 32.4250
L186.0542 32.4750
" />
<path d="M186.0542 32.4750
L185.2042 32.4750
" />
<path d="M185.2042 32.4750
L185.2042 31.3750
" />
<path d="M185.2042 30.9750
L185.2042 29.8750
" />
<path d="M185.2042 29.4750
L185.2042 28.3750
" />
<path d="M185.2042 27.9750
L185.2042 26.8750
" />
<path d="M185.2042 26.4750
L185.2042 25.3750
" />
<path d="M185.2042 24.9750
L185.2042 23.8750
" />
<path d="M185.2042 23.4750
L185.2042 22.3750
" />
<path d="M185.2042 21.9750
L185.2042 21.9250
" />
<path d="M87.6542 2.1750
L88.7542 2.1750
" />
<path d="M89.1542 2.1750
L90.2542 2.1750
" />
<path d="M90.6542 2.1750
L91.7542 2.1750
" />
<path d="M92.1542 2.1750
L93.2542 2.1750
" />
<path d="M93.6542 2.1750
L94.7542 2.1750
" />
<path d="M95.1542 2.1750
L96.2542 2.1750
" />
<path d="M96.6542 2.1750
L97.7542 2.1750
" />
<path d="M98.1542 2.1750
L99.2542 2.1750
" />
<path d="M99.6542 2.1750
L100.7542 2.1750
" />
<path d="M101.1542 2.1750
L102.2542 2.1750
" />
<path d="M102.6542 2.1750
L103.7542 2.1750
" />
<path d="M104.1542 2.1750
L105.2542 2.1750
" />
<path d="M105.6542 2.1750
L106.7542 2.1750
" />
<path d="M107.1542 2.1750
L108.2542 2.1750
" />
<path d="M108.6542 2.1750
L109.7542 2.1750
" />
<path d="M110.1542 2.1750
L111.2542 2.1750
" />
<path d="M111.6542 2.1750
L112.7542 2.1750
" />
<path d="M113.1542 2.1750
L114.2542 2.1750
" />
<path d="M114.6542 2.1750
L115.7542 2.1750
" />
<path d="M116.1542 2.1750
L117.2542 2.1750
" />
<path d="M117.6542 2.1750
L118.7542 2.1750
" />
<path d="M119.1542 2.1750
L120.2542 2.1750
" />
<path d="M120.6542 2.1750
L121.7542 2.1750
" />
<path d="M122.1542 2.1750
L123.2542 2.1750
" />
<path d="M123.6542 2.1750
L124.7542 2.1750
" />
<path d="M125.1542 2.1750
L126.2542 2.1750
" />
<path d="M126.6542 2.1750
L127.7542 2.1750
" />
<path d="M128.1542 2.1750
L129.2542 2.1750
" />
<path d="M129.6542 2.1750
L130.7542 2.1750
" />
<path d="M131.1542 2.1750
L132.2542 2.1750
" />
<path d="M132.6542 2.1750
L133.7542 2.1750
" />
<path d="M134.1542 2.1750
L135.2542 2.1750
" />
<path d="M135.6542 2.1750
L136.7542 2.1750
" />
<path d="M137.1542 2.1750
L138.2542 2.1750
" />
<path d="M138.6542 2.1750
L139.7542 2.1750
" />
<path d="M140.1542 2.1750
L141.2542 2.1750
" />
<path d="M141.6542 2.1750
L142.7542 2.1750
" />
<path d="M143.1542 2.1750
L144.2542 2.1750
" />
<path d="M144.6542 2.1750
L145.7542 2.1750
" />
<path d="M146.1542 2.1750
L147.2542 2.1750
" />
<path d="M147.6542 2.1750
L148.7542 2.1750
" />
<path d="M149.1542 2.1750
L150.2542 2.1750
" />
<path d="M150.6542 2.1750
L151.7542 2.1750
" />
<path d="M152.1542 2.1750
L153.2542 2.1750
" />
<path d="M153.6542 2.1750
L154.7542 2.1750
" />
<path d="M155.1542 2.1750
L156.2542 2.1750
" />
<path d="M156.6542 2.1750
L157.7542 2.1750
" />
<path d="M158.1542 2.1750
L159.2542 2.1750
" />
<path d="M159.6542 2.1750
L160.7542 2.1750
" />
<path d="M161.1542 2.1750
L162.2542 2.1750
" />
<path d="M162.6542 2.1750
L163.7542 2.1750
" />
<path d="M164.1542 2.1750
L165.2542 2.1750
" />
<path d="M165.6542 2.1750
L166.7542 2.1750
" />
<path d="M167.1542 2.1750
L168.2542 2.1750
" />
<path d="M168.6542 2.1750
L169.7542 2.1750
" />
<path d="M170.1542 2.1750
L170.9042 2.1750
" />
<path d="M170.9042 2.1750
L170.9042 3.0250
" />
<path d="M170.9042 3.0250
L169.8042 3.0250
" />
<path d="M169.4042 3.0250
L168.3042 3.0250
" />
<path d="M167.9042 3.0250
L166.8042 3.0250
" />
<path d="M166.4042 3.0250
L165.3042 3.0250
" />
<path d="M164.9042 3.0250
L163.8042 3.0250
" />
<path d="M163.4042 3.0250
L162.3042 3.0250
" />
<path d="M161.9042 3.0250
L160.8042 3.0250
" />
<path d="M160.4042 3.0250
L159.3042 3.0250
" />
<path d="M158.9042 3.0250
L157.8042 3.0250
" />
<path d="M157.4042 3.0250
L156.3042 3.0250
" />
<path d="M155.9042 3.0250
L154.8042 3.0250
" />
<path d="M154.4042 3.0250
L153.3042 3.0250
" />
<path d="M152.9042 3.0250
L151.8042 3.0250
" />
<path d="M151.4042 3.0250
L150.3042 3.0250
" />
<path d="M149.9042 3.0250
L148.8042 3.0250
" />
<path d="M148.4042 3.0250
L147.3042 3.0250
" />
<path d="M146.9042 3.0250
L145.8042 3.0250
" />
<path d="M145.4042 3.0250
L144.3042 3.0250
" />
<path d="M143.9042 3.0250
L142.8042 3.0250
" />
<path d="M142.4042 3.0250
L141.3042 3.0250
" />
<path d="M140.9042 3.0250
L139.8042 3.0250
" />
<path d="M139.4042 3.0250
L138.3042 3.0250
" />
<path d="M137.9042 3.0250
L136.8042 3.0250
" />
<path d="M136.4042 3.0250
L135.3042 3.0250
" />
<path d="M134.9042 3.0250
L133.8042 3.0250
" />
<path d="M133.4042 3.0250
L132.3042 3.0250
" />
<path d="M131.9042 3.0250
L130.8042 3.0250
" />
<path d="M130.4042 3.0250
L129.3042 3.0250
" />
<path d="M128.9042 3.0250
L127.8042 3.0250
" />
<path d="M127.4042 3.0250
L126.3042 3.0250
" />
<path d="M125.9042 3.0250
L124.8042 3.0250
" />
<path d="M124.4042 3.0250
L123.3042 3.0250
" />
<path d="M122.9042 3.0250
L121.8042 3.0250
" />
<path d="M121.4042 3.0250
L120.3042 3.0250
" />
<path d="M119.9042 3.0250
L118.8042 3.0250
" />
<path d="M118.4042 3.0250
L117.3042 3.0250
" />
<path d="M116.9042 3.0250
L115.8042 3.0250
" />
<path d="M115.4042 3.0250
L114.3042 3.0250
" />
<path d="M113.9042 3.0250
L112.8042 3.0250
" />
<path d="M112.4042 3.0250
L111.3042 3.0250
" />
<path d="M110.9042 3.0250
L109.8042 3.0250
" />
<path d="M109.4042 3.0250
L108.3042 3.0250
" />
<path d="M107.9042 3.0250
L106.8042 3.0250
" />
<path d="M106.4042 3.0250
L105.3042 3.0250
" />
<path d="M104.9042 3.0250
L103.8042 3.0250
" />
<path d="M103.4042 3.0250
L102.3042 3.0250
" />
<path d="M101.9042 3.0250
L100.8042 3.0250
" />
<path d="M100.4042 3.0250
L99.3042 3.0250
" />
<path d="M98.9042 3.0250
L97.8042 3.0250
" />
<path d="M97.4042 3.0250
L96.3042 3.0250
" />
<path d="M95.9042 3.0250
L94.8042 3.0250
" />
<path d="M94.4042 3.0250
L93.3042 3.0250
" />
<path d="M92.9042 3.0250
L91.8042 3.0250
" />
<path d="M91.4042 3.0250
L90.3042 3.0250
" />
<path d="M89.9042 3.0250
L88.8042 3.0250
" />
<path d="M88.4042 3.0250
L87.6542 3.0250
" />
<path d="M87.6542 3.0250
L87.6542 2.1750
" />
<path d="M233.2542 8.6750
L234.3542 8.6750
" />
<path d="M234.5542 8.6750
L234.5542 9.7750
" />
<path d="M234.5542 10.1750
L234.5542 11.2750
" />
<path d="M234.5542 11.6750
L234.5542 12.7750
" />
<path d="M234.5542 13.1750
L234.5542 14.2750
" />
<path d="M234.5542 14.6750
L234.5542 15.7750
" />
<path d="M234.5542 16.1750
L234.5542 17.2750
" />
<path d="M234.5542 17.6750
L234.5542 18.7750
" />
<path d="M234.5542 19.1750
L234.5542 20.2750
" />
<path d="M234.5542 20.6750
L234.5542 21.7750
" />
<path d="M234.5542 22.1750
L234.5542 23.2750
" />
<path d="M234.5542 23.6750
L234.5542 24.7750
" />
<path d="M234.5542 25.1750
L234.5542 26.2750
" />
<path d="M234.5542 26.6750
L234.5542 27.7750
" />
<path d="M234.5542 28.1750
L234.5542 29.2750
" />
<path d="M234.5542 29.6750
L234.5542 30.7750
" />
<path d="M234.5542 31.1750
L234.5542 32.2750
" />
<path d="M234.5542 32.6750
L234.5542 33.7750
" />
<path d="M234.5542 34.1750
L234.5542 35.2750
" />
<path d="M234.5542 35.6750
L234.5542 36.7750
" />
<path d="M234.5542 37.1750
L234.5542 38.2750
" />
<path d="M234.5542 38.6750
L234.5542 39.7750
" />
<path d="M234.5542 40.1750
L234.5542 41.2750
" />
<path d="M234.5542 41.6750
L234.5542 42.7750
" />
<path d="M234.5542 43.1750
L234.5542 44.2750
" />
<path d="M234.5542 44.6750
L234.5542 45.7750
" />
<path d="M234.5542 46.1750
L234.5542 47.2750
" />
<path d="M234.5542 47.6750
L234.5542 48.7750
" />
<path d="M234.5542 49.1750
L234.5542 50.2750
" />
<path d="M234.5542 50.6750
L234.5542 51.7750
" />
<path d="M234.5542 52.1750
L234.5542 53.2750
" />
<path d="M234.5542 53.6750
L234.5542 54.7750
" />
<path d="M234.5542 55.1750
L234.5542 56.2750
" />
<path d="M234.5542 56.6750
L234.5542 57.7750
" />
<path d="M234.5542 58.1750
L234.5542 59.2750
" />
<path d="M234.5542 59.6750
L234.5542 60.7750
" />
<path d="M234.5542 61.1750
L234.5542 62.2750
" />
<path d="M234.5542 62.6750
L234.5542 63.7750
" />
<path d="M234.5542 64.1750
L234.5542 65.2750
" />
<path d="M234.5542 65.6750
L234.5542 66.7750
" />
<path d="M234.5542 67.1750
L234.5542 68.2750
" />
<path d="M234.5542 68.6750
L234.5542 69.7750
" />
<path d="M234.5542 70.1750
L234.5542 71.2750
" />
<path d="M234.5542 71.6750
L234.5542 72.7750
" />
<path d="M234.5542 73.1750
L234.5542 74.2750
" />
<path d="M234.5542 74.6750
L234.5542 75.7750
" />
<path d="M234.5542 76.1750
L234.5542 77.2750
" />
<path d="M234.5542 77.6750
L234.5542 78.7750
" />
<path d="M234.5542 79.1750
L234.5542 80.2750
" />
<path d="M234.5542 80.6750
L234.5542 81.7750
" />
<path d="M234.5542 82.1750
L234.5542 83.2750
" />
<path d="M234.5542 83.6750
L234.5542 84.7750
" />
<path d="M234.5542 85.1750
L234.5542 86.2750
" />
<path d="M234.5542 86.6750
L234.5542 87.7750
" />
<path d="M234.5542 88.1750
L234.5542 89.2750
" />
<path d="M234.5542 89.6750
L234.5542 90.7750
" />
<path d="M234.5542 91.1750
L234.5542 92.2750
" />
<path d="M234.5542 92.6750
L234.5542 93.7750
" />
<path d="M234.5542 94.1750
L234.5542 94.5750
" />
<path d="M234.5542 94.5750
L233.4542 94.5750
" />
<path d="M233.2542 94.5750
L233.2542 93.4750
" />
<path d="M233.2542 93.0750
L233.2542 91.9750
" />
<path d="M233.2542 91.5750
L233.2542 90.4750
" />
<path d="M233.2542 90.0750
L233.2542 88.9750
" />
<path d="M233.2542 88.5750
L233.2542 87.4750
" />
<path d="M233.2542 87.0750
L233.2542 85.9750
" />
<path d="M233.2542 85.5750
L233.2542 84.4750
" />
<path d="M233.2542 84.0750
L233.2542 82.9750
" />
<path d="M233.2542 82.5750
L233.2542 81.4750
" />
<path d="M233.2542 81.0750
L233.2542 79.9750
" />
<path d="M233.2542 79.5750
L233.2542 78.4750
" />
<path d="M233.2542 78.0750
L233.2542 76.9750
" />
<path d="M233.2542 76.5750
L233.2542 75.4750
" />
<path d="M233.2542 75.0750
L233.2542 73.9750
" />
<path d="M233.2542 73.5750
L233.2542 72.4750
" />
<path d="M233.2542 72.0750
L233.2542 70.9750
" />
<path d="M233.2542 70.5750
L233.2542 69.4750
" />
<path d="M233.2542 69.0750
L233.2542 67.9750
" />
<path d="M233.2542 67.5750
L233.2542 66.4750
" />
<path d="M233.2542 66.0750
L233.2542 64.9750
" />
<path d="M233.2542 64.5750
L233.2542 63.4750
" />
<path d="M233.2542 63.0750
L233.2542 61.9750
" />
<path d="M233.2542 61.5750
L233.2542 60.4750
" />
<path d="M233.2542 60.0750
L233.2542 58.9750
" />
<path d="M233.2542 58.5750
L233.2542 57.4750
" />
<path d="M233.2542 57.0750
L233.2542 55.9750
" />
<path d="M233.2542 55.5750
L233.2542 54.4750
" />
<path d="M233.2542 54.0750
L233.2542 52.9750
" />
<path d="M233.2542 52.5750
L233.2542 51.4750
" />
<path d="M233.2542 51.0750
L233.2542 49.9750
" />
<path d="M233.2542 49.5750
L233.2542 48.4750
" />
<path d="M233.2542 48.0750
L233.2542 46.9750
" />
<path d="M233.2542 46.5750
L233.2542 45.4750
" />
<path d="M233.2542 45.0750
L233.2542 43.9750
" />
<path d="M233.2542 43.5750
L233.2542 42.4750
" />
<path d="M233.2542 42.0750
L233.2542 40.9750
" />
<path d="M233.2542 40.5750
L233.2542 39.4750
" />
<path d="M233.2542 39.0750
L233.2542 37.9750
" />
<path d="M233.2542 37.5750
L233.2542 36.4750
" />
<path d="M233.2542 36.0750
L233.2542 34.9750
" />
<path d="M233.2542 34.5750
L233.2542 33.4750
" />
<path d="M233.2542 33.0750
L233.2542 31.9750
" />
<path d="M233.2542 31.5750
L233.2542 30.4750
" />
<path d="M233.2542 30.0750
L233.2542 28.9750
" />
<path d="M233.2542 28.5750
L233.2542 27.4750
" />
<path d="M233.2542 27.0750
L233.2542 25.9750
" />
<path d="M233.2542 25.5750
L233.2542 24.4750
" />
<path d="M233.2542 24.0750
L233.2542 22.9750
" />
<path d="M233.2542 22.5750
L233.2542 21.4750
" />
<path d="M233.2542 21.0750
L233.2542 19.9750
" />
<path d="M233.2542 19.5750
L233.2542 18.4750
" />
<path d="M233.2542 18.0750
L233.2542 16.9750
" />
<path d="M233.2542 16.5750
L233.2542 15.4750
" />
<path d="M233.2542 15.0750
L233.2542 13.9750
" />
<path d="M233.2542 13.5750
L233.2542 12.4750
" />
<path d="M233.2542 12.0750
L233.2542 10.9750
" />
<path d="M233.2542 10.5750
L233.2542 9.4750
" />
<path d="M233.2542 9.0750
L233.2542 8.6750
" />
<path d="M7.4542 2.1750
L236.5542 2.1750
" />
<path d="M236.5542 2.1750
L236.5542 196.6750
" />
<path d="M236.5542 196.6750
L7.4542 196.6750
" />
<path d="M7.4542 196.6750
L7.4542 2.1750
" />
<path d="M185.3042 81.3250
L186.1542 81.3250
" />
<path d="M186.1542 81.3250
L186.1542 82.4250
" />
<path d="M186.1542 82.8250
L186.1542 83.9250
" />
<path d="M186.1542 84.3250
L186.1542 85.4250
" />
<path d="M186.1542 85.8250
L186.1542 86.9250
" />
<path d="M186.1542 87.3250
L186.1542 88.4250
" />
<path d="M186.1542 88.8250
L186.1542 89.9250
" />
<path d="M186.1542 90.3250
L186.1542 91.4250
" />
<path d="M186.1542 91.8250
L186.1542 91.8750
" />
<path d="M186.1542 91.8750
L185.3042 91.8750
" />
<path d="M185.3042 91.8750
L185.3042 90.7750
" />
<path d="M185.3042 90.3750
L185.3042 89.2750
" />
<path d="M185.3042 88.8750
L185.3042 87.7750
" />
<path d="M185.3042 87.3750
L185.3042 86.2750
" />
<path d="M185.3042 85.8750
L185.3042 84.7750
" />
<path d="M185.3042 84.3750
L185.3042 83.2750
" />
<path d="M185.3042 82.8750
L185.3042 81.7750
" />
<path d="M185.3042 81.3750
L185.3042 81.3250
" />
<path d="M186.0542 93.6750
L187.1542 93.6750
" />
<path d="M187.5542 93.6750
L188.6542 93.6750
" />
<path d="M189.0542 93.6750
L190.1542 93.6750
" />
<path d="M190.5542 93.6750
L191.6542 93.6750
" />
<path d="M192.0542 93.6750
L193.1542 93.6750
" />
<path d="M193.5542 93.6750
L194.6542 93.6750
" />
<path d="M195.0542 93.6750
L196.1542 93.6750
" />
<path d="M196.5542 93.6750
L197.6542 93.6750
" />
<path d="M198.0542 93.6750
L199.1542 93.6750
" />
<path d="M199.5542 93.6750
L200.6542 93.6750
" />
<path d="M201.0542 93.6750
L202.1542 93.6750
" />
<path d="M202.5542 93.6750
L203.6542 93.6750
" />
<path d="M204.0542 93.6750
L205.1542 93.6750
" />
<path d="M205.5542 93.6750
L206.6542 93.6750
" />
<path d="M207.0542 93.6750
L208.1542 93.6750
" />
<path d="M208.5542 93.6750
L209.6542 93.6750
" />
<path d="M210.0542 93.6750
L211.1542 93.6750
" />
<path d="M211.5542 93.6750
L212.6542 93.6750
" />
<path d="M213.0542 93.6750
L214.1542 93.6750
" />
<path d="M214.5542 93.6750
L215.6542 93.6750
" />
<path d="M216.0542 93.6750
L217.1542 93.6750
" />
<path d="M217.5542 93.6750
L218.6542 93.6750
" />
<path d="M219.0542 93.6750
L220.1542 93.6750
" />
<path d="M220.5542 93.6750
L221.6542 93.6750
" />
<path d="M222.0542 93.6750
L223.1542 93.6750
" />
<path d="M223.5542 93.6750
L224.6542 93.6750
" />
<path d="M225.0542 93.6750
L226.1542 93.6750
" />
<path d="M226.5542 93.6750
L227.6542 93.6750
" />
<path d="M228.0542 93.6750
L229.1542 93.6750
" />
</g>
<g style="fill:#D0D2CD; fill-opacity:1.0000; 
stroke:#D0D2CD; stroke-width:0.0000; stroke-opacity:1; 
stroke-linecap:round; stroke-linejoin:round;">
<circle cx="229.5542" cy="93.6750" r="0.0500" /> 
</g>
<g style="fill:#D0D2CD; fill-opacity:1.0000; 
stroke:#D0D2CD; stroke-width:0.1000; stroke-opacity:1; 
stroke-linecap:round; stroke-linejoin:round;">
</g>
<g style="fill:#D0D2CD; fill-opacity:0.0; 
stroke:#D0D2CD; stroke-width:0.1000; stroke-opacity:1; 
stroke-linecap:round; stroke-linejoin:round;">
<path d="M229.5542 93.6750
L229.5542 94.7750
" />
<path d="M229.5542 94.7750
L228.4542 94.7750
" />
<path d="M228.0542 94.7750
L226.9542 94.7750
" />
<path d="M226.5542 94.7750
L225.4542 94.7750
" />
<path d="M225.0542 94.7750
L223.9542 94.7750
" />
<path d="M223.5542 94.7750
L222.4542 94.7750
" />
<path d="M222.0542 94.7750
L220.9542 94.7750
" />
<path d="M220.5542 94.7750
L219.4542 94.7750
" />
<path d="M219.0542 94.7750
L217.9542 94.7750
" />
<path d="M217.5542 94.7750
L216.4542 94.7750
" />
<path d="M216.0542 94.7750
L214.9542 94.7750
" />
<path d="M214.5542 94.7750
L213.4542 94.7750
" />
<path d="M213.0542 94.7750
L211.9542 94.7750
" />
<path d="M211.5542 94.7750
L210.4542 94.7750
" />
<path d="M210.0542 94.7750
L208.9542 94.7750
" />
<path d="M208.5542 94.7750
L207.4542 94.7750
" />
<path d="M207.0542 94.7750
L205.9542 94.7750
" />
<path d="M205.5542 94.7750
L204.4542 94.7750
" />
<path d="M204.0542 94.7750
L202.9542 94.7750
" />
<path d="M202.5542 94.7750
L201.4542 94.7750
" />
<path d="M201.0542 94.7750
L199.9542 94.7750
" />
<path d="M199.5542 94.7750
L198.4542 94.7750
" />
<path d="M198.0542 94.7750
L196.9542 94.7750
" />
<path d="M196.5542 94.7750
L195.4542 94.7750
" />
<path d="M195.0542 94.7750
L193.9542 94.7750
" />
<path d="M193.5542 94.7750
L192.4542 94.7750
" />
<path d="M192.0542 94.7750
L190.9542 94.7750
" />
<path d="M190.5542 94.7750
L189.4542 94.7750
" />
<path d="M189.0542 94.7750
L187.9542 94.7750
" />
<path d="M187.5542 94.7750
L186.4542 94.7750
" />
</g>
<g style="fill:#D0D2CD; fill-opacity:1.0000; 
stroke:#D0D2CD; stroke-width:0.0000; stroke-opacity:1; 
stroke-linecap:round; stroke-linejoin:round;">
<circle cx="186.0542" cy="94.7750" r="0.0500" /> 
</g>
<g style="fill:#D0D2CD; fill-opacity:1.0000; 
stroke:#D0D2CD; stroke-width:0.1000; stroke-opacity:1; 
stroke-linecap:round; stroke-linejoin:round;">
</g>
<g style="fill:#D0D2CD; fill-opacity:0.0; 
stroke:#D0D2CD; stroke-width:0.1000; stroke-opacity:1; 
stroke-linecap:round; stroke-linejoin:round;">
<path d="M186.0542 94.7750
L186.0542 93.6750
" />
<path d="M185.2042 34.2250
L186.0542 34.2250
" />
<path d="M186.0542 34.2250
L186.0542 35.3250
" />
<path d="M186.0542 35.7250
L186.0542 36.8250
" />
<path d="M186.0542 37.2250
L186.0542 38.3250
" />
<path d="M186.0542 38.7250
L186.0542 39.8250
" />
<path d="M186.0542 40.2250
L186.0542 41.3250
" />
<path d="M186.0542 41.7250
L186.0542 42.8250
" />
<path d="M186.0542 43.2250
L186.0542 44.3250
" />
<path d="M186.0542 44.7250
L186.0542 44.7750
" />
<path d="M186.0542 44.7750
L185.2042 44.7750
" />
<path d="M185.2042 44.7750
L185.2042 43.6750
" />
<path d="M185.2042 43.2750
L185.2042 42.1750
" />
<path d="M185.2042 41.7750
L185.2042 40.6750
" />
<path d="M185.2042 40.2750
L185.2042 39.1750
" />
<path d="M185.2042 38.7750
L185.2042 37.6750
" />
<path d="M185.2042 37.2750
L185.2042 36.1750
" />
<path d="M185.2042 35.7750
L185.2042 34.6750
" />
<path d="M185.2042 34.2750
L185.2042 34.2250
" />
<path d="M88.3042 94.4250
L89.4042 94.4250
" />
<path d="M89.8042 94.4250
L90.9042 94.4250
" />
<path d="M91.3042 94.4250
L92.4042 94.4250
" />
<path d="M92.8042 94.4250
L93.9042 94.4250
" />
<path d="M94.3042 94.4250
L95.4042 94.4250
" />
<path d="M95.8042 94.4250
L96.9042 94.4250
" />
<path d="M97.3042 94.4250
L98.4042 94.4250
" />
<path d="M98.8042 94.4250
L99.9042 94.4250
" />
<path d="M100.3042 94.4250
L101.4042 94.4250
" />
<path d="M101.8042 94.4250
L102.9042 94.4250
" />
<path d="M103.3042 94.4250
L104.4042 94.4250
" />
<path d="M104.8042 94.4250
L105.9042 94.4250
" />
<path d="M106.3042 94.4250
L107.4042 94.4250
" />
<path d="M107.8042 94.4250
L108.9042 94.4250
" />
<path d="M109.3042 94.4250
L110.4042 94.4250
" />
<path d="M110.8042 94.4250
L111.9042 94.4250
" />
<path d="M112.3042 94.4250
L113.4042 94.4250
" />
<path d="M113.8042 94.4250
L114.9042 94.4250
" />
<path d="M115.3042 94.4250
L116.4042 94.4250
" />
<path d="M116.8042 94.4250
L117.9042 94.4250
" />
<path d="M118.3042 94.4250
L119.4042 94.4250
" />
<path d="M119.8042 94.4250
L120.9042 94.4250
" />
<path d="M121.3042 94.4250
L122.4042 94.4250
" />
<path d="M122.8042 94.4250
L123.9042 94.4250
" />
<path d="M124.3042 94.4250
L125.4042 94.4250
" />
<path d="M125.8042 94.4250
L126.9042 94.4250
" />
<path d="M127.3042 94.4250
L128.4042 94.4250
" />
<path d="M128.8042 94.4250
L129.9042 94.4250
" />
<path d="M130.3042 94.4250
L131.4042 94.4250
" />
<path d="M131.8042 94.4250
L132.9042 94.4250
" />
<path d="M133.3042 94.4250
L134.4042 94.4250
" />
<path d="M134.8042 94.4250
L135.9042 94.4250
" />
<path d="M136.3042 94.4250
L137.4042 94.4250
" />
<path d="M137.8042 94.4250
L138.9042 94.4250
" />
<path d="M139.3042 94.4250
L140.4042 94.4250
" />
<path d="M140.8042 94.4250
L141.9042 94.4250
" />
<path d="M142.3042 94.4250
L143.4042 94.4250
" />
<path d="M143.8042 94.4250
L144.9042 94.4250
" />
<path d="M145.3042 94.4250
L146.4042 94.4250
" />
<path d="M146.8042 94.4250
L147.9042 94.4250
" />
<path d="M148.3042 94.4250
L149.4042 94.4250
" />
<path d="M149.8042 94.4250
L150.9042 94.4250
" />
<path d="M151.3042 94.4250
L152.4042 94.4250
" />
<path d="M152.8042 94.4250
L153.9042 94.4250
" />
<path d="M154.3042 94.4250
L155.4042 94.4250
" />
<path d="M155.8042 94.4250
L156.9042 94.4250
" />
<path d="M157.3042 94.4250
L158.4042 94.4250
" />
<path d="M158.8042 94.4250
L159.9042 94.4250
" />
<path d="M160.3042 94.4250
L161.4042 94.4250
" />
<path d="M161.8042 94.4250
L162.9042 94.4250
" />
<path d="M163.3042 94.4250
L164.4042 94.4250
" />
<path d="M164.8042 94.4250
L165.9042 94.4250
" />
<path d="M166.3042 94.4250
L167.4042 94.4250
" />
<path d="M167.8042 94.4250
L168.9042 94.4250
" />
<path d="M169.3042 94.4250
L170.4042 94.4250
" />
<path d="M170.8042 94.4250
L171.5542 94.4250
" />
<path d="M171.5542 94.4250
L171.5542 95.2750
" />
<path d="M171.5542 95.2750
L170.4542 95.2750
" />
<path d="M170.0542 95.2750
L168.9542 95.2750
" />
<path d="M168.5542 95.2750
L167.4542 95.2750
" />
<path d="M167.0542 95.2750
L165.9542 95.2750
" />
<path d="M165.5542 95.2750
L164.4542 95.2750
" />
<path d="M164.0542 95.2750
L162.9542 95.2750
" />
<path d="M162.5542 95.2750
L161.4542 95.2750
" />
<path d="M161.0542 95.2750
L159.9542 95.2750
" />
<path d="M159.5542 95.2750
L158.4542 95.2750
" />
<path d="M158.0542 95.2750
L156.9542 95.2750
" />
<path d="M156.5542 95.2750
L155.4542 95.2750
" />
<path d="M155.0542 95.2750
L153.9542 95.2750
" />
<path d="M153.5542 95.2750
L152.4542 95.2750
" />
<path d="M152.0542 95.2750
L150.9542 95.2750
" />
<path d="M150.5542 95.2750
L149.4542 95.2750
" />
<path d="M149.0542 95.2750
L147.9542 95.2750
" />
<path d="M147.5542 95.2750
L146.4542 95.2750
" />
<path d="M146.0542 95.2750
L144.9542 95.2750
" />
<path d="M144.5542 95.2750
L143.4542 95.2750
" />
<path d="M143.0542 95.2750
L141.9542 95.2750
" />
<path d="M141.5542 95.2750
L140.4542 95.2750
" />
<path d="M140.0542 95.2750
L138.9542 95.2750
" />
<path d="M138.5542 95.2750
L137.4542 95.2750
" />
<path d="M137.0542 95.2750
L135.9542 95.2750
" />
<path d="M135.5542 95.2750
L134.4542 95.2750
" />
<path d="M134.0542 95.2750
L132.9542 95.2750
" />
<path d="M132.5542 95.2750
L131.4542 95.2750
" />
<path d="M131.0542 95.2750
L129.9542 95.2750
" />
<path d="M129.5542 95.2750
L128.4542 95.2750
" />
<path d="M128.0542 95.2750
L126.9542 95.2750
" />
<path d="M126.5542 95.2750
L125.4542 95.2750
" />
<path d="M125.0542 95.2750
L123.9542 95.2750
" />
<path d="M123.5542 95.2750
L122.4542 95.2750
" />
<path d="M122.0542 95.2750
L120.9542 95.2750
" />
<path d="M120.5542 95.2750
L119.4542 95.2750
" />
<path d="M119.0542 95.2750
L117.9542 95.2750
" />
<path d="M117.5542 95.2750
L116.4542 95.2750
" />
<path d="M116.0542 95.2750
L114.9542 95.2750
" />
<path d="M114.5542 95.2750
L113.4542 95.2750
" />
<path d="M113.0542 95.2750
L111.9542 95.2750
" />
<path d="M111.5542 95.2750
L110.4542 95.2750
" />
<path d="M110.0542 95.2750
L108.9542 95.2750
" />
<path d="M108.5542 95.2750
L107.4542 95.2750
" />
<path d="M107.0542 95.2750
L105.9542 95.2750
" />
<path d="M105.5542 95.2750
L104.4542 95.2750
" />
<path d="M104.0542 95.2750
L102.9542 95.2750
" />
<path d="M102.5542 95.2750
L101.4542 95.2750
" />
<path d="M101.0542 95.2750
L99.9542 95.2750
" />
<path d="M99.5542 95.2750
L98.4542 95.2750
" />
<path d="M98.0542 95.2750
L96.9542 95.2750
" />
<path d="M96.5542 95.2750
L95.4542 95.2750
" />
<path d="M95.0542 95.2750
L93.9542 95.2750
" />
<path d="M93.5542 95.2750
L92.4542 95.2750
" />
<path d="M92.0542 95.2750
L90.9542 95.2750
" />
<path d="M90.5542 95.2750
L89.4542 95.2750
" />
<path d="M89.0542 95.2750
L88.3042 95.2750
" />
<path d="M88.3042 95.2750
L88.3042 94.4250
" />
<path d="M185.2042 69.8250
L186.0542 69.8250
" />
<path d="M186.0542 69.8250
L186.0542 70.9250
" />
<path d="M186.0542 71.3250
L186.0542 72.4250
" />
<path d="M186.0542 72.8250
L186.0542 73.9250
" />
<path d="M186.0542 74.3250
L186.0542 75.4250
" />
<path d="M186.0542 75.8250
L186.0542 76.9250
" />
<path d="M186.0542 77.3250
L186.0542 78.4250
" />
<path d="M186.0542 78.8250
L186.0542 79.9250
" />
<path d="M186.0542 80.3250
L186.0542 80.3750
" />
<path d="M186.0542 80.3750
L185.2042 80.3750
" />
<path d="M185.2042 80.3750
L185.2042 79.2750
" />
<path d="M185.2042 78.8750
L185.2042 77.7750
" />
<path d="M185.2042 77.3750
L185.2042 76.2750
" />
<path d="M185.2042 75.8750
L185.2042 74.7750
" />
<path d="M185.2042 74.3750
L185.2042 73.2750
" />
<path d="M185.2042 72.8750
L185.2042 71.7750
" />
<path d="M185.2042 71.3750
L185.2042 70.2750
" />
<path d="M185.2042 69.8750
L185.2042 69.8250
" />
<path d="M186.9542 8.3750
L188.0542 8.3750
" />
<path d="M188.4542 8.3750
L189.5542 8.3750
" />
<path d="M189.9542 8.3750
L191.0542 8.3750
" />
<path d="M191.4542 8.3750
L192.5542 8.3750
" />
<path d="M192.9542 8.3750
L194.0542 8.3750
" />
<path d="M194.4542 8.3750
L195.5542 8.3750
" />
<path d="M195.9542 8.3750
L197.0542 8.3750
" />
<path d="M197.4542 8.3750
L198.5542 8.3750
" />
<path d="M198.9542 8.3750
L200.0542 8.3750
" />
<path d="M200.4542 8.3750
L201.5542 8.3750
" />
<path d="M201.9542 8.3750
L203.0542 8.3750
" />
<path d="M203.4542 8.3750
L204.5542 8.3750
" />
<path d="M204.9542 8.3750
L206.0542 8.3750
" />
<path d="M206.4542 8.3750
L207.5542 8.3750
" />
<path d="M207.9542 8.3750
L209.0542 8.3750
" />
<path d="M209.4542 8.3750
L210.5542 8.3750
" />
<path d="M210.9542 8.3750
L212.0542 8.3750
" />
<path d="M212.4542 8.3750
L213.5542 8.3750
" />
<path d="M213.9542 8.3750
L215.0542 8.3750
" />
<path d="M215.4542 8.3750
L216.5542 8.3750
" />
<path d="M216.9542 8.3750
L218.0542 8.3750
" />
<path d="M218.4542 8.3750
L219.5542 8.3750
" />
<path d="M219.9542 8.3750
L221.0542 8.3750
" />
<path d="M221.4542 8.3750
L222.5542 8.3750
" />
<path d="M222.9542 8.3750
L224.0542 8.3750
" />
<path d="M224.4542 8.3750
L225.5542 8.3750
" />
<path d="M225.9542 8.3750
L227.0542 8.3750
" />
<path d="M227.4542 8.3750
L228.5542 8.3750
" />
<path d="M228.9542 8.3750
L230.0542 8.3750
" />
</g>
<g style="fill:#D0D2CD; fill-opacity:1.0000; 
stroke:#D0D2CD; stroke-width:0.0000; stroke-opacity:1; 
stroke-linecap:round; stroke-linejoin:round;">
<circle cx="230.4542" cy="8.3750" r="0.0500" /> 
</g>
<g style="fill:#D0D2CD; fill-opacity:1.0000; 
stroke:#D0D2CD; stroke-width:0.1000; stroke-opacity:1; 
stroke-linecap:round; stroke-linejoin:round;">
</g>
<g style="fill:#D0D2CD; fill-opacity:0.0; 
stroke:#D0D2CD; stroke-width:0.1000; stroke-opacity:1; 
stroke-linecap:round; stroke-linejoin:round;">
<path d="M230.4542 8.3750
L230.4542 9.4750
" />
<path d="M230.4542 9.4750
L229.3542 9.4750
" />
<path d="M228.9542 9.4750
L227.8542 9.4750
" />
<path d="M227.4542 9.4750
L226.3542 9.4750
" />
<path d="M225.9542 9.4750
L224.8542 9.4750
" />
<path d="M224.4542 9.4750
L223.3542 9.4750
" />
<path d="M222.9542 9.4750
L221.8542 9.4750
" />
<path d="M221.4542 9.4750
L220.3542 9.4750
" />
<path d="M219.9542 9.4750
L218.8542 9.4750
" />
<path d="M218.4542 9.4750
L217.3542 9.4750
" />
<path d="M216.9542 9.4750
L215.8542 9.4750
" />
<path d="M215.4542 9.4750
L214.3542 9.4750
" />
<path d="M213.9542 9.4750
L212.8542 9.4750
" />
<path d="M212.4542 9.4750
L211.3542 9.4750
" />
<path d="M210.9542 9.4750
L209.8542 9.4750
" />
<path d="M209.4542 9.4750
L208.3542 9.4750
" />
<path d="M207.9542 9.4750
L206.8542 9.4750
" />
<path d="M206.4542 9.4750
L205.3542 9.4750
" />
<path d="M204.9542 9.4750
L203.8542 9.4750
" />
<path d="M203.4542 9.4750
L202.3542 9.4750
" />
<path d="M201.9542 9.4750
L200.8542 9.4750
" />
<path d="M200.4542 9.4750
L199.3542 9.4750
" />
<path d="M198.9542 9.4750
L197.8542 9.4750
" />
<path d="M197.4542 9.4750
L196.3542 9.4750
" />
<path d="M195.9542 9.4750
L194.8542 9.4750
" />
<path d="M194.4542 9.4750
L193.3542 9.4750
" />
<path d="M192.9542 9.4750
L191.8542 9.4750
" />
<path d="M191.4542 9.4750
L190.3542 9.4750
" />
<path d="M189.9542 9.4750
L188.8542 9.4750
" />
<path d="M188.4542 9.4750
L187.3542 9.4750
" />
</g>
<g style="fill:#D0D2CD; fill-opacity:1.0000; 
stroke:#D0D2CD; stroke-width:0.0000; stroke-opacity:1; 
stroke-linecap:round; stroke-linejoin:round;">
<circle cx="186.9542" cy="9.4750" r="0.0500" /> 
</g>
<g style="fill:#D0D2CD; fill-opacity:1.0000; 
stroke:#D0D2CD; stroke-width:0.1000; stroke-opacity:1; 
stroke-linecap:round; stroke-linejoin:round;">
</g>
<g style="fill:#D0D2CD; fill-opacity:0.0; 
stroke:#D0D2CD; stroke-width:0.1000; stroke-opacity:1; 
stroke-linecap:round; stroke-linejoin:round;">
<path d="M186.9542 9.4750
L186.9542 8.3750
" />
<path d="M87.8042 86.0250
L87.8042 93.9250
" />
<path d="M87.8042 93.9250
L88.3042 94.4250
" />
<path d="M88.3042 94.4250
L98.5042 94.4250
" />
<path d="M99.0042 86.9750
L99.0042 93.9250
" />
<path d="M99.0042 93.9250
L98.5042 94.4250
" />
<path d="M100.9042 86.9750
L100.9042 93.9250
" />
<path d="M100.9042 93.9250
L101.4042 94.4250
" />
<path d="M101.4042 94.4250
L171.6042 94.4250
" />
<path d="M172.1042 86.0250
L172.1042 93.9250
" />
<path d="M172.1042 93.9250
L171.6042 94.4250
" />
<path d="M100.9042 86.9750 A0.9500 0.9500 0.0 0 0 99.0042 86.9750" />
<path d="M84.2042 7.7250
L76.3042 7.7250
" />
<path d="M76.3042 7.7250
L75.8042 8.2250
" />
<path d="M75.8042 8.2250
L75.8042 18.4250
" />
<path d="M83.2542 18.9250
L76.3042 18.9250
" />
<path d="M76.3042 18.9250
L75.8042 18.4250
" />
<path d="M83.2542 20.8250
L76.3042 20.8250
" />
<path d="M76.3042 20.8250
L75.8042 21.3250
" />
<path d="M75.8042 21.3250
L75.8042 91.5250
" />
<path d="M84.2042 92.0250
L76.3042 92.0250
" />
<path d="M76.3042 92.0250
L75.8042 91.5250
" />
<path d="M83.2542 20.8250 A0.9500 0.9500 0.0 0 0 83.2542 18.9250" />
<path d="M176.8042 92.4250
L184.7042 92.4250
" />
<path d="M184.7042 92.4250
L185.2042 91.9250
" />
<path d="M185.2042 91.9250
L185.2042 81.7250
" />
<path d="M177.7542 81.2250
L184.7042 81.2250
" />
<path d="M184.7042 81.2250
L185.2042 81.7250
" />
<path d="M177.7542 79.3250
L184.7042 79.3250
" />
<path d="M184.7042 79.3250
L185.2042 78.8250
" />
<path d="M185.2042 78.8250
L185.2042 8.6250
" />
<path d="M176.8042 8.1250
L184.7042 8.1250
" />
<path d="M184.7042 8.1250
L185.2042 8.6250
" />
<path d="M177.7542 79.3250 A0.9500 0.9500 0.0 0 0 177.7542 81.2250" />
<path d="M171.4042 11.4250
L171.4042 3.5250
" />
<path d="M171.4042 3.5250
L170.9042 3.0250
" />
<path d="M170.9042 3.0250
L160.7042 3.0250
" />
<path d="M160.2042 10.4750
L160.2042 3.5250
" />
<path d="M160.2042 3.5250
L160.7042 3.0250
" />
<path d="M158.3042 10.4750
L158.3042 3.5250
" />
<path d="M158.3042 3.5250
L157.8042 3.0250
" />
<path d="M157.8042 3.0250
L87.6042 3.0250
" />
<path d="M87.1042 11.4250
L87.1042 3.5250
" />
<path d="M87.1042 3.5250
L87.6042 3.0250
" />
<path d="M158.3042 10.4750 A0.9500 0.9500 0.0 0 0 160.2042 10.4750" />
<g >
</g>
<g >
</g>
<g >
</g>
<g >
</g>
<g >
</g>
<g >
</g>
<g >
</g>
<g >
</g>
<g >
</g>
<g >
</g>
<g >
</g>
<g >
</g>
<g >
</g>
<g >
</g>
<g >
</g>
<g >
</g>
<g >
</g>
<g >
</g>
<g >
</g>
<g >
</g>
<g >
</g>
<g >
</g>
<g >
</g>
<g >
</g>
<g >
</g>
<g >
</g>
<g >
</g>
<g >
</g>
<g >
</g>
<g >
</g>
<g >
</g>
<g >
</g>
<g >
</g>
<g >
</g>
<g >
</g>
<g >
</g>
<g >
</g>
<g >
</g>
<g >
</g>
<g >
</g>
<g >
</g>
<g >
</g>
<g >
</g>
<g >
</g>
<g >
</g>
<g >
</g>
<g >
</g>
<g >
</g>
<g >
</g>
<g >
</g>
<g >
</g>
<g >
</g>
<g >
</g>
<g >
</g>
<g >
</g>
<g >
</g>
<g >
</g>
<g >
</g>
<g >
</g>
<g >
</g>
<g >
</g>
<g >
</g>
<g >
</g>
<g >
</g>
<g >
</g>
<g >
</g>
<g >
</g>
<g >
</g>
<g >
</g>
<g >
</g>
<g >
</g>
<g >
</g>
<g >
</g>
<g >
</g>
<g >
</g>
<g >
</g>
<g >
</g>
<g >
</g>
<g >
</g>
<g >
</g>
<g >
</g>
<g >
</g>
<g >
</g>
<g >
</g>
<g >
</g>
<g >
</g>
<g >
</g>
<g >
</g>
<g >
</g>
<g >
</g>
<g >
</g>
<g >
</g>
<g >
</g>
<g >
</g>
<g >
</g>
<g >
</g>
<g >
</g>
<g >
</g>
<g >
</g>
<g >
</g>
<g >
</g>
<g >
</g>
<g >
</g>
<g >
</g>
<g >
</g>
<g >
</g>
<g >
</g>
<g >
</g>
<g >
</g>
<g >
</g>
<g >
</g>
<g >
</g>
<g >
</g>
<g >
</g>
<g >
</g>
<g >
</g>
<g >
</g>
<g >
</g>
<g >
</g>
<g >
</g>
<g >
</g>
<g >
</g>
<g >
</g>
<g >
</g>
<g >
</g>
<g >
</g>
<g >
</g>
<g >
</g>
<g >
</g>
<g >
</g>
<g >
</g>
<g >
</g>
<g >
</g>
<g >
</g>
<g >
</g>
<g >
</g>
<g >
</g>
<g >
</g>
<g >
</g>
<g >
</g>
<g >
</g>
<g >
</g>
<g >
</g>
<g >
</g>
<g >
</g>
<g >
</g>
<g >
</g>
<g >
</g>
<g >
</g>
<g >
</g>
<g >
</g>
<g >
</g>
<g >
</g>
<g >
</g>
<g >
</g>
<g >
</g>
<g >
</g>
<g >
</g>
<g >
</g>
<g >
</g>
<g >
</g>
<g >
</g>
<g >
</g>
<g >
</g>
<g >
</g>
<g >
</g>
<g >
</g>
</g> 
</svg>
