<?xml version="1.0" standalone="no"?>
 <!DOCTYPE svg PUBLIC "-//W3C//DTD SVG 1.1//EN" 
 "http://www.w3.org/Graphics/SVG/1.1/DTD/svg11.dtd"> 
<svg
  xmlns:svg="http://www.w3.org/2000/svg"
  xmlns="http://www.w3.org/2000/svg"
  xmlns:xlink="http://www.w3.org/1999/xlink"
  version="1.1"
  width="242.3922mm" height="267.6144mm" viewBox="0.0000 0.0000 242.3922 267.6144">
<title>SVG Image created as FPGAs-Ard_RPi_BB-F_Courtyard.svg date 2023/04/29 23:25:11 </title>
  <desc>Image generated by PCBNEW </desc>
<g style="fill:#000000; fill-opacity:1.0000;stroke:#000000; stroke-opacity:1.0000;
stroke-linecap:round; stroke-linejoin:round;"
 transform="translate(0 0) scale(1 1)">
</g>
<g style="fill:#000000; fill-opacity:0.0; 
stroke:#000000; stroke-width:0.0000; stroke-opacity:1; 
stroke-linecap:round; stroke-linejoin:round;">
</g>
<g style="fill:#FF26E2; fill-opacity:0.0; 
stroke:#FF26E2; stroke-width:0.0000; stroke-opacity:1; 
stroke-linecap:round; stroke-linejoin:round;">
</g>
<g style="fill:#FF26E2; fill-opacity:0.0; 
stroke:#FF26E2; stroke-width:0.0500; stroke-opacity:1; 
stroke-linecap:round; stroke-linejoin:round;">
<path d="M121.6692 46.4550
L121.6692 44.6350
" />
<path d="M122.5892 46.4550
L121.6692 46.4550
" />
<path d="M121.6692 44.6350
L122.5892 44.6350
" />
<path d="M122.5892 44.6350
L122.5892 46.4550
" />
<path d="M121.6692 48.9350
L121.6692 47.1150
" />
<path d="M122.5892 48.9350
L121.6692 48.9350
" />
<path d="M121.6692 47.1150
L122.5892 47.1150
" />
<path d="M122.5892 47.1150
L122.5892 48.9350
" />
<circle cx="234.1542" cy="4.6750" r="2.7500" /> 
<path d="M100.4542 130.7750
L97.4542 130.7750
" />
<path d="M97.4542 130.7750
L97.4542 135.3750
" />
<path d="M100.4542 135.3750
L100.4542 130.7750
" />
<path d="M97.4542 135.3750
L100.4542 135.3750
" />
<circle cx="76.6542" cy="196.4750" r="2.7500" /> 
<path d="M123.8792 66.0250
L127.5792 66.0250
" />
<path d="M123.8792 67.9250
L123.8792 66.0250
" />
<path d="M127.5792 66.0250
L127.5792 67.9250
" />
<path d="M127.5792 67.9250
L123.8792 67.9250
" />
<path d="M16.9842 185.2250
L16.9842 157.3250
" />
<path d="M64.4042 185.2250
L16.9842 185.2250
" />
<path d="M16.9842 157.3250
L64.4042 157.3250
" />
<path d="M64.4042 157.3250
L64.4042 185.2250
" />
<path d="M175.7042 91.8350
L175.7042 84.4350
" />
<path d="M175.7042 84.4350
L172.6042 84.4350
" />
<path d="M172.6042 91.8350
L175.7042 91.8350
" />
<path d="M172.6042 84.4350
L172.6042 91.8350
" />
<path d="M139.2792 83.3250
L139.2792 79.6250
" />
<path d="M141.1792 83.3250
L139.2792 83.3250
" />
<path d="M139.2792 79.6250
L141.1792 79.6250
" />
<path d="M141.1792 79.6250
L141.1792 83.3250
" />
<path d="M186.4822 17.4970
L227.4822 17.4970
" />
<path d="M227.4822 17.4970
L227.4822 15.1970
" />
<path d="M186.4822 15.1970
L186.4822 17.4970
" />
<path d="M227.4822 15.1970
L186.4822 15.1970
" />
<path d="M139.5892 42.5950
L139.5892 44.4150
" />
<path d="M138.6692 42.5950
L139.5892 42.5950
" />
<path d="M139.5892 44.4150
L138.6692 44.4150
" />
<path d="M138.6692 44.4150
L138.6692 42.5950
" />
<path d="M87.3042 85.5250
L87.3042 94.9250
" />
<path d="M87.3042 85.5250
L172.6042 85.5250
" />
<path d="M172.6042 94.9250
L87.3042 94.9250
" />
<path d="M172.6042 94.9250
L172.6042 85.5250
" />
<path d="M230.9782 100.4390
L230.9782 141.4390
" />
<path d="M230.9782 141.4390
L233.2782 141.4390
" />
<path d="M233.2782 100.4390
L230.9782 100.4390
" />
<path d="M233.2782 141.4390
L233.2782 100.4390
" />
<path d="M230.4702 148.1910
L230.4702 189.1910
" />
<path d="M230.4702 189.1910
L232.7702 189.1910
" />
<path d="M232.7702 148.1910
L230.4702 148.1910
" />
<path d="M232.7702 189.1910
L232.7702 148.1910
" />
<path d="M129.7892 57.2350
L127.9692 57.2350
" />
<path d="M129.7892 56.3150
L129.7892 57.2350
" />
<path d="M127.9692 57.2350
L127.9692 56.3150
" />
<path d="M127.9692 56.3150
L129.7892 56.3150
" />
<path d="M101.0442 82.3750
L97.3442 82.3750
" />
<path d="M101.0442 80.4750
L101.0442 82.3750
" />
<path d="M97.3442 82.3750
L97.3442 80.4750
" />
<path d="M97.3442 80.4750
L101.0442 80.4750
" />
<path d="M230.8042 53.5750
L230.8042 94.5750
" />
<path d="M230.8042 94.5750
L233.1042 94.5750
" />
<path d="M233.1042 53.5750
L230.8042 53.5750
" />
<path d="M233.1042 94.5750
L233.1042 53.5750
" />
<path d="M85.5017 119.7135
L85.5017 115.8135
" />
<path d="M88.2017 119.7135
L85.5017 119.7135
" />
<path d="M85.5017 115.8135
L88.2017 115.8135
" />
<path d="M88.2017 115.8135
L88.2017 119.7135
" />
<path d="M148.3042 82.9250
L162.0542 82.9250
" />
<path d="M162.0542 82.9250
L162.0542 76.7750
" />
<path d="M148.3042 76.7750
L148.3042 82.9250
" />
<path d="M162.0542 76.7750
L148.3042 76.7750
" />
<path d="M113.3017 104.1810
L113.3017 115.3810
" />
<path d="M113.3017 115.3810
L116.9017 115.3810
" />
<path d="M116.9017 104.1810
L113.3017 104.1810
" />
<path d="M116.9017 115.3810
L116.9017 104.1810
" />
<path d="M138.6292 56.9750
L143.2292 56.9750
" />
<path d="M138.6292 59.2750
L138.6292 56.9750
" />
<path d="M143.2292 56.9750
L143.2292 59.2750
" />
<path d="M143.2292 59.2750
L138.6292 59.2750
" />
<path d="M109.6517 113.7110
L109.6517 110.3510
" />
<path d="M111.5517 113.7110
L109.6517 113.7110
" />
<path d="M109.6517 110.3510
L111.5517 110.3510
" />
<path d="M111.5517 110.3510
L111.5517 113.7110
" />
<path d="M93.5517 116.0835
L93.5517 119.4435
" />
<path d="M91.6517 116.0835
L93.5517 116.0835
" />
<path d="M93.5517 119.4435
L91.6517 119.4435
" />
<path d="M91.6517 119.4435
L91.6517 116.0835
" />
<path d="M211.2948 125.4297
L226.9920 125.4297
" />
<path d="M211.2948 125.4297
L226.9920 125.4297
" />
<path d="M226.9920 125.4297
L226.9920 115.9301
" />
<path d="M226.9920 125.4297
L226.9920 115.9301
" />
<path d="M211.2948 115.9301
L211.2948 125.4297
" />
<path d="M211.2948 115.9301
L211.2948 125.4297
" />
<path d="M226.9920 115.9301
L211.2948 115.9301
" />
<path d="M226.9920 115.9301
L211.2948 115.9301
" />
<path d="M133.0292 67.8250
L129.3292 67.8250
" />
<path d="M133.0292 65.9250
L133.0292 67.8250
" />
<path d="M129.3292 67.8250
L129.3292 65.9250
" />
<path d="M129.3292 65.9250
L133.0292 65.9250
" />
<path d="M104.8942 68.0750
L104.8942 71.7750
" />
<path d="M102.9942 68.0750
L104.8942 68.0750
" />
<path d="M104.8942 71.7750
L102.9942 71.7750
" />
<path d="M102.9942 71.7750
L102.9942 68.0750
" />
<path d="M216.5092 160.4750
L226.6792 160.4750
" />
<path d="M216.5092 160.4750
L216.5092 149.9250
" />
<path d="M226.6792 160.4750
L226.6792 149.9250
" />
<path d="M216.5092 149.9250
L226.6792 149.9250
" />
<path d="M211.8942 152.8500
L213.2942 152.8500
" />
<path d="M211.8942 153.5500
L211.8942 152.8500
" />
<path d="M213.2942 152.8500
L213.2942 153.5500
" />
<path d="M213.2942 153.5500
L211.8942 153.5500
" />
<path d="M169.3792 30.6650
L169.3792 82.5150
" />
<path d="M169.3792 82.5150
L175.5292 82.5150
" />
<path d="M175.5292 30.6650
L169.3792 30.6650
" />
<path d="M175.5292 82.5150
L175.5292 30.6650
" />
<path d="M125.2692 57.2350
L123.4492 57.2350
" />
<path d="M125.2692 56.3150
L125.2692 57.2350
" />
<path d="M123.4492 57.2350
L123.4492 56.3150
" />
<path d="M123.4492 56.3150
L125.2692 56.3150
" />
<path d="M109.8792 42.5250
L109.8792 46.2250
" />
<path d="M107.9792 42.5250
L109.8792 42.5250
" />
<path d="M109.8792 46.2250
L107.9792 46.2250
" />
<path d="M107.9792 46.2250
L107.9792 42.5250
" />
<path d="M119.9192 48.9150
L119.9192 47.0950
" />
<path d="M120.8392 48.9150
L119.9192 48.9150
" />
<path d="M119.9192 47.0950
L120.8392 47.0950
" />
<path d="M120.8392 47.0950
L120.8392 48.9150
" />
<path d="M119.9192 43.9150
L119.9192 42.0950
" />
<path d="M120.8392 43.9150
L119.9192 43.9150
" />
<path d="M119.9192 42.0950
L120.8392 42.0950
" />
<path d="M120.8392 42.0950
L120.8392 43.9150
" />
<path d="M109.3142 142.1061
L109.3142 139.1061
" />
<path d="M109.3142 139.1061
L104.7142 139.1061
" />
<path d="M104.7142 142.1061
L109.3142 142.1061
" />
<path d="M104.7142 139.1061
L104.7142 142.1061
" />
<circle cx="107.2642" cy="146.1061" r="2.2500" /> 
<path d="M38.6042 144.5684
L10.7042 144.5684
" />
<path d="M38.6042 92.0684
L38.6042 144.5684
" />
<path d="M10.7042 144.5684
L10.7042 92.0684
" />
<path d="M10.7042 92.0684
L38.6042 92.0684
" />
<path d="M116.8742 138.0810
L111.6742 138.0810
" />
<path d="M111.6742 138.0810
L111.6742 149.1210
" />
<path d="M116.8742 149.1210
L116.8742 138.0810
" />
<path d="M111.6742 149.1210
L116.8742 149.1210
" />
<path d="M129.7892 58.4850
L127.9692 58.4850
" />
<path d="M129.7892 57.5650
L129.7892 58.4850
" />
<path d="M127.9692 58.4850
L127.9692 57.5650
" />
<path d="M127.9692 57.5650
L129.7892 57.5650
" />
<circle cx="72.4542" cy="5.0750" r="2.7500" /> 
<path d="M122.7492 57.2350
L120.9292 57.2350
" />
<path d="M122.7492 56.3150
L122.7492 57.2350
" />
<path d="M120.9292 57.2350
L120.9292 56.3150
" />
<path d="M120.9292 56.3150
L122.7492 56.3150
" />
<path d="M214.0742 156.2500
L214.0742 159.6500
" />
<path d="M212.1142 156.2500
L214.0742 156.2500
" />
<path d="M214.0742 159.6500
L212.1142 159.6500
" />
<path d="M212.1142 159.6500
L212.1142 156.2500
" />
<path d="M139.5892 45.0950
L139.5892 46.9150
" />
<path d="M138.6692 45.0950
L139.5892 45.0950
" />
<path d="M139.5892 46.9150
L138.6692 46.9150
" />
<path d="M138.6692 46.9150
L138.6692 45.0950
" />
<path d="M108.1717 114.3310
L111.5317 114.3310
" />
<path d="M108.1717 116.2310
L108.1717 114.3310
" />
<path d="M111.5317 114.3310
L111.5317 116.2310
" />
<path d="M111.5317 116.2310
L108.1717 116.2310
" />
<path d="M176.5092 161.2150
L205.5092 161.2150
" />
<path d="M205.5092 161.2150
L205.5092 155.0650
" />
<path d="M176.5092 155.0650
L176.5092 161.2150
" />
<path d="M205.5092 155.0650
L176.5092 155.0650
" />
<circle cx="9.7542" cy="4.7750" r="2.7500" /> 
<path d="M96.3042 13.4150
L96.3042 20.8150
" />
<path d="M96.3042 20.8150
L99.4042 20.8150
" />
<path d="M99.4042 13.4150
L96.3042 13.4150
" />
<path d="M99.4042 20.8150
L99.4042 13.4150
" />
<path d="M118.8492 157.1760
L99.9992 157.1760
" />
<path d="M99.9992 157.1760
L99.9992 160.7760
" />
<path d="M118.8492 160.7760
L118.8492 157.1760
" />
<path d="M99.9992 160.7760
L118.8492 160.7760
" />
<path d="M115.8162 152.7880
L115.8162 151.3520
" />
<path d="M116.7122 152.7880
L115.8162 152.7880
" />
<path d="M116.7122 152.7880
L116.7122 151.3520
" />
<path d="M116.7122 151.3520
L115.8162 151.3520
" />
<path d="M135.6992 38.0750
L135.6992 34.6750
" />
<path d="M137.6592 38.0750
L135.6992 38.0750
" />
<path d="M135.6992 34.6750
L137.6592 34.6750
" />
<path d="M137.6592 34.6750
L137.6592 38.0750
" />
<path d="M142.8392 50.3450
L142.8392 52.1650
" />
<path d="M141.9192 50.3450
L142.8392 50.3450
" />
<path d="M142.8392 52.1650
L141.9192 52.1650
" />
<path d="M141.9192 52.1650
L141.9192 50.3450
" />
<path d="M110.7775 44.6892
L111.0823 44.6892
" />
<path d="M110.7775 44.6892
L111.0823 44.6892
" />
<path d="M110.7775 48.6008
L110.7775 44.6892
" />
<path d="M110.7775 48.6008
L110.7775 44.6892
" />
<path d="M110.7775 48.6008
L111.0823 48.6008
" />
<path d="M111.0823 43.8891
L114.7907 43.8891
" />
<path d="M111.0823 43.8891
L114.7907 43.8891
" />
<path d="M111.0823 44.6892
L111.0823 43.8891
" />
<path d="M111.0823 44.6892
L111.0823 43.8891
" />
<path d="M111.0823 48.6008
L110.7775 48.6008
" />
<path d="M111.0823 49.4009
L111.0823 48.6008
" />
<path d="M111.0823 49.4009
L111.0823 48.6008
" />
<path d="M114.7907 43.8891
L114.7907 44.6892
" />
<path d="M114.7907 43.8891
L114.7907 44.6892
" />
<path d="M114.7907 44.6892
L115.0955 44.6892
" />
<path d="M114.7907 48.6008
L114.7907 49.4009
" />
<path d="M114.7907 48.6008
L114.7907 49.4009
" />
<path d="M114.7907 49.4009
L111.0823 49.4009
" />
<path d="M114.7907 49.4009
L111.0823 49.4009
" />
<path d="M115.0955 44.6892
L114.7907 44.6892
" />
<path d="M115.0955 44.6892
L115.0955 48.6008
" />
<path d="M115.0955 44.6892
L115.0955 48.6008
" />
<path d="M115.0955 48.6008
L114.7907 48.6008
" />
<path d="M115.0955 48.6008
L114.7907 48.6008
" />
<path d="M138.6692 49.1650
L138.6692 47.3450
" />
<path d="M139.5892 49.1650
L138.6692 49.1650
" />
<path d="M138.6692 47.3450
L139.5892 47.3450
" />
<path d="M139.5892 47.3450
L139.5892 49.1650
" />
<path d="M103.8017 110.3310
L100.4017 110.3310
" />
<path d="M103.8017 108.3710
L103.8017 110.3310
" />
<path d="M100.4017 110.3310
L100.4017 108.3710
" />
<path d="M100.4017 108.3710
L103.8017 108.3710
" />
<path d="M61.8742 10.4550
L58.2742 10.4550
" />
<path d="M61.7942 73.5150
L61.8742 10.4550
" />
<path d="M58.2742 10.4550
L58.1942 73.5150
" />
<path d="M58.1942 73.5150
L61.7942 73.5150
" />
<path d="M46.5542 73.5150
L46.4742 10.7550
" />
<path d="M46.4742 10.7550
L42.9742 10.7550
" />
<path d="M42.9742 10.7550
L42.9542 73.5150
" />
<path d="M42.9542 73.5150
L46.5542 73.5150
" />
<path d="M119.9192 51.4150
L119.9192 49.5950
" />
<path d="M120.8392 51.4150
L119.9192 51.4150
" />
<path d="M119.9192 49.5950
L120.8392 49.5950
" />
<path d="M120.8392 49.5950
L120.8392 51.4150
" />
<path d="M132.2692 57.2350
L130.4492 57.2350
" />
<path d="M132.2692 56.3150
L132.2692 57.2350
" />
<path d="M130.4492 57.2350
L130.4492 56.3150
" />
<path d="M130.4492 56.3150
L132.2692 56.3150
" />
<path d="M120.7492 72.4250
L120.7492 69.0250
" />
<path d="M122.7092 72.4250
L120.7492 72.4250
" />
<path d="M120.7492 69.0250
L122.7092 69.0250
" />
<path d="M122.7092 69.0250
L122.7092 72.4250
" />
<path d="M187.4742 92.9350
L228.4742 92.9350
" />
<path d="M228.4742 92.9350
L228.4742 90.6350
" />
<path d="M187.4742 90.6350
L187.4742 92.9350
" />
<path d="M228.4742 90.6350
L187.4742 90.6350
" />
<path d="M127.5642 59.7350
L125.7442 59.7350
" />
<path d="M127.5642 58.8150
L127.5642 59.7350
" />
<path d="M125.7442 59.7350
L125.7442 58.8150
" />
<path d="M125.7442 58.8150
L127.5642 58.8150
" />
<path d="M68.8078 93.0477
L68.8042 145.9650
" />
<path d="M68.8042 145.9650
L43.4442 145.9650
" />
<path d="M43.4478 93.0477
L68.8078 93.0477
" />
<path d="M43.4442 145.9650
L43.4478 93.0477
" />
<path d="M140.5792 44.8750
L145.1792 44.8750
" />
<path d="M140.5792 47.1750
L140.5792 44.8750
" />
<path d="M145.1792 44.8750
L145.1792 47.1750
" />
<path d="M145.1792 47.1750
L140.5792 47.1750
" />
<path d="M103.7817 112.8010
L100.4217 112.8010
" />
<path d="M103.7817 110.9010
L103.7817 112.8010
" />
<path d="M100.4217 112.8010
L100.4217 110.9010
" />
<path d="M100.4217 110.9010
L103.7817 110.9010
" />
<path d="M117.1692 47.6650
L117.1692 45.8450
" />
<path d="M118.0892 47.6650
L117.1692 47.6650
" />
<path d="M117.1692 45.8450
L118.0892 45.8450
" />
<path d="M118.0892 45.8450
L118.0892 47.6650
" />
<path d="M213.2942 152.3000
L211.8942 152.3000
" />
<path d="M213.2942 151.6000
L213.2942 152.3000
" />
<path d="M211.8942 152.3000
L211.8942 151.6000
" />
<path d="M211.8942 151.6000
L213.2942 151.6000
" />
<path d="M79.8482 145.8570
L79.8482 186.8570
" />
<path d="M79.8482 186.8570
L82.1482 186.8570
" />
<path d="M82.1482 145.8570
L79.8482 145.8570
" />
<path d="M82.1482 186.8570
L82.1482 145.8570
" />
<path d="M85.3717 111.0110
L85.3717 107.6110
" />
<path d="M87.3317 111.0110
L85.3717 111.0110
" />
<path d="M85.3717 107.6110
L87.3317 107.6110
" />
<path d="M87.3317 107.6110
L87.3317 111.0110
" />
<path d="M85.2517 105.9635
L85.2517 102.0635
" />
<path d="M87.9517 105.9635
L85.2517 105.9635
" />
<path d="M85.2517 102.0635
L87.9517 102.0635
" />
<path d="M87.9517 102.0635
L87.9517 105.9635
" />
<path d="M112.5942 80.4750
L116.2942 80.4750
" />
<path d="M112.5942 82.3750
L112.5942 80.4750
" />
<path d="M116.2942 80.4750
L116.2942 82.3750
" />
<path d="M116.2942 82.3750
L112.5942 82.3750
" />
<path d="M118.4192 47.6850
L118.4192 45.8650
" />
<path d="M119.3392 47.6850
L118.4192 47.6850
" />
<path d="M118.4192 45.8650
L119.3392 45.8650
" />
<path d="M119.3392 45.8650
L119.3392 47.6850
" />
<path d="M103.8142 155.7810
L103.8142 152.4210
" />
<path d="M105.7142 155.7810
L103.8142 155.7810
" />
<path d="M103.8142 152.4210
L105.7142 152.4210
" />
<path d="M105.7142 152.4210
L105.7142 155.7810
" />
<path d="M93.0517 102.3335
L93.0517 105.6935
" />
<path d="M91.1517 102.3335
L93.0517 102.3335
" />
<path d="M93.0517 105.6935
L91.1517 105.6935
" />
<path d="M91.1517 105.6935
L91.1517 102.3335
" />
<path d="M141.5892 42.6150
L141.5892 44.4350
" />
<path d="M140.6692 42.6150
L141.5892 42.6150
" />
<path d="M141.5892 44.4350
L140.6692 44.4350
" />
<path d="M140.6692 44.4350
L140.6692 42.6150
" />
<path d="M120.6292 78.2750
L124.3292 78.2750
" />
<path d="M120.6292 80.1750
L120.6292 78.2750
" />
<path d="M124.3292 78.2750
L124.3292 80.1750
" />
<path d="M124.3292 80.1750
L120.6292 80.1750
" />
<path d="M94.1517 119.4435
L94.1517 116.0835
" />
<path d="M96.0517 119.4435
L94.1517 119.4435
" />
<path d="M94.1517 116.0835
L96.0517 116.0835
" />
<path d="M96.0517 116.0835
L96.0517 119.4435
" />
<path d="M141.5892 50.3650
L141.5892 52.1850
" />
<path d="M140.6692 50.3650
L141.5892 50.3650
" />
<path d="M141.5892 52.1850
L140.6692 52.1850
" />
<path d="M140.6692 52.1850
L140.6692 50.3650
" />
<circle cx="8.2542" cy="86.3750" r="2.7500" /> 
<circle cx="222.1542" cy="194.0750" r="2.7500" /> 
<path d="M142.8392 47.8650
L142.8392 49.6850
" />
<path d="M141.9192 47.8650
L142.8392 47.8650
" />
<path d="M142.8392 49.6850
L141.9192 49.6850
" />
<path d="M141.9192 49.6850
L141.9192 47.8650
" />
<path d="M134.7692 57.2350
L132.9492 57.2350
" />
<path d="M134.7692 56.3150
L134.7692 57.2350
" />
<path d="M132.9492 57.2350
L132.9492 56.3150
" />
<path d="M132.9492 56.3150
L134.7692 56.3150
" />
<path d="M102.7142 152.4210
L102.7142 155.7810
" />
<path d="M100.8142 152.4210
L102.7142 152.4210
" />
<path d="M102.7142 155.7810
L100.8142 155.7810
" />
<path d="M100.8142 155.7810
L100.8142 152.4210
" />
<path d="M226.9266 129.5752
L215.7252 129.5752
" />
<path d="M226.9266 129.5752
L215.7252 129.5752
" />
<path d="M215.7252 129.5752
L215.7252 139.0748
" />
<path d="M215.7252 129.5752
L215.7252 139.0748
" />
<path d="M226.9266 139.0748
L226.9266 129.5752
" />
<path d="M226.9266 139.0748
L226.9266 129.5752
" />
<path d="M215.7252 139.0748
L226.9266 139.0748
" />
<path d="M215.7252 139.0748
L226.9266 139.0748
" />
<path d="M230.7242 11.1890
L230.7242 52.1890
" />
<path d="M230.7242 52.1890
L233.0242 52.1890
" />
<path d="M233.0242 11.1890
L230.7242 11.1890
" />
<path d="M233.0242 52.1890
L233.0242 11.1890
" />
<path d="M86.8042 13.9750
L86.8042 23.2850
" />
<path d="M86.8042 23.2850
L95.8042 23.2850
" />
<path d="M95.8042 13.9750
L86.8042 13.9750
" />
<path d="M95.8042 23.2850
L95.8042 13.9750
" />
<path d="M86.4542 133.6250
L95.7642 133.6250
" />
<path d="M95.7642 133.6250
L95.7642 124.6250
" />
<path d="M86.4542 124.6250
L86.4542 133.6250
" />
<path d="M95.7642 124.6250
L86.4542 124.6250
" />
<path d="M129.7892 59.7350
L127.9692 59.7350
" />
<path d="M129.7892 58.8150
L129.7892 59.7350
" />
<path d="M127.9692 59.7350
L127.9692 58.8150
" />
<path d="M127.9692 58.8150
L129.7892 58.8150
" />
<path d="M119.9192 46.4150
L119.9192 44.5950
" />
<path d="M120.8392 46.4150
L119.9192 46.4150
" />
<path d="M119.9192 44.5950
L120.8392 44.5950
" />
<path d="M120.8392 44.5950
L120.8392 46.4150
" />
<path d="M84.7042 7.2250
L75.3042 7.2250
" />
<path d="M84.7042 7.2250
L84.7042 92.5250
" />
<path d="M75.3042 92.5250
L75.3042 7.2250
" />
<path d="M75.3042 92.5250
L84.7042 92.5250
" />
<path d="M119.3092 51.9850
L117.4892 51.9850
" />
<path d="M119.3092 51.0650
L119.3092 51.9850
" />
<path d="M117.4892 51.9850
L117.4892 51.0650
" />
<path d="M117.4892 51.0650
L119.3092 51.0650
" />
<path d="M140.7392 52.8150
L142.5592 52.8150
" />
<path d="M140.7392 53.7350
L140.7392 52.8150
" />
<path d="M142.5592 52.8150
L142.5592 53.7350
" />
<path d="M142.5592 53.7350
L140.7392 53.7350
" />
<circle cx="185.1542" cy="3.7750" r="2.7500" /> 
<path d="M141.5892 47.8650
L141.5892 49.6850
" />
<path d="M140.6692 47.8650
L141.5892 47.8650
" />
<path d="M141.5892 49.6850
L140.6692 49.6850
" />
<path d="M140.6692 49.6850
L140.6692 47.8650
" />
<path d="M98.5817 102.3135
L98.5817 105.7135
" />
<path d="M96.6217 102.3135
L98.5817 102.3135
" />
<path d="M98.5817 105.7135
L96.6217 105.7135
" />
<path d="M96.6217 105.7135
L96.6217 102.3135
" />
<path d="M111.5517 105.4310
L109.6517 105.4310
" />
<path d="M111.5517 105.4310
L111.5517 108.6310
" />
<path d="M109.6517 105.4310
L109.6517 108.6310
" />
<path d="M111.5517 108.6310
L109.6517 108.6310
" />
<path d="M186.1792 68.6750
L192.3292 68.6750
" />
<path d="M192.3292 68.6750
L192.3292 65.0750
" />
<path d="M186.1792 65.0750
L186.1792 68.6750
" />
<path d="M192.3292 65.0750
L186.1792 65.0750
" />
<path d="M91.0817 116.0635
L91.0817 119.4635
" />
<path d="M89.1217 116.0635
L91.0817 116.0635
" />
<path d="M91.0817 119.4635
L89.1217 119.4635
" />
<path d="M89.1217 119.4635
L89.1217 116.0635
" />
<path d="M79.5942 100.9310
L79.5942 141.9310
" />
<path d="M79.5942 141.9310
L81.8942 141.9310
" />
<path d="M81.8942 100.9310
L79.5942 100.9310
" />
<path d="M81.8942 141.9310
L81.8942 100.9310
" />
<path d="M103.7517 117.5810
L100.3517 117.5810
" />
<path d="M103.7517 115.6210
L103.7517 117.5810
" />
<path d="M100.3517 117.5810
L100.3517 115.6210
" />
<path d="M100.3517 115.6210
L103.7517 115.6210
" />
<path d="M145.9267 55.1250
L145.9267 60.6250
" />
<path d="M145.9267 60.6250
L149.6967 60.6250
" />
<path d="M149.6967 55.1250
L145.9267 55.1250
" />
<path d="M149.6967 60.6250
L149.6967 55.1250
" />
<path d="M124.2228 40.8686
L137.7356 40.8686
" />
<path d="M124.2228 40.8686
L137.7356 40.8686
" />
<path d="M124.2228 54.3814
L124.2228 40.8686
" />
<path d="M124.2228 54.3814
L124.2228 40.8686
" />
<path d="M137.7356 40.8686
L137.7356 54.3814
" />
<path d="M137.7356 40.8686
L137.7356 54.3814
" />
<path d="M137.7356 54.3814
L124.2228 54.3814
" />
<path d="M137.7356 54.3814
L124.2228 54.3814
" />
<path d="M226.3470 112.1797
L226.3470 102.6801
" />
<path d="M226.3470 112.1797
L226.3470 102.6801
" />
<path d="M226.3470 102.6801
L217.4010 102.6801
" />
<path d="M226.3470 102.6801
L217.4010 102.6801
" />
<path d="M217.4010 102.6801
L217.4010 101.5219
" />
<path d="M217.4010 102.6801
L217.4010 101.5219
" />
<path d="M217.4010 101.5219
L213.3850 101.5219
" />
<path d="M217.4010 101.5219
L213.3850 101.5219
" />
<path d="M213.3850 102.6801
L211.3356 102.6801
" />
<path d="M213.3850 102.6801
L211.3356 102.6801
" />
<path d="M213.3850 101.5219
L213.3850 102.6801
" />
<path d="M213.3850 101.5219
L213.3850 102.6801
" />
<path d="M211.3356 112.1797
L226.3470 112.1797
" />
<path d="M211.3356 112.1797
L226.3470 112.1797
" />
<path d="M211.3356 102.6801
L211.3356 112.1797
" />
<path d="M211.3356 102.6801
L211.3356 112.1797
" />
<path d="M218.4332 66.6600
L218.4332 85.5100
" />
<path d="M218.4332 85.5100
L224.5832 85.5100
" />
<path d="M224.5832 66.6600
L218.4332 66.6600
" />
<path d="M224.5832 85.5100
L224.5832 66.6600
" />
<path d="M113.4292 52.5750
L113.4292 56.6750
" />
<path d="M109.9292 52.5750
L113.4292 52.5750
" />
<path d="M113.4292 56.6750
L109.9292 56.6750
" />
<path d="M109.9292 56.6750
L109.9292 52.5750
" />
<path d="M102.0042 82.5250
L111.8542 82.5250
" />
<path d="M111.8542 82.5250
L111.8542 72.7250
" />
<path d="M102.0042 72.7250
L102.0042 82.5250
" />
<path d="M111.8542 72.7250
L102.0042 72.7250
" />
<path d="M144.0892 47.8450
L144.0892 49.6650
" />
<path d="M143.1692 47.8450
L144.0892 47.8450
" />
<path d="M144.0892 49.6650
L143.1692 49.6650
" />
<path d="M143.1692 49.6650
L143.1692 47.8450
" />
<path d="M119.3092 53.2350
L117.4892 53.2350
" />
<path d="M119.3092 52.3150
L119.3092 53.2350
" />
<path d="M117.4892 53.2350
L117.4892 52.3150
" />
<path d="M117.4892 52.3150
L119.3092 52.3150
" />
<path d="M117.2292 45.3050
L117.2292 41.9450
" />
<path d="M119.1292 45.3050
L117.2292 45.3050
" />
<path d="M117.2292 41.9450
L119.1292 41.9450
" />
<path d="M119.1292 41.9450
L119.1292 45.3050
" />
<path d="M110.6442 68.0750
L110.6442 71.7750
" />
<path d="M108.7442 68.0750
L110.6442 68.0750
" />
<path d="M110.6442 71.7750
L108.7442 71.7750
" />
<path d="M108.7442 71.7750
L108.7442 68.0750
" />
<path d="M166.8042 16.0750
L166.8042 25.3850
" />
<path d="M166.8042 25.3850
L175.8042 25.3850
" />
<path d="M175.8042 16.0750
L166.8042 16.0750
" />
<path d="M175.8042 25.3850
L175.8042 16.0750
" />
<path d="M138.7192 54.0650
L140.5392 54.0650
" />
<path d="M138.7192 54.9850
L138.7192 54.0650
" />
<path d="M140.5392 54.0650
L140.5392 54.9850
" />
<path d="M140.5392 54.9850
L138.7192 54.9850
" />
<path d="M93.4792 81.5850
L93.4792 29.7350
" />
<path d="M93.4792 29.7350
L87.3292 29.7350
" />
<path d="M87.3292 81.5850
L93.4792 81.5850
" />
<path d="M87.3292 29.7350
L87.3292 81.5850
" />
<path d="M203.9380 125.2549
L203.9380 119.1049
" />
<path d="M203.9380 119.1049
L200.3380 119.1049
" />
<path d="M200.3380 125.2549
L203.9380 125.2549
" />
<path d="M200.3380 119.1049
L200.3380 125.2549
" />
<path d="M145.1292 52.7750
L145.1292 56.4750
" />
<path d="M143.2292 52.7750
L145.1292 52.7750
" />
<path d="M145.1292 56.4750
L143.2292 56.4750
" />
<path d="M143.2292 56.4750
L143.2292 52.7750
" />
<path d="M176.3042 92.9250
L185.7042 92.9250
" />
<path d="M176.3042 92.9250
L176.3042 7.6250
" />
<path d="M185.7042 7.6250
L185.7042 92.9250
" />
<path d="M185.7042 7.6250
L176.3042 7.6250
" />
<path d="M142.3292 42.1250
L146.9292 42.1250
" />
<path d="M142.3292 44.4250
L142.3292 42.1250
" />
<path d="M146.9292 42.1250
L146.9292 44.4250
" />
<path d="M146.9292 44.4250
L142.3292 44.4250
" />
<path d="M100.3342 113.4010
L103.6942 113.4010
" />
<path d="M100.3342 115.3010
L100.3342 113.4010
" />
<path d="M103.6942 113.4010
L103.6942 115.3010
" />
<path d="M103.6942 115.3010
L100.3342 115.3010
" />
<path d="M119.3092 54.4850
L117.4892 54.4850
" />
<path d="M119.3092 53.5650
L119.3092 54.4850
" />
<path d="M117.4892 54.4850
L117.4892 53.5650
" />
<path d="M117.4892 53.5650
L119.3092 53.5650
" />
<circle cx="118.7542" cy="132.8750" r="2.2500" /> 
<path d="M217.6282 27.7550
L217.6282 54.2050
" />
<path d="M217.6282 54.2050
L223.7782 54.2050
" />
<path d="M223.7782 27.7550
L217.6282 27.7550
" />
<path d="M223.7782 54.2050
L223.7782 27.7550
" />
<path d="M121.6692 54.2050
L121.6692 52.3850
" />
<path d="M122.5892 54.2050
L121.6692 54.2050
" />
<path d="M121.6692 52.3850
L122.5892 52.3850
" />
<path d="M122.5892 52.3850
L122.5892 54.2050
" />
<path d="M166.5542 12.3250
L159.1542 12.3250
" />
<path d="M159.1542 12.3250
L159.1542 15.4250
" />
<path d="M166.5542 15.4250
L166.5542 12.3250
" />
<path d="M159.1542 15.4250
L166.5542 15.4250
" />
<path d="M93.9017 105.6935
L93.9017 102.3335
" />
<path d="M95.8017 105.6935
L93.9017 105.6935
" />
<path d="M93.9017 102.3335
L95.8017 102.3335
" />
<path d="M95.8017 102.3335
L95.8017 105.6935
" />
<path d="M119.9192 54.1850
L119.9192 52.3650
" />
<path d="M120.8392 54.1850
L119.9192 54.1850
" />
<path d="M119.9192 52.3650
L120.8392 52.3650
" />
<path d="M120.8392 52.3650
L120.8392 54.1850
" />
<path d="M197.8632 75.0500
L197.8632 85.0000
" />
<path d="M197.8632 85.0000
L202.3132 85.0000
" />
<path d="M202.3132 75.0500
L197.8632 75.0500
" />
<path d="M202.3132 85.0000
L202.3132 75.0500
" />
<path d="M138.6692 53.6850
L138.6692 51.8650
" />
<path d="M139.5892 53.6850
L138.6692 53.6850
" />
<path d="M138.6692 51.8650
L139.5892 51.8650
" />
<path d="M139.5892 51.8650
L139.5892 53.6850
" />
<path d="M127.5392 58.4850
L125.7192 58.4850
" />
<path d="M127.5392 57.5650
L127.5392 58.4850
" />
<path d="M125.7192 58.4850
L125.7192 57.5650
" />
<path d="M125.7192 57.5650
L127.5392 57.5650
" />
<path d="M122.3642 155.1535
L131.1642 155.1535
" />
<path d="M122.3642 161.2535
L122.3642 155.1535
" />
<path d="M122.3642 161.2535
L131.1642 161.2535
" />
<path d="M131.1642 155.1535
L131.1642 161.2535
" />
<path d="M103.2372 124.7325
L103.2372 133.7325
" />
<path d="M103.2372 133.7325
L115.3472 133.7325
" />
<path d="M115.3472 124.7325
L103.2372 124.7325
" />
<path d="M115.3472 133.7325
L115.3472 124.7325
" />
<path d="M107.6442 68.0750
L107.6442 71.7750
" />
<path d="M105.7442 68.0750
L107.6442 68.0750
" />
<path d="M107.6442 71.7750
L105.7442 71.7750
" />
<path d="M105.7442 71.7750
L105.7442 68.0750
" />
<path d="M117.2492 39.1750
L120.6092 39.1750
" />
<path d="M117.2492 41.0750
L117.2492 39.1750
" />
<path d="M120.6092 39.1750
L120.6092 41.0750
" />
<path d="M120.6092 41.0750
L117.2492 41.0750
" />
<path d="M12.4328 18.8912
L37.7928 18.8912
" />
<path d="M12.4328 82.2884
L12.4328 18.8912
" />
<path d="M37.7928 18.8912
L37.7928 82.2884
" />
<path d="M37.7928 82.2884
L12.4328 82.2884
" />
<path d="M158.0992 13.3250
L106.2492 13.3250
" />
<path d="M106.2492 13.3250
L106.2492 19.4750
" />
<path d="M158.0992 19.4750
L158.0992 13.3250
" />
<path d="M106.2492 19.4750
L158.0992 19.4750
" />
<path d="M111.2292 41.1450
L114.6292 41.1450
" />
<path d="M111.2292 43.1050
L111.2292 41.1450
" />
<path d="M114.6292 41.1450
L114.6292 43.1050
" />
<path d="M114.6292 43.1050
L111.2292 43.1050
" />
<path d="M90.5817 102.3135
L90.5817 105.7135
" />
<path d="M88.6217 102.3135
L90.5817 102.3135
" />
<path d="M90.5817 105.7135
L88.6217 105.7135
" />
<path d="M88.6217 105.7135
L88.6217 102.3135
" />
<path d="M216.2542 66.3500
L216.2542 60.2000
" />
<path d="M216.2542 60.2000
L212.6542 60.2000
" />
<path d="M212.6542 66.3500
L216.2542 66.3500
" />
<path d="M212.6542 60.2000
L212.6542 66.3500
" />
<path d="M138.6692 51.4350
L138.6692 49.6150
" />
<path d="M139.5892 51.4350
L138.6692 51.4350
" />
<path d="M138.6692 49.6150
L139.5892 49.6150
" />
<path d="M139.5892 49.6150
L139.5892 51.4350
" />
<path d="M121.6692 51.4350
L121.6692 49.6150
" />
<path d="M122.5892 51.4350
L121.6692 51.4350
" />
<path d="M121.6692 49.6150
L122.5892 49.6150
" />
<path d="M122.5892 49.6150
L122.5892 51.4350
" />
<path d="M134.8984 33.4660
L134.8984 38.9778
" />
<path d="M134.8984 33.4660
L134.8984 38.9778
" />
<path d="M134.6317 33.4660
L134.8984 33.4660
" />
<path d="M134.6317 33.4660
L134.8984 33.4660
" />
</g>
<g style="fill:#FF26E2; fill-opacity:1.0000; 
stroke:#FF26E2; stroke-width:0.0000; stroke-opacity:1; 
stroke-linecap:round; stroke-linejoin:round;">
<circle cx="134.6317" cy="33.4660" r="0.0250" /> 
<circle cx="134.6317" cy="33.4660" r="0.0250" /> 
</g>
<g style="fill:#FF26E2; fill-opacity:1.0000; 
stroke:#FF26E2; stroke-width:0.0500; stroke-opacity:1; 
stroke-linecap:round; stroke-linejoin:round;">
</g>
<g style="fill:#FF26E2; fill-opacity:0.0; 
stroke:#FF26E2; stroke-width:0.0500; stroke-opacity:1; 
stroke-linecap:round; stroke-linejoin:round;">
<path d="M127.6467 33.4660
L134.6317 33.4660
" />
<path d="M127.6467 33.4660
L134.6317 33.4660
" />
</g>
<g style="fill:#FF26E2; fill-opacity:1.0000; 
stroke:#FF26E2; stroke-width:0.0000; stroke-opacity:1; 
stroke-linecap:round; stroke-linejoin:round;">
<circle cx="127.6467" cy="33.4660" r="0.0250" /> 
<circle cx="127.6467" cy="33.4660" r="0.0250" /> 
</g>
<g style="fill:#FF26E2; fill-opacity:1.0000; 
stroke:#FF26E2; stroke-width:0.0500; stroke-opacity:1; 
stroke-linecap:round; stroke-linejoin:round;">
</g>
<g style="fill:#FF26E2; fill-opacity:0.0; 
stroke:#FF26E2; stroke-width:0.0500; stroke-opacity:1; 
stroke-linecap:round; stroke-linejoin:round;">
<path d="M127.3800 33.4660
L127.6467 33.4660
" />
<path d="M127.3800 33.4660
L127.6467 33.4660
" />
<path d="M134.8984 38.9778
L134.6317 38.9778
" />
<path d="M134.8984 38.9778
L134.6317 38.9778
" />
</g>
<g style="fill:#FF26E2; fill-opacity:1.0000; 
stroke:#FF26E2; stroke-width:0.0000; stroke-opacity:1; 
stroke-linecap:round; stroke-linejoin:round;">
<circle cx="134.6317" cy="38.9778" r="0.0250" /> 
<circle cx="134.6317" cy="38.9778" r="0.0250" /> 
</g>
<g style="fill:#FF26E2; fill-opacity:1.0000; 
stroke:#FF26E2; stroke-width:0.0500; stroke-opacity:1; 
stroke-linecap:round; stroke-linejoin:round;">
</g>
<g style="fill:#FF26E2; fill-opacity:0.0; 
stroke:#FF26E2; stroke-width:0.0500; stroke-opacity:1; 
stroke-linecap:round; stroke-linejoin:round;">
<path d="M134.6317 38.9778
L127.6467 38.9778
" />
<path d="M134.6317 38.9778
L127.6467 38.9778
" />
</g>
<g style="fill:#FF26E2; fill-opacity:1.0000; 
stroke:#FF26E2; stroke-width:0.0000; stroke-opacity:1; 
stroke-linecap:round; stroke-linejoin:round;">
<circle cx="127.6467" cy="38.9778" r="0.0250" /> 
<circle cx="127.6467" cy="38.9778" r="0.0250" /> 
</g>
<g style="fill:#FF26E2; fill-opacity:1.0000; 
stroke:#FF26E2; stroke-width:0.0500; stroke-opacity:1; 
stroke-linecap:round; stroke-linejoin:round;">
</g>
<g style="fill:#FF26E2; fill-opacity:0.0; 
stroke:#FF26E2; stroke-width:0.0500; stroke-opacity:1; 
stroke-linecap:round; stroke-linejoin:round;">
<path d="M127.6467 38.9778
L127.3800 38.9778
" />
<path d="M127.6467 38.9778
L127.3800 38.9778
" />
<path d="M127.3800 38.9778
L127.3800 33.4660
" />
<path d="M127.3800 38.9778
L127.3800 33.4660
" />
<path d="M89.5317 108.2310
L89.5317 113.4710
" />
<path d="M89.5317 113.4710
L93.7717 113.4710
" />
<path d="M93.7717 108.2310
L89.5317 108.2310
" />
<path d="M93.7717 113.4710
L93.7717 108.2310
" />
<path d="M196.2142 68.7750
L202.3642 68.7750
" />
<path d="M202.3642 68.7750
L202.3642 65.1750
" />
<path d="M196.2142 65.1750
L196.2142 68.7750
" />
<path d="M202.3642 65.1750
L196.2142 65.1750
" />
<path d="M120.6292 73.2750
L124.3292 73.2750
" />
<path d="M120.6292 75.1750
L120.6292 73.2750
" />
<path d="M124.3292 73.2750
L124.3292 75.1750
" />
<path d="M124.3292 75.1750
L120.6292 75.1750
" />
<path d="M125.4992 69.4750
L125.4992 82.7750
" />
<path d="M125.4992 82.7750
L137.3592 82.7750
" />
<path d="M137.3592 69.4750
L125.4992 69.4750
" />
<path d="M137.3592 82.7750
L137.3592 69.4750
" />
<path d="M149.3792 54.1050
L145.9792 54.1050
" />
<path d="M149.3792 52.1450
L149.3792 54.1050
" />
<path d="M145.9792 54.1050
L145.9792 52.1450
" />
<path d="M145.9792 52.1450
L149.3792 52.1450
" />
<path d="M137.5192 57.2350
L135.6992 57.2350
" />
<path d="M137.5192 56.3150
L137.5192 57.2350
" />
<path d="M135.6992 57.2350
L135.6992 56.3150
" />
<path d="M135.6992 56.3150
L137.5192 56.3150
" />
<circle cx="190.3542" cy="194.3750" r="2.7500" /> 
<path d="M171.9042 11.9250
L171.9042 2.5250
" />
<path d="M171.9042 11.9250
L86.6042 11.9250
" />
<path d="M86.6042 2.5250
L171.9042 2.5250
" />
<path d="M86.6042 2.5250
L86.6042 11.9250
" />
<path d="M87.1842 147.8810
L87.1842 160.8210
" />
<path d="M87.1842 147.8810
L98.3742 147.8810
" />
<path d="M98.3742 160.8210
L87.1842 160.8210
" />
<path d="M98.3742 160.8210
L98.3742 147.8810
" />
<path d="M132.6092 124.6750
L123.2992 124.6750
" />
<path d="M123.2992 124.6750
L123.2992 133.6750
" />
<path d="M132.6092 133.6750
L132.6092 124.6750
" />
<path d="M123.2992 133.6750
L132.6092 133.6750
" />
<path d="M137.5292 32.8250
L133.8292 32.8250
" />
<path d="M137.5292 30.9250
L137.5292 32.8250
" />
<path d="M133.8292 32.8250
L133.8292 30.9250
" />
<path d="M133.8292 30.9250
L137.5292 30.9250
" />
<path d="M100.1517 104.7510
L104.0517 104.7510
" />
<path d="M100.1517 107.4510
L100.1517 104.7510
" />
<path d="M104.0517 104.7510
L104.0517 107.4510
" />
<path d="M104.0517 107.4510
L100.1517 107.4510
" />
<path d="M98.5817 116.0635
L98.5817 119.4635
" />
<path d="M96.6217 116.0635
L98.5817 116.0635
" />
<path d="M98.5817 119.4635
L96.6217 119.4635
" />
<path d="M96.6217 119.4635
L96.6217 116.0635
" />
<path d="M121.6692 43.9350
L121.6692 42.1150
" />
<path d="M122.5892 43.9350
L121.6692 43.9350
" />
<path d="M121.6692 42.1150
L122.5892 42.1150
" />
<path d="M122.5892 42.1150
L122.5892 43.9350
" />
<path d="M204.1880 138.2549
L204.1880 132.1049
" />
<path d="M204.1880 132.1049
L200.5880 132.1049
" />
<path d="M200.5880 138.2549
L204.1880 138.2549
" />
<path d="M200.5880 132.1049
L200.5880 138.2549
" />
<path d="M200.0880 103.3799
L200.0880 109.5299
" />
<path d="M200.0880 109.5299
L203.6880 109.5299
" />
<path d="M203.6880 103.3799
L200.0880 103.3799
" />
<path d="M203.6880 109.5299
L203.6880 103.3799
" />
<path d="M108.5817 107.5810
L108.5817 110.9810
" />
<path d="M106.6217 107.5810
L108.5817 107.5810
" />
<path d="M108.5817 110.9810
L106.6217 110.9810
" />
<path d="M106.6217 110.9810
L106.6217 107.5810
" />
<path d="M112.5942 77.7250
L116.2942 77.7250
" />
<path d="M112.5942 79.6250
L112.5942 77.7250
" />
<path d="M116.2942 77.7250
L116.2942 79.6250
" />
<path d="M116.2942 79.6250
L112.5942 79.6250
" />
<circle cx="8.4542" cy="195.7750" r="2.7500" /> 
<path d="M127.5392 57.2350
L125.7192 57.2350
" />
<path d="M127.5392 56.3150
L127.5392 57.2350
" />
<path d="M125.7192 57.2350
L125.7192 56.3150
" />
<path d="M125.7192 56.3150
L127.5392 56.3150
" />
<path d="M116.6592 52.6750
L116.6592 56.0750
" />
<path d="M114.6992 52.6750
L116.6592 52.6750
" />
<path d="M116.6592 56.0750
L114.6992 56.0750
" />
<path d="M114.6992 56.0750
L114.6992 52.6750
" />
<g >
</g>
<g >
</g>
<g >
</g>
<g >
</g>
<g >
</g>
<g >
</g>
<g >
</g>
<g >
</g>
<g >
</g>
<g >
</g>
<g >
</g>
<g >
</g>
<g >
</g>
<g >
</g>
<g >
</g>
<g >
</g>
<g >
</g>
<g >
</g>
<g >
</g>
<g >
</g>
<g >
</g>
<g >
</g>
<g >
</g>
<g >
</g>
<g >
</g>
<g >
</g>
<g >
</g>
<g >
</g>
<g >
</g>
<g >
</g>
<g >
</g>
<g >
</g>
<g >
</g>
<g >
</g>
<g >
</g>
<g >
</g>
<g >
</g>
<g >
</g>
<g >
</g>
<g >
</g>
<g >
</g>
<g >
</g>
<g >
</g>
<g >
</g>
<g >
</g>
<g >
</g>
<g >
</g>
<g >
</g>
<g >
</g>
<g >
</g>
<g >
</g>
<g >
</g>
<g >
</g>
<g >
</g>
<g >
</g>
<g >
</g>
<g >
</g>
<g >
</g>
<g >
</g>
<g >
</g>
<g >
</g>
<g >
</g>
<g >
</g>
<g >
</g>
<g >
</g>
<g >
</g>
<g >
</g>
<g >
</g>
<g >
</g>
<g >
</g>
<g >
</g>
<g >
</g>
<g >
</g>
<g >
</g>
<g >
</g>
<g >
</g>
<g >
</g>
<g >
</g>
<g >
</g>
<g >
</g>
<g >
</g>
<g >
</g>
<g >
</g>
<g >
</g>
<g >
</g>
<g >
</g>
<g >
</g>
<g >
</g>
<g >
</g>
<g >
</g>
<g >
</g>
<g >
</g>
<g >
</g>
<g >
</g>
<g >
</g>
<g >
</g>
<g >
</g>
<g >
</g>
<g >
</g>
<g >
</g>
<g >
</g>
<g >
</g>
<g >
</g>
<g >
</g>
<g >
</g>
<g >
</g>
<g >
</g>
<g >
</g>
<g >
</g>
<g >
</g>
<g >
</g>
<g >
</g>
<g >
</g>
<g >
</g>
<g >
</g>
<g >
</g>
<g >
</g>
<g >
</g>
<g >
</g>
<g >
</g>
<g >
</g>
<g >
</g>
<g >
</g>
<g >
</g>
<g >
</g>
<g >
</g>
<g >
</g>
<g >
</g>
<g >
</g>
<g >
</g>
<g >
</g>
<g >
</g>
<g >
</g>
<g >
</g>
<g >
</g>
<g >
</g>
<g >
</g>
<g >
</g>
<g >
</g>
<g >
</g>
<g >
</g>
<g >
</g>
<g >
</g>
<g >
</g>
<g >
</g>
<g >
</g>
<g >
</g>
<g >
</g>
<g >
</g>
<g >
</g>
<g >
</g>
<g >
</g>
<g >
</g>
<g >
</g>
<g >
</g>
<g >
</g>
<g >
</g>
<g >
</g>
<g >
</g>
<g >
</g>
<g >
</g>
<g >
</g>
<g >
</g>
<g >
</g>
<g >
</g>
<g >
</g>
<g >
</g>
</g>
<g style="fill:#000000; fill-opacity:0.0; 
stroke:#000000; stroke-width:0.0500; stroke-opacity:1; 
stroke-linecap:round; stroke-linejoin:round;">
</g>
<g style="fill:#D0D2CD; fill-opacity:0.0; 
stroke:#D0D2CD; stroke-width:0.0500; stroke-opacity:1; 
stroke-linecap:round; stroke-linejoin:round;">
</g>
<g style="fill:#D0D2CD; fill-opacity:0.0; 
stroke:#D0D2CD; stroke-width:0.1000; stroke-opacity:1; 
stroke-linecap:round; stroke-linejoin:round;">
<path d="M185.2042 8.6250
L186.0542 8.6250
" />
<path d="M186.0542 8.6250
L186.0542 9.7250
" />
<path d="M186.0542 10.1250
L186.0542 11.2250
" />
<path d="M186.0542 11.6250
L186.0542 12.7250
" />
<path d="M186.0542 13.1250
L186.0542 14.2250
" />
<path d="M186.0542 14.6250
L186.0542 15.7250
" />
<path d="M186.0542 16.1250
L186.0542 17.2250
" />
<path d="M186.0542 17.6250
L186.0542 18.7250
" />
<path d="M186.0542 19.1250
L186.0542 19.1750
" />
<path d="M186.0542 19.1750
L185.2042 19.1750
" />
<path d="M185.2042 19.1750
L185.2042 18.0750
" />
<path d="M185.2042 17.6750
L185.2042 16.5750
" />
<path d="M185.2042 16.1750
L185.2042 15.0750
" />
<path d="M185.2042 14.6750
L185.2042 13.5750
" />
<path d="M185.2042 13.1750
L185.2042 12.0750
" />
<path d="M185.2042 11.6750
L185.2042 10.5750
" />
<path d="M185.2042 10.1750
L185.2042 9.0750
" />
<path d="M185.2042 8.6750
L185.2042 8.6250
" />
<path d="M74.9542 8.2250
L75.8042 8.2250
" />
<path d="M75.8042 8.2250
L75.8042 9.3250
" />
<path d="M75.8042 9.7250
L75.8042 10.8250
" />
<path d="M75.8042 11.2250
L75.8042 12.3250
" />
<path d="M75.8042 12.7250
L75.8042 13.8250
" />
<path d="M75.8042 14.2250
L75.8042 15.3250
" />
<path d="M75.8042 15.7250
L75.8042 16.8250
" />
<path d="M75.8042 17.2250
L75.8042 18.3250
" />
<path d="M75.8042 18.7250
L75.8042 19.8250
" />
<path d="M75.8042 20.2250
L75.8042 21.3250
" />
<path d="M75.8042 21.7250
L75.8042 22.8250
" />
<path d="M75.8042 23.2250
L75.8042 24.3250
" />
<path d="M75.8042 24.7250
L75.8042 25.8250
" />
<path d="M75.8042 26.2250
L75.8042 27.3250
" />
<path d="M75.8042 27.7250
L75.8042 28.8250
" />
<path d="M75.8042 29.2250
L75.8042 30.3250
" />
<path d="M75.8042 30.7250
L75.8042 31.8250
" />
<path d="M75.8042 32.2250
L75.8042 33.3250
" />
<path d="M75.8042 33.7250
L75.8042 34.8250
" />
<path d="M75.8042 35.2250
L75.8042 36.3250
" />
<path d="M75.8042 36.7250
L75.8042 37.8250
" />
<path d="M75.8042 38.2250
L75.8042 39.3250
" />
<path d="M75.8042 39.7250
L75.8042 40.8250
" />
<path d="M75.8042 41.2250
L75.8042 42.3250
" />
<path d="M75.8042 42.7250
L75.8042 43.8250
" />
<path d="M75.8042 44.2250
L75.8042 45.3250
" />
<path d="M75.8042 45.7250
L75.8042 46.8250
" />
<path d="M75.8042 47.2250
L75.8042 48.3250
" />
<path d="M75.8042 48.7250
L75.8042 49.8250
" />
<path d="M75.8042 50.2250
L75.8042 51.3250
" />
<path d="M75.8042 51.7250
L75.8042 52.8250
" />
<path d="M75.8042 53.2250
L75.8042 54.3250
" />
<path d="M75.8042 54.7250
L75.8042 55.8250
" />
<path d="M75.8042 56.2250
L75.8042 57.3250
" />
<path d="M75.8042 57.7250
L75.8042 58.8250
" />
<path d="M75.8042 59.2250
L75.8042 60.3250
" />
<path d="M75.8042 60.7250
L75.8042 61.8250
" />
<path d="M75.8042 62.2250
L75.8042 63.3250
" />
<path d="M75.8042 63.7250
L75.8042 64.8250
" />
<path d="M75.8042 65.2250
L75.8042 66.3250
" />
<path d="M75.8042 66.7250
L75.8042 67.8250
" />
<path d="M75.8042 68.2250
L75.8042 69.3250
" />
<path d="M75.8042 69.7250
L75.8042 70.8250
" />
<path d="M75.8042 71.2250
L75.8042 72.3250
" />
<path d="M75.8042 72.7250
L75.8042 73.8250
" />
<path d="M75.8042 74.2250
L75.8042 75.3250
" />
<path d="M75.8042 75.7250
L75.8042 76.8250
" />
<path d="M75.8042 77.2250
L75.8042 78.3250
" />
<path d="M75.8042 78.7250
L75.8042 79.8250
" />
<path d="M75.8042 80.2250
L75.8042 81.3250
" />
<path d="M75.8042 81.7250
L75.8042 82.8250
" />
<path d="M75.8042 83.2250
L75.8042 84.3250
" />
<path d="M75.8042 84.7250
L75.8042 85.8250
" />
<path d="M75.8042 86.2250
L75.8042 87.3250
" />
<path d="M75.8042 87.7250
L75.8042 88.8250
" />
<path d="M75.8042 89.2250
L75.8042 90.3250
" />
<path d="M75.8042 90.7250
L75.8042 91.4750
" />
<path d="M75.8042 91.4750
L74.9542 91.4750
" />
<path d="M74.9542 91.4750
L74.9542 90.3750
" />
<path d="M74.9542 89.9750
L74.9542 88.8750
" />
<path d="M74.9542 88.4750
L74.9542 87.3750
" />
<path d="M74.9542 86.9750
L74.9542 85.8750
" />
<path d="M74.9542 85.4750
L74.9542 84.3750
" />
<path d="M74.9542 83.9750
L74.9542 82.8750
" />
<path d="M74.9542 82.4750
L74.9542 81.3750
" />
<path d="M74.9542 80.9750
L74.9542 79.8750
" />
<path d="M74.9542 79.4750
L74.9542 78.3750
" />
<path d="M74.9542 77.9750
L74.9542 76.8750
" />
<path d="M74.9542 76.4750
L74.9542 75.3750
" />
<path d="M74.9542 74.9750
L74.9542 73.8750
" />
<path d="M74.9542 73.4750
L74.9542 72.3750
" />
<path d="M74.9542 71.9750
L74.9542 70.8750
" />
<path d="M74.9542 70.4750
L74.9542 69.3750
" />
<path d="M74.9542 68.9750
L74.9542 67.8750
" />
<path d="M74.9542 67.4750
L74.9542 66.3750
" />
<path d="M74.9542 65.9750
L74.9542 64.8750
" />
<path d="M74.9542 64.4750
L74.9542 63.3750
" />
<path d="M74.9542 62.9750
L74.9542 61.8750
" />
<path d="M74.9542 61.4750
L74.9542 60.3750
" />
<path d="M74.9542 59.9750
L74.9542 58.8750
" />
<path d="M74.9542 58.4750
L74.9542 57.3750
" />
<path d="M74.9542 56.9750
L74.9542 55.8750
" />
<path d="M74.9542 55.4750
L74.9542 54.3750
" />
<path d="M74.9542 53.9750
L74.9542 52.8750
" />
<path d="M74.9542 52.4750
L74.9542 51.3750
" />
<path d="M74.9542 50.9750
L74.9542 49.8750
" />
<path d="M74.9542 49.4750
L74.9542 48.3750
" />
<path d="M74.9542 47.9750
L74.9542 46.8750
" />
<path d="M74.9542 46.4750
L74.9542 45.3750
" />
<path d="M74.9542 44.9750
L74.9542 43.8750
" />
<path d="M74.9542 43.4750
L74.9542 42.3750
" />
<path d="M74.9542 41.9750
L74.9542 40.8750
" />
<path d="M74.9542 40.4750
L74.9542 39.3750
" />
<path d="M74.9542 38.9750
L74.9542 37.8750
" />
<path d="M74.9542 37.4750
L74.9542 36.3750
" />
<path d="M74.9542 35.9750
L74.9542 34.8750
" />
<path d="M74.9542 34.4750
L74.9542 33.3750
" />
<path d="M74.9542 32.9750
L74.9542 31.8750
" />
<path d="M74.9542 31.4750
L74.9542 30.3750
" />
<path d="M74.9542 29.9750
L74.9542 28.8750
" />
<path d="M74.9542 28.4750
L74.9542 27.3750
" />
<path d="M74.9542 26.9750
L74.9542 25.8750
" />
<path d="M74.9542 25.4750
L74.9542 24.3750
" />
<path d="M74.9542 23.9750
L74.9542 22.8750
" />
<path d="M74.9542 22.4750
L74.9542 21.3750
" />
<path d="M74.9542 20.9750
L74.9542 19.8750
" />
<path d="M74.9542 19.4750
L74.9542 18.3750
" />
<path d="M74.9542 17.9750
L74.9542 16.8750
" />
<path d="M74.9542 16.4750
L74.9542 15.3750
" />
<path d="M74.9542 14.9750
L74.9542 13.8750
" />
<path d="M74.9542 13.4750
L74.9542 12.3750
" />
<path d="M74.9542 11.9750
L74.9542 10.8750
" />
<path d="M74.9542 10.4750
L74.9542 9.3750
" />
<path d="M74.9542 8.9750
L74.9542 8.2250
" />
<path d="M185.2042 21.9250
L186.0542 21.9250
" />
<path d="M186.0542 21.9250
L186.0542 23.0250
" />
<path d="M186.0542 23.4250
L186.0542 24.5250
" />
<path d="M186.0542 24.9250
L186.0542 26.0250
" />
<path d="M186.0542 26.4250
L186.0542 27.5250
" />
<path d="M186.0542 27.9250
L186.0542 29.0250
" />
<path d="M186.0542 29.4250
L186.0542 30.5250
" />
<path d="M186.0542 30.9250
L186.0542 32.0250
" />
<path d="M186.0542 32.4250
L186.0542 32.4750
" />
<path d="M186.0542 32.4750
L185.2042 32.4750
" />
<path d="M185.2042 32.4750
L185.2042 31.3750
" />
<path d="M185.2042 30.9750
L185.2042 29.8750
" />
<path d="M185.2042 29.4750
L185.2042 28.3750
" />
<path d="M185.2042 27.9750
L185.2042 26.8750
" />
<path d="M185.2042 26.4750
L185.2042 25.3750
" />
<path d="M185.2042 24.9750
L185.2042 23.8750
" />
<path d="M185.2042 23.4750
L185.2042 22.3750
" />
<path d="M185.2042 21.9750
L185.2042 21.9250
" />
<path d="M87.6542 2.1750
L88.7542 2.1750
" />
<path d="M89.1542 2.1750
L90.2542 2.1750
" />
<path d="M90.6542 2.1750
L91.7542 2.1750
" />
<path d="M92.1542 2.1750
L93.2542 2.1750
" />
<path d="M93.6542 2.1750
L94.7542 2.1750
" />
<path d="M95.1542 2.1750
L96.2542 2.1750
" />
<path d="M96.6542 2.1750
L97.7542 2.1750
" />
<path d="M98.1542 2.1750
L99.2542 2.1750
" />
<path d="M99.6542 2.1750
L100.7542 2.1750
" />
<path d="M101.1542 2.1750
L102.2542 2.1750
" />
<path d="M102.6542 2.1750
L103.7542 2.1750
" />
<path d="M104.1542 2.1750
L105.2542 2.1750
" />
<path d="M105.6542 2.1750
L106.7542 2.1750
" />
<path d="M107.1542 2.1750
L108.2542 2.1750
" />
<path d="M108.6542 2.1750
L109.7542 2.1750
" />
<path d="M110.1542 2.1750
L111.2542 2.1750
" />
<path d="M111.6542 2.1750
L112.7542 2.1750
" />
<path d="M113.1542 2.1750
L114.2542 2.1750
" />
<path d="M114.6542 2.1750
L115.7542 2.1750
" />
<path d="M116.1542 2.1750
L117.2542 2.1750
" />
<path d="M117.6542 2.1750
L118.7542 2.1750
" />
<path d="M119.1542 2.1750
L120.2542 2.1750
" />
<path d="M120.6542 2.1750
L121.7542 2.1750
" />
<path d="M122.1542 2.1750
L123.2542 2.1750
" />
<path d="M123.6542 2.1750
L124.7542 2.1750
" />
<path d="M125.1542 2.1750
L126.2542 2.1750
" />
<path d="M126.6542 2.1750
L127.7542 2.1750
" />
<path d="M128.1542 2.1750
L129.2542 2.1750
" />
<path d="M129.6542 2.1750
L130.7542 2.1750
" />
<path d="M131.1542 2.1750
L132.2542 2.1750
" />
<path d="M132.6542 2.1750
L133.7542 2.1750
" />
<path d="M134.1542 2.1750
L135.2542 2.1750
" />
<path d="M135.6542 2.1750
L136.7542 2.1750
" />
<path d="M137.1542 2.1750
L138.2542 2.1750
" />
<path d="M138.6542 2.1750
L139.7542 2.1750
" />
<path d="M140.1542 2.1750
L141.2542 2.1750
" />
<path d="M141.6542 2.1750
L142.7542 2.1750
" />
<path d="M143.1542 2.1750
L144.2542 2.1750
" />
<path d="M144.6542 2.1750
L145.7542 2.1750
" />
<path d="M146.1542 2.1750
L147.2542 2.1750
" />
<path d="M147.6542 2.1750
L148.7542 2.1750
" />
<path d="M149.1542 2.1750
L150.2542 2.1750
" />
<path d="M150.6542 2.1750
L151.7542 2.1750
" />
<path d="M152.1542 2.1750
L153.2542 2.1750
" />
<path d="M153.6542 2.1750
L154.7542 2.1750
" />
<path d="M155.1542 2.1750
L156.2542 2.1750
" />
<path d="M156.6542 2.1750
L157.7542 2.1750
" />
<path d="M158.1542 2.1750
L159.2542 2.1750
" />
<path d="M159.6542 2.1750
L160.7542 2.1750
" />
<path d="M161.1542 2.1750
L162.2542 2.1750
" />
<path d="M162.6542 2.1750
L163.7542 2.1750
" />
<path d="M164.1542 2.1750
L165.2542 2.1750
" />
<path d="M165.6542 2.1750
L166.7542 2.1750
" />
<path d="M167.1542 2.1750
L168.2542 2.1750
" />
<path d="M168.6542 2.1750
L169.7542 2.1750
" />
<path d="M170.1542 2.1750
L170.9042 2.1750
" />
<path d="M170.9042 2.1750
L170.9042 3.0250
" />
<path d="M170.9042 3.0250
L169.8042 3.0250
" />
<path d="M169.4042 3.0250
L168.3042 3.0250
" />
<path d="M167.9042 3.0250
L166.8042 3.0250
" />
<path d="M166.4042 3.0250
L165.3042 3.0250
" />
<path d="M164.9042 3.0250
L163.8042 3.0250
" />
<path d="M163.4042 3.0250
L162.3042 3.0250
" />
<path d="M161.9042 3.0250
L160.8042 3.0250
" />
<path d="M160.4042 3.0250
L159.3042 3.0250
" />
<path d="M158.9042 3.0250
L157.8042 3.0250
" />
<path d="M157.4042 3.0250
L156.3042 3.0250
" />
<path d="M155.9042 3.0250
L154.8042 3.0250
" />
<path d="M154.4042 3.0250
L153.3042 3.0250
" />
<path d="M152.9042 3.0250
L151.8042 3.0250
" />
<path d="M151.4042 3.0250
L150.3042 3.0250
" />
<path d="M149.9042 3.0250
L148.8042 3.0250
" />
<path d="M148.4042 3.0250
L147.3042 3.0250
" />
<path d="M146.9042 3.0250
L145.8042 3.0250
" />
<path d="M145.4042 3.0250
L144.3042 3.0250
" />
<path d="M143.9042 3.0250
L142.8042 3.0250
" />
<path d="M142.4042 3.0250
L141.3042 3.0250
" />
<path d="M140.9042 3.0250
L139.8042 3.0250
" />
<path d="M139.4042 3.0250
L138.3042 3.0250
" />
<path d="M137.9042 3.0250
L136.8042 3.0250
" />
<path d="M136.4042 3.0250
L135.3042 3.0250
" />
<path d="M134.9042 3.0250
L133.8042 3.0250
" />
<path d="M133.4042 3.0250
L132.3042 3.0250
" />
<path d="M131.9042 3.0250
L130.8042 3.0250
" />
<path d="M130.4042 3.0250
L129.3042 3.0250
" />
<path d="M128.9042 3.0250
L127.8042 3.0250
" />
<path d="M127.4042 3.0250
L126.3042 3.0250
" />
<path d="M125.9042 3.0250
L124.8042 3.0250
" />
<path d="M124.4042 3.0250
L123.3042 3.0250
" />
<path d="M122.9042 3.0250
L121.8042 3.0250
" />
<path d="M121.4042 3.0250
L120.3042 3.0250
" />
<path d="M119.9042 3.0250
L118.8042 3.0250
" />
<path d="M118.4042 3.0250
L117.3042 3.0250
" />
<path d="M116.9042 3.0250
L115.8042 3.0250
" />
<path d="M115.4042 3.0250
L114.3042 3.0250
" />
<path d="M113.9042 3.0250
L112.8042 3.0250
" />
<path d="M112.4042 3.0250
L111.3042 3.0250
" />
<path d="M110.9042 3.0250
L109.8042 3.0250
" />
<path d="M109.4042 3.0250
L108.3042 3.0250
" />
<path d="M107.9042 3.0250
L106.8042 3.0250
" />
<path d="M106.4042 3.0250
L105.3042 3.0250
" />
<path d="M104.9042 3.0250
L103.8042 3.0250
" />
<path d="M103.4042 3.0250
L102.3042 3.0250
" />
<path d="M101.9042 3.0250
L100.8042 3.0250
" />
<path d="M100.4042 3.0250
L99.3042 3.0250
" />
<path d="M98.9042 3.0250
L97.8042 3.0250
" />
<path d="M97.4042 3.0250
L96.3042 3.0250
" />
<path d="M95.9042 3.0250
L94.8042 3.0250
" />
<path d="M94.4042 3.0250
L93.3042 3.0250
" />
<path d="M92.9042 3.0250
L91.8042 3.0250
" />
<path d="M91.4042 3.0250
L90.3042 3.0250
" />
<path d="M89.9042 3.0250
L88.8042 3.0250
" />
<path d="M88.4042 3.0250
L87.6542 3.0250
" />
<path d="M87.6542 3.0250
L87.6542 2.1750
" />
<path d="M233.2542 8.6750
L234.3542 8.6750
" />
<path d="M234.5542 8.6750
L234.5542 9.7750
" />
<path d="M234.5542 10.1750
L234.5542 11.2750
" />
<path d="M234.5542 11.6750
L234.5542 12.7750
" />
<path d="M234.5542 13.1750
L234.5542 14.2750
" />
<path d="M234.5542 14.6750
L234.5542 15.7750
" />
<path d="M234.5542 16.1750
L234.5542 17.2750
" />
<path d="M234.5542 17.6750
L234.5542 18.7750
" />
<path d="M234.5542 19.1750
L234.5542 20.2750
" />
<path d="M234.5542 20.6750
L234.5542 21.7750
" />
<path d="M234.5542 22.1750
L234.5542 23.2750
" />
<path d="M234.5542 23.6750
L234.5542 24.7750
" />
<path d="M234.5542 25.1750
L234.5542 26.2750
" />
<path d="M234.5542 26.6750
L234.5542 27.7750
" />
<path d="M234.5542 28.1750
L234.5542 29.2750
" />
<path d="M234.5542 29.6750
L234.5542 30.7750
" />
<path d="M234.5542 31.1750
L234.5542 32.2750
" />
<path d="M234.5542 32.6750
L234.5542 33.7750
" />
<path d="M234.5542 34.1750
L234.5542 35.2750
" />
<path d="M234.5542 35.6750
L234.5542 36.7750
" />
<path d="M234.5542 37.1750
L234.5542 38.2750
" />
<path d="M234.5542 38.6750
L234.5542 39.7750
" />
<path d="M234.5542 40.1750
L234.5542 41.2750
" />
<path d="M234.5542 41.6750
L234.5542 42.7750
" />
<path d="M234.5542 43.1750
L234.5542 44.2750
" />
<path d="M234.5542 44.6750
L234.5542 45.7750
" />
<path d="M234.5542 46.1750
L234.5542 47.2750
" />
<path d="M234.5542 47.6750
L234.5542 48.7750
" />
<path d="M234.5542 49.1750
L234.5542 50.2750
" />
<path d="M234.5542 50.6750
L234.5542 51.7750
" />
<path d="M234.5542 52.1750
L234.5542 53.2750
" />
<path d="M234.5542 53.6750
L234.5542 54.7750
" />
<path d="M234.5542 55.1750
L234.5542 56.2750
" />
<path d="M234.5542 56.6750
L234.5542 57.7750
" />
<path d="M234.5542 58.1750
L234.5542 59.2750
" />
<path d="M234.5542 59.6750
L234.5542 60.7750
" />
<path d="M234.5542 61.1750
L234.5542 62.2750
" />
<path d="M234.5542 62.6750
L234.5542 63.7750
" />
<path d="M234.5542 64.1750
L234.5542 65.2750
" />
<path d="M234.5542 65.6750
L234.5542 66.7750
" />
<path d="M234.5542 67.1750
L234.5542 68.2750
" />
<path d="M234.5542 68.6750
L234.5542 69.7750
" />
<path d="M234.5542 70.1750
L234.5542 71.2750
" />
<path d="M234.5542 71.6750
L234.5542 72.7750
" />
<path d="M234.5542 73.1750
L234.5542 74.2750
" />
<path d="M234.5542 74.6750
L234.5542 75.7750
" />
<path d="M234.5542 76.1750
L234.5542 77.2750
" />
<path d="M234.5542 77.6750
L234.5542 78.7750
" />
<path d="M234.5542 79.1750
L234.5542 80.2750
" />
<path d="M234.5542 80.6750
L234.5542 81.7750
" />
<path d="M234.5542 82.1750
L234.5542 83.2750
" />
<path d="M234.5542 83.6750
L234.5542 84.7750
" />
<path d="M234.5542 85.1750
L234.5542 86.2750
" />
<path d="M234.5542 86.6750
L234.5542 87.7750
" />
<path d="M234.5542 88.1750
L234.5542 89.2750
" />
<path d="M234.5542 89.6750
L234.5542 90.7750
" />
<path d="M234.5542 91.1750
L234.5542 92.2750
" />
<path d="M234.5542 92.6750
L234.5542 93.7750
" />
<path d="M234.5542 94.1750
L234.5542 94.5750
" />
<path d="M234.5542 94.5750
L233.4542 94.5750
" />
<path d="M233.2542 94.5750
L233.2542 93.4750
" />
<path d="M233.2542 93.0750
L233.2542 91.9750
" />
<path d="M233.2542 91.5750
L233.2542 90.4750
" />
<path d="M233.2542 90.0750
L233.2542 88.9750
" />
<path d="M233.2542 88.5750
L233.2542 87.4750
" />
<path d="M233.2542 87.0750
L233.2542 85.9750
" />
<path d="M233.2542 85.5750
L233.2542 84.4750
" />
<path d="M233.2542 84.0750
L233.2542 82.9750
" />
<path d="M233.2542 82.5750
L233.2542 81.4750
" />
<path d="M233.2542 81.0750
L233.2542 79.9750
" />
<path d="M233.2542 79.5750
L233.2542 78.4750
" />
<path d="M233.2542 78.0750
L233.2542 76.9750
" />
<path d="M233.2542 76.5750
L233.2542 75.4750
" />
<path d="M233.2542 75.0750
L233.2542 73.9750
" />
<path d="M233.2542 73.5750
L233.2542 72.4750
" />
<path d="M233.2542 72.0750
L233.2542 70.9750
" />
<path d="M233.2542 70.5750
L233.2542 69.4750
" />
<path d="M233.2542 69.0750
L233.2542 67.9750
" />
<path d="M233.2542 67.5750
L233.2542 66.4750
" />
<path d="M233.2542 66.0750
L233.2542 64.9750
" />
<path d="M233.2542 64.5750
L233.2542 63.4750
" />
<path d="M233.2542 63.0750
L233.2542 61.9750
" />
<path d="M233.2542 61.5750
L233.2542 60.4750
" />
<path d="M233.2542 60.0750
L233.2542 58.9750
" />
<path d="M233.2542 58.5750
L233.2542 57.4750
" />
<path d="M233.2542 57.0750
L233.2542 55.9750
" />
<path d="M233.2542 55.5750
L233.2542 54.4750
" />
<path d="M233.2542 54.0750
L233.2542 52.9750
" />
<path d="M233.2542 52.5750
L233.2542 51.4750
" />
<path d="M233.2542 51.0750
L233.2542 49.9750
" />
<path d="M233.2542 49.5750
L233.2542 48.4750
" />
<path d="M233.2542 48.0750
L233.2542 46.9750
" />
<path d="M233.2542 46.5750
L233.2542 45.4750
" />
<path d="M233.2542 45.0750
L233.2542 43.9750
" />
<path d="M233.2542 43.5750
L233.2542 42.4750
" />
<path d="M233.2542 42.0750
L233.2542 40.9750
" />
<path d="M233.2542 40.5750
L233.2542 39.4750
" />
<path d="M233.2542 39.0750
L233.2542 37.9750
" />
<path d="M233.2542 37.5750
L233.2542 36.4750
" />
<path d="M233.2542 36.0750
L233.2542 34.9750
" />
<path d="M233.2542 34.5750
L233.2542 33.4750
" />
<path d="M233.2542 33.0750
L233.2542 31.9750
" />
<path d="M233.2542 31.5750
L233.2542 30.4750
" />
<path d="M233.2542 30.0750
L233.2542 28.9750
" />
<path d="M233.2542 28.5750
L233.2542 27.4750
" />
<path d="M233.2542 27.0750
L233.2542 25.9750
" />
<path d="M233.2542 25.5750
L233.2542 24.4750
" />
<path d="M233.2542 24.0750
L233.2542 22.9750
" />
<path d="M233.2542 22.5750
L233.2542 21.4750
" />
<path d="M233.2542 21.0750
L233.2542 19.9750
" />
<path d="M233.2542 19.5750
L233.2542 18.4750
" />
<path d="M233.2542 18.0750
L233.2542 16.9750
" />
<path d="M233.2542 16.5750
L233.2542 15.4750
" />
<path d="M233.2542 15.0750
L233.2542 13.9750
" />
<path d="M233.2542 13.5750
L233.2542 12.4750
" />
<path d="M233.2542 12.0750
L233.2542 10.9750
" />
<path d="M233.2542 10.5750
L233.2542 9.4750
" />
<path d="M233.2542 9.0750
L233.2542 8.6750
" />
<path d="M7.4542 2.1750
L236.5542 2.1750
" />
<path d="M236.5542 2.1750
L236.5542 196.6750
" />
<path d="M236.5542 196.6750
L7.4542 196.6750
" />
<path d="M7.4542 196.6750
L7.4542 2.1750
" />
<path d="M185.3042 81.3250
L186.1542 81.3250
" />
<path d="M186.1542 81.3250
L186.1542 82.4250
" />
<path d="M186.1542 82.8250
L186.1542 83.9250
" />
<path d="M186.1542 84.3250
L186.1542 85.4250
" />
<path d="M186.1542 85.8250
L186.1542 86.9250
" />
<path d="M186.1542 87.3250
L186.1542 88.4250
" />
<path d="M186.1542 88.8250
L186.1542 89.9250
" />
<path d="M186.1542 90.3250
L186.1542 91.4250
" />
<path d="M186.1542 91.8250
L186.1542 91.8750
" />
<path d="M186.1542 91.8750
L185.3042 91.8750
" />
<path d="M185.3042 91.8750
L185.3042 90.7750
" />
<path d="M185.3042 90.3750
L185.3042 89.2750
" />
<path d="M185.3042 88.8750
L185.3042 87.7750
" />
<path d="M185.3042 87.3750
L185.3042 86.2750
" />
<path d="M185.3042 85.8750
L185.3042 84.7750
" />
<path d="M185.3042 84.3750
L185.3042 83.2750
" />
<path d="M185.3042 82.8750
L185.3042 81.7750
" />
<path d="M185.3042 81.3750
L185.3042 81.3250
" />
<path d="M186.0542 93.6750
L187.1542 93.6750
" />
<path d="M187.5542 93.6750
L188.6542 93.6750
" />
<path d="M189.0542 93.6750
L190.1542 93.6750
" />
<path d="M190.5542 93.6750
L191.6542 93.6750
" />
<path d="M192.0542 93.6750
L193.1542 93.6750
" />
<path d="M193.5542 93.6750
L194.6542 93.6750
" />
<path d="M195.0542 93.6750
L196.1542 93.6750
" />
<path d="M196.5542 93.6750
L197.6542 93.6750
" />
<path d="M198.0542 93.6750
L199.1542 93.6750
" />
<path d="M199.5542 93.6750
L200.6542 93.6750
" />
<path d="M201.0542 93.6750
L202.1542 93.6750
" />
<path d="M202.5542 93.6750
L203.6542 93.6750
" />
<path d="M204.0542 93.6750
L205.1542 93.6750
" />
<path d="M205.5542 93.6750
L206.6542 93.6750
" />
<path d="M207.0542 93.6750
L208.1542 93.6750
" />
<path d="M208.5542 93.6750
L209.6542 93.6750
" />
<path d="M210.0542 93.6750
L211.1542 93.6750
" />
<path d="M211.5542 93.6750
L212.6542 93.6750
" />
<path d="M213.0542 93.6750
L214.1542 93.6750
" />
<path d="M214.5542 93.6750
L215.6542 93.6750
" />
<path d="M216.0542 93.6750
L217.1542 93.6750
" />
<path d="M217.5542 93.6750
L218.6542 93.6750
" />
<path d="M219.0542 93.6750
L220.1542 93.6750
" />
<path d="M220.5542 93.6750
L221.6542 93.6750
" />
<path d="M222.0542 93.6750
L223.1542 93.6750
" />
<path d="M223.5542 93.6750
L224.6542 93.6750
" />
<path d="M225.0542 93.6750
L226.1542 93.6750
" />
<path d="M226.5542 93.6750
L227.6542 93.6750
" />
<path d="M228.0542 93.6750
L229.1542 93.6750
" />
</g>
<g style="fill:#D0D2CD; fill-opacity:1.0000; 
stroke:#D0D2CD; stroke-width:0.0000; stroke-opacity:1; 
stroke-linecap:round; stroke-linejoin:round;">
<circle cx="229.5542" cy="93.6750" r="0.0500" /> 
</g>
<g style="fill:#D0D2CD; fill-opacity:1.0000; 
stroke:#D0D2CD; stroke-width:0.1000; stroke-opacity:1; 
stroke-linecap:round; stroke-linejoin:round;">
</g>
<g style="fill:#D0D2CD; fill-opacity:0.0; 
stroke:#D0D2CD; stroke-width:0.1000; stroke-opacity:1; 
stroke-linecap:round; stroke-linejoin:round;">
<path d="M229.5542 93.6750
L229.5542 94.7750
" />
<path d="M229.5542 94.7750
L228.4542 94.7750
" />
<path d="M228.0542 94.7750
L226.9542 94.7750
" />
<path d="M226.5542 94.7750
L225.4542 94.7750
" />
<path d="M225.0542 94.7750
L223.9542 94.7750
" />
<path d="M223.5542 94.7750
L222.4542 94.7750
" />
<path d="M222.0542 94.7750
L220.9542 94.7750
" />
<path d="M220.5542 94.7750
L219.4542 94.7750
" />
<path d="M219.0542 94.7750
L217.9542 94.7750
" />
<path d="M217.5542 94.7750
L216.4542 94.7750
" />
<path d="M216.0542 94.7750
L214.9542 94.7750
" />
<path d="M214.5542 94.7750
L213.4542 94.7750
" />
<path d="M213.0542 94.7750
L211.9542 94.7750
" />
<path d="M211.5542 94.7750
L210.4542 94.7750
" />
<path d="M210.0542 94.7750
L208.9542 94.7750
" />
<path d="M208.5542 94.7750
L207.4542 94.7750
" />
<path d="M207.0542 94.7750
L205.9542 94.7750
" />
<path d="M205.5542 94.7750
L204.4542 94.7750
" />
<path d="M204.0542 94.7750
L202.9542 94.7750
" />
<path d="M202.5542 94.7750
L201.4542 94.7750
" />
<path d="M201.0542 94.7750
L199.9542 94.7750
" />
<path d="M199.5542 94.7750
L198.4542 94.7750
" />
<path d="M198.0542 94.7750
L196.9542 94.7750
" />
<path d="M196.5542 94.7750
L195.4542 94.7750
" />
<path d="M195.0542 94.7750
L193.9542 94.7750
" />
<path d="M193.5542 94.7750
L192.4542 94.7750
" />
<path d="M192.0542 94.7750
L190.9542 94.7750
" />
<path d="M190.5542 94.7750
L189.4542 94.7750
" />
<path d="M189.0542 94.7750
L187.9542 94.7750
" />
<path d="M187.5542 94.7750
L186.4542 94.7750
" />
</g>
<g style="fill:#D0D2CD; fill-opacity:1.0000; 
stroke:#D0D2CD; stroke-width:0.0000; stroke-opacity:1; 
stroke-linecap:round; stroke-linejoin:round;">
<circle cx="186.0542" cy="94.7750" r="0.0500" /> 
</g>
<g style="fill:#D0D2CD; fill-opacity:1.0000; 
stroke:#D0D2CD; stroke-width:0.1000; stroke-opacity:1; 
stroke-linecap:round; stroke-linejoin:round;">
</g>
<g style="fill:#D0D2CD; fill-opacity:0.0; 
stroke:#D0D2CD; stroke-width:0.1000; stroke-opacity:1; 
stroke-linecap:round; stroke-linejoin:round;">
<path d="M186.0542 94.7750
L186.0542 93.6750
" />
<path d="M185.2042 34.2250
L186.0542 34.2250
" />
<path d="M186.0542 34.2250
L186.0542 35.3250
" />
<path d="M186.0542 35.7250
L186.0542 36.8250
" />
<path d="M186.0542 37.2250
L186.0542 38.3250
" />
<path d="M186.0542 38.7250
L186.0542 39.8250
" />
<path d="M186.0542 40.2250
L186.0542 41.3250
" />
<path d="M186.0542 41.7250
L186.0542 42.8250
" />
<path d="M186.0542 43.2250
L186.0542 44.3250
" />
<path d="M186.0542 44.7250
L186.0542 44.7750
" />
<path d="M186.0542 44.7750
L185.2042 44.7750
" />
<path d="M185.2042 44.7750
L185.2042 43.6750
" />
<path d="M185.2042 43.2750
L185.2042 42.1750
" />
<path d="M185.2042 41.7750
L185.2042 40.6750
" />
<path d="M185.2042 40.2750
L185.2042 39.1750
" />
<path d="M185.2042 38.7750
L185.2042 37.6750
" />
<path d="M185.2042 37.2750
L185.2042 36.1750
" />
<path d="M185.2042 35.7750
L185.2042 34.6750
" />
<path d="M185.2042 34.2750
L185.2042 34.2250
" />
<path d="M88.3042 94.4250
L89.4042 94.4250
" />
<path d="M89.8042 94.4250
L90.9042 94.4250
" />
<path d="M91.3042 94.4250
L92.4042 94.4250
" />
<path d="M92.8042 94.4250
L93.9042 94.4250
" />
<path d="M94.3042 94.4250
L95.4042 94.4250
" />
<path d="M95.8042 94.4250
L96.9042 94.4250
" />
<path d="M97.3042 94.4250
L98.4042 94.4250
" />
<path d="M98.8042 94.4250
L99.9042 94.4250
" />
<path d="M100.3042 94.4250
L101.4042 94.4250
" />
<path d="M101.8042 94.4250
L102.9042 94.4250
" />
<path d="M103.3042 94.4250
L104.4042 94.4250
" />
<path d="M104.8042 94.4250
L105.9042 94.4250
" />
<path d="M106.3042 94.4250
L107.4042 94.4250
" />
<path d="M107.8042 94.4250
L108.9042 94.4250
" />
<path d="M109.3042 94.4250
L110.4042 94.4250
" />
<path d="M110.8042 94.4250
L111.9042 94.4250
" />
<path d="M112.3042 94.4250
L113.4042 94.4250
" />
<path d="M113.8042 94.4250
L114.9042 94.4250
" />
<path d="M115.3042 94.4250
L116.4042 94.4250
" />
<path d="M116.8042 94.4250
L117.9042 94.4250
" />
<path d="M118.3042 94.4250
L119.4042 94.4250
" />
<path d="M119.8042 94.4250
L120.9042 94.4250
" />
<path d="M121.3042 94.4250
L122.4042 94.4250
" />
<path d="M122.8042 94.4250
L123.9042 94.4250
" />
<path d="M124.3042 94.4250
L125.4042 94.4250
" />
<path d="M125.8042 94.4250
L126.9042 94.4250
" />
<path d="M127.3042 94.4250
L128.4042 94.4250
" />
<path d="M128.8042 94.4250
L129.9042 94.4250
" />
<path d="M130.3042 94.4250
L131.4042 94.4250
" />
<path d="M131.8042 94.4250
L132.9042 94.4250
" />
<path d="M133.3042 94.4250
L134.4042 94.4250
" />
<path d="M134.8042 94.4250
L135.9042 94.4250
" />
<path d="M136.3042 94.4250
L137.4042 94.4250
" />
<path d="M137.8042 94.4250
L138.9042 94.4250
" />
<path d="M139.3042 94.4250
L140.4042 94.4250
" />
<path d="M140.8042 94.4250
L141.9042 94.4250
" />
<path d="M142.3042 94.4250
L143.4042 94.4250
" />
<path d="M143.8042 94.4250
L144.9042 94.4250
" />
<path d="M145.3042 94.4250
L146.4042 94.4250
" />
<path d="M146.8042 94.4250
L147.9042 94.4250
" />
<path d="M148.3042 94.4250
L149.4042 94.4250
" />
<path d="M149.8042 94.4250
L150.9042 94.4250
" />
<path d="M151.3042 94.4250
L152.4042 94.4250
" />
<path d="M152.8042 94.4250
L153.9042 94.4250
" />
<path d="M154.3042 94.4250
L155.4042 94.4250
" />
<path d="M155.8042 94.4250
L156.9042 94.4250
" />
<path d="M157.3042 94.4250
L158.4042 94.4250
" />
<path d="M158.8042 94.4250
L159.9042 94.4250
" />
<path d="M160.3042 94.4250
L161.4042 94.4250
" />
<path d="M161.8042 94.4250
L162.9042 94.4250
" />
<path d="M163.3042 94.4250
L164.4042 94.4250
" />
<path d="M164.8042 94.4250
L165.9042 94.4250
" />
<path d="M166.3042 94.4250
L167.4042 94.4250
" />
<path d="M167.8042 94.4250
L168.9042 94.4250
" />
<path d="M169.3042 94.4250
L170.4042 94.4250
" />
<path d="M170.8042 94.4250
L171.5542 94.4250
" />
<path d="M171.5542 94.4250
L171.5542 95.2750
" />
<path d="M171.5542 95.2750
L170.4542 95.2750
" />
<path d="M170.0542 95.2750
L168.9542 95.2750
" />
<path d="M168.5542 95.2750
L167.4542 95.2750
" />
<path d="M167.0542 95.2750
L165.9542 95.2750
" />
<path d="M165.5542 95.2750
L164.4542 95.2750
" />
<path d="M164.0542 95.2750
L162.9542 95.2750
" />
<path d="M162.5542 95.2750
L161.4542 95.2750
" />
<path d="M161.0542 95.2750
L159.9542 95.2750
" />
<path d="M159.5542 95.2750
L158.4542 95.2750
" />
<path d="M158.0542 95.2750
L156.9542 95.2750
" />
<path d="M156.5542 95.2750
L155.4542 95.2750
" />
<path d="M155.0542 95.2750
L153.9542 95.2750
" />
<path d="M153.5542 95.2750
L152.4542 95.2750
" />
<path d="M152.0542 95.2750
L150.9542 95.2750
" />
<path d="M150.5542 95.2750
L149.4542 95.2750
" />
<path d="M149.0542 95.2750
L147.9542 95.2750
" />
<path d="M147.5542 95.2750
L146.4542 95.2750
" />
<path d="M146.0542 95.2750
L144.9542 95.2750
" />
<path d="M144.5542 95.2750
L143.4542 95.2750
" />
<path d="M143.0542 95.2750
L141.9542 95.2750
" />
<path d="M141.5542 95.2750
L140.4542 95.2750
" />
<path d="M140.0542 95.2750
L138.9542 95.2750
" />
<path d="M138.5542 95.2750
L137.4542 95.2750
" />
<path d="M137.0542 95.2750
L135.9542 95.2750
" />
<path d="M135.5542 95.2750
L134.4542 95.2750
" />
<path d="M134.0542 95.2750
L132.9542 95.2750
" />
<path d="M132.5542 95.2750
L131.4542 95.2750
" />
<path d="M131.0542 95.2750
L129.9542 95.2750
" />
<path d="M129.5542 95.2750
L128.4542 95.2750
" />
<path d="M128.0542 95.2750
L126.9542 95.2750
" />
<path d="M126.5542 95.2750
L125.4542 95.2750
" />
<path d="M125.0542 95.2750
L123.9542 95.2750
" />
<path d="M123.5542 95.2750
L122.4542 95.2750
" />
<path d="M122.0542 95.2750
L120.9542 95.2750
" />
<path d="M120.5542 95.2750
L119.4542 95.2750
" />
<path d="M119.0542 95.2750
L117.9542 95.2750
" />
<path d="M117.5542 95.2750
L116.4542 95.2750
" />
<path d="M116.0542 95.2750
L114.9542 95.2750
" />
<path d="M114.5542 95.2750
L113.4542 95.2750
" />
<path d="M113.0542 95.2750
L111.9542 95.2750
" />
<path d="M111.5542 95.2750
L110.4542 95.2750
" />
<path d="M110.0542 95.2750
L108.9542 95.2750
" />
<path d="M108.5542 95.2750
L107.4542 95.2750
" />
<path d="M107.0542 95.2750
L105.9542 95.2750
" />
<path d="M105.5542 95.2750
L104.4542 95.2750
" />
<path d="M104.0542 95.2750
L102.9542 95.2750
" />
<path d="M102.5542 95.2750
L101.4542 95.2750
" />
<path d="M101.0542 95.2750
L99.9542 95.2750
" />
<path d="M99.5542 95.2750
L98.4542 95.2750
" />
<path d="M98.0542 95.2750
L96.9542 95.2750
" />
<path d="M96.5542 95.2750
L95.4542 95.2750
" />
<path d="M95.0542 95.2750
L93.9542 95.2750
" />
<path d="M93.5542 95.2750
L92.4542 95.2750
" />
<path d="M92.0542 95.2750
L90.9542 95.2750
" />
<path d="M90.5542 95.2750
L89.4542 95.2750
" />
<path d="M89.0542 95.2750
L88.3042 95.2750
" />
<path d="M88.3042 95.2750
L88.3042 94.4250
" />
<path d="M185.2042 69.8250
L186.0542 69.8250
" />
<path d="M186.0542 69.8250
L186.0542 70.9250
" />
<path d="M186.0542 71.3250
L186.0542 72.4250
" />
<path d="M186.0542 72.8250
L186.0542 73.9250
" />
<path d="M186.0542 74.3250
L186.0542 75.4250
" />
<path d="M186.0542 75.8250
L186.0542 76.9250
" />
<path d="M186.0542 77.3250
L186.0542 78.4250
" />
<path d="M186.0542 78.8250
L186.0542 79.9250
" />
<path d="M186.0542 80.3250
L186.0542 80.3750
" />
<path d="M186.0542 80.3750
L185.2042 80.3750
" />
<path d="M185.2042 80.3750
L185.2042 79.2750
" />
<path d="M185.2042 78.8750
L185.2042 77.7750
" />
<path d="M185.2042 77.3750
L185.2042 76.2750
" />
<path d="M185.2042 75.8750
L185.2042 74.7750
" />
<path d="M185.2042 74.3750
L185.2042 73.2750
" />
<path d="M185.2042 72.8750
L185.2042 71.7750
" />
<path d="M185.2042 71.3750
L185.2042 70.2750
" />
<path d="M185.2042 69.8750
L185.2042 69.8250
" />
<path d="M186.9542 8.3750
L188.0542 8.3750
" />
<path d="M188.4542 8.3750
L189.5542 8.3750
" />
<path d="M189.9542 8.3750
L191.0542 8.3750
" />
<path d="M191.4542 8.3750
L192.5542 8.3750
" />
<path d="M192.9542 8.3750
L194.0542 8.3750
" />
<path d="M194.4542 8.3750
L195.5542 8.3750
" />
<path d="M195.9542 8.3750
L197.0542 8.3750
" />
<path d="M197.4542 8.3750
L198.5542 8.3750
" />
<path d="M198.9542 8.3750
L200.0542 8.3750
" />
<path d="M200.4542 8.3750
L201.5542 8.3750
" />
<path d="M201.9542 8.3750
L203.0542 8.3750
" />
<path d="M203.4542 8.3750
L204.5542 8.3750
" />
<path d="M204.9542 8.3750
L206.0542 8.3750
" />
<path d="M206.4542 8.3750
L207.5542 8.3750
" />
<path d="M207.9542 8.3750
L209.0542 8.3750
" />
<path d="M209.4542 8.3750
L210.5542 8.3750
" />
<path d="M210.9542 8.3750
L212.0542 8.3750
" />
<path d="M212.4542 8.3750
L213.5542 8.3750
" />
<path d="M213.9542 8.3750
L215.0542 8.3750
" />
<path d="M215.4542 8.3750
L216.5542 8.3750
" />
<path d="M216.9542 8.3750
L218.0542 8.3750
" />
<path d="M218.4542 8.3750
L219.5542 8.3750
" />
<path d="M219.9542 8.3750
L221.0542 8.3750
" />
<path d="M221.4542 8.3750
L222.5542 8.3750
" />
<path d="M222.9542 8.3750
L224.0542 8.3750
" />
<path d="M224.4542 8.3750
L225.5542 8.3750
" />
<path d="M225.9542 8.3750
L227.0542 8.3750
" />
<path d="M227.4542 8.3750
L228.5542 8.3750
" />
<path d="M228.9542 8.3750
L230.0542 8.3750
" />
</g>
<g style="fill:#D0D2CD; fill-opacity:1.0000; 
stroke:#D0D2CD; stroke-width:0.0000; stroke-opacity:1; 
stroke-linecap:round; stroke-linejoin:round;">
<circle cx="230.4542" cy="8.3750" r="0.0500" /> 
</g>
<g style="fill:#D0D2CD; fill-opacity:1.0000; 
stroke:#D0D2CD; stroke-width:0.1000; stroke-opacity:1; 
stroke-linecap:round; stroke-linejoin:round;">
</g>
<g style="fill:#D0D2CD; fill-opacity:0.0; 
stroke:#D0D2CD; stroke-width:0.1000; stroke-opacity:1; 
stroke-linecap:round; stroke-linejoin:round;">
<path d="M230.4542 8.3750
L230.4542 9.4750
" />
<path d="M230.4542 9.4750
L229.3542 9.4750
" />
<path d="M228.9542 9.4750
L227.8542 9.4750
" />
<path d="M227.4542 9.4750
L226.3542 9.4750
" />
<path d="M225.9542 9.4750
L224.8542 9.4750
" />
<path d="M224.4542 9.4750
L223.3542 9.4750
" />
<path d="M222.9542 9.4750
L221.8542 9.4750
" />
<path d="M221.4542 9.4750
L220.3542 9.4750
" />
<path d="M219.9542 9.4750
L218.8542 9.4750
" />
<path d="M218.4542 9.4750
L217.3542 9.4750
" />
<path d="M216.9542 9.4750
L215.8542 9.4750
" />
<path d="M215.4542 9.4750
L214.3542 9.4750
" />
<path d="M213.9542 9.4750
L212.8542 9.4750
" />
<path d="M212.4542 9.4750
L211.3542 9.4750
" />
<path d="M210.9542 9.4750
L209.8542 9.4750
" />
<path d="M209.4542 9.4750
L208.3542 9.4750
" />
<path d="M207.9542 9.4750
L206.8542 9.4750
" />
<path d="M206.4542 9.4750
L205.3542 9.4750
" />
<path d="M204.9542 9.4750
L203.8542 9.4750
" />
<path d="M203.4542 9.4750
L202.3542 9.4750
" />
<path d="M201.9542 9.4750
L200.8542 9.4750
" />
<path d="M200.4542 9.4750
L199.3542 9.4750
" />
<path d="M198.9542 9.4750
L197.8542 9.4750
" />
<path d="M197.4542 9.4750
L196.3542 9.4750
" />
<path d="M195.9542 9.4750
L194.8542 9.4750
" />
<path d="M194.4542 9.4750
L193.3542 9.4750
" />
<path d="M192.9542 9.4750
L191.8542 9.4750
" />
<path d="M191.4542 9.4750
L190.3542 9.4750
" />
<path d="M189.9542 9.4750
L188.8542 9.4750
" />
<path d="M188.4542 9.4750
L187.3542 9.4750
" />
</g>
<g style="fill:#D0D2CD; fill-opacity:1.0000; 
stroke:#D0D2CD; stroke-width:0.0000; stroke-opacity:1; 
stroke-linecap:round; stroke-linejoin:round;">
<circle cx="186.9542" cy="9.4750" r="0.0500" /> 
</g>
<g style="fill:#D0D2CD; fill-opacity:1.0000; 
stroke:#D0D2CD; stroke-width:0.1000; stroke-opacity:1; 
stroke-linecap:round; stroke-linejoin:round;">
</g>
<g style="fill:#D0D2CD; fill-opacity:0.0; 
stroke:#D0D2CD; stroke-width:0.1000; stroke-opacity:1; 
stroke-linecap:round; stroke-linejoin:round;">
<path d="M186.9542 9.4750
L186.9542 8.3750
" />
<path d="M87.8042 86.0250
L87.8042 93.9250
" />
<path d="M87.8042 93.9250
L88.3042 94.4250
" />
<path d="M88.3042 94.4250
L98.5042 94.4250
" />
<path d="M99.0042 86.9750
L99.0042 93.9250
" />
<path d="M99.0042 93.9250
L98.5042 94.4250
" />
<path d="M100.9042 86.9750
L100.9042 93.9250
" />
<path d="M100.9042 93.9250
L101.4042 94.4250
" />
<path d="M101.4042 94.4250
L171.6042 94.4250
" />
<path d="M172.1042 86.0250
L172.1042 93.9250
" />
<path d="M172.1042 93.9250
L171.6042 94.4250
" />
<path d="M100.9042 86.9750 A0.9500 0.9500 0.0 0 0 99.0042 86.9750" />
<path d="M84.2042 7.7250
L76.3042 7.7250
" />
<path d="M76.3042 7.7250
L75.8042 8.2250
" />
<path d="M75.8042 8.2250
L75.8042 18.4250
" />
<path d="M83.2542 18.9250
L76.3042 18.9250
" />
<path d="M76.3042 18.9250
L75.8042 18.4250
" />
<path d="M83.2542 20.8250
L76.3042 20.8250
" />
<path d="M76.3042 20.8250
L75.8042 21.3250
" />
<path d="M75.8042 21.3250
L75.8042 91.5250
" />
<path d="M84.2042 92.0250
L76.3042 92.0250
" />
<path d="M76.3042 92.0250
L75.8042 91.5250
" />
<path d="M83.2542 20.8250 A0.9500 0.9500 0.0 0 0 83.2542 18.9250" />
<path d="M176.8042 92.4250
L184.7042 92.4250
" />
<path d="M184.7042 92.4250
L185.2042 91.9250
" />
<path d="M185.2042 91.9250
L185.2042 81.7250
" />
<path d="M177.7542 81.2250
L184.7042 81.2250
" />
<path d="M184.7042 81.2250
L185.2042 81.7250
" />
<path d="M177.7542 79.3250
L184.7042 79.3250
" />
<path d="M184.7042 79.3250
L185.2042 78.8250
" />
<path d="M185.2042 78.8250
L185.2042 8.6250
" />
<path d="M176.8042 8.1250
L184.7042 8.1250
" />
<path d="M184.7042 8.1250
L185.2042 8.6250
" />
<path d="M177.7542 79.3250 A0.9500 0.9500 0.0 0 0 177.7542 81.2250" />
<path d="M171.4042 11.4250
L171.4042 3.5250
" />
<path d="M171.4042 3.5250
L170.9042 3.0250
" />
<path d="M170.9042 3.0250
L160.7042 3.0250
" />
<path d="M160.2042 10.4750
L160.2042 3.5250
" />
<path d="M160.2042 3.5250
L160.7042 3.0250
" />
<path d="M158.3042 10.4750
L158.3042 3.5250
" />
<path d="M158.3042 3.5250
L157.8042 3.0250
" />
<path d="M157.8042 3.0250
L87.6042 3.0250
" />
<path d="M87.1042 11.4250
L87.1042 3.5250
" />
<path d="M87.1042 3.5250
L87.6042 3.0250
" />
<path d="M158.3042 10.4750 A0.9500 0.9500 0.0 0 0 160.2042 10.4750" />
<g >
</g>
<g >
</g>
<g >
</g>
<g >
</g>
<g >
</g>
<g >
</g>
<g >
</g>
<g >
</g>
<g >
</g>
<g >
</g>
<g >
</g>
<g >
</g>
<g >
</g>
<g >
</g>
<g >
</g>
<g >
</g>
<g >
</g>
<g >
</g>
<g >
</g>
<g >
</g>
<g >
</g>
<g >
</g>
<g >
</g>
<g >
</g>
<g >
</g>
<g >
</g>
<g >
</g>
<g >
</g>
<g >
</g>
<g >
</g>
<g >
</g>
<g >
</g>
<g >
</g>
<g >
</g>
<g >
</g>
<g >
</g>
<g >
</g>
<g >
</g>
<g >
</g>
<g >
</g>
<g >
</g>
<g >
</g>
<g >
</g>
<g >
</g>
<g >
</g>
<g >
</g>
<g >
</g>
<g >
</g>
<g >
</g>
<g >
</g>
<g >
</g>
<g >
</g>
<g >
</g>
<g >
</g>
<g >
</g>
<g >
</g>
<g >
</g>
<g >
</g>
<g >
</g>
<g >
</g>
<g >
</g>
<g >
</g>
<g >
</g>
<g >
</g>
<g >
</g>
<g >
</g>
<g >
</g>
<g >
</g>
<g >
</g>
<g >
</g>
<g >
</g>
<g >
</g>
<g >
</g>
<g >
</g>
<g >
</g>
<g >
</g>
<g >
</g>
<g >
</g>
<g >
</g>
<g >
</g>
<g >
</g>
<g >
</g>
<g >
</g>
<g >
</g>
<g >
</g>
<g >
</g>
<g >
</g>
<g >
</g>
<g >
</g>
<g >
</g>
<g >
</g>
<g >
</g>
<g >
</g>
<g >
</g>
<g >
</g>
<g >
</g>
<g >
</g>
<g >
</g>
<g >
</g>
<g >
</g>
<g >
</g>
<g >
</g>
<g >
</g>
<g >
</g>
<g >
</g>
<g >
</g>
<g >
</g>
<g >
</g>
<g >
</g>
<g >
</g>
<g >
</g>
<g >
</g>
<g >
</g>
<g >
</g>
<g >
</g>
<g >
</g>
<g >
</g>
<g >
</g>
<g >
</g>
<g >
</g>
<g >
</g>
<g >
</g>
<g >
</g>
<g >
</g>
<g >
</g>
<g >
</g>
<g >
</g>
<g >
</g>
<g >
</g>
<g >
</g>
<g >
</g>
<g >
</g>
<g >
</g>
<g >
</g>
<g >
</g>
<g >
</g>
<g >
</g>
<g >
</g>
<g >
</g>
<g >
</g>
<g >
</g>
<g >
</g>
<g >
</g>
<g >
</g>
<g >
</g>
<g >
</g>
<g >
</g>
<g >
</g>
<g >
</g>
<g >
</g>
<g >
</g>
<g >
</g>
<g >
</g>
<g >
</g>
<g >
</g>
<g >
</g>
<g >
</g>
<g >
</g>
<g >
</g>
<g >
</g>
<g >
</g>
<g >
</g>
<g >
</g>
<g >
</g>
<g >
</g>
<g >
</g>
<g >
</g>
</g> 
</svg>
