%FSLAX23Y23*%
%MOIN*%
G70*
G01*
G75*
G04 Layer_Color=65535*
%ADD10R,0.028X0.035*%
%ADD11R,0.035X0.028*%
%ADD12R,0.043X0.039*%
%ADD13R,0.073X0.039*%
%ADD14O,0.150X0.079*%
%ADD15R,0.055X0.031*%
%ADD16R,0.057X0.022*%
%ADD17R,0.057X0.022*%
%ADD18R,0.035X0.017*%
%ADD19O,0.035X0.017*%
%ADD20R,0.040X0.012*%
%ADD21O,0.040X0.012*%
%ADD22C,0.009*%
%ADD23C,0.220*%
%ADD24C,0.059*%
%ADD25R,0.059X0.059*%
%ADD26C,0.060*%
%ADD27R,0.060X0.060*%
%ADD28C,0.024*%
%ADD29R,0.087X0.098*%
%ADD30R,0.087X0.098*%
%ADD31R,0.037X0.039*%
%ADD32C,0.004*%
%ADD33C,0.008*%
%ADD34C,0.010*%
%ADD35C,0.005*%
%ADD36C,0.006*%
D32*
X-199Y265D02*
G03*
X-199Y265I-2J0D01*
G01*
X157Y-7D02*
G03*
X170Y-7I6J0D01*
G01*
X90Y-7D02*
X157D01*
X170D02*
X237D01*
Y-212D02*
Y-7D01*
X90Y-212D02*
X237D01*
X90D02*
Y-7D01*
D33*
X84Y238D02*
G03*
X97Y238I6J0D01*
G01*
X390Y-445D02*
Y-345D01*
X-10Y-445D02*
X390D01*
X-10Y-345D02*
X390D01*
X-10Y-445D02*
Y-345D01*
X479Y163D02*
Y359D01*
X219Y163D02*
Y359D01*
X479D01*
X219Y163D02*
X479D01*
X-185Y144D02*
X-115D01*
X-185Y266D02*
X-115D01*
Y264D02*
Y266D01*
X-185Y264D02*
Y266D01*
X-115Y144D02*
Y146D01*
X-185Y144D02*
Y146D01*
X61Y238D02*
X84D01*
X97D02*
X121D01*
Y135D02*
Y238D01*
X61Y135D02*
X121D01*
X61D02*
Y238D01*
D34*
X-265Y-440D02*
Y-340D01*
X-365Y-440D02*
Y-340D01*
X-65D01*
Y-440D02*
Y-340D01*
X-365Y-440D02*
X-65D01*
X-255Y390D02*
Y490D01*
X-355Y390D02*
Y490D01*
X145D01*
Y390D02*
Y490D01*
X-355Y390D02*
X145D01*
D35*
X-160Y-255D02*
X-165Y-260D01*
Y-270D01*
X-160Y-275D01*
X-140D01*
X-135Y-270D01*
Y-260D01*
X-140Y-255D01*
Y-245D02*
X-135Y-240D01*
Y-230D01*
X-140Y-225D01*
X-160D01*
X-165Y-230D01*
Y-240D01*
X-160Y-245D01*
X-155D01*
X-150Y-240D01*
Y-225D01*
X-90Y-165D02*
X-95Y-170D01*
Y-180D01*
X-90Y-185D01*
X-70D01*
X-65Y-180D01*
Y-170D01*
X-70Y-165D01*
X-95Y-155D02*
Y-135D01*
X-90D01*
X-70Y-155D01*
X-65D01*
X-135Y-140D02*
X-130Y-135D01*
Y-125D01*
X-135Y-120D01*
X-155D01*
X-160Y-125D01*
Y-135D01*
X-155Y-140D01*
X-130Y-170D02*
X-135Y-160D01*
X-145Y-150D01*
X-155D01*
X-160Y-155D01*
Y-165D01*
X-155Y-170D01*
X-150D01*
X-145Y-165D01*
Y-150D01*
X-290Y5D02*
X-295Y10D01*
X-305D01*
X-310Y5D01*
Y-15D01*
X-305Y-20D01*
X-295D01*
X-290Y-15D01*
X-265Y-20D02*
Y10D01*
X-280Y-5D01*
X-260D01*
X130Y95D02*
X125Y100D01*
X115D01*
X110Y95D01*
Y75D01*
X115Y70D01*
X125D01*
X130Y75D01*
X140Y95D02*
X145Y100D01*
X155D01*
X160Y95D01*
Y90D01*
X155Y85D01*
X150D01*
X155D01*
X160Y80D01*
Y75D01*
X155Y70D01*
X145D01*
X140Y75D01*
X-315Y-240D02*
Y-210D01*
X-300D01*
X-295Y-215D01*
Y-225D01*
X-300Y-230D01*
X-315D01*
X-305D02*
X-295Y-240D01*
X-265Y-210D02*
X-275Y-215D01*
X-285Y-225D01*
Y-235D01*
X-280Y-240D01*
X-270D01*
X-265Y-235D01*
Y-230D01*
X-270Y-225D01*
X-285D01*
X-220Y315D02*
Y290D01*
X-215Y285D01*
X-205D01*
X-200Y290D01*
Y315D01*
X-190Y310D02*
X-185Y315D01*
X-175D01*
X-170Y310D01*
Y305D01*
X-175Y300D01*
X-180D01*
X-175D01*
X-170Y295D01*
Y290D01*
X-175Y285D01*
X-185D01*
X-190Y290D01*
X21Y50D02*
Y25D01*
X26Y20D01*
X36D01*
X41Y25D01*
Y50D01*
X71Y20D02*
X51D01*
X71Y40D01*
Y45D01*
X66Y50D01*
X56D01*
X51Y45D01*
X-5Y290D02*
Y265D01*
X-0Y260D01*
X10D01*
X15Y265D01*
Y290D01*
X25Y260D02*
X35D01*
X30D01*
Y290D01*
X25Y285D01*
X-300Y90D02*
X-330D01*
Y105D01*
X-325Y110D01*
X-315D01*
X-310Y105D01*
Y90D01*
Y100D02*
X-300Y110D01*
Y120D02*
Y130D01*
Y125D01*
X-330D01*
X-325Y120D01*
Y145D02*
X-330Y150D01*
Y160D01*
X-325Y165D01*
X-305D01*
X-300Y160D01*
Y150D01*
X-305Y145D01*
X-325D01*
X-300Y320D02*
Y350D01*
X-285D01*
X-280Y345D01*
Y335D01*
X-285Y330D01*
X-300D01*
X-290D02*
X-280Y320D01*
X-270Y325D02*
X-265Y320D01*
X-255D01*
X-250Y325D01*
Y345D01*
X-255Y350D01*
X-265D01*
X-270Y345D01*
Y340D01*
X-265Y335D01*
X-250D01*
X145Y-275D02*
Y-245D01*
X160D01*
X165Y-250D01*
Y-260D01*
X160Y-265D01*
X145D01*
X155D02*
X165Y-275D01*
X175Y-250D02*
X180Y-245D01*
X190D01*
X195Y-250D01*
Y-255D01*
X190Y-260D01*
X195Y-265D01*
Y-270D01*
X190Y-275D01*
X180D01*
X175Y-270D01*
Y-265D01*
X180Y-260D01*
X175Y-255D01*
Y-250D01*
X180Y-260D02*
X190D01*
X-20Y-310D02*
X-50D01*
Y-295D01*
X-45Y-290D01*
X-35D01*
X-30Y-295D01*
Y-310D01*
Y-300D02*
X-20Y-290D01*
X-50Y-280D02*
Y-260D01*
X-45D01*
X-25Y-280D01*
X-20D01*
X-305Y-155D02*
Y-125D01*
X-290D01*
X-285Y-130D01*
Y-140D01*
X-290Y-145D01*
X-305D01*
X-295D02*
X-285Y-155D01*
X-275D02*
X-265D01*
X-270D01*
Y-125D01*
X-275Y-130D01*
X240Y393D02*
Y413D01*
X235Y418D01*
X225D01*
X220Y413D01*
Y393D01*
X225Y388D01*
X235D01*
X230Y398D02*
X240Y388D01*
X235D02*
X240Y393D01*
X250Y388D02*
X260D01*
X255D01*
Y418D01*
X250Y413D01*
X55Y-300D02*
X45D01*
X50D01*
Y-325D01*
X45Y-330D01*
X40D01*
X35Y-325D01*
X65Y-305D02*
X70Y-300D01*
X80D01*
X85Y-305D01*
Y-310D01*
X80Y-315D01*
X75D01*
X80D01*
X85Y-320D01*
Y-325D01*
X80Y-330D01*
X70D01*
X65Y-325D01*
X-235Y70D02*
X-240Y65D01*
Y55D01*
X-235Y50D01*
X-215D01*
X-210Y55D01*
Y65D01*
X-215Y70D01*
X-210Y80D02*
Y90D01*
Y85D01*
X-240D01*
X-235Y80D01*
X-210Y125D02*
Y105D01*
X-230Y125D01*
X-235D01*
X-240Y120D01*
Y110D01*
X-235Y105D01*
X260Y100D02*
X255Y105D01*
X245D01*
X240Y100D01*
Y80D01*
X245Y75D01*
X255D01*
X260Y80D01*
X270Y75D02*
X280D01*
X275D01*
Y105D01*
X270Y100D01*
X295Y75D02*
X305D01*
X300D01*
Y105D01*
X295Y100D01*
X100Y345D02*
X95Y350D01*
X85D01*
X80Y345D01*
Y325D01*
X85Y320D01*
X95D01*
X100Y325D01*
X110Y345D02*
X115Y350D01*
X125D01*
X130Y345D01*
Y340D01*
X125Y335D01*
X130Y330D01*
Y325D01*
X125Y320D01*
X115D01*
X110Y325D01*
Y330D01*
X115Y335D01*
X110Y340D01*
Y345D01*
X115Y335D02*
X125D01*
X-95Y-45D02*
X-100Y-50D01*
Y-60D01*
X-95Y-65D01*
X-75D01*
X-70Y-60D01*
Y-50D01*
X-75Y-45D01*
X-100Y-15D02*
Y-35D01*
X-85D01*
X-90Y-25D01*
Y-20D01*
X-85Y-15D01*
X-75D01*
X-70Y-20D01*
Y-30D01*
X-75Y-35D01*
D36*
X-415Y-345D02*
X-425D01*
X-420D01*
Y-370D01*
X-425Y-375D01*
X-430D01*
X-435Y-370D01*
X-405Y-375D02*
X-395D01*
X-400D01*
Y-345D01*
X-405Y-350D01*
X185Y485D02*
X175D01*
X180D01*
Y460D01*
X175Y455D01*
X170D01*
X165Y460D01*
X215Y455D02*
X195D01*
X215Y475D01*
Y480D01*
X210Y485D01*
X200D01*
X195Y480D01*
M02*
