%FSLAX23Y23*%
%MOIN*%
G70*
G01*
G75*
G04 Layer_Color=128*
%ADD10R,0.028X0.035*%
%ADD11R,0.035X0.028*%
%ADD12R,0.043X0.039*%
%ADD13R,0.073X0.039*%
%ADD14O,0.150X0.079*%
%ADD15R,0.055X0.031*%
%ADD16R,0.057X0.022*%
%ADD17R,0.057X0.022*%
%ADD18R,0.035X0.017*%
%ADD19O,0.035X0.017*%
%ADD20R,0.040X0.012*%
%ADD21O,0.040X0.012*%
%ADD22C,0.009*%
%ADD23C,0.220*%
%ADD24C,0.059*%
%ADD25R,0.059X0.059*%
%ADD26C,0.060*%
%ADD27R,0.060X0.060*%
%ADD28C,0.024*%
%ADD29R,0.087X0.098*%
%ADD30R,0.087X0.098*%
%ADD31R,0.037X0.039*%
%ADD32C,0.004*%
%ADD33C,0.008*%
%ADD34C,0.010*%
%ADD35C,0.005*%
%ADD36C,0.006*%
%ADD37C,0.010*%
%ADD38R,0.036X0.043*%
%ADD39R,0.043X0.036*%
%ADD40R,0.051X0.047*%
%ADD41R,0.081X0.047*%
%ADD42O,0.158X0.087*%
%ADD43R,0.063X0.039*%
%ADD44R,0.065X0.030*%
%ADD45R,0.065X0.030*%
%ADD46R,0.043X0.025*%
%ADD47O,0.043X0.025*%
%ADD48R,0.048X0.020*%
%ADD49O,0.048X0.020*%
%ADD50C,0.228*%
%ADD51C,0.067*%
%ADD52R,0.067X0.067*%
%ADD53C,0.068*%
%ADD54R,0.068X0.068*%
%ADD55C,0.032*%
%ADD56R,0.095X0.106*%
%ADD57R,0.095X0.106*%
%ADD58R,0.045X0.047*%
%ADD59C,0.007*%
D32*
X-550Y0D02*
X-430D01*
X-490Y-60D02*
Y60D01*
X425Y0D02*
X545D01*
X485Y-60D02*
Y60D01*
X322Y-395D02*
X358D01*
X340Y-413D02*
Y-377D01*
X222Y-395D02*
X258D01*
X240Y-413D02*
Y-377D01*
X22Y-395D02*
X58D01*
X40Y-413D02*
Y-377D01*
X122Y-395D02*
X158D01*
X140Y-413D02*
Y-377D01*
X-132Y-390D02*
X-97D01*
X-115Y-407D02*
Y-373D01*
X-233Y-390D02*
X-198D01*
X-215Y-407D02*
Y-373D01*
X-333Y-390D02*
X-298D01*
X-315Y-407D02*
Y-373D01*
X78Y440D02*
X112D01*
X95Y423D02*
Y458D01*
X-23Y440D02*
X13D01*
X-5Y423D02*
Y458D01*
X-123Y440D02*
X-87D01*
X-105Y423D02*
Y458D01*
X-222Y440D02*
X-188D01*
X-205Y423D02*
Y458D01*
X-322Y440D02*
X-287D01*
X-305Y423D02*
Y458D01*
X176Y-145D02*
X188D01*
X182Y-151D02*
Y-139D01*
X125Y-148D02*
X137D01*
X131Y-154D02*
Y-142D01*
X-477Y-190D02*
X-465D01*
X-471Y-196D02*
Y-184D01*
X199Y379D02*
X211D01*
X205Y373D02*
Y385D01*
X-383Y-152D02*
X-371D01*
X-377Y-158D02*
Y-146D01*
X-170Y-255D02*
X-158D01*
X-164Y-261D02*
Y-249D01*
X-83Y-54D02*
X-71D01*
X-77Y-60D02*
Y-48D01*
X141Y-20D02*
X153D01*
X147Y-26D02*
Y-14D01*
X-15Y-46D02*
X-3D01*
X-9Y-52D02*
Y-40D01*
X-319Y111D02*
X-307D01*
X-313Y105D02*
Y117D01*
X15Y296D02*
X27D01*
X21Y290D02*
Y302D01*
X-74Y85D02*
X-62D01*
X-68Y79D02*
Y91D01*
X237Y157D02*
X249D01*
X243Y151D02*
Y163D01*
X245Y-225D02*
X257D01*
X251Y-231D02*
Y-219D01*
X192Y-4D02*
X204D01*
X198Y-10D02*
Y2D01*
X-414Y122D02*
X-402D01*
X-408Y116D02*
Y128D01*
X-37Y339D02*
X-25D01*
X-31Y333D02*
Y345D01*
X89Y174D02*
X101D01*
X95Y168D02*
Y180D01*
X82Y181D02*
X94D01*
X88Y175D02*
Y187D01*
X-436Y-158D02*
X-424D01*
X-430Y-164D02*
Y-152D01*
X-224Y-69D02*
X-212D01*
X-218Y-75D02*
Y-63D01*
X-24Y265D02*
X-12D01*
X-18Y259D02*
Y271D01*
M02*
