%FSLAX23Y23*%
%MOIN*%
G70*
G01*
G75*
G04 Layer_Color=8421504*
G04 Layer_Color=8421504*
%ADD10R,0.028X0.035*%
%ADD11R,0.035X0.028*%
%ADD12R,0.043X0.039*%
%ADD13R,0.073X0.039*%
%ADD14O,0.150X0.079*%
%ADD15R,0.055X0.031*%
%ADD16R,0.057X0.022*%
%ADD17R,0.057X0.022*%
%ADD18R,0.035X0.017*%
%ADD19O,0.035X0.017*%
%ADD20R,0.040X0.012*%
%ADD21O,0.040X0.012*%
%ADD22C,0.009*%
%ADD23C,0.220*%
%ADD24C,0.059*%
%ADD25R,0.059X0.059*%
%ADD26C,0.060*%
%ADD27R,0.060X0.060*%
%ADD28C,0.024*%
%ADD29R,0.087X0.098*%
%ADD30R,0.087X0.098*%
%ADD31R,0.037X0.039*%
%ADD32C,0.004*%
%ADD33C,0.008*%
%ADD34C,0.010*%
%ADD35C,0.005*%
%ADD36C,0.006*%
%ADD37C,0.010*%
D10*
X-40Y-134D02*
D03*
Y-186D02*
D03*
X-120Y-24D02*
D03*
Y-76D02*
D03*
X-185Y-171D02*
D03*
Y-119D02*
D03*
X-270Y99D02*
D03*
Y151D02*
D03*
X-110Y-261D02*
D03*
Y-209D02*
D03*
X0Y-244D02*
D03*
Y-296D02*
D03*
X-285Y296D02*
D03*
Y244D02*
D03*
D11*
X-186Y85D02*
D03*
X-134D02*
D03*
X-264Y-105D02*
D03*
X-316D02*
D03*
X129Y50D02*
D03*
X181D02*
D03*
X311D02*
D03*
X259D02*
D03*
X-264Y-190D02*
D03*
X-316D02*
D03*
X64Y-260D02*
D03*
X116D02*
D03*
X-264Y-40D02*
D03*
X-316D02*
D03*
D12*
X168Y295D02*
D03*
X102D02*
D03*
D13*
X270Y261D02*
D03*
D14*
X380D02*
D03*
D15*
X270Y202D02*
D03*
Y320D02*
D03*
D16*
X-192Y242D02*
D03*
D17*
Y205D02*
D03*
Y168D02*
D03*
X-108D02*
D03*
Y242D02*
D03*
D18*
X10Y225D02*
D03*
D19*
Y199D02*
D03*
Y174D02*
D03*
Y148D02*
D03*
X171Y225D02*
D03*
Y199D02*
D03*
Y174D02*
D03*
Y148D02*
D03*
D20*
X40Y-20D02*
D03*
D21*
Y-46D02*
D03*
Y-71D02*
D03*
Y-97D02*
D03*
Y-122D02*
D03*
Y-148D02*
D03*
Y-174D02*
D03*
Y-199D02*
D03*
X290Y-20D02*
D03*
Y-46D02*
D03*
Y-71D02*
D03*
Y-97D02*
D03*
Y-122D02*
D03*
Y-148D02*
D03*
Y-174D02*
D03*
Y-199D02*
D03*
M02*
