%FSLAX23Y23*%
%MOIN*%
G70*
G01*
G75*
G04 Layer_Color=32896*
%ADD10R,0.028X0.035*%
%ADD11R,0.035X0.028*%
%ADD12R,0.043X0.039*%
%ADD13R,0.073X0.039*%
%ADD14O,0.150X0.079*%
%ADD15R,0.055X0.031*%
%ADD16R,0.057X0.022*%
%ADD17R,0.057X0.022*%
%ADD18R,0.035X0.017*%
%ADD19O,0.035X0.017*%
%ADD20R,0.040X0.012*%
%ADD21O,0.040X0.012*%
%ADD22C,0.009*%
%ADD23C,0.220*%
%ADD24C,0.059*%
%ADD25R,0.059X0.059*%
%ADD26C,0.060*%
%ADD27R,0.060X0.060*%
%ADD28C,0.024*%
%ADD29R,0.087X0.098*%
%ADD30R,0.087X0.098*%
%ADD31R,0.037X0.039*%
%ADD32C,0.004*%
%ADD33C,0.008*%
%ADD34C,0.010*%
%ADD35C,0.005*%
%ADD36C,0.006*%
%ADD37C,0.010*%
D33*
X-231Y122D02*
G03*
X-231Y73I0J-25D01*
G01*
X139Y212D02*
G03*
X139Y163I0J-25D01*
G01*
X-329Y87D02*
X-231D01*
X-329D02*
Y108D01*
X-231D01*
Y122D01*
Y73D02*
Y87D01*
X-482Y-249D02*
Y-196D01*
X-378Y-249D02*
Y-196D01*
X-396D02*
X-378D01*
X-482D02*
X-464D01*
X41Y177D02*
X139D01*
X41D02*
Y198D01*
X139D01*
Y212D01*
Y163D02*
Y177D01*
D35*
X-80Y265D02*
X-60D01*
Y250D01*
X-70D01*
X-60D01*
Y235D01*
X-90Y265D02*
Y235D01*
X-105D01*
X-110Y240D01*
Y245D01*
X-105Y250D01*
X-90D01*
X-105D01*
X-110Y255D01*
Y260D01*
X-105Y265D01*
X-90D01*
X-140Y235D02*
X-120D01*
X-140Y255D01*
Y260D01*
X-135Y265D01*
X-125D01*
X-120Y260D01*
X-95Y375D02*
X-75D01*
Y360D01*
X-85D01*
X-75D01*
Y345D01*
X-105Y375D02*
Y345D01*
X-120D01*
X-125Y350D01*
Y355D01*
X-120Y360D01*
X-105D01*
X-120D01*
X-125Y365D01*
Y370D01*
X-120Y375D01*
X-105D01*
X-135Y345D02*
X-145D01*
X-140D01*
Y375D01*
X-135Y370D01*
X-150Y-75D02*
X-120D01*
Y-60D01*
X-125Y-55D01*
X-135D01*
X-140Y-60D01*
Y-75D01*
Y-65D02*
X-150Y-55D01*
X-120Y-25D02*
Y-45D01*
X-135D01*
X-130Y-35D01*
Y-30D01*
X-135Y-25D01*
X-145D01*
X-150Y-30D01*
Y-40D01*
X-145Y-45D01*
X-27Y-107D02*
Y-77D01*
X-42D01*
X-47Y-82D01*
Y-92D01*
X-42Y-97D01*
X-27D01*
X-37D02*
X-47Y-107D01*
X-72D02*
Y-77D01*
X-57Y-92D01*
X-77D01*
X98Y-107D02*
Y-77D01*
X83D01*
X78Y-82D01*
Y-92D01*
X83Y-97D01*
X98D01*
X88D02*
X78Y-107D01*
X68Y-82D02*
X63Y-77D01*
X53D01*
X48Y-82D01*
Y-87D01*
X53Y-92D01*
X58D01*
X53D01*
X48Y-97D01*
Y-102D01*
X53Y-107D01*
X63D01*
X68Y-102D01*
X-155Y50D02*
X-125D01*
Y65D01*
X-130Y70D01*
X-140D01*
X-145Y65D01*
Y50D01*
Y60D02*
X-155Y70D01*
Y100D02*
Y80D01*
X-135Y100D01*
X-130D01*
X-125Y95D01*
Y85D01*
X-130Y80D01*
X-232Y298D02*
Y268D01*
X-247D01*
X-252Y273D01*
Y293D01*
X-247Y298D01*
X-232D01*
X-262Y293D02*
X-267Y298D01*
X-277D01*
X-282Y293D01*
Y288D01*
X-277Y283D01*
X-272D01*
X-277D01*
X-282Y278D01*
Y273D01*
X-277Y268D01*
X-267D01*
X-262Y273D01*
X-470Y-150D02*
Y-180D01*
X-485D01*
X-490Y-175D01*
Y-155D01*
X-485Y-150D01*
X-470D01*
X-520Y-180D02*
X-500D01*
X-520Y-160D01*
Y-155D01*
X-515Y-150D01*
X-505D01*
X-500Y-155D01*
X138Y388D02*
Y358D01*
X123D01*
X118Y363D01*
Y383D01*
X123Y388D01*
X138D01*
X108Y358D02*
X98D01*
X103D01*
Y388D01*
X108Y383D01*
X-219Y-165D02*
X-224Y-160D01*
Y-150D01*
X-219Y-145D01*
X-199D01*
X-194Y-150D01*
Y-160D01*
X-199Y-165D01*
X-194Y-175D02*
Y-185D01*
Y-180D01*
X-224D01*
X-219Y-175D01*
Y-200D02*
X-224Y-205D01*
Y-215D01*
X-219Y-220D01*
X-199D01*
X-194Y-215D01*
Y-205D01*
X-199Y-200D01*
X-219D01*
X263Y187D02*
X268Y192D01*
X278D01*
X283Y187D01*
Y167D01*
X278Y162D01*
X268D01*
X263Y167D01*
X233Y162D02*
X253D01*
X233Y182D01*
Y187D01*
X238Y192D01*
X248D01*
X253Y187D01*
X193D02*
X198Y192D01*
X208D01*
X213Y187D01*
Y167D01*
X208Y162D01*
X198D01*
X193Y167D01*
X183Y162D02*
X173D01*
X178D01*
Y192D01*
X183Y187D01*
D37*
X-347Y-284D02*
G03*
X-347Y-284I-5J0D01*
G01*
M02*
