M48
;Layer_Color=9474304
;FILE_FORMAT=2:5
INCH,LZ
;TYPE=PLATED
T1F00S00C0.01200
T2F00S00C0.03500
T3F00S00C0.03543
T4F00S00C0.12000
%
T01
X-0016441Y-00255
X-00218Y-00069
X-00077Y-00054
X-0000882Y-0004559
X00147Y-0002
X0019823Y-00004
X00182Y-00145
X00131Y-0014795
X00251Y-00225
X00243Y00157
X00095Y00174
X0008846Y0018054
X00021Y0029559
X-00018Y00265
X-00031Y00339
X00205Y00379
X-00068Y00085
X-00313Y00111
X-00408Y00122
X-0043Y-00158
X-00377Y-00152
X-00471Y-0019
T02
X-00315Y-0039
X-00215
X-00115
X-00105Y0044
X-00205
X-00305
X-00005
X00095
T03
X0004Y-0039496
X0014
X0024
X0034
T04
X00485Y0
X-0049
M30
