M48
; DRILL file {KiCad (7.0.0)} date Mon Mar  6 14:49:43 2023
; FORMAT={-:-/ absolute / inch / decimal}
; #@! TF.CreationDate,2023-03-06T14:49:43-05:00
; #@! TF.GenerationSoftware,Kicad,Pcbnew,(7.0.0)
; #@! TF.FileFunction,NonPlated,1,4,NPTH
FMAT,2
INCH
; #@! TA.AperFunction,NonPlated,NPTH,ComponentDrill
T1C0.0256
; #@! TA.AperFunction,NonPlated,NPTH,ComponentDrill
T2C0.0335
; #@! TA.AperFunction,NonPlated,NPTH,ComponentDrill
T3C0.0390
; #@! TA.AperFunction,NonPlated,NPTH,ComponentDrill
T4C0.0935
%
G90
G05
T1
X1.1827Y-2.9513
T2
X15.491Y-1.5773
X15.491Y-1.8607
T3
X8.015Y-1.569
X8.03Y-7.584
X8.055Y-1.269
X8.055Y-4.624
X8.07Y-7.284
X8.095Y-1.569
X8.095Y-4.324
X8.11Y-7.584
X8.135Y-4.624
X11.77Y-1.304
X11.78Y-4.599
X11.81Y-1.604
X11.82Y-4.299
X11.84Y-7.584
X11.85Y-1.304
X11.86Y-4.599
X11.88Y-7.284
X11.92Y-7.584
X15.53Y-7.634
X15.53Y-7.714
X15.695Y-4.584
X15.735Y-4.284
X15.775Y-4.584
X15.83Y-7.674
T4
X7.955Y-1.269
X7.955Y-1.494
X7.97Y-7.284
X7.97Y-7.509
X7.995Y-4.324
X7.995Y-4.549
X8.155Y-1.269
X8.155Y-1.494
X8.17Y-7.284
X8.17Y-7.509
X8.195Y-4.324
X8.195Y-4.549
X11.71Y-1.379
X11.71Y-1.604
X11.72Y-4.299
X11.72Y-4.524
X11.78Y-7.284
X11.78Y-7.509
X11.91Y-1.379
X11.91Y-1.604
X11.92Y-4.299
X11.92Y-4.524
X11.98Y-7.284
X11.98Y-7.509
X15.605Y-7.574
X15.605Y-7.774
X15.635Y-4.284
X15.635Y-4.509
X15.83Y-7.574
X15.83Y-7.774
X15.835Y-4.284
X15.835Y-4.509
T1
G00X1.1827Y-3.2288
M15
G01X1.1827Y-3.2406
M16
G05
T0
M30
