%TF.GenerationSoftware,KiCad,Pcbnew,(7.0.0)*%
%TF.CreationDate,2023-03-06T14:49:50-05:00*%
%TF.ProjectId,FPGAs-Ard_RPi_BB,46504741-732d-4417-9264-5f5250695f42,rev?*%
%TF.SameCoordinates,Original*%
%TF.FileFunction,Drillmap*%
%TF.FilePolarity,Positive*%
%FSLAX45Y45*%
G04 Gerber Fmt 4.5, Leading zero omitted, Abs format (unit mm)*
G04 Created by KiCad (PCBNEW (7.0.0)) date 2023-03-06 14:49:50*
%MOMM*%
%LPD*%
G01*
G04 APERTURE LIST*
%ADD10C,0.200000*%
%ADD11C,0.015240*%
G04 APERTURE END LIST*
D10*
D11*
X18704780Y-4343400D02*
X18720020Y-4358640D01*
X18720020Y-4343400D02*
X18704780Y-4358640D01*
D10*
X39547219Y-5127736D02*
X39547219Y-4927736D01*
X39547219Y-4927736D02*
X39594838Y-4927736D01*
X39594838Y-4927736D02*
X39623410Y-4937260D01*
X39623410Y-4937260D02*
X39642457Y-4956308D01*
X39642457Y-4956308D02*
X39651981Y-4975355D01*
X39651981Y-4975355D02*
X39661505Y-5013450D01*
X39661505Y-5013450D02*
X39661505Y-5042022D01*
X39661505Y-5042022D02*
X39651981Y-5080117D01*
X39651981Y-5080117D02*
X39642457Y-5099165D01*
X39642457Y-5099165D02*
X39623410Y-5118212D01*
X39623410Y-5118212D02*
X39594838Y-5127736D01*
X39594838Y-5127736D02*
X39547219Y-5127736D01*
X39747219Y-5127736D02*
X39747219Y-4994403D01*
X39747219Y-5032498D02*
X39756743Y-5013450D01*
X39756743Y-5013450D02*
X39766267Y-5003927D01*
X39766267Y-5003927D02*
X39785314Y-4994403D01*
X39785314Y-4994403D02*
X39804362Y-4994403D01*
X39871029Y-5127736D02*
X39871029Y-4994403D01*
X39871029Y-4927736D02*
X39861505Y-4937260D01*
X39861505Y-4937260D02*
X39871029Y-4946784D01*
X39871029Y-4946784D02*
X39880552Y-4937260D01*
X39880552Y-4937260D02*
X39871029Y-4927736D01*
X39871029Y-4927736D02*
X39871029Y-4946784D01*
X39994838Y-5127736D02*
X39975790Y-5118212D01*
X39975790Y-5118212D02*
X39966267Y-5099165D01*
X39966267Y-5099165D02*
X39966267Y-4927736D01*
X40099600Y-5127736D02*
X40080552Y-5118212D01*
X40080552Y-5118212D02*
X40071029Y-5099165D01*
X40071029Y-5099165D02*
X40071029Y-4927736D01*
X40295790Y-5127736D02*
X40295790Y-4927736D01*
X40295790Y-4927736D02*
X40362457Y-5070593D01*
X40362457Y-5070593D02*
X40429124Y-4927736D01*
X40429124Y-4927736D02*
X40429124Y-5127736D01*
X40610076Y-5127736D02*
X40610076Y-5022974D01*
X40610076Y-5022974D02*
X40600552Y-5003927D01*
X40600552Y-5003927D02*
X40581505Y-4994403D01*
X40581505Y-4994403D02*
X40543409Y-4994403D01*
X40543409Y-4994403D02*
X40524362Y-5003927D01*
X40610076Y-5118212D02*
X40591029Y-5127736D01*
X40591029Y-5127736D02*
X40543409Y-5127736D01*
X40543409Y-5127736D02*
X40524362Y-5118212D01*
X40524362Y-5118212D02*
X40514838Y-5099165D01*
X40514838Y-5099165D02*
X40514838Y-5080117D01*
X40514838Y-5080117D02*
X40524362Y-5061070D01*
X40524362Y-5061070D02*
X40543409Y-5051546D01*
X40543409Y-5051546D02*
X40591029Y-5051546D01*
X40591029Y-5051546D02*
X40610076Y-5042022D01*
X40705314Y-4994403D02*
X40705314Y-5194403D01*
X40705314Y-5003927D02*
X40724362Y-4994403D01*
X40724362Y-4994403D02*
X40762457Y-4994403D01*
X40762457Y-4994403D02*
X40781505Y-5003927D01*
X40781505Y-5003927D02*
X40791029Y-5013450D01*
X40791029Y-5013450D02*
X40800552Y-5032498D01*
X40800552Y-5032498D02*
X40800552Y-5089641D01*
X40800552Y-5089641D02*
X40791029Y-5108689D01*
X40791029Y-5108689D02*
X40781505Y-5118212D01*
X40781505Y-5118212D02*
X40762457Y-5127736D01*
X40762457Y-5127736D02*
X40724362Y-5127736D01*
X40724362Y-5127736D02*
X40705314Y-5118212D01*
X40886267Y-5108689D02*
X40895790Y-5118212D01*
X40895790Y-5118212D02*
X40886267Y-5127736D01*
X40886267Y-5127736D02*
X40876743Y-5118212D01*
X40876743Y-5118212D02*
X40886267Y-5108689D01*
X40886267Y-5108689D02*
X40886267Y-5127736D01*
X40886267Y-5003927D02*
X40895790Y-5013450D01*
X40895790Y-5013450D02*
X40886267Y-5022974D01*
X40886267Y-5022974D02*
X40876743Y-5013450D01*
X40876743Y-5013450D02*
X40886267Y-5003927D01*
X40886267Y-5003927D02*
X40886267Y-5022974D01*
D11*
X39284360Y-5466640D02*
X39299600Y-5481880D01*
X39299600Y-5466640D02*
X39284360Y-5481880D01*
D10*
X39585314Y-5347736D02*
X39604362Y-5347736D01*
X39604362Y-5347736D02*
X39623410Y-5357260D01*
X39623410Y-5357260D02*
X39632933Y-5366784D01*
X39632933Y-5366784D02*
X39642457Y-5385831D01*
X39642457Y-5385831D02*
X39651981Y-5423927D01*
X39651981Y-5423927D02*
X39651981Y-5471546D01*
X39651981Y-5471546D02*
X39642457Y-5509641D01*
X39642457Y-5509641D02*
X39632933Y-5528689D01*
X39632933Y-5528689D02*
X39623410Y-5538212D01*
X39623410Y-5538212D02*
X39604362Y-5547736D01*
X39604362Y-5547736D02*
X39585314Y-5547736D01*
X39585314Y-5547736D02*
X39566267Y-5538212D01*
X39566267Y-5538212D02*
X39556743Y-5528689D01*
X39556743Y-5528689D02*
X39547219Y-5509641D01*
X39547219Y-5509641D02*
X39537695Y-5471546D01*
X39537695Y-5471546D02*
X39537695Y-5423927D01*
X39537695Y-5423927D02*
X39547219Y-5385831D01*
X39547219Y-5385831D02*
X39556743Y-5366784D01*
X39556743Y-5366784D02*
X39566267Y-5357260D01*
X39566267Y-5357260D02*
X39585314Y-5347736D01*
X39737695Y-5528689D02*
X39747219Y-5538212D01*
X39747219Y-5538212D02*
X39737695Y-5547736D01*
X39737695Y-5547736D02*
X39728171Y-5538212D01*
X39728171Y-5538212D02*
X39737695Y-5528689D01*
X39737695Y-5528689D02*
X39737695Y-5547736D01*
X39937695Y-5547736D02*
X39823410Y-5547736D01*
X39880552Y-5547736D02*
X39880552Y-5347736D01*
X39880552Y-5347736D02*
X39861505Y-5376308D01*
X39861505Y-5376308D02*
X39842457Y-5395355D01*
X39842457Y-5395355D02*
X39823410Y-5404879D01*
X40118648Y-5347736D02*
X40023410Y-5347736D01*
X40023410Y-5347736D02*
X40013886Y-5442974D01*
X40013886Y-5442974D02*
X40023410Y-5433450D01*
X40023410Y-5433450D02*
X40042457Y-5423927D01*
X40042457Y-5423927D02*
X40090076Y-5423927D01*
X40090076Y-5423927D02*
X40109124Y-5433450D01*
X40109124Y-5433450D02*
X40118648Y-5442974D01*
X40118648Y-5442974D02*
X40128171Y-5462022D01*
X40128171Y-5462022D02*
X40128171Y-5509641D01*
X40128171Y-5509641D02*
X40118648Y-5528689D01*
X40118648Y-5528689D02*
X40109124Y-5538212D01*
X40109124Y-5538212D02*
X40090076Y-5547736D01*
X40090076Y-5547736D02*
X40042457Y-5547736D01*
X40042457Y-5547736D02*
X40023410Y-5538212D01*
X40023410Y-5538212D02*
X40013886Y-5528689D01*
X40204362Y-5366784D02*
X40213886Y-5357260D01*
X40213886Y-5357260D02*
X40232933Y-5347736D01*
X40232933Y-5347736D02*
X40280552Y-5347736D01*
X40280552Y-5347736D02*
X40299600Y-5357260D01*
X40299600Y-5357260D02*
X40309124Y-5366784D01*
X40309124Y-5366784D02*
X40318648Y-5385831D01*
X40318648Y-5385831D02*
X40318648Y-5404879D01*
X40318648Y-5404879D02*
X40309124Y-5433450D01*
X40309124Y-5433450D02*
X40194838Y-5547736D01*
X40194838Y-5547736D02*
X40318648Y-5547736D01*
X40404362Y-5547736D02*
X40404362Y-5414403D01*
X40404362Y-5433450D02*
X40413886Y-5423927D01*
X40413886Y-5423927D02*
X40432933Y-5414403D01*
X40432933Y-5414403D02*
X40461505Y-5414403D01*
X40461505Y-5414403D02*
X40480552Y-5423927D01*
X40480552Y-5423927D02*
X40490076Y-5442974D01*
X40490076Y-5442974D02*
X40490076Y-5547736D01*
X40490076Y-5442974D02*
X40499600Y-5423927D01*
X40499600Y-5423927D02*
X40518648Y-5414403D01*
X40518648Y-5414403D02*
X40547219Y-5414403D01*
X40547219Y-5414403D02*
X40566267Y-5423927D01*
X40566267Y-5423927D02*
X40575791Y-5442974D01*
X40575791Y-5442974D02*
X40575791Y-5547736D01*
X40671029Y-5547736D02*
X40671029Y-5414403D01*
X40671029Y-5433450D02*
X40680552Y-5423927D01*
X40680552Y-5423927D02*
X40699600Y-5414403D01*
X40699600Y-5414403D02*
X40728172Y-5414403D01*
X40728172Y-5414403D02*
X40747219Y-5423927D01*
X40747219Y-5423927D02*
X40756743Y-5442974D01*
X40756743Y-5442974D02*
X40756743Y-5547736D01*
X40756743Y-5442974D02*
X40766267Y-5423927D01*
X40766267Y-5423927D02*
X40785314Y-5414403D01*
X40785314Y-5414403D02*
X40813886Y-5414403D01*
X40813886Y-5414403D02*
X40832933Y-5423927D01*
X40832933Y-5423927D02*
X40842457Y-5442974D01*
X40842457Y-5442974D02*
X40842457Y-5547736D01*
X41200552Y-5338212D02*
X41029124Y-5595355D01*
X41425314Y-5347736D02*
X41444362Y-5347736D01*
X41444362Y-5347736D02*
X41463410Y-5357260D01*
X41463410Y-5357260D02*
X41472933Y-5366784D01*
X41472933Y-5366784D02*
X41482457Y-5385831D01*
X41482457Y-5385831D02*
X41491981Y-5423927D01*
X41491981Y-5423927D02*
X41491981Y-5471546D01*
X41491981Y-5471546D02*
X41482457Y-5509641D01*
X41482457Y-5509641D02*
X41472933Y-5528689D01*
X41472933Y-5528689D02*
X41463410Y-5538212D01*
X41463410Y-5538212D02*
X41444362Y-5547736D01*
X41444362Y-5547736D02*
X41425314Y-5547736D01*
X41425314Y-5547736D02*
X41406267Y-5538212D01*
X41406267Y-5538212D02*
X41396743Y-5528689D01*
X41396743Y-5528689D02*
X41387219Y-5509641D01*
X41387219Y-5509641D02*
X41377695Y-5471546D01*
X41377695Y-5471546D02*
X41377695Y-5423927D01*
X41377695Y-5423927D02*
X41387219Y-5385831D01*
X41387219Y-5385831D02*
X41396743Y-5366784D01*
X41396743Y-5366784D02*
X41406267Y-5357260D01*
X41406267Y-5357260D02*
X41425314Y-5347736D01*
X41577695Y-5528689D02*
X41587219Y-5538212D01*
X41587219Y-5538212D02*
X41577695Y-5547736D01*
X41577695Y-5547736D02*
X41568172Y-5538212D01*
X41568172Y-5538212D02*
X41577695Y-5528689D01*
X41577695Y-5528689D02*
X41577695Y-5547736D01*
X41711029Y-5347736D02*
X41730076Y-5347736D01*
X41730076Y-5347736D02*
X41749124Y-5357260D01*
X41749124Y-5357260D02*
X41758648Y-5366784D01*
X41758648Y-5366784D02*
X41768172Y-5385831D01*
X41768172Y-5385831D02*
X41777695Y-5423927D01*
X41777695Y-5423927D02*
X41777695Y-5471546D01*
X41777695Y-5471546D02*
X41768172Y-5509641D01*
X41768172Y-5509641D02*
X41758648Y-5528689D01*
X41758648Y-5528689D02*
X41749124Y-5538212D01*
X41749124Y-5538212D02*
X41730076Y-5547736D01*
X41730076Y-5547736D02*
X41711029Y-5547736D01*
X41711029Y-5547736D02*
X41691981Y-5538212D01*
X41691981Y-5538212D02*
X41682457Y-5528689D01*
X41682457Y-5528689D02*
X41672933Y-5509641D01*
X41672933Y-5509641D02*
X41663410Y-5471546D01*
X41663410Y-5471546D02*
X41663410Y-5423927D01*
X41663410Y-5423927D02*
X41672933Y-5385831D01*
X41672933Y-5385831D02*
X41682457Y-5366784D01*
X41682457Y-5366784D02*
X41691981Y-5357260D01*
X41691981Y-5357260D02*
X41711029Y-5347736D01*
X41901505Y-5347736D02*
X41920553Y-5347736D01*
X41920553Y-5347736D02*
X41939600Y-5357260D01*
X41939600Y-5357260D02*
X41949124Y-5366784D01*
X41949124Y-5366784D02*
X41958648Y-5385831D01*
X41958648Y-5385831D02*
X41968172Y-5423927D01*
X41968172Y-5423927D02*
X41968172Y-5471546D01*
X41968172Y-5471546D02*
X41958648Y-5509641D01*
X41958648Y-5509641D02*
X41949124Y-5528689D01*
X41949124Y-5528689D02*
X41939600Y-5538212D01*
X41939600Y-5538212D02*
X41920553Y-5547736D01*
X41920553Y-5547736D02*
X41901505Y-5547736D01*
X41901505Y-5547736D02*
X41882457Y-5538212D01*
X41882457Y-5538212D02*
X41872933Y-5528689D01*
X41872933Y-5528689D02*
X41863410Y-5509641D01*
X41863410Y-5509641D02*
X41853886Y-5471546D01*
X41853886Y-5471546D02*
X41853886Y-5423927D01*
X41853886Y-5423927D02*
X41863410Y-5385831D01*
X41863410Y-5385831D02*
X41872933Y-5366784D01*
X41872933Y-5366784D02*
X41882457Y-5357260D01*
X41882457Y-5357260D02*
X41901505Y-5347736D01*
X42139600Y-5347736D02*
X42101505Y-5347736D01*
X42101505Y-5347736D02*
X42082457Y-5357260D01*
X42082457Y-5357260D02*
X42072933Y-5366784D01*
X42072933Y-5366784D02*
X42053886Y-5395355D01*
X42053886Y-5395355D02*
X42044362Y-5433450D01*
X42044362Y-5433450D02*
X42044362Y-5509641D01*
X42044362Y-5509641D02*
X42053886Y-5528689D01*
X42053886Y-5528689D02*
X42063410Y-5538212D01*
X42063410Y-5538212D02*
X42082457Y-5547736D01*
X42082457Y-5547736D02*
X42120553Y-5547736D01*
X42120553Y-5547736D02*
X42139600Y-5538212D01*
X42139600Y-5538212D02*
X42149124Y-5528689D01*
X42149124Y-5528689D02*
X42158648Y-5509641D01*
X42158648Y-5509641D02*
X42158648Y-5462022D01*
X42158648Y-5462022D02*
X42149124Y-5442974D01*
X42149124Y-5442974D02*
X42139600Y-5433450D01*
X42139600Y-5433450D02*
X42120553Y-5423927D01*
X42120553Y-5423927D02*
X42082457Y-5423927D01*
X42082457Y-5423927D02*
X42063410Y-5433450D01*
X42063410Y-5433450D02*
X42053886Y-5442974D01*
X42053886Y-5442974D02*
X42044362Y-5462022D01*
X42282457Y-5347736D02*
X42301505Y-5347736D01*
X42301505Y-5347736D02*
X42320553Y-5357260D01*
X42320553Y-5357260D02*
X42330076Y-5366784D01*
X42330076Y-5366784D02*
X42339600Y-5385831D01*
X42339600Y-5385831D02*
X42349124Y-5423927D01*
X42349124Y-5423927D02*
X42349124Y-5471546D01*
X42349124Y-5471546D02*
X42339600Y-5509641D01*
X42339600Y-5509641D02*
X42330076Y-5528689D01*
X42330076Y-5528689D02*
X42320553Y-5538212D01*
X42320553Y-5538212D02*
X42301505Y-5547736D01*
X42301505Y-5547736D02*
X42282457Y-5547736D01*
X42282457Y-5547736D02*
X42263410Y-5538212D01*
X42263410Y-5538212D02*
X42253886Y-5528689D01*
X42253886Y-5528689D02*
X42244362Y-5509641D01*
X42244362Y-5509641D02*
X42234838Y-5471546D01*
X42234838Y-5471546D02*
X42234838Y-5423927D01*
X42234838Y-5423927D02*
X42244362Y-5385831D01*
X42244362Y-5385831D02*
X42253886Y-5366784D01*
X42253886Y-5366784D02*
X42263410Y-5357260D01*
X42263410Y-5357260D02*
X42282457Y-5347736D01*
X42425314Y-5347736D02*
X42425314Y-5385831D01*
X42501505Y-5347736D02*
X42501505Y-5385831D01*
X42764362Y-5623927D02*
X42754838Y-5614403D01*
X42754838Y-5614403D02*
X42735791Y-5585831D01*
X42735791Y-5585831D02*
X42726267Y-5566784D01*
X42726267Y-5566784D02*
X42716743Y-5538212D01*
X42716743Y-5538212D02*
X42707219Y-5490593D01*
X42707219Y-5490593D02*
X42707219Y-5452498D01*
X42707219Y-5452498D02*
X42716743Y-5404879D01*
X42716743Y-5404879D02*
X42726267Y-5376308D01*
X42726267Y-5376308D02*
X42735791Y-5357260D01*
X42735791Y-5357260D02*
X42754838Y-5328689D01*
X42754838Y-5328689D02*
X42764362Y-5319165D01*
X42945314Y-5547736D02*
X42831029Y-5547736D01*
X42888172Y-5547736D02*
X42888172Y-5347736D01*
X42888172Y-5347736D02*
X42869124Y-5376308D01*
X42869124Y-5376308D02*
X42850076Y-5395355D01*
X42850076Y-5395355D02*
X42831029Y-5404879D01*
X43151029Y-5547736D02*
X43151029Y-5347736D01*
X43236743Y-5547736D02*
X43236743Y-5442974D01*
X43236743Y-5442974D02*
X43227219Y-5423927D01*
X43227219Y-5423927D02*
X43208172Y-5414403D01*
X43208172Y-5414403D02*
X43179600Y-5414403D01*
X43179600Y-5414403D02*
X43160553Y-5423927D01*
X43160553Y-5423927D02*
X43151029Y-5433450D01*
X43360553Y-5547736D02*
X43341505Y-5538212D01*
X43341505Y-5538212D02*
X43331981Y-5528689D01*
X43331981Y-5528689D02*
X43322457Y-5509641D01*
X43322457Y-5509641D02*
X43322457Y-5452498D01*
X43322457Y-5452498D02*
X43331981Y-5433450D01*
X43331981Y-5433450D02*
X43341505Y-5423927D01*
X43341505Y-5423927D02*
X43360553Y-5414403D01*
X43360553Y-5414403D02*
X43389124Y-5414403D01*
X43389124Y-5414403D02*
X43408172Y-5423927D01*
X43408172Y-5423927D02*
X43417695Y-5433450D01*
X43417695Y-5433450D02*
X43427219Y-5452498D01*
X43427219Y-5452498D02*
X43427219Y-5509641D01*
X43427219Y-5509641D02*
X43417695Y-5528689D01*
X43417695Y-5528689D02*
X43408172Y-5538212D01*
X43408172Y-5538212D02*
X43389124Y-5547736D01*
X43389124Y-5547736D02*
X43360553Y-5547736D01*
X43541505Y-5547736D02*
X43522457Y-5538212D01*
X43522457Y-5538212D02*
X43512934Y-5519165D01*
X43512934Y-5519165D02*
X43512934Y-5347736D01*
X43693886Y-5538212D02*
X43674838Y-5547736D01*
X43674838Y-5547736D02*
X43636743Y-5547736D01*
X43636743Y-5547736D02*
X43617695Y-5538212D01*
X43617695Y-5538212D02*
X43608172Y-5519165D01*
X43608172Y-5519165D02*
X43608172Y-5442974D01*
X43608172Y-5442974D02*
X43617695Y-5423927D01*
X43617695Y-5423927D02*
X43636743Y-5414403D01*
X43636743Y-5414403D02*
X43674838Y-5414403D01*
X43674838Y-5414403D02*
X43693886Y-5423927D01*
X43693886Y-5423927D02*
X43703410Y-5442974D01*
X43703410Y-5442974D02*
X43703410Y-5462022D01*
X43703410Y-5462022D02*
X43608172Y-5481070D01*
X43770076Y-5623927D02*
X43779600Y-5614403D01*
X43779600Y-5614403D02*
X43798648Y-5585831D01*
X43798648Y-5585831D02*
X43808172Y-5566784D01*
X43808172Y-5566784D02*
X43817695Y-5538212D01*
X43817695Y-5538212D02*
X43827219Y-5490593D01*
X43827219Y-5490593D02*
X43827219Y-5452498D01*
X43827219Y-5452498D02*
X43817695Y-5404879D01*
X43817695Y-5404879D02*
X43808172Y-5376308D01*
X43808172Y-5376308D02*
X43798648Y-5357260D01*
X43798648Y-5357260D02*
X43779600Y-5328689D01*
X43779600Y-5328689D02*
X43770076Y-5319165D01*
M02*
