M48
; DRILL file {KiCad (7.0.0)} date Mon Mar  6 14:49:43 2023
; FORMAT={-:-/ absolute / inch / decimal}
; #@! TF.CreationDate,2023-03-06T14:49:43-05:00
; #@! TF.GenerationSoftware,Kicad,Pcbnew,(7.0.0)
; #@! TF.FileFunction,Plated,1,4,PTH
FMAT,2
INCH
; #@! TA.AperFunction,Plated,PTH,ViaDrill
T1C0.0060
; #@! TA.AperFunction,Plated,PTH,ComponentDrill
T2C0.0079
; #@! TA.AperFunction,Plated,PTH,ViaDrill
T3C0.0080
; #@! TA.AperFunction,Plated,PTH,ViaDrill
T4C0.0100
; #@! TA.AperFunction,Plated,PTH,ComponentDrill
T5C0.0157
; #@! TA.AperFunction,Plated,PTH,ComponentDrill
T6C0.0197
; #@! TA.AperFunction,Plated,PTH,ComponentDrill
T7C0.0236
; #@! TA.AperFunction,Plated,PTH,ComponentDrill
T8C0.0256
; #@! TA.AperFunction,Plated,PTH,ComponentDrill
T9C0.0276
; #@! TA.AperFunction,Plated,PTH,ComponentDrill
T10C0.0300
; #@! TA.AperFunction,Plated,PTH,ComponentDrill
T11C0.0315
; #@! TA.AperFunction,Plated,PTH,ComponentDrill
T12C0.0335
; #@! TA.AperFunction,Plated,PTH,ComponentDrill
T13C0.0394
; #@! TA.AperFunction,Plated,PTH,ComponentDrill
T14C0.0437
; #@! TA.AperFunction,Plated,PTH,ComponentDrill
T15C0.0488
; #@! TA.AperFunction,Plated,PTH,ComponentDrill
T16C0.0827
; #@! TA.AperFunction,Plated,PTH,ComponentDrill
T17C0.1063
; #@! TA.AperFunction,Plated,PTH,ComponentDrill
T18C0.1250
; #@! TA.AperFunction,Plated,PTH,ComponentDrill
T19C0.1575
%
G90
G05
T1
X5.426Y-1.247
X5.471Y-2.224
X5.479Y-2.508
X5.494Y-3.286
X5.547Y-2.507
X5.552Y-2.415
X5.553Y-3.326
X5.57Y-3.353
X5.586Y-1.428
X5.637Y-1.217
X5.666Y-1.201
X6.121Y-5.044
X6.391Y-1.838
X6.395Y-1.22
X6.411Y-1.276
X6.422Y-1.478
X6.432Y-1.837
X6.448Y-1.234
X6.473Y-4.699
X6.49Y-4.755
X6.51Y-4.773
X6.513Y-4.922
X6.542Y-4.927
X6.69Y-4.985
X6.71Y-4.985
X6.71Y-5.004
X6.729Y-4.984
X6.73Y-5.004
X6.749Y-4.984
X6.75Y-5.004
X6.936Y-4.755
X6.955Y-2.357
X7.007Y-3.291
X7.132Y-3.323
X7.141Y-3.352
X7.18Y-4.993
X7.213Y-1.723
X7.232Y-1.688
X7.248Y-1.648
X7.273Y-1.611
X7.292Y-1.565
X7.3Y-1.533
X7.338Y-1.767
X7.34Y-1.645
X7.3429Y-1.7096
X7.3433Y-1.7389
X7.361Y-1.629
X7.3667Y-1.7389
X7.419Y-1.685
X7.422Y-1.713
X7.424Y-1.729
X7.426Y-1.933
X7.451Y-1.76
X7.461Y-1.662
X7.511Y-2.127
X7.575Y-1.722
X7.5928Y-1.7
X7.596Y-2.127
X7.613Y-1.728
X7.631Y-1.701
X7.683Y-1.642
X7.724Y-1.673
X10.559Y-1.985
X11.27Y-7.85
X11.436Y-7.851
X11.445Y-7.975
X11.445Y-8.014
X11.445Y-8.033
X11.446Y-7.935
X11.465Y-7.955
X11.465Y-7.975
X11.465Y-8.013
X11.465Y-8.033
X11.466Y-7.935
X11.484Y-7.955
X11.484Y-7.975
X11.485Y-7.935
X11.485Y-8.014
X11.485Y-8.033
X11.505Y-7.954
X11.505Y-7.974
X11.505Y-8.014
X11.505Y-8.033
X11.506Y-7.934
X11.524Y-8.033
X11.525Y-7.934
X11.525Y-8.014
X11.543Y-8.033
X11.544Y-8.014
T2
X10.5232Y-7.8172
X10.5232Y-7.8566
X10.5232Y-7.8959
X10.5232Y-7.9353
X10.5232Y-7.9747
X10.5232Y-8.0141
X10.5232Y-8.0534
X10.5232Y-8.0928
X10.5626Y-7.8172
X10.5626Y-7.8566
X10.5626Y-7.8959
X10.5626Y-7.9353
X10.5626Y-7.9747
X10.5626Y-8.0141
X10.5626Y-8.0534
X10.5626Y-8.0928
X10.6019Y-7.8172
X10.6019Y-7.8566
X10.6019Y-7.8959
X10.6019Y-7.9353
X10.6019Y-7.9747
X10.6019Y-8.0141
X10.6019Y-8.0534
X10.6019Y-8.0928
X10.6413Y-7.8172
X10.6413Y-7.8566
X10.6413Y-7.8959
X10.6413Y-7.9353
X10.6413Y-7.9747
X10.6413Y-8.0141
X10.6413Y-8.0534
X10.6413Y-8.0928
X10.6807Y-7.8172
X10.6807Y-7.8566
X10.6807Y-7.8959
X10.6807Y-7.9353
X10.6807Y-7.9747
X10.6807Y-8.0141
X10.6807Y-8.0534
X10.6807Y-8.0928
X10.7201Y-7.8172
X10.7201Y-7.8566
X10.7201Y-7.8959
X10.7201Y-7.9353
X10.7201Y-7.9747
X10.7201Y-8.0141
X10.7201Y-8.0534
X10.7201Y-8.0928
X10.7594Y-7.8172
X10.7594Y-7.8566
X10.7594Y-7.8959
X10.7594Y-7.9353
X10.7594Y-7.9747
X10.7594Y-8.0141
X10.7594Y-8.0534
X10.7594Y-8.0928
X10.7988Y-7.8172
X10.7988Y-7.8566
X10.7988Y-7.8959
X10.7988Y-7.9353
X10.7988Y-7.9747
X10.7988Y-8.0141
X10.7988Y-8.0534
X10.7988Y-8.0928
X15.1189Y-4.7392
X15.1189Y-4.7806
X15.1189Y-4.8219
X15.1189Y-4.8633
X15.1565Y-5.3645
X15.1565Y-5.398
X15.1565Y-5.4315
X15.1603Y-4.7392
X15.1603Y-4.7806
X15.1603Y-4.8219
X15.1603Y-4.8633
X15.19Y-5.3645
X15.19Y-5.398
X15.19Y-5.4315
X15.2016Y-4.7392
X15.2016Y-4.7806
X15.2016Y-4.8219
X15.2016Y-4.8633
X15.2235Y-5.3645
X15.2235Y-5.398
X15.2235Y-5.4315
X15.2429Y-4.7392
X15.2429Y-4.7806
X15.2429Y-4.8219
X15.2429Y-4.8633
T3
X5.004Y-1.956
X5.023Y-2.233
X5.034Y-2.216
X5.049Y-2.198
X5.063Y-2.128
X5.143Y-2.128
X5.18Y-2.203
X5.22Y-2.22
X5.254Y-2.234
X11.271Y-7.698
X11.28Y-7.723
X11.296Y-7.934
X11.677Y-7.637
X11.682Y-7.924
X11.745Y-7.959
T4
X0.936Y-7.7
X0.936Y-7.873
X0.958Y-8.308
X1.062Y-7.605
X1.063Y-7.367
X1.069Y-2.407
X1.071Y-3.035
X1.076Y-3.132
X1.078Y-8.015
X1.139Y-7.934
X1.17Y-3.074
X1.171Y-3.054
X1.172Y-2.995
X1.172Y-3.016
X1.172Y-3.152
X1.173Y-3.094
X1.173Y-3.114
X1.173Y-3.172
X1.213Y-7.699
X1.273Y-3.194
X1.283Y-8.228
X1.313Y-3.191
X1.355Y-8.152
X1.364Y-8.302
X1.44Y-3.113
X1.442Y-1.5
X1.448Y-3.34
X1.456Y-1.658
X1.481Y-3.152
X1.484Y-3.319
X1.512Y-3.296
X1.513Y-3.174
X1.687Y-8.117
X1.866Y-7.329
X2.317Y-7.338
X2.439Y-7.703
X2.4693Y-8.3605
X2.483Y-7.345
X2.556Y-1.498
X2.801Y-7.974
X3.06Y-5.122
X3.064Y-4.938
X3.065Y-4.872
X3.081Y-4.859
X3.128Y-5.385
X3.149Y-3.142
X3.207Y-5.14
X3.208Y-5.355
X3.251Y-3.116
X3.289Y-8.165
X3.304Y-8.028
X3.341Y-3.048
X3.386Y-8.108
X3.411Y-7.743
X3.44Y-8.027
X3.449Y-3.019
X3.525Y-2.997
X3.719Y-4.76
X3.733Y-4.715
X4.858Y-2.831
X4.859Y-3.174
X4.874Y-2.813
X4.876Y-2.284
X4.883Y-1.601
X4.883Y-2.462
X4.896Y-1.522
X4.903Y-1.862
X4.92Y-3.217
X4.948Y-2.829
X4.968Y-2.603
X4.974Y-2.783
X4.994Y-2.303
X4.996Y-3.186
X5.025Y-2.771
X5.026Y-1.528
X5.027Y-2.505
X5.04Y-1.566
X5.046Y-2.562
X5.059Y-2.25
X5.061Y-2.523
X5.065Y-2.447
X5.076Y-1.704
X5.08Y-1.8342
X5.0808Y-1.796
X5.0812Y-1.876
X5.082Y-1.996
X5.082Y-2.283
X5.083Y-1.9176
X5.083Y-2.034
X5.083Y-2.0734
X5.083Y-2.15
X5.0848Y-1.9586
X5.091Y-1.55
X5.091Y-1.601
X5.096Y-2.249
X5.1Y-2.32
X5.11Y-1.364
X5.1194Y-1.8374
X5.1198Y-1.8762
X5.1222Y-1.7994
X5.1222Y-1.9968
X5.1234Y-1.9576
X5.124Y-1.9178
X5.1246Y-2.0366
X5.1246Y-2.0798
X5.13Y-1.583
X5.138Y-4.997
X5.143Y-5.375
X5.1495Y-1.7455
X5.156Y-5.074
X5.158Y-1.8354
X5.158Y-5.282
X5.1584Y-1.8784
X5.1604Y-1.7972
X5.161Y-2.0364
X5.1626Y-1.9182
X5.1626Y-1.9586
X5.1632Y-2.078
X5.1644Y-1.999
X5.168Y-1.65
X5.172Y-5.021
X5.172Y-5.302
X5.2004Y-1.8386
X5.2016Y-2.0762
X5.2026Y-1.7994
X5.2026Y-1.8774
X5.2036Y-1.917
X5.2042Y-1.9974
X5.2044Y-1.9582
X5.2054Y-2.0376
X5.227Y-2.592
X5.228Y-1.702
X5.24Y-2.263
X5.2402Y-1.8364
X5.242Y-1.525
X5.242Y-1.9972
X5.2424Y-1.7996
X5.243Y-2.075
X5.2438Y-1.9588
X5.2442Y-1.8786
X5.2442Y-2.0366
X5.2444Y-1.9188
X5.247Y-1.583
X5.259Y-1.716
X5.262Y-5.165
X5.267Y-1.553
X5.275Y-5.092
X5.278Y-5.418
X5.2812Y-1.9968
X5.2816Y-1.8374
X5.2828Y-1.7976
X5.2834Y-2.036
X5.2834Y-2.0756
X5.2836Y-1.878
X5.284Y-1.65
X5.2842Y-1.9178
X5.2842Y-1.957
X5.289Y-5.075
X5.3Y-5.034
X5.3Y-5.457
X5.306Y-5.255
X5.309Y-1.591
X5.3194Y-1.837
X5.3206Y-1.996
X5.3216Y-1.7964
X5.3218Y-2.036
X5.3218Y-2.075
X5.322Y-2.504
X5.322Y-2.59
X5.3232Y-1.9182
X5.3234Y-1.8798
X5.3238Y-1.9574
X5.324Y-5.336
X5.339Y-2.114
X5.3596Y-1.8364
X5.3604Y-1.7964
X5.3622Y-1.9574
X5.3622Y-2.037
X5.3622Y-2.074
X5.364Y-1.9984
X5.3644Y-1.8792
X5.3644Y-1.9182
X5.374Y-2.099
X5.385Y-1.379
X5.392Y-1.945
X5.394Y-2.263
X5.398Y-2.299
X5.399Y-4.76
X5.403Y-5.218
X5.407Y-1.731
X5.407Y-1.992
X5.414Y-4.984
X5.415Y-5.135
X5.415Y-5.283
X5.415Y-5.111
X5.417Y-4.648
X5.419Y-2.128
X5.423Y-2.02
X5.424Y-1.713
X5.43Y-2.173
X5.435Y-5.05
X5.442Y-2.275
X5.457Y-2.138
X5.458Y-5.232
X5.464Y-2.299
X5.465Y-5.009
X5.47Y-5.351
X5.484Y-1.83
X5.493Y-5.127
X5.499Y-2.961
X5.5Y-4.954
X5.507Y-5.051
X5.5171Y-5.116
X5.522Y-3.344
X5.53Y-5.032
X5.532Y-4.983
X5.532Y-5.058
X5.54Y-3.302
X5.544Y-5.14
X5.551Y-2.532
X5.557Y-4.955
X5.557Y-5.009
X5.557Y-5.033
X5.558Y-5.084
X5.561Y-5.457
X5.565Y-5.529
X5.568Y-2.34
X5.574Y-5.103
X5.583Y-5.031
X5.584Y-4.957
X5.588Y-5.126
X5.591Y-1.779
X5.592Y-1.858
X5.594Y-2.441
X5.596Y-5.091
X5.5974Y-4.684
X5.604Y-1.894
X5.607Y-5.032
X5.608Y-2.57
X5.608Y-2.592
X5.609Y-4.957
X5.609Y-5.008
X5.61Y-1.653
X5.61Y-2.457
X5.61Y-2.519
X5.61Y-2.546
X5.61Y-5.547
X5.611Y-2.479
X5.612Y-2.497
X5.619Y-1.933
X5.62Y-5.153
X5.631Y-4.983
X5.633Y-1.975
X5.634Y-5.06
X5.635Y-4.699
X5.635Y-4.954
X5.64Y-2.632
X5.642Y-2.845
X5.645Y-2.011
X5.646Y-5.566
X5.648Y-4.814
X5.659Y-5.08
X5.661Y-2.051
X5.661Y-5.059
X5.668Y-4.79
X5.673Y-5.114
X5.677Y-2.092
X5.6797Y-4.8717
X5.681Y-4.683
X5.689Y-5.065
X5.693Y-2.133
X5.693Y-5.6
X5.697Y-2.109
X5.697Y-5.022
X5.698Y-4.928
X5.699Y-4.839
X5.703Y-5.139
X5.706Y-4.6
X5.708Y-4.898
X5.713Y-2.277
X5.716Y-2.214
X5.724Y-2.465
X5.724Y-4.584
X5.731Y-5.008
X5.731Y-5.165
X5.733Y-2.189
X5.735Y-2.302
X5.738Y-2.381
X5.739Y-4.832
X5.744Y-2.412
X5.745Y-2.162
X5.749Y-1.662
X5.75Y-1.754
X5.75Y-5.14
X5.757Y-2.263
X5.758Y-2.798
X5.758Y-4.784
X5.769Y-5.066
X5.77Y-2.358
X5.775Y-4.983
X5.78Y-5.206
X5.784Y-4.871
X5.792Y-5.113
X5.794Y-2.435
X5.795Y-2.396
X5.796Y-4.918
X5.797Y-4.597
X5.801Y-5.509
X5.805Y-2.603
X5.807Y-2.453
X5.808Y-4.569
X5.812Y-4.851
X5.812Y-5.215
X5.813Y-5.531
X5.823Y-5.546
X5.831Y-5.57
X5.831Y-5.601
X5.849Y-5.124
X5.853Y-2.348
X5.853Y-5.348
X5.861Y-2.623
X5.864Y-5.329
X5.866Y-2.569
X5.868Y-2.382
X5.871Y-5.102
X5.875Y-5.307
X5.886Y-2.215
X5.888Y-1.651
X5.891Y-1.79
X5.892Y-5.095
X5.895Y-2.454
X5.903Y-1.634
X5.903Y-1.7648
X5.904Y-5.152
X5.907Y-2.436
X5.922Y-5.084
X5.927Y-2.1
X5.936Y-2.803
X5.943Y-2.438
X5.9451Y-2.2989
X5.948Y-5.05
X5.949Y-2.831
X5.958Y-2.198
X5.962Y-5.035
X5.969Y-2.38
X5.973Y-5.471
X5.982Y-2.441
X5.985Y-5.023
X5.985Y-5.204
X5.987Y-5.106
X5.988Y-5.449
X5.996Y-4.712
X6.002Y-4.974
X6.003Y-2.44
X6.008Y-5.301
X6.014Y-2.365
X6.014Y-4.682
X6.014Y-4.803
X6.015Y-4.772
X6.015Y-5.044
X6.018Y-5.195
X6.02Y-5.086
X6.023Y-2.562
X6.026Y-4.915
X6.035Y-4.869
X6.036Y-2.448
X6.041Y-4.889
X6.042Y-2.857
X6.045Y-2.36
X6.047Y-5.345
X6.06Y-2.464
X6.063Y-5.159
X6.065Y-5.256
X6.071Y-2.36
X6.071Y-2.594
X6.084Y-4.909
X6.09Y-1.341
X6.093Y-2.231
X6.094Y-2.31
X6.096Y-2.115
X6.096Y-2.271
X6.097Y-3.22
X6.098Y-2.593
X6.106Y-4.888
X6.111Y-2.561
X6.118Y-2.389
X6.12Y-5.12
X6.122Y-4.874
X6.131Y-2.153
X6.1316Y-4.9933
X6.133Y-2.31
X6.135Y-2.598
X6.136Y-4.91
X6.137Y-1.834
X6.14Y-4.797
X6.145Y-5.118
X6.148Y-2.435
X6.148Y-3.188
X6.149Y-1.561
X6.149Y-2.152
X6.151Y-4.975
X6.151Y-5.46
X6.16Y-5.004
X6.16Y-5.14
X6.173Y-2.073
X6.174Y-1.756
X6.174Y-1.836
X6.174Y-1.913
X6.174Y-2.155
X6.175Y-1.953
X6.175Y-1.994
X6.175Y-2.273
X6.175Y-2.328
X6.175Y-2.569
X6.176Y-1.796
X6.176Y-2.033
X6.176Y-2.111
X6.176Y-2.232
X6.177Y-1.875
X6.177Y-2.311
X6.18Y-5.006
X6.18Y-5.157
X6.1831Y-5.0237
X6.184Y-2.709
X6.185Y-1.418
X6.192Y-5.468
X6.193Y-2.596
X6.202Y-4.946
X6.203Y-2.384
X6.207Y-1.367
X6.208Y-1.434
X6.2089Y-4.9751
X6.2099Y-4.9938
X6.21Y-1.393
X6.213Y-1.955
X6.214Y-1.996
X6.214Y-2.072
X6.214Y-2.272
X6.214Y-2.309
X6.215Y-1.645
X6.215Y-1.836
X6.215Y-1.872
X6.215Y-2.114
X6.215Y-2.187
X6.216Y-1.618
X6.216Y-1.795
X6.216Y-1.914
X6.216Y-2.032
X6.216Y-2.151
X6.216Y-2.232
X6.216Y-3.157
X6.216Y-4.921
X6.217Y-1.754
X6.217Y-2.348
X6.22Y-4.878
X6.227Y-1.334
X6.229Y-4.907
X6.234Y-2.231
X6.235Y-2.35
X6.241Y-2.779
X6.25Y-2.682
X6.252Y-2.191
X6.2529Y-2.31
X6.253Y-1.76
X6.253Y-1.841
X6.253Y-1.878
X6.253Y-1.994
X6.253Y-2.153
X6.253Y-2.232
X6.253Y-4.794
X6.254Y-1.601
X6.254Y-2.077
X6.254Y-2.273
X6.254Y-2.337
X6.255Y-1.307
X6.255Y-1.918
X6.255Y-1.957
X6.255Y-2.112
X6.255Y-5.027
X6.256Y-2.892
X6.257Y-4.694
X6.257Y-1.799
X6.258Y-2.036
X6.258Y-5.259
X6.261Y-2.817
X6.263Y-1.695
X6.266Y-1.646
X6.272Y-4.921
X6.274Y-2.27
X6.276Y-1.557
X6.276Y-5.048
X6.2768Y-5.1102
X6.279Y-2.946
X6.288Y-4.878
X6.291Y-2.074
X6.292Y-2.156
X6.292Y-2.308
X6.293Y-1.575
X6.293Y-1.994
X6.293Y-2.116
X6.293Y-2.191
X6.293Y-2.231
X6.294Y-1.759
X6.294Y-1.841
X6.294Y-1.882
X6.294Y-1.92
X6.294Y-2.27
X6.295Y-1.802
X6.295Y-2.383
X6.296Y-1.342
X6.296Y-1.956
X6.296Y-4.958
X6.297Y-2.034
X6.299Y-1.697
X6.302Y-1.374
X6.304Y-1.488
X6.311Y-2.23
X6.313Y-4.852
X6.321Y-5.425
X6.3218Y-2.393
X6.323Y-5.258
X6.325Y-1.276
X6.33Y-2.271
X6.331Y-1.958
X6.331Y-2.115
X6.332Y-1.841
X6.332Y-1.995
X6.332Y-2.153
X6.332Y-2.336
X6.333Y-1.92
X6.333Y-2.035
X6.334Y-1.801
X6.334Y-1.879
X6.334Y-2.074
X6.334Y-2.23
X6.335Y-1.758
X6.335Y-2.308
X6.344Y-1.527
X6.347Y-1.689
X6.353Y-2.88
X6.353Y-4.59
X6.354Y-2.358
X6.356Y-1.497
X6.356Y-2.387
X6.365Y-2.574
X6.37Y-1.759
X6.37Y-1.879
X6.37Y-1.917
X6.371Y-1.84
X6.371Y-2.55
X6.372Y-1.956
X6.372Y-2.037
X6.372Y-2.115
X6.373Y-1.995
X6.373Y-2.151
X6.373Y-2.229
X6.374Y-1.48
X6.374Y-1.799
X6.374Y-2.311
X6.375Y-2.075
X6.375Y-2.194
X6.375Y-2.277
X6.386Y-1.511
X6.386Y-1.685
X6.406Y-1.545
X6.409Y-2.587
X6.41Y-1.839
X6.41Y-1.878
X6.41Y-1.912
X6.411Y-2.334
X6.412Y-2.037
X6.412Y-2.112
X6.412Y-2.235
X6.413Y-1.758
X6.413Y-1.797
X6.413Y-1.958
X6.413Y-2.152
X6.413Y-2.273
X6.414Y-1.997
X6.414Y-2.073
X6.415Y-2.191
X6.415Y-2.311
X6.421Y-1.448
X6.429Y-2.588
X6.447Y-1.996
X6.447Y-2.268
X6.448Y-2.073
X6.448Y-2.153
X6.449Y-1.875
X6.449Y-2.195
X6.45Y-1.76
X6.45Y-2.114
X6.451Y-1.798
X6.451Y-1.919
X6.451Y-2.23
X6.451Y-2.358
X6.451Y-2.59
X6.452Y-1.838
X6.452Y-2.037
X6.452Y-2.31
X6.453Y-1.958
X6.47Y-2.357
X6.472Y-2.389
X6.478Y-2.59
X6.48Y-4.909
X6.488Y-1.756
X6.488Y-1.955
X6.489Y-1.921
X6.489Y-2.194
X6.489Y-2.397
X6.49Y-1.877
X6.49Y-2.115
X6.491Y-1.803
X6.491Y-1.997
X6.491Y-2.034
X6.491Y-2.233
X6.491Y-2.311
X6.492Y-1.838
X6.492Y-2.271
X6.493Y-2.071
X6.493Y-2.156
X6.513Y-2.423
X6.524Y-4.872
X6.525Y-4.673
X6.53Y-2.348
X6.531Y-2.314
X6.531Y-5.135
X6.531Y-5.241
X6.534Y-2.6
X6.543Y-4.65
X6.544Y-4.89
X6.546Y-2.395
X6.548Y-5.095
X6.549Y-2.614
X6.559Y-5.43
X6.561Y-4.911
X6.566Y-1.837
X6.566Y-1.916
X6.566Y-2.15
X6.567Y-2.074
X6.568Y-1.88
X6.568Y-1.994
X6.568Y-2.115
X6.568Y-2.195
X6.568Y-2.2306
X6.568Y-2.272
X6.569Y-1.756
X6.569Y-2.035
X6.57Y-1.799
X6.57Y-1.954
X6.576Y-4.96
X6.583Y-5.116
X6.584Y-5.043
X6.598Y-5.332
X6.603Y-5.024
X6.619Y-5.008
X6.621Y-4.976
X6.636Y-2.806
X6.65Y-2.828
X6.651Y-2.86
X6.679Y-2.444
X6.701Y-5.123
X6.703Y-2.453
X6.707Y-2.802
X6.711Y-2.709
X6.721Y-2.401
X6.726Y-2.454
X6.73Y-5.124
X6.759Y-2.7
X6.795Y-2.479
X6.83Y-4.972
X6.84Y-5.044
X6.845Y-2.455
X6.855Y-4.914
X6.866Y-5.426
X6.867Y-5.109
X6.869Y-5.007
X6.875Y-5.08
X6.879Y-4.893
X6.884Y-5.327
X6.9Y-4.667
X6.9Y-4.867
X6.901Y-5.179
X6.908Y-4.9
X6.918Y-4.589
X6.92Y-5.076
X6.921Y-4.849
X6.922Y-5.284
X6.934Y-5.153
X6.934Y-5.241
X6.936Y-4.909
X6.951Y-4.762
X6.954Y-4.995
X6.955Y-5.162
X6.955Y-5.329
X6.959Y-5.098
X6.966Y-4.504
X6.967Y-4.884
X6.977Y-5.135
X6.98Y-4.906
X6.982Y-5.342
X6.983Y-2.339
X6.993Y-4.93
X6.993Y-5.289
X6.995Y-5.315
X7.006Y-4.654
X7.006Y-5.077
X7.009Y-5.115
X7.01Y-4.9687
X7.019Y-4.998
X7.021Y-4.627
X7.023Y-4.86
X7.023Y-4.735
X7.024Y-5.223
X7.034Y-4.9557
X7.035Y-4.524
X7.035Y-4.882
X7.036Y-5.02
X7.037Y-3.306
X7.04Y-5.064
X7.041Y-4.776
X7.042Y-2.327
X7.055Y-4.987
X7.056Y-2.247
X7.056Y-5.025
X7.064Y-3.308
X7.069Y-2.21
X7.07Y-4.863
X7.131Y-4.9107
X7.134Y-5.126
X7.135Y-4.772
X7.148Y-4.864
X7.1538Y-4.8439
X7.18Y-4.903
X7.182Y-5.1
X7.2094Y-4.9454
X7.217Y-4.925
X7.219Y-5.104
X7.226Y-4.887
X7.25Y-1.444
X7.2566Y-1.7576
X7.258Y-5.24
X7.26Y-1.901
X7.264Y-1.472
X7.265Y-4.885
X7.287Y-5.027
X7.2921Y-2.2067
X7.294Y-4.984
X7.299Y-2.1855
X7.303Y-2.075
X7.3057Y-1.7913
X7.311Y-4.63
X7.314Y-2.154
X7.316Y-5.049
X7.323Y-1.821
X7.323Y-4.957
X7.324Y-2.092
X7.328Y-4.6425
X7.332Y-4.66
X7.337Y-5.43
X7.339Y-5.071
X7.354Y-5.099
X7.355Y-4.931
X7.3585Y-1.8215
X7.36Y-5.455
X7.372Y-4.906
X7.372Y-5.119
X7.3742Y-2.2274
X7.382Y-4.923
X7.386Y-5.086
X7.387Y-5.302
X7.389Y-4.539
X7.391Y-2.3
X7.3935Y-1.8425
X7.394Y-1.809
X7.394Y-2.011
X7.396Y-4.98
X7.397Y-4.744
X7.398Y-1.61
X7.3995Y-1.687
X7.402Y-1.86
X7.406Y-5.029
X7.408Y-5.258
X7.41Y-1.791
X7.411Y-5.073
X7.413Y-4.68
X7.413Y-4.963
X7.418Y-5.231
X7.418Y-1.7749
X7.419Y-4.502
X7.427Y-5.153
X7.434Y-4.895
X7.436Y-2.28
X7.436Y-4.932
X7.437Y-5.371
X7.44Y-1.848
X7.445Y-1.775
X7.448Y-4.872
X7.451Y-4.524
X7.454Y-2.144
X7.455Y-2.257
X7.457Y-2.229
X7.462Y-2.196
X7.464Y-4.852
X7.4658Y-5.041
X7.468Y-2.162
X7.472Y-1.44
X7.475Y-2.179
X7.475Y-2.211
X7.4768Y-2.075
X7.4788Y-5.106
X7.486Y-2.325
X7.486Y-4.661
X7.4891Y-2.1485
X7.491Y-2.088
X7.503Y-5.224
X7.505Y-2.32
X7.505Y-4.621
X7.508Y-5.113
X7.509Y-2.15
X7.514Y-1.753
X7.5151Y-1.5498
X7.522Y-4.927
X7.522Y-5.142
X7.533Y-1.536
X7.536Y-1.904
X7.537Y-2.262
X7.566Y-1.469
X7.574Y-2.265
X7.575Y-5.127
X7.58Y-1.762
X7.581Y-1.865
X7.595Y-5.238
X7.605Y-5.102
X7.6066Y-4.928
X7.613Y-2.292
X7.626Y-4.907
X7.6299Y-5.136
X7.635Y-1.758
X7.64Y-2.222
X7.64Y-2.304
X7.642Y-1.74
X7.643Y-1.714
X7.6431Y-2.2397
X7.653Y-2.279
X7.678Y-4.963
X7.686Y-2.112
X7.6927Y-2.1467
X7.728Y-4.783
X7.733Y-1.61
X7.733Y-4.906
X7.736Y-5.135
X7.736Y-5.302
X7.738Y-1.727
X7.754Y-4.767
X7.754Y-4.959
X7.766Y-2.103
X7.857Y-7.551
X7.859Y-2.167
X7.86Y-1.949
X7.876Y-1.411
X7.884Y-7.45
X7.889Y-7.69
X7.8892Y-2.056
X7.897Y-4.431
X7.899Y-4.908
X7.908Y-2.462
X7.908Y-8.383
X7.913Y-1.435
X7.9152Y-1.81
X7.916Y-7.553
X7.917Y-4.399
X7.918Y-4.996
X7.935Y-4.486
X7.948Y-2.257
X7.956Y-5.307
X7.958Y-4.843
X7.971Y-1.671
X7.977Y-2.161
X7.983Y-7.87
X7.984Y-8.145
X7.987Y-5.421
X8.035Y-5.368
X8.036Y-5.212
X8.044Y-8.183
X8.0533Y-8.1273
X8.106Y-1.437
X8.12Y-7.465
X8.132Y-1.413
X8.143Y-2.158
X8.146Y-7.448
X8.154Y-4.476
X8.154Y-4.594
X8.184Y-2.106
X8.184Y-5.215
X8.1942Y-8.3372
X8.198Y-4.399
X8.202Y-8.136
X8.2125Y-5.186
X8.235Y-4.465
X8.608Y-5.011
X8.611Y-5.432
X8.622Y-5.054
X8.63Y-5.453
X8.635Y-5.092
X8.635Y-5.394
X8.651Y-8.687
X8.6555Y-5.418
X8.658Y-7.282
X8.662Y-5.465
X8.665Y-8.74
X8.6675Y-4.5295
X8.6685Y-5.3985
X8.671Y-7.252
X8.68Y-9.292
X8.682Y-5.135
X8.684Y-7.225
X8.6875Y-4.555
X8.695Y-5.383
X8.695Y-8.914
X8.6969Y-8.766
X8.6969Y-8.966
X8.6969Y-9.016
X8.6969Y-9.316
X8.697Y-9.239
X8.699Y-9.044
X8.7Y-7.204
X8.7Y-8.817
X8.7055Y-4.558
X8.71Y-5.178
X8.713Y-7.184
X8.717Y-9.14
X8.723Y-4.5695
X8.7235Y-5.3785
X8.732Y-5.693
X8.736Y-4.248
X8.7405Y-5.355
X8.744Y-4.572
X8.747Y-9.292
X8.75Y-5.673
X8.751Y-9.241
X8.752Y-5.218
X8.754Y-9.142
X8.7593Y-7.061
X8.76Y-4.88
X8.761Y-4.587
X8.762Y-5.654
X8.768Y-8.991
X8.772Y-4.227
X8.7775Y-5.35
X8.778Y-4.5
X8.785Y-9.193
X8.7982Y-9.117
X8.8Y-9.268
X8.803Y-7.118
X8.807Y-5.321
X8.808Y-5.566
X8.817Y-4.5835
X8.851Y-5.385
X8.851Y-5.58
X8.861Y-4.636
X8.861Y-4.762
X8.863Y-8.92
X8.866Y-9.197
X8.875Y-9.137
X8.876Y-8.827
X8.876Y-9.1
X8.881Y-8.791
X8.883Y-6.83
X8.884Y-4.92
X8.886Y-7.157
X8.886Y-9.054
X8.8867Y-7.0263
X8.887Y-5.597
X8.888Y-5.385
X8.889Y-9.016
X8.898Y-4.958
X8.901Y-4.476
X8.906Y-7.137
X8.91Y-9.143
X8.911Y-4.889
X8.916Y-4.464
X8.92Y-7.117
X8.926Y-4.849
X8.926Y-5.614
X8.927Y-4.394
X8.928Y-4.415
X8.928Y-4.505
X8.941Y-4.808
X8.944Y-7.156
X8.95Y-4.28
X8.9518Y-9.117
X8.958Y-5.635
X8.964Y-4.512
X8.964Y-5.34
X8.986Y-4.259
X8.987Y-5.644
X8.987Y-6.961
X8.988Y-7.002
X8.988Y-7.04
X8.994Y-5.31
X8.995Y-4.38
X8.997Y-9.35
X8.999Y-6.922
X9.002Y-5.432
X9.01Y-4.506
X9.01Y-4.923
X9.01Y-8.692
X9.011Y-9.162
X9.015Y-4.235
X9.015Y-8.744
X9.0171Y-4.725
X9.028Y-7.219
X9.03Y-9.244
X9.038Y-5.707
X9.039Y-5.839
X9.044Y-8.632
X9.045Y-4.444
X9.045Y-6.762
X9.046Y-5.456
X9.047Y-5.684
X9.058Y-4.222
X9.067Y-5.655
X9.08Y-4.205
X9.088Y-4.433
X9.101Y-5.432
X9.101Y-5.876
X9.102Y-6.86
X9.104Y-6.903
X9.106Y-5.847
X9.108Y-6.961
X9.108Y-6.988
X9.11Y-7.036
X9.111Y-7.158
X9.115Y-5.563
X9.116Y-5.302
X9.117Y-7.094
X9.119Y-4.7332
X9.12Y-4.187
X9.12Y-9.311
X9.126Y-8.907
X9.127Y-8.937
X9.128Y-4.42
X9.128Y-9.203
X9.131Y-5.428
X9.131Y-8.762
X9.143Y-5.124
X9.147Y-5.338
X9.152Y-5.43
X9.162Y-5.312
X9.17Y-4.503
X9.177Y-5.201
X9.181Y-5.312
X9.184Y-5.428
X9.194Y-5.202
X9.207Y-5.456
X9.208Y-4.605
X9.209Y-5.3
X9.22Y-5.563
X9.235Y-7.753
X9.245Y-4.47
X9.252Y-4.43
X9.257Y-5.456
X9.264Y-5.625
X9.265Y-5.312
X9.275Y-4.471
X9.276Y-8.138
X9.284Y-5.635
X9.288Y-4.457
X9.289Y-5.296
X9.299Y-4.064
X9.311Y-5.429
X9.315Y-4.806
X9.328Y-4.466
X9.3325Y-5.3265
X9.335Y-4.7405
X9.335Y-5.2135
X9.3355Y-4.8955
X9.3355Y-5.172
X9.336Y-5.017
X9.3365Y-4.701
X9.337Y-4.7815
X9.337Y-5.055
X9.3375Y-4.593
X9.3375Y-4.935
X9.338Y-4.6255
X9.338Y-5.1345
X9.3385Y-4.9775
X9.339Y-4.6605
X9.339Y-4.8585
X9.3405Y-5.094
X9.342Y-4.82
X9.349Y-4.466
X9.3545Y-4.7625
X9.3555Y-4.5855
X9.357Y-5.353
X9.365Y-4.284
X9.366Y-4.498
X9.3665Y-4.539
X9.3755Y-5.136
X9.3765Y-5.1735
X9.3775Y-4.5825
X9.3785Y-4.703
X9.379Y-5.3915
X9.382Y-5.336
X9.3828Y-4.256
X9.385Y-7.734
X9.387Y-5.559
X9.3915Y-4.5485
X9.394Y-5.058
X9.399Y-4.2712
X9.4Y-5.3505
X9.4025Y-5.4
X9.408Y-4.5735
X9.412Y-5.0985
X9.4135Y-4.7415
X9.414Y-4.821
X9.4155Y-4.532
X9.4162Y-4.779
X9.4165Y-4.86
X9.4165Y-4.977
X9.4185Y-5.0175
X9.424Y-4.416
X9.424Y-5.836
X9.428Y-4.512
X9.4315Y-4.896
X9.4375Y-5.3905
X9.44Y-7.49
X9.444Y-4.24
X9.447Y-7.715
X9.4478Y-4.74
X9.4628Y-4.9724
X9.464Y-4.8944
X9.4646Y-5.0954
X9.4656Y-5.012
X9.466Y-4.229
X9.466Y-4.446
X9.466Y-4.8164
X9.466Y-4.933
X9.467Y-8.186
X9.4684Y-4.8572
X9.469Y-5.0552
X9.4722Y-5.1746
X9.4748Y-5.429
X9.4782Y-5.452
X9.485Y-7.68
X9.485Y-7.885
X9.4912Y-4.7044
X9.5004Y-4.2388
X9.503Y-4.212
X9.503Y-5.873
X9.5052Y-5.0112
X9.506Y-4.8936
X9.5066Y-5.093
X9.507Y-4.9324
X9.5076Y-4.9734
X9.5082Y-4.8562
X9.5082Y-5.0518
X9.5086Y-5.1726
X9.509Y-4.8178
X9.5146Y-5.4476
X9.5164Y-4.7462
X9.522Y-7.92
X9.523Y-5.849
X9.5416Y-4.223
X9.5436Y-5.0516
X9.5448Y-4.894
X9.5448Y-5.0938
X9.545Y-5.0114
X9.546Y-4.8544
X9.546Y-4.974
X9.5478Y-4.818
X9.5482Y-4.9344
X9.549Y-7.935
X9.552Y-5.4414
X9.5534Y-4.76
X9.5538Y-5.1756
X9.554Y-7.371
X9.559Y-4.204
X9.562Y-5.41
X9.566Y-7.952
X9.574Y-5.578
X9.5804Y-4.151
X9.5804Y-4.2842
X9.5838Y-5.051
X9.5846Y-5.093
X9.585Y-7.976
X9.5852Y-5.0114
X9.5864Y-4.8556
X9.587Y-4.932
X9.5876Y-4.8948
X9.588Y-4.8164
X9.588Y-4.974
X9.5932Y-5.1168
X9.5934Y-4.7604
X9.598Y-5.1766
X9.605Y-5.586
X9.606Y-7.996
X9.6164Y-4.134
X9.617Y-4.552
X9.6246Y-5.09
X9.625Y-8.009
X9.6252Y-4.8948
X9.6254Y-5.0502
X9.6258Y-4.9338
X9.626Y-5.0106
X9.6266Y-4.9732
X9.627Y-4.8566
X9.6278Y-4.8168
X9.6281Y-5.363
X9.6306Y-4.7636
X9.6334Y-5.1766
X9.637Y-5.601
X9.643Y-7.718
X9.6477Y-5.4366
X9.651Y-4.7014
X9.662Y-5.572
X9.6634Y-4.8146
X9.6638Y-4.8546
X9.664Y-4.552
X9.664Y-4.9726
X9.6644Y-4.8944
X9.6644Y-5.051
X9.665Y-5.0132
X9.6652Y-4.9334
X9.6652Y-4.515
X9.6658Y-5.09
X9.671Y-4.7646
X9.6732Y-5.1764
X9.6745Y-4.4295
X9.675Y-5.38
X9.6764Y-4.7048
X9.677Y-4.588
X9.6814Y-5.4352
X9.698Y-5.621
X9.701Y-7.896
X9.703Y-4.8158
X9.7032Y-4.9722
X9.7034Y-4.8926
X9.7038Y-5.0898
X9.704Y-5.0122
X9.7042Y-4.9324
X9.7044Y-5.0534
X9.705Y-4.8542
X9.7061Y-5.4464
X9.7082Y-4.0462
X9.7102Y-4.7046
X9.7112Y-4.764
X9.7122Y-5.1946
X9.713Y-4.724
X9.714Y-4.572
X9.7152Y-5.1724
X9.718Y-7.978
X9.7234Y-4.0154
X9.725Y-5.437
X9.73Y-7.737
X9.736Y-4.465
X9.7364Y-5.55
X9.7428Y-5.0144
X9.743Y-5.0934
X9.744Y-8.094
X9.7442Y-4.8166
X9.7442Y-4.894
X9.7446Y-4.9336
X9.7448Y-4.8518
X9.7448Y-5.0472
X9.7456Y-4.9718
X9.7504Y-5.1774
X9.7518Y-5.218
X9.753Y-5.154
X9.754Y-4.7314
X9.7568Y-4.2594
X9.763Y-8.021
X9.764Y-4.432
X9.764Y-8.236
X9.766Y-4.744
X9.7674Y-5.3964
X9.7692Y-5.4478
X9.7718Y-4.2422
X9.772Y-5.634
X9.772Y-8.139
X9.7772Y-4.4664
X9.778Y-4.497
X9.7832Y-5.1374
X9.7864Y-5.371
X9.788Y-4.9015
X9.788Y-7.754
X9.7895Y-4.9375
X9.7926Y-5.5554
X9.793Y-4.742
X9.7935Y-4.8625
X9.794Y-4.785
X9.7945Y-4.7035
X9.7946Y-5.4244
X9.795Y-4.826
X9.796Y-4.585
X9.802Y-5.613
X9.802Y-8.071
X9.803Y-5.732
X9.8075Y-5.0165
X9.808Y-5.058
X9.809Y-5.0985
X9.809Y-5.137
X9.809Y-5.1735
X9.81Y-5.215
X9.8125Y-5.2965
X9.8148Y-5.3778
X9.815Y-4.57
X9.8158Y-5.3984
X9.816Y-3.993
X9.819Y-8.093
X9.8222Y-5.576
X9.823Y-8.138
X9.825Y-8.236
X9.828Y-5.313
X9.83Y-4.557
X9.8306Y-4.2306
X9.8342Y-4.524
X9.837Y-8.219
X9.8402Y-5.425
X9.846Y-5.33
X9.853Y-8.201
X9.86Y-7.4915
X9.863Y-5.4436
X9.865Y-8.043
X9.8655Y-4.681
X9.8665Y-4.8015
X9.867Y-4.6415
X9.867Y-4.7225
X9.867Y-4.7615
X9.8675Y-4.919
X9.8675Y-4.997
X9.8675Y-5.1555
X9.868Y-4.8405
X9.8685Y-5.114
X9.8685Y-5.1945
X9.869Y-4.88
X9.869Y-5.037
X9.869Y-5.076
X9.869Y-5.2355
X9.87Y-4.958
X9.871Y-7.782
X9.8732Y-4.5054
X9.877Y-8.1745
X9.877Y-8.236
X9.8855Y-4.539
X9.887Y-5.344
X9.892Y-5.596
X9.896Y-4.393
X9.897Y-7.952
X9.898Y-4.1468
X9.9168Y-4.136
X9.917Y-7.968
X9.918Y-4.969
X9.9205Y-4.526
X9.922Y-7.923
X9.929Y-8.019
X9.931Y-8.165
X9.932Y-7.944
X9.933Y-8.442
X9.9335Y-5.364
X9.934Y-7.999
X9.941Y-8.123
X9.943Y-7.891
X9.947Y-4.931
X9.95Y-8.044
X9.951Y-4.5105
X9.9575Y-8.0915
X9.972Y-5.382
X9.973Y-7.837
X9.975Y-8.116
X9.982Y-4.4895
X9.982Y-8.244
X9.998Y-8.165
X10.001Y-7.68
X10.0014Y-4.0476
X10.003Y-7.964
X10.004Y-7.943
X10.017Y-7.927
X10.0176Y-4.0164
X10.018Y-7.698
X10.019Y-8.165
X10.02Y-8.054
X10.021Y-8.488
X10.023Y-7.895
X10.028Y-7.501
X10.037Y-7.833
X10.037Y-8.012
X10.0382Y-8.045
X10.039Y-8.218
X10.045Y-7.374
X10.048Y-4.422
X10.054Y-8.184
X10.062Y-7.36
X10.066Y-7.714
X10.069Y-8.233
X10.071Y-8.249
X10.072Y-8.114
X10.079Y-8.278
X10.086Y-7.316
X10.086Y-8.457
X10.093Y-7.373
X10.101Y-8.241
X10.106Y-7.677
X10.107Y-8.277
X10.111Y-8.025
X10.113Y-8.082
X10.119Y-7.761
X10.133Y-7.791
X10.142Y-7.408
X10.145Y-7.72
X10.148Y-7.84
X10.159Y-7.514
X10.181Y-8.103
X10.183Y-8.266
X10.184Y-7.943
X10.184Y-8.047
X10.204Y-7.983
X10.204Y-8.079
X10.206Y-8.109
X10.207Y-7.908
X10.216Y-7.95
X10.254Y-7.88
X10.276Y-7.981
X10.283Y-8.177
X10.298Y-7.678
X10.305Y-8.074
X10.313Y-7.698
X10.314Y-7.433
X10.328Y-7.722
X10.331Y-1.909
X10.335Y-8.072
X10.341Y-7.74
X10.355Y-7.781
X10.356Y-8.128
X10.358Y-8.056
X10.358Y-8.148
X10.365Y-8.111
X10.369Y-8.027
X10.372Y-8.569
X10.375Y-7.763
X10.378Y-1.56
X10.379Y-8.0563
X10.379Y-8.144
X10.3825Y-5.3025
X10.3855Y-4.584
X10.387Y-8.256
X10.388Y-7.713
X10.388Y-7.832
X10.389Y-7.894
X10.391Y-7.953
X10.392Y-8.206
X10.394Y-7.865
X10.401Y-7.811
X10.403Y-1.808
X10.406Y-5.31
X10.4065Y-4.569
X10.41Y-8.229
X10.4205Y-4.559
X10.421Y-7.7
X10.4245Y-5.3215
X10.425Y-1.974
X10.434Y-7.926
X10.434Y-8.253
X10.434Y-8.457
X10.435Y-7.886
X10.435Y-7.965
X10.436Y-7.946
X10.437Y-7.905
X10.4405Y-5.346
X10.4405Y-5.3825
X10.441Y-4.5405
X10.4425Y-5.3635
X10.4525Y-4.5265
X10.4618Y-1.8872
X10.462Y-4.511
X10.466Y-1.96
X10.47Y-4.49
X10.4718Y-1.8592
X10.481Y-8.252
X10.483Y-1.948
X10.483Y-7.966
X10.483Y-7.989
X10.483Y-8.019
X10.507Y-8.229
X10.512Y-1.812
X10.527Y-8.443
X10.529Y-7.768
X10.532Y-2.088
X10.535Y-2.109
X10.548Y-8.232
X10.55Y-7.768
X10.554Y-7.283
X10.555Y-8.279
X10.568Y-7.686
X10.569Y-2.031
X10.569Y-2.075
X10.572Y-7.768
X10.577Y-8.268
X10.587Y-1.853
X10.587Y-7.678
X10.605Y-8.229
X10.6066Y-7.6816
X10.62Y-2.061
X10.626Y-1.835
X10.63Y-7.768
X10.631Y-8.455
X10.637Y-7.298
X10.648Y-7.682
X10.652Y-8.223
X10.668Y-7.679
X10.672Y-8.228
X10.678Y-8.245
X10.679Y-7.463
X10.685Y-1.996
X10.692Y-7.683
X10.6935Y-2.0735
X10.709Y-2.066
X10.712Y-8.253
X10.726Y-8.448
X10.727Y-4.875
X10.727Y-7.512
X10.728Y-4.793
X10.729Y-4.834
X10.73Y-4.714
X10.73Y-4.757
X10.73Y-4.939
X10.731Y-4.911
X10.7335Y-7.6915
X10.734Y-1.972
X10.736Y-5.037
X10.738Y-4.966
X10.738Y-5.068
X10.738Y-8.25
X10.74Y-4.999
X10.74Y-5.098
X10.742Y-8.488
X10.743Y-5.131
X10.743Y-5.159
X10.746Y-5.276
X10.747Y-5.193
X10.747Y-7.429
X10.749Y-7.676
X10.754Y-5.223
X10.758Y-4.674
X10.758Y-8.262
X10.765Y-7.784
X10.777Y-8.241
X10.778Y-8.136
X10.789Y-7.785
X10.79Y-7.428
X10.802Y-2.266
X10.803Y-8.275
X10.812Y-7.682
X10.827Y-8.442
X10.831Y-7.523
X10.833Y-7.562
X10.835Y-7.867
X10.835Y-7.89
X10.835Y-8.025
X10.835Y-8.086
X10.836Y-7.967
X10.837Y-8.261
X10.839Y-7.985
X10.839Y-8.065
X10.839Y-8.105
X10.848Y-7.733
X10.864Y-8.271
X10.876Y-5.377
X10.876Y-7.448
X10.877Y-8.567
X10.9Y-7.735
X10.904Y-4.606
X10.911Y-7.442
X10.919Y-5.383
X10.932Y-8.046
X10.934Y-7.924
X10.935Y-7.808
X10.936Y-4.598
X10.948Y-7.827
X10.948Y-7.847
X10.95Y-5.379
X10.957Y-8.004
X10.96Y-7.497
X10.96Y-7.947
X10.966Y-4.596
X10.977Y-8.18
X10.984Y-5.392
X10.984Y-8.046
X10.985Y-8.148
X10.997Y-4.599
X10.997Y-8.226
X11.013Y-5.384
X11.03Y-4.601
X11.043Y-5.389
X11.063Y-4.6
X11.094Y-4.593
X11.108Y-5.381
X11.123Y-4.597
X11.137Y-5.381
X11.154Y-4.595
X11.17Y-5.389
X11.179Y-8.017
X11.186Y-4.588
X11.188Y-8.108
X11.189Y-8.612
X11.193Y-7.97
X11.201Y-8.592
X11.205Y-5.386
X11.206Y-8.049
X11.209Y-7.55
X11.211Y-7.601
X11.212Y-7.889
X11.213Y-7.913
X11.217Y-4.593
X11.217Y-8.485
X11.218Y-8.4
X11.218Y-8.524
X11.221Y-7.63
X11.222Y-7.87
X11.231Y-7.818
X11.237Y-7.842
X11.239Y-5.402
X11.239Y-8.077
X11.242Y-8.051
X11.249Y-4.593
X11.249Y-8.498
X11.252Y-8.105
X11.257Y-7.714
X11.258Y-7.936
X11.258Y-8.273
X11.259Y-7.646
X11.267Y-5.387
X11.268Y-7.663
X11.27Y-7.956
X11.278Y-7.978
X11.279Y-8.511
X11.28Y-7.824
X11.282Y-4.595
X11.297Y-5.387
X11.303Y-7.988
X11.312Y-8.251
X11.313Y-4.592
X11.316Y-8.014
X11.324Y-7.956
X11.33Y-5.389
X11.337Y-8.513
X11.338Y-7.871
X11.339Y-7.995
X11.346Y-4.599
X11.354Y-8.05
X11.355Y-8.018
X11.356Y-8.07
X11.3578Y-8.107
X11.359Y-8.089
X11.3612Y-8.1246
X11.362Y-5.379
X11.38Y-4.596
X11.386Y-8.036
X11.397Y-5.379
X11.404Y-7.87
X11.427Y-8.23
X11.436Y-8.133
X11.438Y-7.802
X11.468Y-8.395
X11.4847Y-8.1171
X11.495Y-8.097
X11.519Y-4.76
X11.519Y-4.794
X11.52Y-4.858
X11.52Y-4.891
X11.521Y-5.016
X11.521Y-5.242
X11.524Y-4.828
X11.524Y-4.983
X11.524Y-5.206
X11.526Y-5.174
X11.527Y-4.954
X11.527Y-7.822
X11.528Y-5.045
X11.528Y-5.11
X11.529Y-4.923
X11.529Y-5.078
X11.538Y-5.146
X11.574Y-8.42
X11.582Y-2.02
X11.597Y-8.236
X11.599Y-1.508
X11.604Y-2.47
X11.616Y-1.479
X11.618Y-8.093
X11.64Y-4.36
X11.64Y-7.731
X11.642Y-7.955
X11.648Y-7.714
X11.649Y-8.111
X11.652Y-5.187
X11.653Y-4.963
X11.657Y-4.657
X11.658Y-1.446
X11.658Y-4.403
X11.666Y-1.708
X11.668Y-7.941
X11.669Y-2.191
X11.669Y-4.707
X11.669Y-8.043
X11.67Y-5.29
X11.672Y-4.43
X11.682Y-7.741
X11.682Y-7.81
X11.684Y-5.013
X11.684Y-5.24
X11.686Y-1.744
X11.686Y-7.976
X11.688Y-7.576
X11.692Y-2.404
X11.692Y-8.31
X11.7Y-5.384
X11.702Y-8.678
X11.703Y-7.674
X11.705Y-1.764
X11.708Y-2.222
X11.709Y-8.236
X11.71Y-2.168
X11.712Y-8.159
X11.713Y-8.568
X11.717Y-5.334
X11.719Y-4.917
X11.719Y-7.456
X11.722Y-8.111
X11.726Y-8.093
X11.731Y-7.35
X11.732Y-7.975
X11.733Y-2.264
X11.737Y-1.667
X11.743Y-7.617
X11.745Y-7.869
X11.746Y-8.386
X11.749Y-7.587
X11.75Y-7.906
X11.7509Y-8.037
X11.751Y-4.703
X11.754Y-8.282
X11.757Y-8.5
X11.758Y-4.402
X11.763Y-7.574
X11.764Y-4.354
X11.767Y-7.724
X11.773Y-8.214
X11.781Y-7.874
X11.782Y-8.008
X11.783Y-8.148
X11.788Y-7.664
X11.796Y-8.167
X11.8Y-8.189
X11.804Y-8.334
X11.806Y-1.429
X11.81Y-1.322
X11.822Y-7.351
X11.861Y-1.504
X11.871Y-4.438
X11.896Y-8.04
X11.901Y-2.189
X11.903Y-2.043
X11.914Y-5.496
X11.922Y-2.156
X11.93Y-5.131
X11.931Y-7.456
X11.938Y-7.399
X11.94Y-7.666
X11.951Y-4.66
X11.952Y-5.385
X11.958Y-1.981
X11.964Y-5.44
X11.972Y-8.023
X11.992Y-8.188
X12.007Y-8.137
X12.011Y-7.874
X12.018Y-8.428
X12.024Y-7.394
X12.55Y-5.1015
X12.5625Y-2.664
X12.595Y-4.434
X12.6325Y-1.3165
X12.66Y-5.039
X12.66Y-5.1015
X12.6625Y-4.749
X12.6675Y-4.629
X12.7081Y-7.505
X12.7081Y-7.6625
X12.7081Y-7.8199
X12.7081Y-7.8987
X12.7081Y-7.9774
X12.7081Y-8.0562
X12.7081Y-8.1349
X12.7081Y-8.2136
X12.7081Y-8.2924
X12.7081Y-8.3711
X12.715Y-4.781
X12.7184Y-7.466
X12.7184Y-7.7805
X12.7464Y-7.3868
X12.7525Y-5.0915
X12.7744Y-7.4262
X12.7744Y-7.7412
X12.775Y-5.139
X12.7769Y-7.5444
X12.7769Y-7.6231
X12.7769Y-7.7018
X12.7769Y-7.8593
X12.7769Y-7.9381
X12.7769Y-8.0168
X12.7769Y-8.0955
X12.7769Y-8.1743
X12.7769Y-8.253
X12.7769Y-8.3318
X12.8279Y-8.4096
X12.8425Y-4.434
X12.8544Y-7.2515
X12.8725Y-8.514
X12.8947Y-7.3634
X12.9066Y-8.4096
X12.9331Y-7.2565
X12.9484Y-8.4435
X12.9735Y-7.3634
X12.9854Y-8.4096
X13.0075Y-1.2915
X13.0119Y-7.2515
X13.0225Y-8.424
X13.0522Y-7.3634
X13.0641Y-8.4096
X13.09Y-7.254
X13.1075Y-8.4265
X13.131Y-7.3634
X13.1428Y-8.4096
X13.166Y-7.2515
X13.2097Y-7.3634
X13.2216Y-8.4096
X13.2475Y-2.039
X13.2481Y-7.254
X13.265Y-1.5116
X13.265Y-1.5864
X13.265Y-8.4315
X13.2884Y-7.3634
X13.2925Y-2.6415
X13.3003Y-8.4096
X13.3268Y-7.254
X13.345Y-8.424
X13.3672Y-7.3634
X13.3675Y-1.8015
X13.3675Y-1.894
X13.3675Y-1.894
X13.37Y-1.5765
X13.37Y-1.709
X13.37Y-1.709
X13.3791Y-8.4096
X13.4056Y-7.254
X13.42Y-8.4265
X13.4459Y-7.3634
X13.4578Y-8.4096
X13.475Y-1.5515
X13.4843Y-7.2608
X13.5025Y-8.419
X13.5247Y-7.3634
X13.53Y-2.6465
X13.5365Y-8.4096
X13.545Y-2.3414
X13.5475Y-1.709
X13.565Y-1.7815
X13.5794Y-8.5215
X13.5875Y-2.289
X13.6034Y-7.3634
X13.6125Y-4.9015
X13.6125Y-4.919
X13.6125Y-4.939
X13.6125Y-4.959
X13.6125Y-4.9765
X13.6125Y-4.9965
X13.6125Y-5.0165
X13.6153Y-8.4096
X13.62Y-1.669
X13.6325Y-4.9015
X13.6325Y-4.919
X13.6325Y-4.939
X13.6325Y-4.959
X13.6325Y-4.9765
X13.6325Y-4.9965
X13.6325Y-5.0165
X13.6418Y-7.259
X13.6525Y-4.9015
X13.6525Y-4.919
X13.6525Y-4.939
X13.6525Y-4.959
X13.6525Y-4.9765
X13.6525Y-4.9965
X13.6525Y-5.0165
X13.6575Y-8.429
X13.6725Y-4.9015
X13.6725Y-4.919
X13.6725Y-4.939
X13.6725Y-4.959
X13.6725Y-4.9765
X13.6725Y-4.9965
X13.6725Y-5.0165
X13.675Y-2.1565
X13.6821Y-7.3634
X13.6825Y-1.715
X13.6825Y-1.754
X13.694Y-8.4096
X13.695Y-4.9015
X13.695Y-4.919
X13.695Y-4.939
X13.695Y-4.959
X13.695Y-4.9765
X13.695Y-4.9965
X13.695Y-5.0165
X13.6995Y-2.2735
X13.7025Y-1.294
X13.7039Y-1.703
X13.7137Y-2.3102
X13.715Y-4.9015
X13.715Y-4.919
X13.715Y-4.939
X13.715Y-4.959
X13.715Y-4.9765
X13.715Y-4.9965
X13.715Y-5.0165
X13.7205Y-7.259
X13.74Y-8.429
X13.76Y-1.6215
X13.7609Y-7.3634
X13.7728Y-8.4096
X13.775Y-1.7015
X13.7993Y-7.2608
X13.8125Y-8.434
X13.83Y-2.0265
X13.83Y-2.1865
X13.8396Y-7.3634
X13.84Y-2.314
X13.87Y-7.7065
X13.8725Y-7.784
X13.8725Y-7.864
X13.8736Y-7.4284
X13.8736Y-7.5071
X13.8736Y-7.5859
X13.8736Y-7.6646
X13.8736Y-7.7434
X13.8736Y-7.8221
X13.8736Y-7.9008
X13.8736Y-7.9796
X13.8736Y-8.0583
X13.8736Y-8.1371
X13.8736Y-8.2158
X13.8736Y-8.2945
X13.8736Y-8.3733
X13.875Y-7.944
X13.875Y-8.024
X13.8775Y-7.474
X13.8775Y-7.549
X13.8775Y-7.6315
X13.8775Y-8.1765
X13.8775Y-8.3365
X13.88Y-7.3915
X13.8804Y-8.2569
X14.1125Y-2.184
X14.2525Y-1.834
X14.3375Y-1.819
X14.4825Y-1.979
X14.56Y-1.4365
X14.587Y-4.803
X14.589Y-4.759
X14.5975Y-2.007
X14.616Y-4.825
X14.625Y-1.5165
X14.644Y-4.832
X14.6875Y-2.424
X14.695Y-1.4615
X14.695Y-4.812
X14.707Y-4.765
X14.795Y-1.839
X14.8125Y-2.184
X14.863Y-4.817
X14.8675Y-1.7265
X14.875Y-1.689
X14.8975Y-1.9165
X14.905Y-1.7315
X14.9975Y-1.759
X15.0175Y-1.421
X15.077Y-1.759
X15.095Y-1.9065
X15.195Y-1.9065
X15.2Y-1.759
X15.2149Y-2.1866
X15.22Y-1.8215
X15.2225Y-1.9315
X15.235Y-2.3515
X15.2525Y-2.379
X15.275Y-1.7616
X15.3125Y-1.8491
X15.33Y-1.7965
X15.355Y-1.9675
X15.36Y-1.7665
X15.365Y-1.529
X15.375Y-1.809
X15.395Y-1.604
X15.395Y-1.7865
X15.4025Y-1.989
X15.4133Y-1.7682
X15.415Y-1.6715
X15.425Y-1.869
X15.425Y-1.9855
X15.425Y-2.194
X15.43Y-2.3215
X15.445Y-2.0065
X15.4525Y-7.834
X15.4625Y-8.3315
X15.4675Y-7.884
X15.4675Y-8.1715
X15.4895Y-4.5865
X15.4975Y-7.854
X15.5021Y-4.4033
X15.5025Y-7.524
X15.5075Y-4.644
X15.5125Y-4.4215
X15.527Y-4.4515
X15.5275Y-4.939
X15.55Y-4.3865
X15.55Y-7.674
X15.555Y-5.2715
X15.5675Y-5.214
X15.58Y-1.5015
X15.585Y-4.9915
X15.5875Y-4.894
X15.5875Y-5.324
X15.5925Y-1.9315
X15.5975Y-8.1165
X15.605Y-1.439
X15.61Y-1.9465
X15.6125Y-4.939
X15.615Y-4.424
X15.62Y-8.1565
X15.6275Y-4.5993
X15.6275Y-5.374
X15.63Y-5.154
X15.6375Y-1.964
X15.64Y-7.834
X15.6525Y-1.749
X15.67Y-1.9915
X15.67Y-7.5165
X15.675Y-4.3865
X15.6775Y-7.8765
X15.6925Y-7.6165
X15.7125Y-7.854
X15.7225Y-4.809
X15.7225Y-4.9265
X15.73Y-7.5115
X15.735Y-4.4065
X15.735Y-4.5115
X15.7375Y-4.6565
X15.7375Y-8.1215
X15.795Y-4.4465
X15.7975Y-4.409
X15.85Y-4.954
X15.85Y-8.1615
X15.885Y-4.984
X15.895Y-7.509
X15.9125Y-8.009
X15.9305Y-7.869
T5
X15.5166Y-1.6088
X15.5166Y-1.6718
X15.5166Y-1.7033
X15.5166Y-1.7347
X15.5166Y-1.7662
X15.5166Y-1.8292
X15.5441Y-1.6245
X15.5441Y-1.656
X15.5441Y-1.6875
X15.5441Y-1.7505
X15.5441Y-1.782
X15.5441Y-1.8135
T6
X0.9634Y-2.221
X0.964Y-1.521
X0.9704Y-5.386
X0.971Y-4.686
X1.0634Y-2.221
X1.064Y-1.521
X1.0704Y-5.386
X1.071Y-4.686
X1.1634Y-2.221
X1.164Y-1.521
X1.1704Y-5.386
X1.171Y-4.686
X1.2634Y-2.221
X1.264Y-1.521
X1.2704Y-5.386
X1.271Y-4.686
X1.3634Y-2.221
X1.364Y-1.521
X1.3704Y-5.386
X1.371Y-4.686
X1.4634Y-2.221
X1.464Y-1.521
X1.4704Y-5.386
X1.471Y-4.686
X1.5634Y-2.221
X1.564Y-1.521
X1.5704Y-5.386
X1.571Y-4.686
X1.6144Y-8.228
X1.615Y-7.528
X1.6634Y-2.221
X1.664Y-1.521
X1.6704Y-5.386
X1.671Y-4.686
X1.7144Y-8.228
X1.715Y-7.528
X1.7634Y-2.221
X1.764Y-1.521
X1.7704Y-5.386
X1.771Y-4.686
X1.8144Y-8.228
X1.815Y-7.528
X1.8634Y-2.221
X1.864Y-1.521
X1.8704Y-5.386
X1.871Y-4.686
X1.9144Y-8.228
X1.915Y-7.528
X1.9634Y-2.221
X1.964Y-1.521
X1.9704Y-5.386
X1.971Y-4.686
X2.0144Y-8.228
X2.015Y-7.528
X2.0634Y-2.221
X2.064Y-1.521
X2.0704Y-5.386
X2.071Y-4.686
X2.1144Y-8.228
X2.115Y-7.528
X2.1634Y-2.221
X2.164Y-1.521
X2.1704Y-5.386
X2.171Y-4.686
X2.2144Y-8.228
X2.215Y-7.528
X2.2634Y-2.221
X2.264Y-1.521
X2.2704Y-5.386
X2.271Y-4.686
X2.3144Y-8.228
X2.315Y-7.528
X2.3634Y-2.221
X2.364Y-1.521
X2.3704Y-5.386
X2.371Y-4.686
X2.4144Y-8.228
X2.415Y-7.528
X2.4634Y-2.221
X2.464Y-1.521
X2.4704Y-5.386
X2.471Y-4.686
X2.5144Y-8.228
X2.515Y-7.528
X2.5634Y-2.221
X2.564Y-1.521
X2.5704Y-5.386
X2.571Y-4.686
X2.6144Y-8.228
X2.615Y-7.528
X2.664Y-1.521
X2.664Y-2.221
X2.671Y-4.686
X2.671Y-5.386
X2.7144Y-8.228
X2.715Y-7.528
X2.764Y-1.521
X2.764Y-2.221
X2.771Y-4.686
X2.771Y-5.386
X2.8144Y-8.228
X2.815Y-7.528
X2.854Y-1.771
X2.854Y-1.871
X2.854Y-1.971
X2.861Y-4.936
X2.861Y-5.036
X2.861Y-5.136
X2.864Y-1.521
X2.864Y-2.221
X2.871Y-4.686
X2.871Y-5.386
X2.9144Y-8.228
X2.915Y-7.528
X3.0144Y-8.228
X3.015Y-7.528
X3.1144Y-8.228
X3.115Y-7.528
X3.2144Y-8.228
X3.215Y-7.528
X3.315Y-7.528
X3.315Y-8.228
X3.415Y-7.528
X3.415Y-8.228
X3.505Y-7.778
X3.505Y-7.878
X3.505Y-7.978
X3.515Y-7.528
X3.515Y-8.228
X4.885Y-0.7646
X4.885Y-0.804
X4.8854Y-0.909
X4.8854Y-0.9484
X4.8854Y-1.0496
X4.8854Y-1.0889
X4.8929Y-2.9159
X4.8929Y-2.9552
X4.8929Y-3.0871
X4.8929Y-3.1265
X4.8929Y-3.2584
X4.8929Y-3.2977
X4.8988Y-7.564
X4.9019Y-8.384
X4.91Y-7.684
X4.91Y-7.7234
X4.91Y-7.7627
X4.91Y-7.8021
X4.91Y-7.8415
X4.91Y-7.8809
X4.91Y-7.9202
X4.91Y-7.9596
X4.91Y-7.999
X4.91Y-8.0383
X4.91Y-8.0777
X4.91Y-8.1171
X4.91Y-8.1564
X4.91Y-8.1958
X4.91Y-8.2352
X4.91Y-8.2746
X4.9156Y-6.7603
X4.9156Y-6.7996
X4.9156Y-6.839
X4.9156Y-6.8784
X4.9156Y-6.9177
X4.9156Y-6.9571
X4.9156Y-6.9965
X4.9156Y-7.0359
X4.92Y-3.814
X4.92Y-3.8534
X4.92Y-3.8927
X4.92Y-3.9321
X4.92Y-3.9715
X4.92Y-4.0109
X4.92Y-4.0502
X4.92Y-4.0896
X4.9244Y-0.7646
X4.9244Y-0.804
X4.9247Y-0.909
X4.9247Y-0.9484
X4.9247Y-1.0496
X4.9247Y-1.0889
X4.925Y-6.029
X4.925Y-6.0684
X4.925Y-6.1077
X4.925Y-6.1471
X4.925Y-6.1865
X4.925Y-6.2259
X4.925Y-6.2652
X4.925Y-6.3046
X4.9266Y-1.6474
X4.9266Y-1.6868
X4.9266Y-1.7262
X4.9266Y-1.7656
X4.9266Y-1.8049
X4.9266Y-1.8443
X4.9266Y-1.8837
X4.9266Y-1.923
X4.9266Y-1.9624
X4.9266Y-2.0018
X4.9266Y-2.0411
X4.9266Y-2.0805
X4.9266Y-2.1199
X4.9266Y-2.1593
X4.9266Y-2.1986
X4.9266Y-2.238
X4.9273Y-2.3666
X4.9273Y-2.406
X4.9323Y-2.9159
X4.9323Y-2.9552
X4.9323Y-3.0871
X4.9323Y-3.1265
X4.9323Y-3.2584
X4.9323Y-3.2977
X4.9324Y-1.405
X4.9324Y-1.4444
X4.9382Y-7.564
X4.9413Y-8.384
X4.955Y-6.7603
X4.955Y-6.7996
X4.955Y-6.839
X4.955Y-6.8784
X4.955Y-6.9177
X4.955Y-6.9571
X4.955Y-6.9965
X4.955Y-7.0359
X4.9594Y-3.814
X4.9594Y-3.8534
X4.9594Y-3.8927
X4.9594Y-3.9321
X4.9594Y-3.9715
X4.9594Y-4.0109
X4.9594Y-4.0502
X4.9594Y-4.0896
X4.9637Y-0.7646
X4.9637Y-0.804
X4.9641Y-0.909
X4.9641Y-0.9484
X4.9641Y-1.0496
X4.9641Y-1.0889
X4.9644Y-6.029
X4.9644Y-6.0684
X4.9644Y-6.1077
X4.9644Y-6.1471
X4.9644Y-6.1865
X4.9644Y-6.2259
X4.9644Y-6.2652
X4.9644Y-6.3046
X4.9656Y-8.9859
X4.9656Y-9.0253
X4.9656Y-9.0646
X4.9656Y-9.104
X4.9656Y-9.1434
X4.9656Y-9.1827
X4.9656Y-9.2221
X4.9656Y-9.2615
X4.966Y-1.6474
X4.966Y-1.6868
X4.966Y-1.7262
X4.966Y-1.7656
X4.966Y-1.8049
X4.966Y-1.8443
X4.966Y-1.8837
X4.966Y-1.923
X4.966Y-1.9624
X4.966Y-2.0018
X4.966Y-2.0411
X4.966Y-2.0805
X4.966Y-2.1199
X4.966Y-2.1593
X4.966Y-2.1986
X4.966Y-2.238
X4.9666Y-2.3666
X4.9666Y-2.406
X4.9717Y-2.9159
X4.9717Y-2.9552
X4.9717Y-3.0871
X4.9717Y-3.1265
X4.9717Y-3.2584
X4.9717Y-3.2977
X4.9718Y-1.405
X4.9718Y-1.4444
X4.9776Y-7.564
X4.9807Y-8.384
X5.0031Y-0.7646
X5.0031Y-0.804
X5.0035Y-0.909
X5.0035Y-0.9484
X5.0035Y-1.0496
X5.0035Y-1.0889
X5.005Y-8.9859
X5.005Y-9.0253
X5.005Y-9.0646
X5.005Y-9.104
X5.005Y-9.1434
X5.005Y-9.1827
X5.005Y-9.2221
X5.005Y-9.2615
X5.006Y-2.3666
X5.006Y-2.406
X5.011Y-2.9159
X5.011Y-2.9552
X5.011Y-3.0871
X5.011Y-3.1265
X5.011Y-3.2584
X5.011Y-3.2977
X5.0112Y-1.405
X5.0112Y-1.4444
X5.0169Y-7.564
X5.02Y-8.384
X5.0425Y-0.7646
X5.0425Y-0.804
X5.0428Y-0.909
X5.0428Y-0.9484
X5.0428Y-1.0496
X5.0428Y-1.0889
X5.0454Y-2.3666
X5.0454Y-2.406
X5.0504Y-2.9159
X5.0504Y-2.9552
X5.0504Y-3.0871
X5.0504Y-3.1265
X5.0504Y-3.2584
X5.0504Y-3.2977
X5.0506Y-1.405
X5.0506Y-1.4444
X5.0506Y-3.8159
X5.0506Y-3.8553
X5.0506Y-3.8946
X5.0506Y-3.934
X5.0506Y-3.9734
X5.0506Y-4.0127
X5.0506Y-4.0521
X5.0506Y-4.0915
X5.0506Y-6.7603
X5.0506Y-6.7996
X5.0506Y-6.839
X5.0506Y-6.8784
X5.0506Y-6.9177
X5.0506Y-6.9571
X5.0506Y-6.9965
X5.0506Y-7.0359
X5.055Y-6.029
X5.055Y-6.0684
X5.055Y-6.1077
X5.055Y-6.1471
X5.055Y-6.1865
X5.055Y-6.2259
X5.055Y-6.2652
X5.055Y-6.3046
X5.0563Y-7.564
X5.0594Y-8.384
X5.0847Y-2.3666
X5.0847Y-2.406
X5.0899Y-1.405
X5.0899Y-1.4444
X5.09Y-3.8159
X5.09Y-3.8553
X5.09Y-3.8946
X5.09Y-3.934
X5.09Y-3.9734
X5.09Y-4.0127
X5.09Y-4.0521
X5.09Y-4.0915
X5.09Y-6.7603
X5.09Y-6.7996
X5.09Y-6.839
X5.09Y-6.8784
X5.09Y-6.9177
X5.09Y-6.9571
X5.09Y-6.9965
X5.09Y-7.0359
X5.0944Y-6.029
X5.0944Y-6.0684
X5.0944Y-6.1077
X5.0944Y-6.1471
X5.0944Y-6.1865
X5.0944Y-6.2259
X5.0944Y-6.2652
X5.0944Y-6.3046
X5.0957Y-7.564
X5.0988Y-8.384
X5.1Y-8.9865
X5.1Y-9.0259
X5.1Y-9.0653
X5.1Y-9.1046
X5.1Y-9.144
X5.1Y-9.1834
X5.1Y-9.2227
X5.1Y-9.2621
X5.1241Y-2.3666
X5.1241Y-2.406
X5.1293Y-1.405
X5.1293Y-1.4444
X5.135Y-7.564
X5.1381Y-8.384
X5.1394Y-8.9865
X5.1394Y-9.0259
X5.1394Y-9.0653
X5.1394Y-9.1046
X5.1394Y-9.144
X5.1394Y-9.1834
X5.1394Y-9.2227
X5.1394Y-9.2621
X5.1635Y-2.3666
X5.1635Y-2.406
X5.1687Y-1.405
X5.1687Y-1.4444
X5.1705Y-2.9159
X5.1705Y-2.9552
X5.1705Y-3.0871
X5.1705Y-3.1265
X5.1705Y-3.2584
X5.1705Y-3.2977
X5.1744Y-7.564
X5.1775Y-8.384
X5.2029Y-2.3666
X5.2029Y-2.406
X5.208Y-1.405
X5.208Y-1.4444
X5.2098Y-2.9159
X5.2098Y-2.9552
X5.2098Y-3.0871
X5.2098Y-3.1265
X5.2098Y-3.2584
X5.2098Y-3.2977
X5.2138Y-7.564
X5.2169Y-8.384
X5.2422Y-2.3666
X5.2422Y-2.406
X5.2474Y-1.405
X5.2474Y-1.4444
X5.2492Y-2.9159
X5.2492Y-2.9552
X5.2492Y-3.0871
X5.2492Y-3.1265
X5.2492Y-3.2584
X5.2492Y-3.2977
X5.2531Y-7.564
X5.2563Y-8.384
X5.2816Y-2.3666
X5.2816Y-2.406
X5.2868Y-1.405
X5.2868Y-1.4444
X5.2886Y-2.9159
X5.2886Y-2.9552
X5.2886Y-3.0871
X5.2886Y-3.1265
X5.2886Y-3.2584
X5.2886Y-3.2977
X5.2925Y-7.564
X5.2956Y-8.384
X5.321Y-2.3666
X5.321Y-2.406
X5.3261Y-1.405
X5.3261Y-1.4444
X5.328Y-2.9159
X5.328Y-2.9552
X5.328Y-3.0871
X5.328Y-3.1265
X5.328Y-3.2584
X5.328Y-3.2977
X5.3319Y-7.564
X5.335Y-8.384
X5.3603Y-2.3666
X5.3603Y-2.406
X5.3655Y-1.405
X5.3655Y-1.4444
X5.3713Y-7.564
X5.3744Y-8.384
X5.3997Y-2.3666
X5.3997Y-2.406
X5.4049Y-1.405
X5.4049Y-1.4444
X5.4106Y-7.564
X5.4137Y-8.384
X5.4391Y-2.3666
X5.4391Y-2.406
X5.4405Y-1.0139
X5.4405Y-1.0533
X5.4443Y-1.405
X5.4443Y-1.4444
X5.45Y-3.0253
X5.45Y-3.0646
X5.45Y-3.104
X5.45Y-3.1434
X5.45Y-3.1827
X5.45Y-7.564
X5.4531Y-8.384
X5.4599Y-1.177
X5.4669Y-4.749
X5.47Y-4.539
X5.47Y-4.644
X5.4784Y-2.3666
X5.4784Y-2.406
X5.4798Y-1.0139
X5.4798Y-1.0533
X5.4819Y-5.189
X5.4836Y-1.405
X5.4836Y-1.4444
X5.4869Y-5.484
X5.4875Y-5.284
X5.4875Y-5.384
X5.4894Y-3.0253
X5.4894Y-3.0646
X5.4894Y-3.104
X5.4894Y-3.1434
X5.4894Y-3.1827
X5.4894Y-7.564
X5.49Y-7.6697
X5.49Y-7.709
X5.49Y-7.7484
X5.49Y-7.7878
X5.49Y-7.8271
X5.49Y-7.8665
X5.49Y-7.9059
X5.49Y-7.9453
X5.49Y-7.9846
X5.49Y-8.024
X5.49Y-8.0634
X5.49Y-8.1027
X5.49Y-8.1421
X5.49Y-8.1815
X5.49Y-8.2209
X5.49Y-8.2602
X5.4925Y-8.384
X5.4993Y-1.177
X5.5063Y-4.749
X5.5094Y-4.539
X5.5094Y-4.644
X5.5146Y-1.6564
X5.5146Y-1.6958
X5.5146Y-1.7352
X5.5146Y-1.7746
X5.5146Y-1.8139
X5.5146Y-1.8533
X5.5146Y-1.8927
X5.5146Y-1.932
X5.5146Y-1.9714
X5.5146Y-2.0108
X5.5146Y-2.0501
X5.5146Y-2.0895
X5.5146Y-2.1289
X5.5146Y-2.1683
X5.5146Y-2.2076
X5.5146Y-2.247
X5.5178Y-2.3666
X5.5178Y-2.406
X5.5192Y-1.0139
X5.5192Y-1.0533
X5.5213Y-5.189
X5.523Y-1.405
X5.523Y-1.4444
X5.5263Y-5.484
X5.5269Y-5.284
X5.5269Y-5.384
X5.5386Y-1.177
X5.5456Y-4.749
X5.5487Y-4.539
X5.5487Y-4.644
X5.554Y-1.6564
X5.554Y-1.6958
X5.554Y-1.7352
X5.554Y-1.7746
X5.554Y-1.8139
X5.554Y-1.8533
X5.554Y-1.8927
X5.554Y-1.932
X5.554Y-1.9714
X5.554Y-2.0108
X5.554Y-2.0501
X5.554Y-2.0895
X5.554Y-2.1289
X5.554Y-2.1683
X5.554Y-2.2076
X5.554Y-2.247
X5.5586Y-1.0139
X5.5586Y-1.0533
X5.5606Y-5.189
X5.5656Y-5.484
X5.5663Y-5.284
X5.5663Y-5.384
X5.578Y-1.177
X5.585Y-4.749
X5.5881Y-4.539
X5.5881Y-4.644
X5.598Y-1.0139
X5.598Y-1.0533
X5.6Y-5.189
X5.605Y-5.484
X5.6056Y-5.284
X5.6056Y-5.384
X5.6244Y-4.749
X5.6275Y-4.539
X5.6275Y-4.644
X5.6394Y-5.189
X5.6444Y-5.484
X5.645Y-5.284
X5.645Y-5.384
X5.65Y-7.8009
X5.65Y-7.8403
X5.65Y-7.8796
X5.65Y-7.919
X5.65Y-7.9584
X5.65Y-7.9977
X5.65Y-8.0371
X5.65Y-8.0765
X5.6531Y-7.489
X5.6637Y-4.749
X5.6669Y-4.539
X5.6669Y-4.644
X5.6787Y-5.189
X5.6837Y-5.484
X5.6844Y-5.284
X5.6844Y-5.384
X5.6925Y-7.489
X5.7031Y-4.749
X5.7062Y-4.539
X5.7062Y-4.644
X5.7181Y-5.189
X5.7231Y-5.484
X5.7237Y-5.284
X5.7237Y-5.384
X5.7319Y-7.489
X5.7344Y-7.679
X5.741Y-2.4916
X5.741Y-2.531
X5.7531Y-8.199
X5.7713Y-7.489
X5.7738Y-7.679
X5.7804Y-2.4916
X5.7804Y-2.531
X5.7925Y-8.199
X5.7946Y-1.7164
X5.7946Y-1.7558
X5.7946Y-1.7952
X5.7946Y-1.8346
X5.7946Y-1.8739
X5.7946Y-1.9133
X5.7946Y-1.9527
X5.7946Y-1.992
X5.7946Y-2.0314
X5.7946Y-2.0708
X5.7946Y-2.1101
X5.7946Y-2.1495
X5.7946Y-2.1889
X5.7946Y-2.2283
X5.7946Y-2.2676
X5.7946Y-2.307
X5.8106Y-7.489
X5.8131Y-7.679
X5.8197Y-2.4916
X5.8197Y-2.531
X5.8319Y-8.199
X5.834Y-1.7164
X5.834Y-1.7558
X5.834Y-1.7952
X5.834Y-1.8346
X5.834Y-1.8739
X5.834Y-1.9133
X5.834Y-1.9527
X5.834Y-1.992
X5.834Y-2.0314
X5.834Y-2.0708
X5.834Y-2.1101
X5.834Y-2.1495
X5.834Y-2.1889
X5.834Y-2.2283
X5.834Y-2.2676
X5.834Y-2.307
X5.8356Y-2.9446
X5.8356Y-2.984
X5.8356Y-3.0234
X5.8356Y-3.0627
X5.8356Y-3.1021
X5.85Y-7.489
X5.8525Y-7.679
X5.8591Y-2.4916
X5.8591Y-2.531
X5.8713Y-8.199
X5.875Y-2.9446
X5.875Y-2.984
X5.875Y-3.0234
X5.875Y-3.0627
X5.875Y-3.1021
X5.8894Y-7.489
X5.8919Y-7.679
X5.894Y-4.5289
X5.894Y-4.5683
X5.894Y-4.6076
X5.894Y-4.647
X5.894Y-4.6864
X5.894Y-4.7257
X5.894Y-4.7651
X5.894Y-4.8045
X5.8985Y-2.4916
X5.8985Y-2.531
X5.9106Y-8.199
X5.92Y-5.2765
X5.92Y-5.3159
X5.92Y-5.3553
X5.92Y-5.3946
X5.92Y-5.434
X5.92Y-5.4734
X5.92Y-5.5127
X5.92Y-5.5521
X5.9287Y-7.489
X5.9313Y-7.679
X5.9379Y-2.4916
X5.9379Y-2.531
X5.95Y-8.199
X5.9706Y-7.679
X5.9772Y-2.4916
X5.9772Y-2.531
X5.9894Y-8.199
X6.01Y-7.679
X6.0166Y-2.4916
X6.0166Y-2.531
X6.0287Y-8.199
X6.056Y-2.4916
X6.056Y-2.531
X6.06Y-4.639
X6.0613Y-4.734
X6.0806Y-5.299
X6.0806Y-5.399
X6.0953Y-2.4916
X6.0953Y-2.531
X6.0994Y-4.639
X6.1006Y-4.734
X6.1063Y-4.829
X6.115Y-7.7928
X6.115Y-7.8321
X6.115Y-7.8715
X6.115Y-7.9109
X6.115Y-7.9503
X6.115Y-7.9896
X6.115Y-8.029
X6.115Y-8.0684
X6.1156Y-5.199
X6.12Y-5.299
X6.12Y-5.399
X6.1225Y-8.439
X6.1347Y-2.4916
X6.1347Y-2.531
X6.1387Y-4.639
X6.14Y-4.734
X6.1456Y-4.829
X6.155Y-5.199
X6.1594Y-5.299
X6.1594Y-5.399
X6.1619Y-8.439
X6.1741Y-2.4916
X6.1741Y-2.531
X6.1781Y-4.639
X6.1794Y-4.734
X6.185Y-4.829
X6.1944Y-5.199
X6.1987Y-5.299
X6.1987Y-5.399
X6.2013Y-8.439
X6.2134Y-2.4916
X6.2134Y-2.531
X6.2175Y-4.639
X6.2187Y-4.734
X6.2244Y-4.829
X6.2337Y-5.199
X6.2381Y-5.299
X6.2381Y-5.399
X6.2406Y-8.439
X6.2528Y-2.4916
X6.2528Y-2.531
X6.2569Y-4.639
X6.2581Y-4.734
X6.2775Y-5.299
X6.2775Y-5.399
X6.28Y-8.439
X6.29Y-7.849
X6.29Y-7.8884
X6.29Y-7.9277
X6.29Y-7.9671
X6.29Y-8.0065
X6.29Y-8.0459
X6.2922Y-2.4916
X6.2922Y-2.531
X6.3119Y-4.509
X6.3194Y-8.439
X6.3316Y-2.4916
X6.3316Y-2.531
X6.3513Y-4.509
X6.3587Y-8.439
X6.3906Y-4.509
X6.395Y-7.719
X6.3981Y-8.439
X6.41Y-8.149
X6.43Y-4.509
X6.4344Y-7.719
X6.4494Y-8.149
X6.4694Y-4.509
X6.4737Y-7.719
X6.48Y-1.5396
X6.48Y-1.579
X6.4887Y-8.149
X6.5087Y-4.509
X6.5131Y-7.719
X6.5194Y-1.5396
X6.5194Y-1.579
X6.5281Y-8.149
X6.5481Y-4.509
X6.5525Y-7.719
X6.5587Y-1.5396
X6.5587Y-1.579
X6.5675Y-8.149
X6.5875Y-4.509
X6.5919Y-7.719
X6.5981Y-1.5396
X6.5981Y-1.579
X6.6069Y-8.149
X6.62Y-5.176
X6.621Y-5.382
X6.623Y-5.284
X6.6275Y-7.494
X6.631Y-4.82
X6.632Y-4.719
X6.633Y-4.621
X6.6375Y-1.5396
X6.6375Y-1.579
X6.6594Y-5.176
X6.6604Y-5.382
X6.6624Y-5.284
X6.6669Y-7.494
X6.6704Y-4.82
X6.6714Y-4.719
X6.6724Y-4.621
X6.6987Y-5.176
X6.6997Y-5.382
X6.7017Y-5.284
X6.7063Y-7.494
X6.7097Y-4.82
X6.7107Y-4.719
X6.7117Y-4.621
X6.735Y-7.8471
X6.735Y-7.8865
X6.735Y-7.9259
X6.735Y-7.9653
X6.735Y-8.0046
X6.735Y-8.044
X6.7381Y-5.176
X6.7391Y-5.382
X6.7411Y-5.284
X6.7456Y-7.494
X6.7491Y-4.82
X6.7501Y-4.719
X6.7511Y-4.621
X6.7775Y-5.176
X6.7785Y-5.382
X6.7805Y-5.284
X6.785Y-7.494
X6.7885Y-4.82
X6.7895Y-4.719
X6.7905Y-4.621
X6.7913Y-1.549
X6.8169Y-5.176
X6.8179Y-5.382
X6.8199Y-5.284
X6.8244Y-7.494
X6.8279Y-4.82
X6.8289Y-4.719
X6.8299Y-4.621
X6.8306Y-1.549
X6.8637Y-7.494
X6.865Y-7.869
X6.865Y-7.9084
X6.865Y-7.9477
X6.865Y-7.9871
X6.865Y-8.0265
X6.87Y-1.549
X6.9031Y-7.494
X6.9094Y-1.549
X6.9456Y-1.7034
X6.9456Y-1.7428
X6.9456Y-1.7822
X6.9456Y-1.8216
X6.9456Y-1.8609
X6.9456Y-1.9003
X6.9456Y-1.9397
X6.9456Y-1.979
X6.9456Y-2.0184
X6.9456Y-2.0578
X6.9456Y-2.0971
X6.9456Y-2.1365
X6.9456Y-2.1759
X6.9456Y-2.2153
X6.9456Y-2.2546
X6.9456Y-2.294
X6.9487Y-1.549
X6.9663Y-7.739
X6.9813Y-8.129
X6.985Y-1.7034
X6.985Y-1.7428
X6.985Y-1.7822
X6.985Y-1.8216
X6.985Y-1.8609
X6.985Y-1.9003
X6.985Y-1.9397
X6.985Y-1.979
X6.985Y-2.0184
X6.985Y-2.0578
X6.985Y-2.0971
X6.985Y-2.1365
X6.985Y-2.1759
X6.985Y-2.2153
X6.985Y-2.2546
X6.985Y-2.294
X7.0056Y-7.739
X7.0206Y-8.129
X7.045Y-7.739
X7.055Y-4.824
X7.056Y-4.702
X7.057Y-4.461
X7.057Y-4.587
X7.06Y-5.184
X7.06Y-8.129
X7.061Y-5.294
X7.063Y-5.401
X7.0844Y-7.739
X7.0944Y-4.824
X7.0954Y-4.702
X7.0964Y-4.461
X7.0964Y-4.587
X7.0994Y-5.184
X7.0994Y-8.129
X7.1004Y-5.294
X7.1024Y-5.401
X7.1237Y-7.739
X7.1337Y-4.824
X7.1347Y-4.702
X7.1357Y-4.461
X7.1357Y-4.587
X7.1387Y-5.184
X7.1387Y-8.129
X7.1397Y-5.294
X7.1417Y-5.401
X7.1731Y-4.824
X7.1741Y-4.702
X7.1751Y-4.461
X7.1751Y-4.587
X7.1781Y-5.184
X7.1791Y-5.294
X7.18Y-1.519
X7.18Y-1.5584
X7.18Y-1.5977
X7.18Y-1.6371
X7.18Y-1.6765
X7.18Y-1.7159
X7.18Y-1.7552
X7.18Y-1.7946
X7.18Y-1.834
X7.18Y-1.8733
X7.18Y-1.9127
X7.18Y-1.9521
X7.18Y-2.089
X7.18Y-2.1284
X7.18Y-2.1677
X7.18Y-2.2071
X7.18Y-2.2465
X7.18Y-2.2859
X7.18Y-2.3252
X7.18Y-2.3646
X7.18Y-2.404
X7.18Y-2.4433
X7.1811Y-5.401
X7.2125Y-4.824
X7.2135Y-4.702
X7.2145Y-4.461
X7.2145Y-4.587
X7.2175Y-5.184
X7.2185Y-5.294
X7.2205Y-5.401
X7.245Y-7.8603
X7.245Y-7.8996
X7.245Y-7.939
X7.245Y-7.9784
X7.245Y-8.0177
X7.245Y-8.449
X7.2519Y-4.824
X7.2529Y-4.702
X7.2539Y-4.461
X7.2539Y-4.587
X7.2569Y-5.184
X7.2579Y-5.294
X7.2599Y-5.401
X7.2669Y-7.489
X7.2844Y-8.449
X7.2912Y-4.824
X7.2922Y-4.702
X7.2932Y-4.461
X7.2932Y-4.587
X7.2962Y-5.184
X7.2972Y-5.294
X7.2992Y-5.401
X7.3063Y-7.489
X7.3237Y-8.449
X7.3456Y-7.489
X7.3631Y-8.449
X7.385Y-7.489
X7.4025Y-8.449
X7.42Y-7.8696
X7.42Y-7.909
X7.42Y-7.9484
X7.42Y-7.9877
X7.4244Y-7.489
X7.425Y-4.457
X7.4419Y-8.449
X7.4637Y-7.489
X7.4644Y-4.457
X7.4812Y-8.449
X7.5031Y-7.489
X7.5037Y-4.457
X7.5206Y-8.449
X7.5419Y-7.754
X7.5425Y-7.489
X7.5431Y-4.457
X7.545Y-8.099
X7.5506Y-4.734
X7.5513Y-4.824
X7.5563Y-5.274
X7.5569Y-5.184
X7.565Y-5.569
X7.5813Y-7.754
X7.5825Y-4.457
X7.5844Y-8.099
X7.59Y-4.734
X7.5906Y-4.824
X7.5956Y-5.274
X7.5963Y-5.184
X7.6044Y-5.569
X7.6206Y-7.754
X7.6219Y-4.457
X7.6237Y-8.099
X7.6294Y-4.734
X7.63Y-4.824
X7.635Y-5.274
X7.6356Y-5.184
X7.6437Y-5.569
X7.66Y-7.754
X7.6612Y-4.457
X7.6631Y-8.099
X7.6687Y-4.734
X7.6694Y-4.824
X7.6744Y-5.274
X7.675Y-5.184
X7.6831Y-5.569
X7.7006Y-4.457
X7.7225Y-5.569
X7.7619Y-5.569
X7.765Y-2.949
X7.765Y-2.9884
X7.765Y-3.0277
X7.765Y-3.0671
X7.765Y-3.1065
X7.8012Y-5.569
X7.8044Y-2.949
X7.8044Y-2.9884
X7.8044Y-3.0277
X7.8044Y-3.0671
X7.8044Y-3.1065
X7.815Y-7.8659
X7.815Y-7.9053
X7.815Y-7.9446
X7.815Y-7.984
X7.825Y-1.5109
X7.825Y-1.5503
X7.825Y-1.5897
X7.825Y-1.629
X7.825Y-1.6684
X7.825Y-1.7078
X7.825Y-1.7471
X7.825Y-1.7865
X7.825Y-1.8259
X7.825Y-1.8653
X7.825Y-1.9046
X7.825Y-1.944
X7.83Y-2.0847
X7.83Y-2.124
X7.83Y-2.1634
X7.83Y-2.2028
X7.83Y-2.2421
X7.83Y-2.2815
X7.83Y-2.3209
X7.83Y-2.3603
X7.83Y-2.3996
X7.83Y-2.439
X7.8406Y-5.569
X7.98Y-0.759
X8.0194Y-0.759
X8.0587Y-0.759
X8.0981Y-0.759
X8.1375Y-0.759
X8.6556Y-3.979
X8.6556Y-4.0184
X8.6563Y-4.1196
X8.6563Y-4.159
X8.6569Y-5.989
X8.6569Y-6.0284
X8.665Y-5.734
X8.665Y-5.7734
X8.665Y-5.8127
X8.665Y-5.8521
X8.665Y-5.8915
X8.6892Y-5.4906
X8.6892Y-5.53
X8.6924Y-4.3156
X8.6924Y-4.355
X8.695Y-3.979
X8.695Y-4.0184
X8.6956Y-4.1196
X8.6956Y-4.159
X8.6963Y-5.989
X8.6963Y-6.0284
X8.7044Y-5.734
X8.7044Y-5.7734
X8.7044Y-5.8127
X8.7044Y-5.8521
X8.7044Y-5.8915
X8.7286Y-5.4906
X8.7286Y-5.53
X8.7317Y-4.3156
X8.7317Y-4.355
X8.7344Y-3.979
X8.7344Y-4.0184
X8.735Y-4.1196
X8.735Y-4.159
X8.7356Y-5.989
X8.7356Y-6.0284
X8.7679Y-5.4906
X8.7679Y-5.53
X8.7711Y-4.3156
X8.7711Y-4.355
X8.7737Y-3.979
X8.7737Y-4.0184
X8.7744Y-4.1196
X8.7744Y-4.159
X8.775Y-5.989
X8.775Y-6.0284
X8.7936Y-4.6413
X8.7936Y-4.6807
X8.7936Y-4.7201
X8.7936Y-4.7594
X8.7936Y-4.7988
X8.7936Y-4.8382
X8.7936Y-4.8775
X8.7936Y-4.9169
X8.7936Y-4.9563
X8.7936Y-4.9956
X8.7936Y-5.035
X8.7936Y-5.0744
X8.7936Y-5.1138
X8.7936Y-5.1531
X8.7936Y-5.1925
X8.7936Y-5.2319
X8.8073Y-5.4906
X8.8073Y-5.53
X8.8105Y-4.3156
X8.8105Y-4.355
X8.8131Y-3.979
X8.8131Y-4.0184
X8.8137Y-4.1196
X8.8137Y-4.159
X8.8144Y-5.989
X8.8144Y-6.0284
X8.8206Y-5.7353
X8.8206Y-5.7746
X8.8206Y-5.814
X8.8206Y-5.8534
X8.8206Y-5.8927
X8.833Y-4.6413
X8.833Y-4.6807
X8.833Y-4.7201
X8.833Y-4.7594
X8.833Y-4.7988
X8.833Y-4.8382
X8.833Y-4.8775
X8.833Y-4.9169
X8.833Y-4.9563
X8.833Y-4.9956
X8.833Y-5.035
X8.833Y-5.0744
X8.833Y-5.1138
X8.833Y-5.1531
X8.833Y-5.1925
X8.833Y-5.2319
X8.8467Y-5.4906
X8.8467Y-5.53
X8.8499Y-4.3156
X8.8499Y-4.355
X8.86Y-5.7353
X8.86Y-5.7746
X8.86Y-5.814
X8.86Y-5.8534
X8.86Y-5.8927
X8.886Y-5.4906
X8.886Y-5.53
X8.8892Y-4.3156
X8.8892Y-4.355
X8.91Y-3.9796
X8.91Y-4.019
X8.9113Y-5.9896
X8.9113Y-6.029
X8.9129Y-4.1209
X8.9129Y-4.1602
X8.9254Y-5.4906
X8.9254Y-5.53
X8.9286Y-4.3156
X8.9286Y-4.355
X8.9494Y-3.9796
X8.9494Y-4.019
X8.9506Y-5.9896
X8.9506Y-6.029
X8.9523Y-4.1209
X8.9523Y-4.1602
X8.9648Y-5.4906
X8.9648Y-5.53
X8.968Y-4.3156
X8.968Y-4.355
X8.97Y-5.734
X8.97Y-5.7734
X8.97Y-5.8127
X8.97Y-5.8521
X8.97Y-5.8915
X8.9887Y-3.9796
X8.9887Y-4.019
X8.99Y-5.9896
X8.99Y-6.029
X8.9917Y-4.1209
X8.9917Y-4.1602
X9.0041Y-5.4906
X9.0041Y-5.53
X9.0073Y-4.3156
X9.0073Y-4.355
X9.0094Y-5.734
X9.0094Y-5.7734
X9.0094Y-5.8127
X9.0094Y-5.8521
X9.0094Y-5.8915
X9.0281Y-3.9796
X9.0281Y-4.019
X9.0294Y-5.9896
X9.0294Y-6.029
X9.031Y-4.1209
X9.031Y-4.1602
X9.0435Y-5.4906
X9.0435Y-5.53
X9.0467Y-4.3156
X9.0467Y-4.355
X9.0501Y-4.6454
X9.0501Y-4.6848
X9.0501Y-4.7242
X9.0501Y-4.7636
X9.0501Y-4.8029
X9.0501Y-4.8423
X9.0501Y-4.8817
X9.0501Y-4.921
X9.0501Y-4.9604
X9.0501Y-4.9998
X9.0501Y-5.0391
X9.0501Y-5.0785
X9.0501Y-5.1179
X9.0501Y-5.1573
X9.0501Y-5.1966
X9.0501Y-5.236
X9.0675Y-3.9796
X9.0675Y-4.019
X9.0687Y-5.9896
X9.0687Y-6.029
X9.0704Y-4.1209
X9.0704Y-4.1602
X9.0829Y-5.4906
X9.0829Y-5.53
X9.0861Y-4.3156
X9.0861Y-4.355
X9.0895Y-4.6454
X9.0895Y-4.6848
X9.0895Y-4.7242
X9.0895Y-4.7636
X9.0895Y-4.8029
X9.0895Y-4.8423
X9.0895Y-4.8817
X9.0895Y-4.921
X9.0895Y-4.9604
X9.0895Y-4.9998
X9.0895Y-5.0391
X9.0895Y-5.0785
X9.0895Y-5.1179
X9.0895Y-5.1573
X9.0895Y-5.1966
X9.0895Y-5.236
X9.1223Y-5.4906
X9.1223Y-5.53
X9.1255Y-4.3156
X9.1255Y-4.355
X9.1616Y-5.4906
X9.1616Y-5.53
X9.1648Y-4.3156
X9.1648Y-4.355
X9.1663Y-3.9846
X9.1663Y-4.024
X9.1663Y-4.1196
X9.1663Y-4.159
X9.1669Y-5.9896
X9.1669Y-6.029
X9.171Y-8.9093
X9.171Y-8.9486
X9.171Y-8.988
X9.171Y-9.0274
X9.171Y-9.0667
X9.171Y-9.1061
X9.171Y-9.1455
X9.171Y-9.1849
X9.171Y-9.2242
X9.1832Y-7.6234
X9.1838Y-8.3234
X9.201Y-5.4906
X9.201Y-5.53
X9.2042Y-4.3156
X9.2042Y-4.355
X9.2056Y-3.9846
X9.2056Y-4.024
X9.2056Y-4.1196
X9.2056Y-4.159
X9.2063Y-5.9896
X9.2063Y-6.029
X9.2404Y-5.4906
X9.2404Y-5.53
X9.2436Y-4.3156
X9.2436Y-4.355
X9.245Y-3.9846
X9.245Y-4.024
X9.245Y-4.1196
X9.245Y-4.159
X9.2456Y-5.9896
X9.2456Y-6.029
X9.2797Y-5.4906
X9.2797Y-5.53
X9.2829Y-4.3156
X9.2829Y-4.355
X9.2832Y-7.6234
X9.2838Y-8.3234
X9.2844Y-3.9846
X9.2844Y-4.024
X9.2844Y-4.1196
X9.2844Y-4.159
X9.285Y-5.9896
X9.285Y-6.029
X9.3237Y-3.9846
X9.3237Y-4.024
X9.3237Y-4.1196
X9.3237Y-4.159
X9.3244Y-5.9896
X9.3244Y-6.029
X9.3832Y-7.6234
X9.3838Y-8.3234
X9.4008Y-5.487
X9.4008Y-5.5264
X9.4113Y-6.984
X9.4113Y-7.2366
X9.4113Y-7.276
X9.4402Y-5.487
X9.4402Y-5.5264
X9.442Y-4.3128
X9.442Y-4.3522
X9.4458Y-7.797
X9.4458Y-7.8364
X9.4477Y-8.165
X9.4477Y-8.2044
X9.4506Y-6.984
X9.4506Y-7.2366
X9.4506Y-7.276
X9.4796Y-5.487
X9.4796Y-5.5264
X9.4814Y-4.3128
X9.4814Y-4.3522
X9.4832Y-7.6234
X9.4838Y-8.3234
X9.4851Y-7.797
X9.4851Y-7.8364
X9.487Y-8.165
X9.487Y-8.2044
X9.49Y-6.984
X9.49Y-7.2366
X9.49Y-7.276
X9.5189Y-5.487
X9.5189Y-5.5264
X9.5207Y-4.3128
X9.5207Y-4.3522
X9.5245Y-7.797
X9.5245Y-7.8364
X9.5264Y-8.165
X9.5264Y-8.2044
X9.5294Y-6.984
X9.5294Y-7.2366
X9.5294Y-7.276
X9.5583Y-5.487
X9.5583Y-5.5264
X9.5601Y-4.3128
X9.5601Y-4.3522
X9.5639Y-7.797
X9.5639Y-7.8364
X9.5658Y-8.165
X9.5658Y-8.2044
X9.5687Y-6.984
X9.5687Y-7.2366
X9.5687Y-7.276
X9.5832Y-7.6234
X9.5838Y-8.3234
X9.5977Y-5.487
X9.5977Y-5.5264
X9.5995Y-4.3128
X9.5995Y-4.3522
X9.6033Y-7.797
X9.6033Y-7.8364
X9.6051Y-8.165
X9.6051Y-8.2044
X9.6371Y-5.487
X9.6371Y-5.5264
X9.6388Y-4.3128
X9.6388Y-4.3522
X9.6426Y-7.797
X9.6426Y-7.8364
X9.6445Y-8.165
X9.6445Y-8.2044
X9.6764Y-5.487
X9.6764Y-5.5264
X9.6782Y-4.3128
X9.6782Y-4.3522
X9.682Y-7.797
X9.682Y-7.8364
X9.6832Y-7.6234
X9.6838Y-8.3234
X9.6839Y-8.165
X9.6839Y-8.2044
X9.7158Y-5.487
X9.7158Y-5.5264
X9.7176Y-4.3128
X9.7176Y-4.3522
X9.7214Y-7.797
X9.7214Y-7.8364
X9.7233Y-8.165
X9.7233Y-8.2044
X9.7552Y-5.487
X9.7552Y-5.5264
X9.7569Y-4.3128
X9.7569Y-4.3522
X9.757Y-8.906
X9.757Y-8.9454
X9.757Y-8.9848
X9.757Y-9.0241
X9.757Y-9.0635
X9.757Y-9.1029
X9.757Y-9.1423
X9.757Y-9.1816
X9.757Y-9.221
X9.7607Y-7.797
X9.7607Y-7.8364
X9.7626Y-8.165
X9.7626Y-8.2044
X9.7832Y-7.6234
X9.7838Y-8.3234
X9.7945Y-5.487
X9.7945Y-5.5264
X9.7963Y-4.3128
X9.7963Y-4.3522
X9.8001Y-7.797
X9.8001Y-7.8364
X9.802Y-8.165
X9.802Y-8.2044
X9.8339Y-5.487
X9.8339Y-5.5264
X9.8357Y-4.3128
X9.8357Y-4.3522
X9.8733Y-5.487
X9.8733Y-5.5264
X9.8751Y-4.3128
X9.8751Y-4.3522
X9.8832Y-7.6234
X9.8838Y-8.3234
X9.9127Y-5.487
X9.9127Y-5.5264
X9.9144Y-4.3128
X9.9144Y-4.3522
X9.952Y-5.487
X9.952Y-5.5264
X9.9538Y-4.3128
X9.9538Y-4.3522
X9.9832Y-7.6234
X9.9838Y-8.3234
X9.9914Y-5.487
X9.9914Y-5.5264
X9.9932Y-4.3128
X9.9932Y-4.3522
X10.0325Y-4.3128
X10.0325Y-4.3522
X10.0791Y-4.6434
X10.0791Y-4.6828
X10.0791Y-4.7222
X10.0791Y-4.7616
X10.0791Y-4.8009
X10.0791Y-4.8403
X10.0791Y-4.8797
X10.0791Y-4.919
X10.0791Y-4.9584
X10.0791Y-4.9978
X10.0791Y-5.0371
X10.0791Y-5.0765
X10.0791Y-5.1159
X10.0791Y-5.1553
X10.0791Y-5.1946
X10.0791Y-5.234
X10.0832Y-7.6234
X10.0838Y-8.3234
X10.1185Y-4.6434
X10.1185Y-4.6828
X10.1185Y-4.7222
X10.1185Y-4.7616
X10.1185Y-4.8009
X10.1185Y-4.8403
X10.1185Y-4.8797
X10.1185Y-4.919
X10.1185Y-4.9584
X10.1185Y-4.9978
X10.1185Y-5.0371
X10.1185Y-5.0765
X10.1185Y-5.1159
X10.1185Y-5.1553
X10.1185Y-5.1946
X10.1185Y-5.234
X10.1832Y-7.6234
X10.1838Y-8.3234
X10.2832Y-7.6234
X10.2838Y-8.3234
X10.3161Y-4.6369
X10.3161Y-4.6763
X10.3161Y-4.7157
X10.3161Y-4.7551
X10.3161Y-4.7944
X10.3161Y-4.8338
X10.3161Y-4.8732
X10.3161Y-4.9125
X10.3161Y-4.9519
X10.3161Y-4.9913
X10.3161Y-5.0306
X10.3161Y-5.07
X10.3161Y-5.1094
X10.3161Y-5.1488
X10.3161Y-5.1881
X10.3161Y-5.2275
X10.3555Y-4.6369
X10.3555Y-4.6763
X10.3555Y-4.7157
X10.3555Y-4.7551
X10.3555Y-4.7944
X10.3555Y-4.8338
X10.3555Y-4.8732
X10.3555Y-4.9125
X10.3555Y-4.9519
X10.3555Y-4.9913
X10.3555Y-5.0306
X10.3555Y-5.07
X10.3555Y-5.1094
X10.3555Y-5.1488
X10.3555Y-5.1881
X10.3555Y-5.2275
X10.3832Y-7.6234
X10.3838Y-8.3234
X10.4832Y-7.6234
X10.4838Y-8.3234
X10.5419Y-5.454
X10.5475Y-4.514
X10.5813Y-5.454
X10.5832Y-7.6234
X10.5838Y-8.3234
X10.5869Y-4.514
X10.6206Y-5.454
X10.6263Y-4.514
X10.65Y-4.6547
X10.65Y-4.694
X10.65Y-4.7334
X10.65Y-4.7728
X10.65Y-4.8121
X10.65Y-4.8515
X10.65Y-4.8909
X10.65Y-4.9303
X10.65Y-4.9696
X10.65Y-5.009
X10.65Y-5.0484
X10.65Y-5.0877
X10.65Y-5.1271
X10.65Y-5.1665
X10.65Y-5.2059
X10.65Y-5.2452
X10.65Y-5.2846
X10.65Y-5.324
X10.66Y-5.454
X10.6656Y-4.514
X10.6832Y-7.6234
X10.6838Y-8.3234
X10.6894Y-4.6547
X10.6894Y-4.694
X10.6894Y-4.7334
X10.6894Y-4.7728
X10.6894Y-4.8121
X10.6894Y-4.8515
X10.6894Y-4.8909
X10.6894Y-4.9303
X10.6894Y-4.9696
X10.6894Y-5.009
X10.6894Y-5.0484
X10.6894Y-5.0877
X10.6894Y-5.1271
X10.6894Y-5.1665
X10.6894Y-5.2059
X10.6894Y-5.2452
X10.6894Y-5.2846
X10.6894Y-5.324
X10.6994Y-5.454
X10.705Y-4.514
X10.7832Y-7.6234
X10.7838Y-8.3234
X10.795Y-5.4346
X10.795Y-5.474
X10.7988Y-4.4896
X10.7988Y-4.529
X10.8344Y-5.4346
X10.8344Y-5.474
X10.8382Y-4.4896
X10.8382Y-4.529
X10.8737Y-5.4346
X10.8737Y-5.474
X10.8776Y-4.4896
X10.8776Y-4.529
X10.8838Y-7.6234
X10.8838Y-8.3234
X10.9131Y-5.4346
X10.9131Y-5.474
X10.9169Y-4.4896
X10.9169Y-4.529
X10.9525Y-5.4346
X10.9525Y-5.474
X10.9563Y-4.4896
X10.9563Y-4.529
X10.9838Y-7.6234
X10.9838Y-8.3234
X10.9919Y-5.4346
X10.9919Y-5.474
X10.9957Y-4.4896
X10.9957Y-4.529
X11.0312Y-5.4346
X11.0312Y-5.474
X11.035Y-4.4896
X11.035Y-4.529
X11.0706Y-5.4346
X11.0706Y-5.474
X11.0738Y-7.8734
X11.0738Y-7.9734
X11.0738Y-8.0734
X11.0744Y-4.4896
X11.0744Y-4.529
X11.0838Y-7.6234
X11.0838Y-8.3234
X11.11Y-5.4346
X11.11Y-5.474
X11.1138Y-4.4896
X11.1138Y-4.529
X11.1493Y-5.4346
X11.1493Y-5.474
X11.1531Y-4.4896
X11.1531Y-4.529
X11.1887Y-5.4346
X11.1887Y-5.474
X11.1925Y-4.4896
X11.1925Y-4.529
X11.2281Y-5.4346
X11.2281Y-5.474
X11.2319Y-4.4896
X11.2319Y-4.529
X11.2674Y-5.4346
X11.2674Y-5.474
X11.2713Y-4.4896
X11.2713Y-4.529
X11.3068Y-5.4346
X11.3068Y-5.474
X11.3106Y-4.4896
X11.3106Y-4.529
X11.325Y-7.484
X11.325Y-7.574
X11.325Y-7.669
X11.325Y-7.764
X11.3462Y-5.4346
X11.3462Y-5.474
X11.35Y-4.4896
X11.35Y-4.529
X11.355Y-8.169
X11.355Y-8.269
X11.355Y-8.364
X11.355Y-8.459
X11.355Y-8.554
X11.3644Y-7.484
X11.3644Y-7.574
X11.3644Y-7.669
X11.3644Y-7.764
X11.3856Y-5.4346
X11.3856Y-5.474
X11.3894Y-4.4896
X11.3894Y-4.529
X11.3944Y-8.169
X11.3944Y-8.269
X11.3944Y-8.364
X11.3944Y-8.459
X11.3944Y-8.554
X11.4037Y-7.484
X11.4037Y-7.574
X11.4037Y-7.669
X11.4038Y-7.764
X11.4249Y-5.4346
X11.4249Y-5.474
X11.4287Y-4.4896
X11.4287Y-4.529
X11.4337Y-8.169
X11.4337Y-8.269
X11.4337Y-8.364
X11.4337Y-8.459
X11.4337Y-8.554
X11.4431Y-7.484
X11.4431Y-7.574
X11.4431Y-7.669
X11.4431Y-7.764
X11.4643Y-5.4346
X11.4643Y-5.474
X11.4681Y-4.4896
X11.4681Y-4.529
X11.4731Y-8.169
X11.4731Y-8.269
X11.4731Y-8.364
X11.4731Y-8.459
X11.4731Y-8.554
X11.4825Y-7.484
X11.4825Y-7.574
X11.4825Y-7.669
X11.4825Y-7.764
X11.5125Y-8.169
X11.5125Y-8.269
X11.5125Y-8.364
X11.5125Y-8.459
X11.5125Y-8.554
X11.5219Y-7.484
X11.5219Y-7.574
X11.5219Y-7.669
X11.5219Y-7.764
X11.5519Y-8.169
X11.5519Y-8.269
X11.5519Y-8.364
X11.5519Y-8.459
X11.5519Y-8.554
X11.5612Y-7.484
X11.5612Y-7.574
X11.5612Y-7.669
X11.5613Y-7.764
X11.5806Y-4.6466
X11.5806Y-4.6859
X11.5806Y-4.7253
X11.5806Y-4.7647
X11.5806Y-4.804
X11.5806Y-4.8434
X11.5806Y-4.8828
X11.5806Y-4.9221
X11.5806Y-4.9615
X11.5806Y-5.0009
X11.5806Y-5.0403
X11.5806Y-5.0796
X11.5806Y-5.119
X11.5806Y-5.1584
X11.5806Y-5.1977
X11.5806Y-5.2371
X11.5806Y-5.2765
X11.5806Y-5.3159
X11.5912Y-8.169
X11.5912Y-8.269
X11.5912Y-8.364
X11.5912Y-8.459
X11.5912Y-8.554
X11.595Y-4.4446
X11.595Y-4.484
X11.595Y-4.5234
X11.595Y-4.5627
X11.6006Y-7.484
X11.6006Y-7.574
X11.6006Y-7.669
X11.6006Y-7.764
X11.62Y-4.6466
X11.62Y-4.6859
X11.62Y-4.7253
X11.62Y-4.7647
X11.62Y-4.804
X11.62Y-4.8434
X11.62Y-4.8828
X11.62Y-4.9221
X11.62Y-4.9615
X11.62Y-5.0009
X11.62Y-5.0403
X11.62Y-5.0796
X11.62Y-5.119
X11.62Y-5.1584
X11.62Y-5.1977
X11.62Y-5.2371
X11.62Y-5.2765
X11.62Y-5.3159
X11.62Y-5.439
X11.62Y-5.4784
X11.62Y-5.5177
X11.62Y-5.5571
X11.62Y-5.5965
X11.6306Y-8.169
X11.6306Y-8.269
X11.6306Y-8.364
X11.6306Y-8.459
X11.6306Y-8.554
X11.64Y-7.484
X11.64Y-7.574
X11.64Y-7.669
X11.64Y-7.764
X11.67Y-8.169
X11.67Y-8.269
X11.67Y-8.364
X11.67Y-8.459
X11.67Y-8.554
X11.8106Y-6.749
X11.85Y-6.749
X11.8894Y-6.749
X11.912Y-8.758
X11.912Y-8.7974
X11.912Y-8.8367
X11.912Y-8.8761
X11.912Y-8.9155
X11.9287Y-6.749
X11.9514Y-8.758
X11.9514Y-8.7974
X11.9514Y-8.8367
X11.9514Y-8.8761
X11.9514Y-8.9155
X11.9681Y-6.749
X11.995Y-7.004
X11.995Y-7.0434
X11.995Y-7.0827
X11.995Y-7.1221
X11.995Y-7.1615
X12.5956Y-7.3903
X12.5956Y-7.4297
X12.5956Y-7.469
X12.5956Y-7.5084
X12.5956Y-7.5478
X12.5956Y-7.5871
X12.5956Y-7.6265
X12.5956Y-7.6659
X12.5956Y-7.7053
X12.5956Y-7.7446
X12.5956Y-7.784
X12.5956Y-7.8234
X12.5956Y-7.8627
X12.5956Y-7.9021
X12.5956Y-7.9415
X12.5956Y-7.9809
X12.5956Y-8.0202
X12.5956Y-8.0596
X12.5956Y-8.099
X12.5956Y-8.1383
X12.5956Y-8.1777
X12.5956Y-8.2171
X12.5956Y-8.2564
X12.5956Y-8.2958
X12.5956Y-8.3352
X12.5956Y-8.3746
X12.635Y-7.3903
X12.635Y-7.4297
X12.635Y-7.469
X12.635Y-7.5084
X12.635Y-7.5478
X12.635Y-7.5871
X12.635Y-7.6265
X12.635Y-7.6659
X12.635Y-7.7053
X12.635Y-7.7446
X12.635Y-7.784
X12.635Y-7.8234
X12.635Y-7.8627
X12.635Y-7.9021
X12.635Y-7.9415
X12.635Y-7.9809
X12.635Y-8.0202
X12.635Y-8.0596
X12.635Y-8.099
X12.635Y-8.1383
X12.635Y-8.1777
X12.635Y-8.2171
X12.635Y-8.2564
X12.635Y-8.2958
X12.635Y-8.3352
X12.635Y-8.3746
X12.8407Y-8.564
X12.8407Y-8.6034
X12.8501Y-7.1746
X12.8501Y-7.214
X12.8801Y-8.564
X12.8801Y-8.6034
X12.8894Y-7.1746
X12.8894Y-7.214
X12.9194Y-8.564
X12.9194Y-8.6034
X12.9288Y-7.1746
X12.9288Y-7.214
X12.9588Y-8.564
X12.9588Y-8.6034
X12.9682Y-7.1746
X12.9682Y-7.214
X12.9982Y-8.564
X12.9982Y-8.6034
X13.0076Y-7.1746
X13.0076Y-7.214
X13.035Y-7.479
X13.035Y-7.529
X13.035Y-7.579
X13.035Y-7.629
X13.035Y-7.679
X13.035Y-7.729
X13.035Y-7.779
X13.035Y-7.829
X13.035Y-7.879
X13.035Y-7.929
X13.035Y-7.979
X13.035Y-8.029
X13.035Y-8.079
X13.035Y-8.129
X13.035Y-8.179
X13.035Y-8.229
X13.035Y-8.279
X13.0376Y-8.564
X13.0376Y-8.6034
X13.0469Y-7.1746
X13.0469Y-7.214
X13.0769Y-8.564
X13.0769Y-8.6034
X13.0863Y-7.1746
X13.0863Y-7.214
X13.1163Y-8.564
X13.1163Y-8.6034
X13.1257Y-7.1746
X13.1257Y-7.214
X13.1557Y-8.564
X13.1557Y-8.6034
X13.165Y-7.1746
X13.165Y-7.214
X13.195Y-8.564
X13.195Y-8.6034
X13.2044Y-7.1746
X13.2044Y-7.214
X13.2344Y-8.564
X13.2344Y-8.6034
X13.235Y-7.479
X13.235Y-7.529
X13.235Y-7.579
X13.235Y-7.629
X13.235Y-7.679
X13.235Y-7.729
X13.235Y-7.779
X13.235Y-7.829
X13.235Y-7.879
X13.235Y-7.929
X13.235Y-7.979
X13.235Y-8.029
X13.235Y-8.079
X13.235Y-8.129
X13.235Y-8.179
X13.235Y-8.229
X13.235Y-8.279
X13.2438Y-7.1746
X13.2438Y-7.214
X13.2738Y-8.564
X13.2738Y-8.6034
X13.2831Y-7.1746
X13.2831Y-7.214
X13.3131Y-8.564
X13.3131Y-8.6034
X13.3225Y-7.1746
X13.3225Y-7.214
X13.3525Y-8.564
X13.3525Y-8.6034
X13.3619Y-7.1746
X13.3619Y-7.214
X13.3919Y-8.564
X13.3919Y-8.6034
X13.4013Y-7.1746
X13.4013Y-7.214
X13.4313Y-8.564
X13.4313Y-8.6034
X13.435Y-7.479
X13.435Y-7.529
X13.435Y-7.579
X13.435Y-7.629
X13.435Y-7.679
X13.435Y-7.729
X13.435Y-7.779
X13.435Y-7.829
X13.435Y-7.879
X13.435Y-7.929
X13.435Y-7.979
X13.435Y-8.029
X13.435Y-8.079
X13.435Y-8.129
X13.435Y-8.179
X13.435Y-8.229
X13.435Y-8.279
X13.4406Y-7.1746
X13.4406Y-7.214
X13.4706Y-8.564
X13.4706Y-8.6034
X13.48Y-7.1746
X13.48Y-7.214
X13.51Y-8.564
X13.51Y-8.6034
X13.5194Y-7.1746
X13.5194Y-7.214
X13.5494Y-8.564
X13.5494Y-8.6034
X13.5587Y-7.1746
X13.5587Y-7.214
X13.5887Y-8.564
X13.5887Y-8.6034
X13.5981Y-7.1746
X13.5981Y-7.214
X13.6281Y-8.564
X13.6281Y-8.6034
X13.635Y-7.479
X13.635Y-7.529
X13.635Y-7.579
X13.635Y-7.629
X13.635Y-7.679
X13.635Y-7.729
X13.635Y-7.779
X13.635Y-7.829
X13.635Y-7.879
X13.635Y-7.929
X13.635Y-7.979
X13.635Y-8.029
X13.635Y-8.079
X13.635Y-8.129
X13.635Y-8.179
X13.635Y-8.229
X13.635Y-8.279
X13.6375Y-7.1746
X13.6375Y-7.214
X13.6675Y-8.564
X13.6675Y-8.6034
X13.6769Y-7.1746
X13.6769Y-7.214
X13.7069Y-8.564
X13.7069Y-8.6034
X13.7162Y-7.1746
X13.7162Y-7.214
X13.7462Y-8.564
X13.7462Y-8.6034
X13.7556Y-7.1746
X13.7556Y-7.214
X13.7856Y-8.564
X13.7856Y-8.6034
X13.795Y-7.1746
X13.795Y-7.214
X13.825Y-8.564
X13.825Y-8.6034
X13.8343Y-7.1746
X13.8343Y-7.214
X14.0506Y-7.4047
X14.0506Y-7.4441
X14.0506Y-7.4835
X14.0506Y-7.5229
X14.0506Y-7.5622
X14.0506Y-7.6016
X14.0506Y-7.641
X14.0506Y-7.6803
X14.0506Y-7.7197
X14.0506Y-7.7591
X14.0506Y-7.7984
X14.0506Y-7.8378
X14.0506Y-7.8772
X14.0506Y-7.9166
X14.0506Y-7.9559
X14.0506Y-7.9953
X14.0506Y-8.0347
X14.0506Y-8.074
X14.0506Y-8.1134
X14.0506Y-8.1528
X14.0506Y-8.1921
X14.0506Y-8.2315
X14.0506Y-8.2709
X14.0506Y-8.3103
X14.0506Y-8.3496
X14.0506Y-8.389
X14.09Y-7.4047
X14.09Y-7.4441
X14.09Y-7.4835
X14.09Y-7.5229
X14.09Y-7.5622
X14.09Y-7.6016
X14.09Y-7.641
X14.09Y-7.6803
X14.09Y-7.7197
X14.09Y-7.7591
X14.09Y-7.7984
X14.09Y-7.8378
X14.09Y-7.8772
X14.09Y-7.9166
X14.09Y-7.9559
X14.09Y-7.9953
X14.09Y-8.0347
X14.09Y-8.074
X14.09Y-8.1134
X14.09Y-8.1528
X14.09Y-8.1921
X14.09Y-8.2315
X14.09Y-8.2709
X14.09Y-8.3103
X14.09Y-8.3496
X14.09Y-8.389
X14.345Y-7.6715
X14.345Y-7.7109
X14.345Y-7.7503
X14.345Y-7.7896
X14.345Y-7.829
X14.345Y-7.8684
X14.345Y-7.9077
X14.345Y-7.9471
X14.345Y-7.9865
X14.345Y-8.0259
X14.345Y-8.0652
X14.345Y-8.1046
X14.43Y-8.134
X14.4331Y-7.664
X14.4694Y-8.134
X14.4725Y-7.664
X14.5087Y-8.134
X14.5119Y-7.664
X14.5481Y-8.134
X14.5513Y-7.664
X14.5875Y-8.134
X14.5906Y-7.664
X14.6269Y-8.134
X14.63Y-7.664
X14.6662Y-8.134
X14.6694Y-7.664
X14.7056Y-8.134
X14.7087Y-7.664
X14.745Y-8.134
X14.7481Y-7.664
X14.7843Y-8.134
X14.7875Y-7.664
X14.8237Y-8.134
X14.8269Y-7.664
X14.8631Y-8.134
X14.8662Y-7.664
X14.937Y-5.248
X14.937Y-5.2874
X14.937Y-5.3267
X14.937Y-5.3661
X14.937Y-5.4055
X14.937Y-5.4449
X14.937Y-5.4842
X14.937Y-5.5236
X14.95Y-7.6647
X14.95Y-7.704
X14.95Y-7.7434
X14.95Y-7.7828
X14.95Y-7.8221
X14.95Y-7.8615
X14.95Y-7.9009
X14.95Y-7.9403
X14.95Y-7.9796
X14.95Y-8.019
X14.95Y-8.0584
X14.95Y-8.0977
X14.954Y-4.599
X14.954Y-4.6384
X14.954Y-4.6777
X14.954Y-4.7171
X14.954Y-4.7565
X14.954Y-4.7959
X14.954Y-4.8352
X14.954Y-4.8746
X14.954Y-4.914
X14.954Y-4.9533
X14.954Y-4.9927
X14.954Y-5.0321
X14.9688Y-4.529
X14.99Y-5.098
X15.0081Y-4.529
X15.0294Y-5.098
X15.0445Y-5.212
X15.0475Y-4.529
X15.062Y-5.554
X15.0687Y-5.098
X15.0839Y-5.212
X15.0869Y-4.529
X15.1014Y-5.554
X15.1081Y-5.098
X15.1233Y-5.212
X15.1263Y-4.529
X15.1407Y-5.554
X15.1475Y-5.098
X15.1626Y-5.212
X15.1656Y-4.529
X15.1801Y-5.554
X15.1869Y-5.098
X15.202Y-5.212
X15.205Y-4.529
X15.2195Y-5.554
X15.2262Y-5.098
X15.2414Y-5.212
X15.2444Y-4.529
X15.2589Y-5.554
X15.2656Y-5.098
X15.2807Y-5.212
X15.2837Y-4.529
X15.2982Y-5.554
X15.305Y-5.098
X15.3201Y-5.212
X15.3231Y-4.529
X15.3376Y-5.554
X15.3443Y-5.098
X15.3625Y-4.529
X15.3837Y-5.098
X15.4019Y-4.529
X15.4231Y-5.098
X15.436Y-4.6009
X15.436Y-4.6403
X15.436Y-4.6796
X15.436Y-4.719
X15.436Y-4.7584
X15.436Y-4.7977
X15.436Y-4.8371
X15.436Y-4.8765
X15.436Y-4.9159
X15.436Y-4.9552
X15.436Y-4.9946
X15.436Y-5.034
X15.451Y-5.2404
X15.451Y-5.2798
X15.451Y-5.3191
X15.451Y-5.3585
X15.451Y-5.3979
X15.451Y-5.4373
X15.451Y-5.4766
X15.451Y-5.516
X15.5181Y-2.297
X15.5181Y-2.297
X15.5181Y-2.297
X15.5181Y-2.297
X15.5181Y-2.297
X15.5181Y-2.3363
X15.5181Y-2.3363
X15.5181Y-2.3363
X15.5181Y-2.3363
X15.5181Y-2.3363
X15.5181Y-2.3757
X15.5181Y-2.3757
X15.5181Y-2.3757
X15.5181Y-2.3757
X15.5181Y-2.3757
X15.5181Y-2.4151
X15.5181Y-2.4151
X15.5181Y-2.4151
X15.5181Y-2.4151
X15.5181Y-2.4151
X15.5181Y-2.4544
X15.5181Y-2.4544
X15.5181Y-2.4544
X15.5181Y-2.4544
X15.5574Y-2.297
X15.5574Y-2.297
X15.5574Y-2.297
X15.5574Y-2.297
X15.5574Y-2.3363
X15.5574Y-2.3363
X15.5574Y-2.3363
X15.5574Y-2.3363
X15.5574Y-2.3757
X15.5574Y-2.3757
X15.5574Y-2.3757
X15.5574Y-2.3757
X15.5574Y-2.4151
X15.5574Y-2.4151
X15.5574Y-2.4151
X15.5574Y-2.4151
X15.5574Y-2.4544
X15.5574Y-2.4544
X15.5574Y-2.4544
X15.5574Y-2.4544
T7
X15.305Y-2.459
X15.3837Y-2.459
X15.5304Y-1.5485
X15.5304Y-1.5741
X15.5304Y-1.8639
X15.5304Y-1.8895
X15.55Y-1.5485
X15.55Y-1.8895
T8
X14.462Y-4.695
X14.462Y-4.745
X14.462Y-4.795
X14.462Y-4.845
X14.579Y-4.63
X14.585Y-4.927
X14.629Y-4.63
X14.635Y-4.927
X14.679Y-4.63
X14.685Y-4.927
X14.729Y-4.63
X14.735Y-4.927
X14.834Y-4.695
X14.834Y-4.745
X14.834Y-4.795
X14.834Y-4.845
T9
X8.025Y-2.209
X8.025Y-2.259
X8.025Y-2.309
X8.025Y-2.359
X8.025Y-2.409
X8.075Y-2.209
X8.075Y-2.259
X8.075Y-2.309
X8.075Y-2.359
X8.075Y-2.409
X8.075Y-8.229
X8.075Y-8.279
X8.075Y-8.329
X8.075Y-8.379
X8.075Y-8.429
X8.09Y-5.269
X8.09Y-5.319
X8.09Y-5.369
X8.09Y-5.419
X8.09Y-5.469
X8.125Y-8.229
X8.125Y-8.279
X8.125Y-8.329
X8.125Y-8.379
X8.125Y-8.429
X8.14Y-5.269
X8.14Y-5.319
X8.14Y-5.369
X8.14Y-5.419
X8.14Y-5.469
X11.785Y-2.254
X11.785Y-2.304
X11.785Y-2.354
X11.785Y-2.404
X11.785Y-2.454
X11.795Y-5.239
X11.795Y-5.289
X11.795Y-5.339
X11.795Y-5.389
X11.795Y-5.439
X11.835Y-2.254
X11.835Y-2.304
X11.835Y-2.354
X11.835Y-2.404
X11.835Y-2.454
X11.845Y-5.239
X11.845Y-5.289
X11.845Y-5.339
X11.845Y-5.389
X11.845Y-5.439
X11.875Y-8.234
X11.875Y-8.284
X11.875Y-8.334
X11.875Y-8.384
X11.875Y-8.434
X11.925Y-8.234
X11.925Y-8.284
X11.925Y-8.334
X11.925Y-8.384
X11.925Y-8.434
X15.585Y-8.234
X15.585Y-8.284
X15.635Y-8.234
X15.635Y-8.284
X15.685Y-8.234
X15.685Y-8.284
X15.695Y-5.224
X15.695Y-5.274
X15.695Y-5.324
X15.695Y-5.374
X15.695Y-5.424
X15.735Y-8.234
X15.735Y-8.284
X15.745Y-5.224
X15.745Y-5.274
X15.745Y-5.324
X15.745Y-5.374
X15.745Y-5.424
X15.785Y-8.234
X15.785Y-8.284
T10
X1.553Y-0.794
X1.553Y-0.894
X1.553Y-2.694
X1.553Y-2.794
X1.609Y-3.829
X1.609Y-3.929
X1.609Y-5.729
X1.609Y-5.829
X1.653Y-0.794
X1.653Y-0.894
X1.653Y-2.694
X1.653Y-2.794
X1.709Y-3.829
X1.709Y-3.929
X1.709Y-5.729
X1.709Y-5.829
X1.753Y-0.794
X1.753Y-0.894
X1.753Y-2.694
X1.753Y-2.794
X1.809Y-3.829
X1.809Y-3.929
X1.809Y-5.729
X1.809Y-5.829
X1.853Y-0.794
X1.853Y-0.894
X1.853Y-2.694
X1.853Y-2.794
X1.909Y-3.829
X1.909Y-3.929
X1.909Y-5.729
X1.909Y-5.829
X1.953Y-0.794
X1.953Y-0.894
X1.953Y-2.694
X1.953Y-2.794
X2.009Y-3.829
X2.009Y-3.929
X2.009Y-5.729
X2.009Y-5.829
X2.053Y-0.794
X2.053Y-0.894
X2.053Y-2.694
X2.053Y-2.794
X2.109Y-3.829
X2.109Y-3.929
X2.109Y-5.729
X2.109Y-5.829
X2.153Y-0.794
X2.153Y-0.894
X2.153Y-2.694
X2.153Y-2.794
X2.209Y-3.829
X2.209Y-3.929
X2.209Y-5.729
X2.209Y-5.829
X2.253Y-0.794
X2.253Y-0.894
X2.253Y-2.694
X2.253Y-2.794
X2.309Y-3.829
X2.309Y-3.929
X2.309Y-5.729
X2.309Y-5.829
X2.353Y-0.794
X2.353Y-0.894
X2.353Y-2.694
X2.353Y-2.794
X2.409Y-3.829
X2.409Y-3.929
X2.409Y-5.729
X2.409Y-5.829
X2.453Y-0.794
X2.453Y-0.894
X2.453Y-2.569
X2.453Y-2.694
X2.453Y-2.794
X2.509Y-3.829
X2.509Y-3.929
X2.509Y-5.604
X2.509Y-5.729
X2.509Y-5.829
X2.553Y-0.794
X2.553Y-0.894
X2.553Y-2.569
X2.553Y-2.694
X2.553Y-2.794
X2.609Y-3.829
X2.609Y-3.929
X2.609Y-5.604
X2.609Y-5.729
X2.609Y-5.829
X2.653Y-0.794
X2.653Y-0.894
X2.653Y-2.569
X2.653Y-2.694
X2.653Y-2.794
X2.709Y-3.829
X2.709Y-3.929
X2.709Y-5.604
X2.709Y-5.729
X2.709Y-5.829
X2.753Y-0.794
X2.753Y-0.894
X2.753Y-2.569
X2.753Y-2.694
X2.753Y-2.794
X2.809Y-3.829
X2.809Y-3.929
X2.809Y-5.604
X2.809Y-5.729
X2.809Y-5.829
X2.853Y-0.794
X2.853Y-0.894
X2.853Y-2.569
X2.853Y-2.694
X2.853Y-2.794
X2.909Y-3.829
X2.909Y-3.929
X2.909Y-5.604
X2.909Y-5.729
X2.909Y-5.829
X2.953Y-0.794
X2.953Y-0.894
X2.953Y-2.569
X2.953Y-2.694
X2.953Y-2.794
X3.009Y-3.829
X3.009Y-3.929
X3.009Y-5.604
X3.009Y-5.729
X3.009Y-5.829
X3.053Y-0.794
X3.053Y-0.894
X3.053Y-2.694
X3.053Y-2.794
X3.109Y-3.829
X3.109Y-3.929
X3.109Y-5.729
X3.109Y-5.829
X3.153Y-0.794
X3.153Y-0.894
X3.153Y-2.694
X3.153Y-2.794
X3.209Y-3.829
X3.209Y-3.929
X3.209Y-5.729
X3.209Y-5.829
X3.253Y-0.794
X3.253Y-0.894
X3.253Y-2.694
X3.253Y-2.794
X3.309Y-3.829
X3.309Y-3.929
X3.309Y-5.729
X3.309Y-5.829
X3.353Y-0.794
X3.353Y-0.894
X3.353Y-2.694
X3.353Y-2.794
X3.409Y-3.829
X3.409Y-3.929
X3.409Y-5.729
X3.409Y-5.829
X3.453Y-0.794
X3.453Y-0.894
X3.453Y-2.694
X3.453Y-2.794
X3.509Y-3.829
X3.509Y-3.929
X3.509Y-5.729
X3.509Y-5.829
X3.553Y-0.794
X3.553Y-0.894
X3.553Y-2.694
X3.553Y-2.794
X3.609Y-3.829
X3.609Y-3.929
X3.609Y-5.729
X3.609Y-5.829
X3.653Y-0.794
X3.653Y-0.894
X3.653Y-2.694
X3.653Y-2.794
X3.709Y-3.829
X3.709Y-3.929
X3.709Y-5.729
X3.709Y-5.829
X3.753Y-0.794
X3.753Y-0.894
X3.753Y-2.694
X3.753Y-2.794
X3.809Y-3.829
X3.809Y-3.929
X3.809Y-5.729
X3.809Y-5.829
X5.595Y-0.754
X5.595Y-0.854
X5.595Y-2.654
X5.595Y-2.754
X5.62Y-6.759
X5.62Y-6.859
X5.62Y-8.659
X5.62Y-8.759
X5.635Y-3.809
X5.635Y-3.909
X5.635Y-5.709
X5.635Y-5.809
X5.695Y-0.754
X5.695Y-0.854
X5.695Y-2.654
X5.695Y-2.754
X5.72Y-6.759
X5.72Y-6.859
X5.72Y-8.659
X5.72Y-8.759
X5.735Y-3.809
X5.735Y-3.909
X5.735Y-5.709
X5.735Y-5.809
X5.795Y-0.754
X5.795Y-0.854
X5.795Y-2.654
X5.795Y-2.754
X5.82Y-6.759
X5.82Y-6.859
X5.82Y-8.659
X5.82Y-8.759
X5.835Y-3.809
X5.835Y-3.909
X5.835Y-5.709
X5.835Y-5.809
X5.895Y-0.754
X5.895Y-0.854
X5.895Y-2.654
X5.895Y-2.754
X5.92Y-6.759
X5.92Y-6.859
X5.92Y-8.659
X5.92Y-8.759
X5.935Y-3.809
X5.935Y-3.909
X5.935Y-5.709
X5.935Y-5.809
X5.995Y-0.754
X5.995Y-0.854
X5.995Y-2.654
X5.995Y-2.754
X6.02Y-6.759
X6.02Y-6.859
X6.02Y-8.659
X6.02Y-8.759
X6.035Y-3.809
X6.035Y-3.909
X6.035Y-5.709
X6.035Y-5.809
X6.095Y-0.754
X6.095Y-0.854
X6.095Y-2.654
X6.095Y-2.754
X6.12Y-6.759
X6.12Y-6.859
X6.12Y-8.659
X6.12Y-8.759
X6.135Y-3.809
X6.135Y-3.909
X6.135Y-5.709
X6.135Y-5.809
X6.195Y-0.754
X6.195Y-0.854
X6.195Y-2.654
X6.195Y-2.754
X6.22Y-6.759
X6.22Y-6.859
X6.22Y-8.659
X6.22Y-8.759
X6.235Y-3.809
X6.235Y-3.909
X6.235Y-5.709
X6.235Y-5.809
X6.295Y-0.754
X6.295Y-0.854
X6.295Y-2.654
X6.295Y-2.754
X6.32Y-6.759
X6.32Y-6.859
X6.32Y-8.659
X6.32Y-8.759
X6.335Y-3.809
X6.335Y-3.909
X6.335Y-5.709
X6.335Y-5.809
X6.395Y-0.754
X6.395Y-0.854
X6.395Y-2.654
X6.395Y-2.754
X6.42Y-6.759
X6.42Y-6.859
X6.42Y-8.659
X6.42Y-8.759
X6.435Y-3.809
X6.435Y-3.909
X6.435Y-5.709
X6.435Y-5.809
X6.495Y-0.754
X6.495Y-0.854
X6.495Y-2.529
X6.495Y-2.654
X6.495Y-2.754
X6.52Y-6.759
X6.52Y-6.859
X6.52Y-8.534
X6.52Y-8.659
X6.52Y-8.759
X6.535Y-3.809
X6.535Y-3.909
X6.535Y-5.584
X6.535Y-5.709
X6.535Y-5.809
X6.595Y-0.754
X6.595Y-0.854
X6.595Y-2.529
X6.595Y-2.654
X6.595Y-2.754
X6.62Y-6.759
X6.62Y-6.859
X6.62Y-8.534
X6.62Y-8.659
X6.62Y-8.759
X6.635Y-3.809
X6.635Y-3.909
X6.635Y-5.584
X6.635Y-5.709
X6.635Y-5.809
X6.695Y-0.754
X6.695Y-0.854
X6.695Y-2.529
X6.695Y-2.654
X6.695Y-2.754
X6.72Y-6.759
X6.72Y-6.859
X6.72Y-8.534
X6.72Y-8.659
X6.72Y-8.759
X6.735Y-3.809
X6.735Y-3.909
X6.735Y-5.584
X6.735Y-5.709
X6.735Y-5.809
X6.795Y-0.754
X6.795Y-0.854
X6.795Y-2.529
X6.795Y-2.654
X6.795Y-2.754
X6.82Y-6.759
X6.82Y-6.859
X6.82Y-8.534
X6.82Y-8.659
X6.82Y-8.759
X6.835Y-3.809
X6.835Y-3.909
X6.835Y-5.584
X6.835Y-5.709
X6.835Y-5.809
X6.895Y-0.754
X6.895Y-0.854
X6.895Y-2.529
X6.895Y-2.654
X6.895Y-2.754
X6.92Y-6.759
X6.92Y-6.859
X6.92Y-8.534
X6.92Y-8.659
X6.92Y-8.759
X6.935Y-3.809
X6.935Y-3.909
X6.935Y-5.584
X6.935Y-5.709
X6.935Y-5.809
X6.995Y-0.754
X6.995Y-0.854
X6.995Y-2.529
X6.995Y-2.654
X6.995Y-2.754
X7.02Y-6.759
X7.02Y-6.859
X7.02Y-8.534
X7.02Y-8.659
X7.02Y-8.759
X7.035Y-3.809
X7.035Y-3.909
X7.035Y-5.584
X7.035Y-5.709
X7.035Y-5.809
X7.095Y-0.754
X7.095Y-0.854
X7.095Y-2.654
X7.095Y-2.754
X7.12Y-6.759
X7.12Y-6.859
X7.12Y-8.659
X7.12Y-8.759
X7.135Y-3.809
X7.135Y-3.909
X7.135Y-5.709
X7.135Y-5.809
X7.195Y-0.754
X7.195Y-0.854
X7.195Y-2.654
X7.195Y-2.754
X7.22Y-6.759
X7.22Y-6.859
X7.22Y-8.659
X7.22Y-8.759
X7.235Y-3.809
X7.235Y-3.909
X7.235Y-5.709
X7.235Y-5.809
X7.295Y-0.754
X7.295Y-0.854
X7.295Y-2.654
X7.295Y-2.754
X7.32Y-6.759
X7.32Y-6.859
X7.32Y-8.659
X7.32Y-8.759
X7.335Y-3.809
X7.335Y-3.909
X7.335Y-5.709
X7.335Y-5.809
X7.395Y-0.754
X7.395Y-0.854
X7.395Y-2.654
X7.395Y-2.754
X7.42Y-6.759
X7.42Y-6.859
X7.42Y-8.659
X7.42Y-8.759
X7.435Y-3.809
X7.435Y-3.909
X7.435Y-5.709
X7.435Y-5.809
X7.495Y-0.754
X7.495Y-0.854
X7.495Y-2.654
X7.495Y-2.754
X7.52Y-6.759
X7.52Y-6.859
X7.52Y-8.659
X7.52Y-8.759
X7.535Y-3.809
X7.535Y-3.909
X7.535Y-5.709
X7.535Y-5.809
X7.595Y-0.754
X7.595Y-0.854
X7.595Y-2.654
X7.595Y-2.754
X7.62Y-6.759
X7.62Y-6.859
X7.62Y-8.659
X7.62Y-8.759
X7.635Y-3.809
X7.635Y-3.909
X7.635Y-5.709
X7.635Y-5.809
X7.695Y-0.754
X7.695Y-0.854
X7.695Y-2.654
X7.695Y-2.754
X7.72Y-6.759
X7.72Y-6.859
X7.72Y-8.659
X7.72Y-8.759
X7.735Y-3.809
X7.735Y-3.909
X7.735Y-5.709
X7.735Y-5.809
X7.795Y-0.754
X7.795Y-0.854
X7.795Y-2.654
X7.795Y-2.754
X7.82Y-6.759
X7.82Y-6.859
X7.82Y-8.659
X7.82Y-8.759
X7.835Y-3.809
X7.835Y-3.909
X7.835Y-5.709
X7.835Y-5.809
X9.35Y-0.794
X9.35Y-0.894
X9.35Y-2.694
X9.35Y-2.794
X9.365Y-3.784
X9.365Y-3.884
X9.365Y-5.684
X9.365Y-5.784
X9.42Y-6.759
X9.42Y-6.859
X9.42Y-8.659
X9.42Y-8.759
X9.45Y-0.794
X9.45Y-0.894
X9.45Y-2.694
X9.45Y-2.794
X9.465Y-3.784
X9.465Y-3.884
X9.465Y-5.684
X9.465Y-5.784
X9.52Y-6.759
X9.52Y-6.859
X9.52Y-8.659
X9.52Y-8.759
X9.55Y-0.794
X9.55Y-0.894
X9.55Y-2.694
X9.55Y-2.794
X9.565Y-3.784
X9.565Y-3.884
X9.565Y-5.684
X9.565Y-5.784
X9.62Y-6.759
X9.62Y-6.859
X9.62Y-8.659
X9.62Y-8.759
X9.65Y-0.794
X9.65Y-0.894
X9.65Y-2.694
X9.65Y-2.794
X9.665Y-3.784
X9.665Y-3.884
X9.665Y-5.684
X9.665Y-5.784
X9.72Y-6.759
X9.72Y-6.859
X9.72Y-8.659
X9.72Y-8.759
X9.75Y-0.794
X9.75Y-0.894
X9.75Y-2.694
X9.75Y-2.794
X9.765Y-3.784
X9.765Y-3.884
X9.765Y-5.684
X9.765Y-5.784
X9.82Y-6.759
X9.82Y-6.859
X9.82Y-8.659
X9.82Y-8.759
X9.85Y-0.794
X9.85Y-0.894
X9.85Y-2.694
X9.85Y-2.794
X9.865Y-3.784
X9.865Y-3.884
X9.865Y-5.684
X9.865Y-5.784
X9.92Y-6.759
X9.92Y-6.859
X9.92Y-8.659
X9.92Y-8.759
X9.95Y-0.794
X9.95Y-0.894
X9.95Y-2.694
X9.95Y-2.794
X9.965Y-3.784
X9.965Y-3.884
X9.965Y-5.684
X9.965Y-5.784
X10.02Y-6.759
X10.02Y-6.859
X10.02Y-8.659
X10.02Y-8.759
X10.05Y-0.794
X10.05Y-0.894
X10.05Y-2.694
X10.05Y-2.794
X10.065Y-3.784
X10.065Y-3.884
X10.065Y-5.684
X10.065Y-5.784
X10.12Y-6.759
X10.12Y-6.859
X10.12Y-8.659
X10.12Y-8.759
X10.15Y-0.794
X10.15Y-0.894
X10.15Y-2.694
X10.15Y-2.794
X10.165Y-3.784
X10.165Y-3.884
X10.165Y-5.684
X10.165Y-5.784
X10.22Y-6.759
X10.22Y-6.859
X10.22Y-8.659
X10.22Y-8.759
X10.25Y-0.794
X10.25Y-0.894
X10.25Y-2.569
X10.25Y-2.694
X10.25Y-2.794
X10.265Y-3.784
X10.265Y-3.884
X10.265Y-5.559
X10.265Y-5.684
X10.265Y-5.784
X10.32Y-6.759
X10.32Y-6.859
X10.32Y-8.534
X10.32Y-8.659
X10.32Y-8.759
X10.35Y-0.794
X10.35Y-0.894
X10.35Y-2.569
X10.35Y-2.694
X10.35Y-2.794
X10.365Y-3.784
X10.365Y-3.884
X10.365Y-5.559
X10.365Y-5.684
X10.365Y-5.784
X10.42Y-6.759
X10.42Y-6.859
X10.42Y-8.534
X10.42Y-8.659
X10.42Y-8.759
X10.45Y-0.794
X10.45Y-0.894
X10.45Y-2.569
X10.45Y-2.694
X10.45Y-2.794
X10.465Y-3.784
X10.465Y-3.884
X10.465Y-5.559
X10.465Y-5.684
X10.465Y-5.784
X10.52Y-6.759
X10.52Y-6.859
X10.52Y-8.534
X10.52Y-8.659
X10.52Y-8.759
X10.55Y-0.794
X10.55Y-0.894
X10.55Y-2.569
X10.55Y-2.694
X10.55Y-2.794
X10.565Y-3.784
X10.565Y-3.884
X10.565Y-5.559
X10.565Y-5.684
X10.565Y-5.784
X10.62Y-6.759
X10.62Y-6.859
X10.62Y-8.534
X10.62Y-8.659
X10.62Y-8.759
X10.65Y-0.794
X10.65Y-0.894
X10.65Y-2.569
X10.65Y-2.694
X10.65Y-2.794
X10.665Y-3.784
X10.665Y-3.884
X10.665Y-5.559
X10.665Y-5.684
X10.665Y-5.784
X10.72Y-6.759
X10.72Y-6.859
X10.72Y-8.534
X10.72Y-8.659
X10.72Y-8.759
X10.75Y-0.794
X10.75Y-0.894
X10.75Y-2.569
X10.75Y-2.694
X10.75Y-2.794
X10.765Y-3.784
X10.765Y-3.884
X10.765Y-5.559
X10.765Y-5.684
X10.765Y-5.784
X10.82Y-6.759
X10.82Y-6.859
X10.82Y-8.534
X10.82Y-8.659
X10.82Y-8.759
X10.85Y-0.794
X10.85Y-0.894
X10.85Y-2.694
X10.85Y-2.794
X10.865Y-3.784
X10.865Y-3.884
X10.865Y-5.684
X10.865Y-5.784
X10.92Y-6.759
X10.92Y-6.859
X10.92Y-8.659
X10.92Y-8.759
X10.95Y-0.794
X10.95Y-0.894
X10.95Y-2.694
X10.95Y-2.794
X10.965Y-3.784
X10.965Y-3.884
X10.965Y-5.684
X10.965Y-5.784
X11.02Y-6.759
X11.02Y-6.859
X11.02Y-8.659
X11.02Y-8.759
X11.05Y-0.794
X11.05Y-0.894
X11.05Y-2.694
X11.05Y-2.794
X11.065Y-3.784
X11.065Y-3.884
X11.065Y-5.684
X11.065Y-5.784
X11.12Y-6.759
X11.12Y-6.859
X11.12Y-8.659
X11.12Y-8.759
X11.15Y-0.794
X11.15Y-0.894
X11.15Y-2.694
X11.15Y-2.794
X11.165Y-3.784
X11.165Y-3.884
X11.165Y-5.684
X11.165Y-5.784
X11.22Y-6.759
X11.22Y-6.859
X11.22Y-8.659
X11.22Y-8.759
X11.25Y-0.794
X11.25Y-0.894
X11.25Y-2.694
X11.25Y-2.794
X11.265Y-3.784
X11.265Y-3.884
X11.265Y-5.684
X11.265Y-5.784
X11.32Y-6.759
X11.32Y-6.859
X11.32Y-8.659
X11.32Y-8.759
X11.35Y-0.794
X11.35Y-0.894
X11.35Y-2.694
X11.35Y-2.794
X11.365Y-3.784
X11.365Y-3.884
X11.365Y-5.684
X11.365Y-5.784
X11.42Y-6.759
X11.42Y-6.859
X11.42Y-8.659
X11.42Y-8.759
X11.45Y-0.794
X11.45Y-0.894
X11.45Y-2.694
X11.45Y-2.794
X11.465Y-3.784
X11.465Y-3.884
X11.465Y-5.684
X11.465Y-5.784
X11.52Y-6.759
X11.52Y-6.859
X11.52Y-8.659
X11.52Y-8.759
X11.55Y-0.794
X11.55Y-0.894
X11.55Y-2.694
X11.55Y-2.794
X11.565Y-3.784
X11.565Y-3.884
X11.565Y-5.684
X11.565Y-5.784
X11.62Y-6.759
X11.62Y-6.859
X11.62Y-8.659
X11.62Y-8.759
X13.19Y-0.819
X13.19Y-0.919
X13.19Y-2.719
X13.19Y-2.819
X13.285Y-3.759
X13.285Y-3.859
X13.285Y-5.659
X13.285Y-5.759
X13.29Y-0.819
X13.29Y-0.919
X13.29Y-2.719
X13.29Y-2.819
X13.325Y-6.759
X13.325Y-6.859
X13.325Y-8.659
X13.325Y-8.759
X13.385Y-3.759
X13.385Y-3.859
X13.385Y-5.659
X13.385Y-5.759
X13.39Y-0.819
X13.39Y-0.919
X13.39Y-2.719
X13.39Y-2.819
X13.425Y-6.759
X13.425Y-6.859
X13.425Y-8.659
X13.425Y-8.759
X13.485Y-3.759
X13.485Y-3.859
X13.485Y-5.659
X13.485Y-5.759
X13.49Y-0.819
X13.49Y-0.919
X13.49Y-2.719
X13.49Y-2.819
X13.525Y-6.759
X13.525Y-6.859
X13.525Y-8.659
X13.525Y-8.759
X13.585Y-3.759
X13.585Y-3.859
X13.585Y-5.659
X13.585Y-5.759
X13.59Y-0.819
X13.59Y-0.919
X13.59Y-2.719
X13.59Y-2.819
X13.625Y-6.759
X13.625Y-6.859
X13.625Y-8.659
X13.625Y-8.759
X13.685Y-3.759
X13.685Y-3.859
X13.685Y-5.659
X13.685Y-5.759
X13.69Y-0.819
X13.69Y-0.919
X13.69Y-2.719
X13.69Y-2.819
X13.725Y-6.759
X13.725Y-6.859
X13.725Y-8.659
X13.725Y-8.759
X13.785Y-3.759
X13.785Y-3.859
X13.785Y-5.659
X13.785Y-5.759
X13.79Y-0.819
X13.79Y-0.919
X13.79Y-2.719
X13.79Y-2.819
X13.825Y-6.759
X13.825Y-6.859
X13.825Y-8.659
X13.825Y-8.759
X13.885Y-3.759
X13.885Y-3.859
X13.885Y-5.659
X13.885Y-5.759
X13.89Y-0.819
X13.89Y-0.919
X13.89Y-2.719
X13.89Y-2.819
X13.925Y-6.759
X13.925Y-6.859
X13.925Y-8.659
X13.925Y-8.759
X13.985Y-3.759
X13.985Y-3.859
X13.985Y-5.659
X13.985Y-5.759
X13.99Y-0.819
X13.99Y-0.919
X13.99Y-2.719
X13.99Y-2.819
X14.025Y-6.759
X14.025Y-6.859
X14.025Y-8.659
X14.025Y-8.759
X14.085Y-3.759
X14.085Y-3.859
X14.085Y-5.659
X14.085Y-5.759
X14.09Y-0.819
X14.09Y-0.919
X14.09Y-2.594
X14.09Y-2.719
X14.09Y-2.819
X14.125Y-6.759
X14.125Y-6.859
X14.125Y-8.659
X14.125Y-8.759
X14.185Y-3.759
X14.185Y-3.859
X14.185Y-5.534
X14.185Y-5.659
X14.185Y-5.759
X14.19Y-0.819
X14.19Y-0.919
X14.19Y-2.594
X14.19Y-2.719
X14.19Y-2.819
X14.225Y-6.759
X14.225Y-6.859
X14.225Y-8.534
X14.225Y-8.659
X14.225Y-8.759
X14.285Y-3.759
X14.285Y-3.859
X14.285Y-5.534
X14.285Y-5.659
X14.285Y-5.759
X14.29Y-0.819
X14.29Y-0.919
X14.29Y-2.594
X14.29Y-2.719
X14.29Y-2.819
X14.325Y-6.759
X14.325Y-6.859
X14.325Y-8.534
X14.325Y-8.659
X14.325Y-8.759
X14.385Y-3.759
X14.385Y-3.859
X14.385Y-5.534
X14.385Y-5.659
X14.385Y-5.759
X14.39Y-0.819
X14.39Y-0.919
X14.39Y-2.594
X14.39Y-2.719
X14.39Y-2.819
X14.425Y-6.759
X14.425Y-6.859
X14.425Y-8.534
X14.425Y-8.659
X14.425Y-8.759
X14.485Y-3.759
X14.485Y-3.859
X14.485Y-5.534
X14.485Y-5.659
X14.485Y-5.759
X14.49Y-0.819
X14.49Y-0.919
X14.49Y-2.594
X14.49Y-2.719
X14.49Y-2.819
X14.525Y-6.759
X14.525Y-6.859
X14.525Y-8.534
X14.525Y-8.659
X14.525Y-8.759
X14.585Y-3.759
X14.585Y-3.859
X14.585Y-5.534
X14.585Y-5.659
X14.585Y-5.759
X14.59Y-0.819
X14.59Y-0.919
X14.59Y-2.594
X14.59Y-2.719
X14.59Y-2.819
X14.625Y-6.759
X14.625Y-6.859
X14.625Y-8.534
X14.625Y-8.659
X14.625Y-8.759
X14.685Y-3.759
X14.685Y-3.859
X14.685Y-5.534
X14.685Y-5.659
X14.685Y-5.759
X14.69Y-0.819
X14.69Y-0.919
X14.69Y-2.719
X14.69Y-2.819
X14.725Y-6.759
X14.725Y-6.859
X14.725Y-8.534
X14.725Y-8.659
X14.725Y-8.759
X14.785Y-3.759
X14.785Y-3.859
X14.785Y-5.659
X14.785Y-5.759
X14.79Y-0.819
X14.79Y-0.919
X14.79Y-2.719
X14.79Y-2.819
X14.825Y-6.759
X14.825Y-6.859
X14.825Y-8.659
X14.825Y-8.759
X14.885Y-3.759
X14.885Y-3.859
X14.885Y-5.659
X14.885Y-5.759
X14.89Y-0.819
X14.89Y-0.919
X14.89Y-2.719
X14.89Y-2.819
X14.925Y-6.759
X14.925Y-6.859
X14.925Y-8.659
X14.925Y-8.759
X14.985Y-3.759
X14.985Y-3.859
X14.985Y-5.659
X14.985Y-5.759
X14.99Y-0.819
X14.99Y-0.919
X14.99Y-2.719
X14.99Y-2.819
X15.025Y-6.759
X15.025Y-6.859
X15.025Y-8.659
X15.025Y-8.759
X15.085Y-3.759
X15.085Y-3.859
X15.085Y-5.659
X15.085Y-5.759
X15.09Y-0.819
X15.09Y-0.919
X15.09Y-2.719
X15.09Y-2.819
X15.125Y-6.759
X15.125Y-6.859
X15.125Y-8.659
X15.125Y-8.759
X15.185Y-3.759
X15.185Y-3.859
X15.185Y-5.659
X15.185Y-5.759
X15.19Y-0.819
X15.19Y-0.919
X15.19Y-2.719
X15.19Y-2.819
X15.225Y-6.759
X15.225Y-6.859
X15.225Y-8.659
X15.225Y-8.759
X15.285Y-3.759
X15.285Y-3.859
X15.285Y-5.659
X15.285Y-5.759
X15.29Y-0.819
X15.29Y-0.919
X15.29Y-2.719
X15.29Y-2.819
X15.325Y-6.759
X15.325Y-6.859
X15.325Y-8.659
X15.325Y-8.759
X15.385Y-3.759
X15.385Y-3.859
X15.385Y-5.659
X15.385Y-5.759
X15.39Y-0.819
X15.39Y-0.919
X15.39Y-2.719
X15.39Y-2.819
X15.425Y-6.759
X15.425Y-6.859
X15.425Y-8.659
X15.425Y-8.759
X15.485Y-3.759
X15.485Y-3.859
X15.485Y-5.659
X15.485Y-5.759
X15.525Y-6.759
X15.525Y-6.859
X15.525Y-8.659
X15.525Y-8.759
T11
X9.911Y-8.873
X9.911Y-9.173
X10.011Y-8.873
X10.011Y-9.173
X10.111Y-8.873
X10.111Y-9.173
X10.211Y-8.873
X10.211Y-9.173
X10.382Y-8.876
X10.382Y-9.176
X10.482Y-8.876
X10.482Y-9.176
X10.582Y-8.876
X10.582Y-9.176
X10.682Y-8.876
X10.682Y-9.176
X10.782Y-8.876
X10.782Y-9.176
X10.882Y-8.876
X10.882Y-9.176
X10.982Y-8.876
X10.982Y-9.176
X11.082Y-8.876
X11.082Y-9.176
X11.182Y-8.876
X11.182Y-9.176
X11.282Y-8.876
X11.282Y-9.176
X11.382Y-8.876
X11.382Y-9.176
X11.482Y-8.876
X11.482Y-9.176
X11.582Y-8.876
X11.582Y-9.176
X11.682Y-8.876
X11.682Y-9.176
X15.325Y-2.139
X15.325Y-2.2374
T12
X12.7076Y-5.0056
X12.7076Y-5.2024
X15.6574Y-2.1706
X15.6574Y-2.3674
T13
X1.809Y-5.018
X1.8637Y-4.8857
X1.8637Y-5.1503
X1.9942Y-3.246
X2.0442Y-5.967
X2.0942Y-3.246
X2.1283Y-4.8857
X2.1283Y-5.1503
X2.133Y-1.745
X2.133Y-1.845
X2.136Y-2.091
X2.136Y-2.191
X2.138Y-2.426
X2.138Y-2.526
X2.1442Y-5.967
X2.183Y-5.018
X2.1942Y-3.246
X2.2442Y-5.967
X2.2942Y-3.246
X2.3442Y-5.967
X2.354Y-1.346
X2.3942Y-3.246
X2.404Y-4.067
X2.4442Y-5.967
X2.454Y-1.346
X2.4942Y-3.246
X2.504Y-4.067
X2.5442Y-5.967
X2.554Y-1.346
X2.5942Y-3.246
X2.604Y-4.067
X2.6442Y-5.967
X2.654Y-1.346
X2.6942Y-3.246
X2.704Y-4.067
X2.7442Y-5.967
X2.754Y-1.346
X2.7942Y-3.246
X2.804Y-4.067
X2.8442Y-5.967
X2.854Y-1.346
X2.8942Y-3.246
X2.904Y-4.067
X2.929Y-1.779
X2.929Y-1.879
X2.943Y-2.246
X2.943Y-2.346
X2.9442Y-5.967
X2.954Y-1.346
X3.004Y-4.067
X3.054Y-1.346
X3.054Y-3.246
X3.104Y-4.067
X3.104Y-5.967
X3.154Y-3.246
X3.204Y-5.967
X3.254Y-1.346
X3.254Y-3.246
X3.304Y-4.067
X3.304Y-5.967
X3.354Y-1.346
X3.354Y-3.246
X3.404Y-4.067
X3.404Y-5.967
X3.454Y-1.346
X3.454Y-3.246
X3.504Y-4.067
X3.504Y-5.967
X3.554Y-1.346
X3.554Y-3.246
X3.604Y-4.067
X3.604Y-5.967
X3.654Y-1.346
X3.654Y-3.246
X3.704Y-4.067
X3.704Y-5.967
X3.754Y-1.346
X3.754Y-3.246
X3.77Y-1.762
X3.77Y-1.862
X3.779Y-2.231
X3.779Y-2.331
X3.804Y-4.067
X3.804Y-5.967
X4.935Y-4.214
X4.935Y-4.314
X4.935Y-4.414
X4.935Y-4.514
X5.035Y-4.214
X5.035Y-4.314
X5.035Y-4.414
X5.035Y-4.514
X5.225Y-4.054
X5.225Y-4.154
X5.225Y-4.254
X5.225Y-4.354
X5.245Y-5.979
X5.245Y-6.079
X5.245Y-6.179
X5.245Y-6.279
X5.245Y-7.034
X5.245Y-7.134
X5.245Y-7.234
X5.245Y-7.334
X5.2603Y-8.9609
X5.2603Y-9.0609
X5.2603Y-9.1609
X5.2603Y-9.2609
X5.325Y-4.054
X5.325Y-4.154
X5.325Y-4.254
X5.325Y-4.354
X5.345Y-5.979
X5.345Y-6.079
X5.345Y-6.179
X5.345Y-6.279
X5.345Y-7.034
X5.345Y-7.134
X5.345Y-7.234
X5.345Y-7.334
X5.3603Y-8.9609
X5.3603Y-9.0609
X5.3603Y-9.1609
X5.3603Y-9.2609
X5.475Y-4.054
X5.475Y-4.154
X5.475Y-4.254
X5.475Y-4.354
X5.495Y-7.034
X5.495Y-7.134
X5.495Y-7.234
X5.495Y-7.334
X5.5Y-5.979
X5.5Y-6.079
X5.5Y-6.179
X5.5Y-6.279
X5.505Y-8.9609
X5.505Y-9.0609
X5.505Y-9.1609
X5.505Y-9.2609
X5.575Y-4.054
X5.575Y-4.154
X5.575Y-4.254
X5.575Y-4.354
X5.595Y-7.034
X5.595Y-7.134
X5.595Y-7.234
X5.595Y-7.334
X5.6Y-5.979
X5.6Y-6.079
X5.6Y-6.179
X5.6Y-6.279
X5.605Y-8.9609
X5.605Y-9.0609
X5.605Y-9.1609
X5.605Y-9.2609
X5.845Y-8.949
X5.845Y-9.049
X5.845Y-9.149
X5.845Y-9.249
X5.945Y-8.949
X5.945Y-9.049
X5.945Y-9.149
X5.945Y-9.249
X6.0352Y-3.264
X6.0602Y-9.219
X6.0652Y-6.259
X6.1352Y-3.264
X6.1602Y-9.219
X6.1652Y-6.259
X6.2352Y-3.264
X6.2602Y-9.219
X6.2652Y-6.259
X6.3352Y-3.264
X6.3602Y-9.219
X6.3652Y-6.259
X6.395Y-1.364
X6.42Y-7.319
X6.425Y-4.359
X6.4352Y-3.264
X6.4602Y-9.219
X6.4652Y-6.259
X6.495Y-1.364
X6.52Y-7.319
X6.525Y-4.359
X6.5352Y-3.264
X6.5602Y-9.219
X6.5652Y-6.259
X6.595Y-1.364
X6.62Y-7.319
X6.625Y-4.359
X6.6352Y-3.264
X6.6602Y-9.219
X6.6652Y-6.259
X6.695Y-1.364
X6.72Y-7.319
X6.725Y-4.359
X6.7352Y-3.264
X6.7602Y-9.219
X6.7652Y-6.259
X6.795Y-1.364
X6.82Y-7.319
X6.825Y-4.359
X6.8352Y-3.264
X6.8602Y-9.219
X6.8652Y-6.259
X6.895Y-1.364
X6.92Y-7.319
X6.925Y-4.359
X6.9352Y-3.264
X6.9602Y-9.219
X6.9652Y-6.259
X6.995Y-1.364
X7.02Y-7.319
X7.025Y-4.359
X7.095Y-1.364
X7.095Y-3.264
X7.12Y-7.319
X7.12Y-9.219
X7.125Y-4.359
X7.125Y-6.259
X7.195Y-3.264
X7.22Y-9.219
X7.225Y-6.259
X7.295Y-1.364
X7.295Y-3.264
X7.32Y-7.319
X7.32Y-9.219
X7.325Y-4.359
X7.325Y-6.259
X7.395Y-1.364
X7.395Y-3.264
X7.42Y-7.319
X7.42Y-9.219
X7.425Y-4.359
X7.425Y-6.259
X7.495Y-1.364
X7.495Y-3.264
X7.52Y-7.319
X7.52Y-9.219
X7.525Y-4.359
X7.525Y-6.259
X7.595Y-1.364
X7.595Y-3.264
X7.62Y-7.319
X7.62Y-9.219
X7.625Y-4.359
X7.625Y-6.259
X7.695Y-1.364
X7.695Y-3.264
X7.72Y-7.319
X7.72Y-9.219
X7.725Y-4.359
X7.725Y-6.259
X7.795Y-1.364
X7.795Y-3.264
X7.82Y-7.319
X7.82Y-9.219
X7.825Y-4.359
X7.825Y-6.259
X8.0Y-1.739
X8.0Y-1.839
X8.0Y-1.939
X8.0Y-2.039
X8.04Y-7.759
X8.04Y-7.859
X8.04Y-7.959
X8.04Y-8.059
X8.06Y-4.794
X8.06Y-4.894
X8.06Y-4.994
X8.06Y-5.094
X8.1Y-1.739
X8.1Y-1.839
X8.1Y-1.939
X8.1Y-2.039
X8.14Y-7.759
X8.14Y-7.859
X8.14Y-7.959
X8.14Y-8.059
X8.16Y-4.794
X8.16Y-4.894
X8.16Y-4.994
X8.16Y-5.094
X8.655Y-1.454
X8.655Y-1.554
X8.655Y-1.654
X8.655Y-1.754
X8.655Y-1.854
X8.655Y-1.954
X8.655Y-2.054
X8.655Y-2.154
X8.655Y-2.254
X8.655Y-2.354
X8.655Y-2.454
X8.655Y-2.554
X8.666Y-1.301
X8.702Y-7.447
X8.702Y-7.547
X8.702Y-7.647
X8.702Y-7.747
X8.702Y-7.847
X8.702Y-7.947
X8.702Y-8.047
X8.702Y-8.147
X8.702Y-8.247
X8.702Y-8.347
X8.702Y-8.447
X8.702Y-8.547
X8.766Y-1.301
X8.802Y-7.447
X8.802Y-7.547
X8.802Y-7.647
X8.802Y-7.747
X8.802Y-7.847
X8.802Y-7.947
X8.802Y-8.047
X8.802Y-8.147
X8.802Y-8.247
X8.802Y-8.347
X8.802Y-8.447
X8.802Y-8.547
X8.815Y-1.449
X8.845Y-2.549
X8.866Y-1.301
X8.902Y-7.447
X8.902Y-8.347
X8.902Y-8.447
X8.902Y-8.547
X8.915Y-1.449
X8.945Y-2.549
X8.966Y-1.301
X9.002Y-7.447
X9.002Y-8.347
X9.002Y-8.447
X9.002Y-8.547
X9.015Y-1.449
X9.045Y-2.549
X9.066Y-1.301
X9.073Y-2.917
X9.102Y-7.447
X9.102Y-8.547
X9.115Y-1.449
X9.145Y-2.549
X9.166Y-1.301
X9.173Y-2.917
X9.202Y-7.447
X9.202Y-8.547
X9.215Y-1.449
X9.245Y-2.549
X9.266Y-1.301
X9.273Y-2.917
X9.302Y-7.447
X9.302Y-8.547
X9.315Y-1.449
X9.345Y-2.549
X9.366Y-1.301
X9.373Y-2.917
X9.402Y-7.447
X9.402Y-8.547
X9.415Y-1.449
X9.445Y-2.549
X9.473Y-2.917
X9.502Y-7.447
X9.502Y-8.547
X9.515Y-1.449
X9.545Y-2.549
X9.573Y-2.917
X9.602Y-7.447
X9.602Y-8.547
X9.615Y-1.449
X9.645Y-2.549
X9.673Y-2.917
X9.702Y-7.447
X9.702Y-8.547
X9.715Y-1.449
X9.745Y-2.549
X9.773Y-2.917
X9.7902Y-3.224
X9.7952Y-6.264
X9.802Y-7.447
X9.802Y-8.547
X9.815Y-1.449
X9.845Y-2.549
X9.8452Y-9.254
X9.8902Y-3.224
X9.8952Y-6.264
X9.902Y-7.447
X9.902Y-8.547
X9.915Y-1.449
X9.945Y-2.549
X9.9452Y-9.254
X9.9902Y-3.224
X9.9952Y-6.264
X10.002Y-7.447
X10.002Y-8.547
X10.0452Y-9.254
X10.0902Y-3.224
X10.0952Y-6.264
X10.102Y-7.447
X10.102Y-8.547
X10.105Y-1.449
X10.105Y-1.549
X10.105Y-1.649
X10.105Y-1.749
X10.105Y-1.849
X10.105Y-1.949
X10.105Y-2.049
X10.105Y-2.149
X10.105Y-2.249
X10.105Y-2.349
X10.105Y-2.449
X10.105Y-2.549
X10.1452Y-9.254
X10.15Y-1.324
X10.155Y-4.364
X10.1902Y-3.224
X10.1952Y-6.264
X10.202Y-7.447
X10.202Y-8.547
X10.205Y-7.354
X10.225Y-1.666
X10.225Y-1.766
X10.225Y-1.866
X10.225Y-1.966
X10.225Y-2.066
X10.225Y-2.166
X10.225Y-2.266
X10.225Y-2.366
X10.2452Y-9.254
X10.25Y-1.324
X10.255Y-4.364
X10.2902Y-3.224
X10.2952Y-6.264
X10.305Y-7.354
X10.34Y-1.484
X10.34Y-1.629
X10.34Y-1.774
X10.3452Y-9.254
X10.35Y-1.324
X10.355Y-2.149
X10.355Y-2.294
X10.355Y-2.439
X10.355Y-4.364
X10.3902Y-3.224
X10.3952Y-6.264
X10.405Y-7.354
X10.44Y-1.484
X10.44Y-1.629
X10.44Y-1.774
X10.4452Y-9.254
X10.45Y-1.324
X10.455Y-2.149
X10.455Y-2.294
X10.455Y-2.439
X10.455Y-4.364
X10.4902Y-3.224
X10.4952Y-6.264
X10.505Y-7.354
X10.54Y-1.484
X10.54Y-1.629
X10.54Y-1.774
X10.5452Y-9.254
X10.55Y-1.324
X10.555Y-2.149
X10.555Y-2.294
X10.555Y-2.439
X10.555Y-4.364
X10.5902Y-3.224
X10.5952Y-6.264
X10.605Y-7.354
X10.64Y-1.484
X10.64Y-1.629
X10.64Y-1.774
X10.6452Y-9.254
X10.65Y-1.324
X10.655Y-2.149
X10.655Y-2.294
X10.655Y-2.439
X10.655Y-4.364
X10.6902Y-3.224
X10.6952Y-6.264
X10.705Y-7.354
X10.74Y-1.484
X10.74Y-1.629
X10.74Y-1.774
X10.7452Y-9.254
X10.75Y-1.324
X10.755Y-2.149
X10.755Y-2.294
X10.755Y-2.439
X10.755Y-4.364
X10.805Y-7.354
X10.84Y-1.484
X10.84Y-1.629
X10.84Y-1.774
X10.85Y-1.324
X10.85Y-3.224
X10.855Y-2.149
X10.855Y-2.294
X10.855Y-2.439
X10.855Y-4.364
X10.855Y-6.264
X10.905Y-7.354
X10.905Y-9.254
X10.95Y-3.224
X10.955Y-6.264
X11.005Y-1.698
X11.005Y-1.798
X11.005Y-1.898
X11.005Y-1.998
X11.005Y-2.098
X11.005Y-2.198
X11.005Y-2.298
X11.005Y-2.398
X11.005Y-9.254
X11.05Y-1.324
X11.05Y-3.224
X11.055Y-4.364
X11.055Y-6.264
X11.105Y-7.354
X11.105Y-9.254
X11.15Y-1.324
X11.15Y-3.224
X11.155Y-4.364
X11.155Y-6.264
X11.17Y-2.144
X11.17Y-2.284
X11.185Y-1.629
X11.185Y-1.774
X11.205Y-7.354
X11.205Y-9.254
X11.25Y-1.324
X11.25Y-3.224
X11.255Y-4.364
X11.255Y-6.264
X11.27Y-2.144
X11.27Y-2.284
X11.285Y-1.629
X11.285Y-1.774
X11.305Y-7.354
X11.305Y-9.254
X11.35Y-1.324
X11.35Y-3.224
X11.355Y-4.364
X11.355Y-6.264
X11.37Y-2.144
X11.37Y-2.284
X11.385Y-1.629
X11.385Y-1.774
X11.405Y-7.354
X11.405Y-9.254
X11.45Y-1.324
X11.45Y-3.224
X11.455Y-4.364
X11.455Y-6.264
X11.47Y-2.144
X11.47Y-2.284
X11.485Y-1.629
X11.485Y-1.774
X11.505Y-7.354
X11.505Y-9.254
X11.55Y-1.324
X11.55Y-3.224
X11.555Y-4.364
X11.555Y-6.264
X11.605Y-7.354
X11.605Y-9.254
X11.755Y-1.794
X11.755Y-1.894
X11.755Y-1.994
X11.755Y-2.094
X11.765Y-4.764
X11.765Y-4.864
X11.765Y-4.964
X11.765Y-5.064
X11.84Y-7.774
X11.84Y-7.874
X11.84Y-7.974
X11.84Y-8.074
X11.855Y-1.794
X11.855Y-1.894
X11.855Y-1.994
X11.855Y-2.094
X11.865Y-4.764
X11.865Y-4.864
X11.865Y-4.964
X11.865Y-5.064
X11.94Y-7.774
X11.94Y-7.874
X11.94Y-7.974
X11.94Y-8.074
X12.51Y-1.169
X12.51Y-1.269
X12.515Y-0.869
X12.515Y-0.969
X12.585Y-4.304
X12.685Y-4.304
X12.69Y-1.169
X12.69Y-1.269
X12.7049Y-0.869
X12.7049Y-0.969
X12.785Y-4.304
X12.855Y-1.174
X12.855Y-1.274
X12.885Y-4.304
X12.935Y-7.479
X12.935Y-7.579
X12.935Y-7.679
X12.935Y-7.779
X12.935Y-7.879
X12.935Y-7.979
X12.935Y-8.079
X12.935Y-8.179
X12.935Y-8.279
X12.985Y-5.889
X13.085Y-5.889
X13.135Y-7.479
X13.135Y-7.579
X13.135Y-7.679
X13.135Y-7.779
X13.135Y-7.879
X13.135Y-7.979
X13.135Y-8.079
X13.135Y-8.179
X13.135Y-8.279
X13.185Y-5.889
X13.19Y-4.304
X13.19Y-4.449
X13.19Y-4.624
X13.19Y-4.724
X13.19Y-4.824
X13.19Y-4.924
X13.19Y-5.024
X13.19Y-5.124
X13.19Y-5.224
X13.19Y-5.324
X13.195Y-5.514
X13.285Y-5.889
X13.29Y-4.304
X13.29Y-4.449
X13.295Y-5.514
X13.335Y-7.479
X13.335Y-7.579
X13.335Y-7.679
X13.335Y-7.779
X13.335Y-7.879
X13.335Y-7.979
X13.335Y-8.079
X13.335Y-8.179
X13.335Y-8.279
X13.34Y-4.624
X13.345Y-5.324
X13.385Y-5.889
X13.39Y-4.304
X13.39Y-4.449
X13.395Y-5.514
X13.4Y-2.039
X13.405Y-2.519
X13.44Y-4.624
X13.445Y-5.324
X13.485Y-5.889
X13.49Y-4.304
X13.49Y-4.449
X13.495Y-5.514
X13.5Y-2.039
X13.505Y-2.519
X13.535Y-7.479
X13.535Y-7.579
X13.535Y-7.679
X13.535Y-7.779
X13.535Y-7.879
X13.535Y-7.979
X13.535Y-8.079
X13.535Y-8.179
X13.535Y-8.279
X13.54Y-4.624
X13.545Y-5.324
X13.585Y-5.889
X13.59Y-4.304
X13.59Y-4.449
X13.595Y-5.514
X13.6Y-2.039
X13.605Y-2.519
X13.6052Y-3.269
X13.64Y-4.624
X13.645Y-5.324
X13.685Y-5.889
X13.69Y-4.304
X13.69Y-4.449
X13.695Y-5.514
X13.7052Y-3.269
X13.7152Y-6.229
X13.735Y-7.479
X13.735Y-7.579
X13.735Y-7.679
X13.735Y-7.779
X13.735Y-7.879
X13.735Y-7.979
X13.735Y-8.079
X13.735Y-8.179
X13.735Y-8.279
X13.74Y-4.624
X13.745Y-5.324
X13.7602Y-9.219
X13.79Y-4.304
X13.79Y-4.449
X13.795Y-5.514
X13.8052Y-3.269
X13.8152Y-6.229
X13.84Y-4.624
X13.845Y-5.324
X13.8602Y-9.219
X13.89Y-4.304
X13.89Y-4.449
X13.895Y-5.514
X13.9052Y-3.269
X13.9152Y-6.229
X13.94Y-4.624
X13.945Y-5.324
X13.9602Y-9.219
X13.965Y-1.369
X14.0052Y-3.269
X14.0152Y-6.229
X14.04Y-4.449
X14.04Y-4.624
X14.045Y-5.324
X14.0602Y-9.219
X14.065Y-1.369
X14.075Y-4.329
X14.085Y-1.589
X14.085Y-1.739
X14.085Y-1.889
X14.1052Y-3.269
X14.1152Y-6.229
X14.12Y-7.319
X14.14Y-4.449
X14.1602Y-9.219
X14.165Y-1.369
X14.175Y-4.329
X14.185Y-1.589
X14.185Y-1.739
X14.185Y-1.889
X14.185Y-2.319
X14.19Y-4.624
X14.19Y-4.724
X14.19Y-4.824
X14.19Y-4.924
X14.19Y-5.024
X14.19Y-5.124
X14.19Y-5.224
X14.19Y-5.324
X14.2052Y-3.269
X14.2152Y-6.229
X14.22Y-7.319
X14.24Y-4.449
X14.2602Y-9.219
X14.265Y-1.369
X14.275Y-4.329
X14.285Y-1.589
X14.285Y-1.739
X14.285Y-1.889
X14.285Y-2.319
X14.3052Y-3.269
X14.31Y-8.314
X14.3152Y-6.229
X14.32Y-7.319
X14.32Y-7.504
X14.34Y-4.449
X14.3602Y-9.219
X14.365Y-1.369
X14.375Y-4.329
X14.385Y-1.589
X14.385Y-1.739
X14.385Y-1.889
X14.385Y-2.319
X14.4052Y-3.269
X14.41Y-8.314
X14.4152Y-6.229
X14.42Y-7.319
X14.42Y-7.504
X14.44Y-4.449
X14.4602Y-9.219
X14.465Y-1.369
X14.475Y-4.329
X14.485Y-1.589
X14.485Y-1.739
X14.485Y-1.889
X14.485Y-2.319
X14.5052Y-3.269
X14.51Y-8.314
X14.5152Y-6.229
X14.52Y-7.319
X14.52Y-7.504
X14.54Y-4.449
X14.5602Y-9.219
X14.565Y-1.369
X14.575Y-4.329
X14.585Y-1.589
X14.585Y-1.739
X14.585Y-1.889
X14.585Y-2.319
X14.61Y-8.314
X14.6152Y-6.229
X14.62Y-7.319
X14.62Y-7.504
X14.64Y-4.449
X14.6602Y-9.219
X14.665Y-1.369
X14.665Y-3.269
X14.675Y-4.329
X14.685Y-1.589
X14.685Y-1.739
X14.685Y-1.889
X14.685Y-2.319
X14.71Y-8.314
X14.72Y-7.319
X14.72Y-7.504
X14.74Y-4.449
X14.765Y-3.269
X14.775Y-4.329
X14.775Y-6.229
X14.785Y-1.589
X14.785Y-1.739
X14.785Y-1.889
X14.785Y-2.319
X14.81Y-8.314
X14.82Y-7.319
X14.82Y-7.504
X14.82Y-9.219
X14.865Y-1.369
X14.865Y-3.269
X14.875Y-6.229
X14.91Y-8.314
X14.92Y-7.504
X14.92Y-9.219
X14.965Y-1.369
X14.965Y-3.269
X14.975Y-4.329
X14.975Y-6.229
X15.01Y-8.314
X15.02Y-7.319
X15.02Y-7.504
X15.02Y-9.219
X15.065Y-1.369
X15.065Y-3.269
X15.075Y-4.329
X15.075Y-6.229
X15.12Y-7.319
X15.12Y-9.219
X15.165Y-1.369
X15.165Y-3.269
X15.175Y-4.329
X15.175Y-6.229
X15.22Y-7.319
X15.22Y-9.219
X15.265Y-1.369
X15.265Y-3.269
X15.275Y-4.329
X15.275Y-6.229
X15.32Y-7.319
X15.32Y-9.219
X15.365Y-1.369
X15.365Y-3.269
X15.375Y-4.329
X15.375Y-6.229
X15.42Y-7.319
X15.42Y-9.219
X15.475Y-4.329
X15.475Y-6.229
X15.52Y-7.319
X15.52Y-9.219
X15.55Y-7.954
X15.55Y-8.054
X15.65Y-7.954
X15.65Y-8.054
X15.675Y-4.744
X15.675Y-4.844
X15.675Y-4.944
X15.675Y-5.044
X15.75Y-7.954
X15.75Y-8.054
X15.775Y-4.744
X15.775Y-4.844
X15.775Y-4.944
X15.775Y-5.044
X15.85Y-7.954
X15.85Y-8.054
T14
X1.804Y-4.184
X1.804Y-4.284
X1.862Y-1.099
X1.862Y-1.199
X1.904Y-4.184
X1.904Y-4.284
X1.962Y-1.099
X1.962Y-1.199
X2.004Y-4.184
X2.004Y-4.284
X2.062Y-1.099
X2.062Y-1.199
X2.104Y-4.184
X2.104Y-4.284
X2.162Y-1.099
X2.162Y-1.199
X2.204Y-4.184
X2.204Y-4.284
X2.262Y-1.099
X2.262Y-1.199
X2.304Y-4.184
X2.304Y-4.284
X2.362Y-1.099
X2.362Y-1.199
X2.404Y-4.184
X2.404Y-4.284
X2.462Y-1.099
X2.462Y-1.199
X2.504Y-4.184
X2.504Y-4.284
X2.562Y-1.099
X2.562Y-1.199
X2.604Y-4.184
X2.604Y-4.284
X2.662Y-1.099
X2.662Y-1.199
X2.704Y-4.184
X2.704Y-4.284
X2.762Y-1.099
X2.762Y-1.199
X2.804Y-4.184
X2.804Y-4.284
X2.862Y-1.099
X2.862Y-1.199
X2.904Y-4.184
X2.904Y-4.284
X2.962Y-1.099
X2.962Y-1.199
X3.004Y-4.184
X3.004Y-4.284
X3.062Y-1.099
X3.062Y-1.199
X3.104Y-4.184
X3.104Y-4.284
X3.162Y-1.099
X3.162Y-1.199
X3.204Y-4.184
X3.204Y-4.284
X3.262Y-1.099
X3.262Y-1.199
X3.304Y-4.184
X3.304Y-4.284
X3.362Y-1.099
X3.362Y-1.199
X3.404Y-4.184
X3.404Y-4.284
X3.462Y-1.099
X3.462Y-1.199
X3.504Y-4.184
X3.504Y-4.284
X3.562Y-1.099
X3.562Y-1.199
X3.604Y-4.184
X3.604Y-4.284
X3.662Y-1.099
X3.662Y-1.199
X3.704Y-4.184
X3.704Y-4.284
X3.762Y-1.099
X3.762Y-1.199
X5.89Y-1.064
X5.89Y-1.164
X5.915Y-7.049
X5.915Y-7.149
X5.93Y-4.094
X5.93Y-4.194
X5.99Y-1.064
X5.99Y-1.164
X6.015Y-7.049
X6.015Y-7.149
X6.03Y-4.094
X6.03Y-4.194
X6.09Y-1.064
X6.09Y-1.164
X6.115Y-7.049
X6.115Y-7.149
X6.13Y-4.094
X6.13Y-4.194
X6.19Y-1.064
X6.19Y-1.164
X6.215Y-7.049
X6.215Y-7.149
X6.23Y-4.094
X6.23Y-4.194
X6.29Y-1.064
X6.29Y-1.164
X6.315Y-7.049
X6.315Y-7.149
X6.33Y-4.094
X6.33Y-4.194
X6.39Y-1.064
X6.39Y-1.164
X6.415Y-7.049
X6.415Y-7.149
X6.43Y-4.094
X6.43Y-4.194
X6.49Y-1.064
X6.49Y-1.164
X6.515Y-7.049
X6.515Y-7.149
X6.53Y-4.094
X6.53Y-4.194
X6.59Y-1.064
X6.59Y-1.164
X6.615Y-7.049
X6.615Y-7.149
X6.63Y-4.094
X6.63Y-4.194
X6.69Y-1.064
X6.69Y-1.164
X6.715Y-7.049
X6.715Y-7.149
X6.73Y-4.094
X6.73Y-4.194
X6.79Y-1.064
X6.79Y-1.164
X6.815Y-7.049
X6.815Y-7.149
X6.83Y-4.094
X6.83Y-4.194
X6.89Y-1.064
X6.89Y-1.164
X6.915Y-7.049
X6.915Y-7.149
X6.93Y-4.094
X6.93Y-4.194
X6.99Y-1.064
X6.99Y-1.164
X7.015Y-7.049
X7.015Y-7.149
X7.03Y-4.094
X7.03Y-4.194
X7.09Y-1.064
X7.09Y-1.164
X7.115Y-7.049
X7.115Y-7.149
X7.13Y-4.094
X7.13Y-4.194
X7.19Y-1.064
X7.19Y-1.164
X7.215Y-7.049
X7.215Y-7.149
X7.23Y-4.094
X7.23Y-4.194
X7.29Y-1.064
X7.29Y-1.164
X7.315Y-7.049
X7.315Y-7.149
X7.33Y-4.094
X7.33Y-4.194
X7.39Y-1.064
X7.39Y-1.164
X7.415Y-7.049
X7.415Y-7.149
X7.43Y-4.094
X7.43Y-4.194
X7.49Y-1.064
X7.49Y-1.164
X7.515Y-7.049
X7.515Y-7.149
X7.53Y-4.094
X7.53Y-4.194
X7.59Y-1.064
X7.59Y-1.164
X7.615Y-7.049
X7.615Y-7.149
X7.63Y-4.094
X7.63Y-4.194
X7.69Y-1.064
X7.69Y-1.164
X7.715Y-7.049
X7.715Y-7.149
X7.73Y-4.094
X7.73Y-4.194
X7.79Y-1.064
X7.79Y-1.164
X7.815Y-7.049
X7.815Y-7.149
X7.83Y-4.094
X7.83Y-4.194
X9.648Y-1.115
X9.648Y-1.215
X9.6589Y-4.0898
X9.6589Y-4.1898
X9.705Y-7.056
X9.705Y-7.156
X9.748Y-1.115
X9.748Y-1.215
X9.7589Y-4.0898
X9.7589Y-4.1898
X9.805Y-7.056
X9.805Y-7.156
X9.848Y-1.115
X9.848Y-1.215
X9.8589Y-4.0898
X9.8589Y-4.1898
X9.905Y-7.056
X9.905Y-7.156
X9.948Y-1.115
X9.948Y-1.215
X9.9589Y-4.0898
X9.9589Y-4.1898
X10.005Y-7.056
X10.005Y-7.156
X10.048Y-1.115
X10.048Y-1.215
X10.0589Y-4.0898
X10.0589Y-4.1898
X10.105Y-7.056
X10.105Y-7.156
X10.148Y-1.115
X10.148Y-1.215
X10.1589Y-4.0898
X10.1589Y-4.1898
X10.205Y-7.056
X10.205Y-7.156
X10.248Y-1.115
X10.248Y-1.215
X10.2589Y-4.0898
X10.2589Y-4.1898
X10.305Y-7.056
X10.305Y-7.156
X10.348Y-1.115
X10.348Y-1.215
X10.3589Y-4.0898
X10.3589Y-4.1898
X10.405Y-7.056
X10.405Y-7.156
X10.448Y-1.115
X10.448Y-1.215
X10.4589Y-4.0898
X10.4589Y-4.1898
X10.505Y-7.056
X10.505Y-7.156
X10.548Y-1.115
X10.548Y-1.215
X10.5589Y-4.0898
X10.5589Y-4.1898
X10.605Y-7.056
X10.605Y-7.156
X10.648Y-1.115
X10.648Y-1.215
X10.6589Y-4.0898
X10.6589Y-4.1898
X10.705Y-7.056
X10.705Y-7.156
X10.748Y-1.115
X10.748Y-1.215
X10.7589Y-4.0898
X10.7589Y-4.1898
X10.805Y-7.056
X10.805Y-7.156
X10.848Y-1.115
X10.848Y-1.215
X10.8589Y-4.0898
X10.8589Y-4.1898
X10.905Y-7.056
X10.905Y-7.156
X10.948Y-1.115
X10.948Y-1.215
X10.9589Y-4.0898
X10.9589Y-4.1898
X11.005Y-7.056
X11.005Y-7.156
X11.048Y-1.115
X11.048Y-1.215
X11.0589Y-4.0898
X11.0589Y-4.1898
X11.105Y-7.056
X11.105Y-7.156
X11.148Y-1.115
X11.148Y-1.215
X11.1589Y-4.0898
X11.1589Y-4.1898
X11.205Y-7.056
X11.205Y-7.156
X11.248Y-1.115
X11.248Y-1.215
X11.2589Y-4.0898
X11.2589Y-4.1898
X11.305Y-7.056
X11.305Y-7.156
X11.348Y-1.115
X11.348Y-1.215
X11.3589Y-4.0898
X11.3589Y-4.1898
X11.405Y-7.056
X11.405Y-7.156
X11.448Y-1.115
X11.448Y-1.215
X11.4589Y-4.0898
X11.4589Y-4.1898
X11.505Y-7.056
X11.505Y-7.156
X11.548Y-1.115
X11.548Y-1.215
X11.5589Y-4.0898
X11.5589Y-4.1898
X11.605Y-7.056
X11.605Y-7.156
X13.465Y-1.119
X13.465Y-1.219
X13.565Y-1.119
X13.565Y-1.219
X13.5789Y-4.0532
X13.5789Y-4.1532
X13.625Y-6.979
X13.625Y-7.079
X13.665Y-1.119
X13.665Y-1.219
X13.6789Y-4.0532
X13.6789Y-4.1532
X13.725Y-6.979
X13.725Y-7.079
X13.765Y-1.119
X13.765Y-1.219
X13.7789Y-4.0532
X13.7789Y-4.1532
X13.825Y-6.979
X13.825Y-7.079
X13.865Y-1.119
X13.865Y-1.219
X13.8789Y-4.0532
X13.8789Y-4.1532
X13.925Y-6.979
X13.925Y-7.079
X13.965Y-1.119
X13.965Y-1.219
X13.9789Y-4.0532
X13.9789Y-4.1532
X14.025Y-6.979
X14.025Y-7.079
X14.065Y-1.119
X14.065Y-1.219
X14.0789Y-4.0532
X14.0789Y-4.1532
X14.125Y-6.979
X14.125Y-7.079
X14.165Y-1.119
X14.165Y-1.219
X14.1789Y-4.0532
X14.1789Y-4.1532
X14.225Y-6.979
X14.225Y-7.079
X14.265Y-1.119
X14.265Y-1.219
X14.2789Y-4.0532
X14.2789Y-4.1532
X14.325Y-6.979
X14.325Y-7.079
X14.365Y-1.119
X14.365Y-1.219
X14.3789Y-4.0532
X14.3789Y-4.1532
X14.425Y-6.979
X14.425Y-7.079
X14.465Y-1.119
X14.465Y-1.219
X14.4789Y-4.0532
X14.4789Y-4.1532
X14.525Y-6.979
X14.525Y-7.079
X14.565Y-1.119
X14.565Y-1.219
X14.5789Y-4.0532
X14.5789Y-4.1532
X14.625Y-6.979
X14.625Y-7.079
X14.665Y-1.119
X14.665Y-1.219
X14.6789Y-4.0532
X14.6789Y-4.1532
X14.725Y-6.979
X14.725Y-7.079
X14.765Y-1.119
X14.765Y-1.219
X14.7789Y-4.0532
X14.7789Y-4.1532
X14.825Y-6.979
X14.825Y-7.079
X14.865Y-1.119
X14.865Y-1.219
X14.8789Y-4.0532
X14.8789Y-4.1532
X14.925Y-6.979
X14.925Y-7.079
X14.965Y-1.119
X14.965Y-1.219
X14.9789Y-4.0532
X14.9789Y-4.1532
X15.025Y-6.979
X15.025Y-7.079
X15.065Y-1.119
X15.065Y-1.219
X15.0789Y-4.0532
X15.0789Y-4.1532
X15.125Y-6.979
X15.125Y-7.079
X15.165Y-1.119
X15.165Y-1.219
X15.1789Y-4.0532
X15.1789Y-4.1532
X15.225Y-6.979
X15.225Y-7.079
X15.265Y-1.119
X15.265Y-1.219
X15.2789Y-4.0532
X15.2789Y-4.1532
X15.325Y-6.979
X15.325Y-7.079
X15.365Y-1.119
X15.365Y-1.219
X15.3789Y-4.0532
X15.3789Y-4.1532
X15.425Y-6.979
X15.425Y-7.079
X15.4789Y-4.0532
X15.4789Y-4.1532
X15.525Y-6.979
X15.525Y-7.079
T15
X15.095Y-2.139
X15.095Y-2.239
X15.095Y-2.339
T16
X0.924Y-1.651
X0.924Y-2.101
X0.931Y-4.816
X0.931Y-5.266
X1.575Y-7.658
X1.575Y-8.108
X2.884Y-1.641
X2.884Y-2.101
X2.891Y-4.806
X2.891Y-5.266
X3.535Y-7.648
X3.535Y-8.108
X9.1438Y-7.7434
X9.1438Y-8.1934
X11.1038Y-7.7434
X11.1038Y-8.2034
T17
X1.6123Y-4.234
X1.6123Y-6.1631
X1.6703Y-1.149
X1.6703Y-3.0781
X3.8957Y-4.234
X3.8957Y-6.1631
X3.9537Y-1.149
X3.9537Y-3.0781
X5.6983Y-1.114
X5.6983Y-3.0431
X5.7233Y-7.099
X5.7233Y-9.0281
X5.7383Y-4.144
X5.7383Y-6.0731
X7.9817Y-1.114
X7.9817Y-3.0431
X8.0067Y-7.099
X8.0067Y-9.0281
X8.0217Y-4.144
X8.0217Y-6.0731
X9.4563Y-1.165
X9.4563Y-3.0941
X9.4672Y-4.1398
X9.4672Y-6.0689
X9.5133Y-7.106
X9.5133Y-9.0351
X11.7397Y-1.165
X11.7397Y-3.0941
X11.7506Y-4.1398
X11.7506Y-6.0689
X11.7967Y-7.106
X11.7967Y-9.0351
X13.2733Y-1.169
X13.2733Y-3.0981
X13.3872Y-4.1032
X13.3872Y-6.0323
X13.4333Y-7.029
X13.4333Y-8.9581
X15.5567Y-1.169
X15.5567Y-3.0981
X15.6706Y-4.1032
X15.6706Y-6.0323
X15.7167Y-7.029
X15.7167Y-8.9581
T18
X1.353Y-0.844
X1.353Y-2.744
X1.409Y-3.879
X1.409Y-5.779
X3.953Y-0.969
X3.953Y-2.619
X4.009Y-4.004
X4.009Y-5.654
X5.395Y-0.804
X5.395Y-2.704
X5.42Y-6.809
X5.42Y-8.709
X5.435Y-3.859
X5.435Y-5.759
X7.995Y-0.929
X7.995Y-2.579
X8.02Y-6.934
X8.02Y-8.584
X8.035Y-3.984
X8.035Y-5.634
X9.15Y-0.844
X9.15Y-2.744
X9.165Y-3.834
X9.165Y-5.734
X9.22Y-6.809
X9.22Y-8.709
X11.75Y-0.969
X11.75Y-2.619
X11.765Y-3.959
X11.765Y-5.609
X11.82Y-6.934
X11.82Y-8.584
X12.99Y-0.869
X12.99Y-2.769
X13.085Y-3.809
X13.085Y-5.709
X13.125Y-6.809
X13.125Y-8.709
X15.59Y-0.994
X15.59Y-2.644
X15.685Y-3.934
X15.685Y-5.584
X15.725Y-6.934
X15.725Y-8.584
T19
X1.04Y-6.858
X1.052Y-9.144
X4.037Y-6.841
X4.041Y-9.132
T6
G00X0.911Y-2.9162
M15
G01X0.8874Y-2.9162
M16
G05
G00X0.911Y-3.2698
M15
G01X0.8874Y-3.2698
M16
G05
G00X1.1453Y-2.9304
M15
G01X1.1216Y-2.9304
M16
G05
G00X1.1453Y-3.2556
M15
G01X1.1216Y-3.2556
M16
G05
T7
G00X12.5875Y-4.9662
M15
G01X12.6151Y-4.9662
M16
G05
G00X12.6151Y-5.2418
M15
G01X12.5875Y-5.2418
M16
G05
G00X15.7499Y-2.1312
M15
G01X15.7775Y-2.1312
M16
G05
G00X15.7775Y-2.4068
M15
G01X15.7499Y-2.4068
M16
G05
G00X15.7646Y-1.5485
M15
G01X15.7843Y-1.5485
M16
G05
G00X15.7646Y-1.8895
M15
G01X15.7843Y-1.8895
M16
G05
T0
M30
