%TF.GenerationSoftware,KiCad,Pcbnew,(5.1.9)-1*%
%TF.CreationDate,2022-04-18T20:38:20-06:00*%
%TF.ProjectId,FPGAs-Ard_RPi_BB,46504741-732d-4417-9264-5f5250695f42,rev?*%
%TF.SameCoordinates,Original*%
%TF.FileFunction,Legend,Bot*%
%TF.FilePolarity,Positive*%
%FSLAX46Y46*%
G04 Gerber Fmt 4.6, Leading zero omitted, Abs format (unit mm)*
G04 Created by KiCad (PCBNEW (5.1.9)-1) date 2022-04-18 20:38:20*
%MOMM*%
%LPD*%
G01*
G04 APERTURE LIST*
%ADD10C,0.100000*%
%ADD11C,0.150000*%
%ADD12C,0.300000*%
%ADD13C,0.400000*%
%ADD14C,0.120000*%
%ADD15C,0.127000*%
%ADD16C,0.200000*%
%ADD17C,0.062500*%
G04 APERTURE END LIST*
D10*
D11*
X299989000Y-253002200D02*
X299989000Y-285002200D01*
X407989000Y-285002200D01*
X407989000Y-253002200D01*
X299989000Y-253002200D01*
D10*
D11*
X10000000Y-10000000D02*
X10000000Y-287002200D01*
X409989000Y-287002200D01*
X409989000Y-10000000D01*
X10000000Y-10000000D01*
D10*
D11*
X12000000Y-12000000D02*
X12000000Y-285002200D01*
X407989000Y-285002200D01*
X407989000Y-12000000D01*
X12000000Y-12000000D01*
D10*
D11*
X60000000Y-12000000D02*
X60000000Y-10000000D01*
D10*
D11*
X110000000Y-12000000D02*
X110000000Y-10000000D01*
D10*
D11*
X160000000Y-12000000D02*
X160000000Y-10000000D01*
D10*
D11*
X210000000Y-12000000D02*
X210000000Y-10000000D01*
D10*
D11*
X260000000Y-12000000D02*
X260000000Y-10000000D01*
D10*
D11*
X310000000Y-12000000D02*
X310000000Y-10000000D01*
D10*
D11*
X360000000Y-12000000D02*
X360000000Y-10000000D01*
D10*
D11*
X36065476Y-11588095D02*
X35322619Y-11588095D01*
X35694047Y-11588095D02*
X35694047Y-10288095D01*
X35570238Y-10473809D01*
X35446428Y-10597619D01*
X35322619Y-10659523D01*
D10*
D11*
X85322619Y-10411904D02*
X85384523Y-10350000D01*
X85508333Y-10288095D01*
X85817857Y-10288095D01*
X85941666Y-10350000D01*
X86003571Y-10411904D01*
X86065476Y-10535714D01*
X86065476Y-10659523D01*
X86003571Y-10845238D01*
X85260714Y-11588095D01*
X86065476Y-11588095D01*
D10*
D11*
X135260714Y-10288095D02*
X136065476Y-10288095D01*
X135632142Y-10783333D01*
X135817857Y-10783333D01*
X135941666Y-10845238D01*
X136003571Y-10907142D01*
X136065476Y-11030952D01*
X136065476Y-11340476D01*
X136003571Y-11464285D01*
X135941666Y-11526190D01*
X135817857Y-11588095D01*
X135446428Y-11588095D01*
X135322619Y-11526190D01*
X135260714Y-11464285D01*
D10*
D11*
X185941666Y-10721428D02*
X185941666Y-11588095D01*
X185632142Y-10226190D02*
X185322619Y-11154761D01*
X186127380Y-11154761D01*
D10*
D11*
X236003571Y-10288095D02*
X235384523Y-10288095D01*
X235322619Y-10907142D01*
X235384523Y-10845238D01*
X235508333Y-10783333D01*
X235817857Y-10783333D01*
X235941666Y-10845238D01*
X236003571Y-10907142D01*
X236065476Y-11030952D01*
X236065476Y-11340476D01*
X236003571Y-11464285D01*
X235941666Y-11526190D01*
X235817857Y-11588095D01*
X235508333Y-11588095D01*
X235384523Y-11526190D01*
X235322619Y-11464285D01*
D10*
D11*
X285941666Y-10288095D02*
X285694047Y-10288095D01*
X285570238Y-10350000D01*
X285508333Y-10411904D01*
X285384523Y-10597619D01*
X285322619Y-10845238D01*
X285322619Y-11340476D01*
X285384523Y-11464285D01*
X285446428Y-11526190D01*
X285570238Y-11588095D01*
X285817857Y-11588095D01*
X285941666Y-11526190D01*
X286003571Y-11464285D01*
X286065476Y-11340476D01*
X286065476Y-11030952D01*
X286003571Y-10907142D01*
X285941666Y-10845238D01*
X285817857Y-10783333D01*
X285570238Y-10783333D01*
X285446428Y-10845238D01*
X285384523Y-10907142D01*
X285322619Y-11030952D01*
D10*
D11*
X335260714Y-10288095D02*
X336127380Y-10288095D01*
X335570238Y-11588095D01*
D10*
D11*
X385570238Y-10845238D02*
X385446428Y-10783333D01*
X385384523Y-10721428D01*
X385322619Y-10597619D01*
X385322619Y-10535714D01*
X385384523Y-10411904D01*
X385446428Y-10350000D01*
X385570238Y-10288095D01*
X385817857Y-10288095D01*
X385941666Y-10350000D01*
X386003571Y-10411904D01*
X386065476Y-10535714D01*
X386065476Y-10597619D01*
X386003571Y-10721428D01*
X385941666Y-10783333D01*
X385817857Y-10845238D01*
X385570238Y-10845238D01*
X385446428Y-10907142D01*
X385384523Y-10969047D01*
X385322619Y-11092857D01*
X385322619Y-11340476D01*
X385384523Y-11464285D01*
X385446428Y-11526190D01*
X385570238Y-11588095D01*
X385817857Y-11588095D01*
X385941666Y-11526190D01*
X386003571Y-11464285D01*
X386065476Y-11340476D01*
X386065476Y-11092857D01*
X386003571Y-10969047D01*
X385941666Y-10907142D01*
X385817857Y-10845238D01*
D10*
D11*
X60000000Y-285002200D02*
X60000000Y-287002200D01*
D10*
D11*
X110000000Y-285002200D02*
X110000000Y-287002200D01*
D10*
D11*
X160000000Y-285002200D02*
X160000000Y-287002200D01*
D10*
D11*
X210000000Y-285002200D02*
X210000000Y-287002200D01*
D10*
D11*
X260000000Y-285002200D02*
X260000000Y-287002200D01*
D10*
D11*
X310000000Y-285002200D02*
X310000000Y-287002200D01*
D10*
D11*
X360000000Y-285002200D02*
X360000000Y-287002200D01*
D10*
D11*
X36065476Y-286590295D02*
X35322619Y-286590295D01*
X35694047Y-286590295D02*
X35694047Y-285290295D01*
X35570238Y-285476009D01*
X35446428Y-285599819D01*
X35322619Y-285661723D01*
D10*
D11*
X85322619Y-285414104D02*
X85384523Y-285352200D01*
X85508333Y-285290295D01*
X85817857Y-285290295D01*
X85941666Y-285352200D01*
X86003571Y-285414104D01*
X86065476Y-285537914D01*
X86065476Y-285661723D01*
X86003571Y-285847438D01*
X85260714Y-286590295D01*
X86065476Y-286590295D01*
D10*
D11*
X135260714Y-285290295D02*
X136065476Y-285290295D01*
X135632142Y-285785533D01*
X135817857Y-285785533D01*
X135941666Y-285847438D01*
X136003571Y-285909342D01*
X136065476Y-286033152D01*
X136065476Y-286342676D01*
X136003571Y-286466485D01*
X135941666Y-286528390D01*
X135817857Y-286590295D01*
X135446428Y-286590295D01*
X135322619Y-286528390D01*
X135260714Y-286466485D01*
D10*
D11*
X185941666Y-285723628D02*
X185941666Y-286590295D01*
X185632142Y-285228390D02*
X185322619Y-286156961D01*
X186127380Y-286156961D01*
D10*
D11*
X236003571Y-285290295D02*
X235384523Y-285290295D01*
X235322619Y-285909342D01*
X235384523Y-285847438D01*
X235508333Y-285785533D01*
X235817857Y-285785533D01*
X235941666Y-285847438D01*
X236003571Y-285909342D01*
X236065476Y-286033152D01*
X236065476Y-286342676D01*
X236003571Y-286466485D01*
X235941666Y-286528390D01*
X235817857Y-286590295D01*
X235508333Y-286590295D01*
X235384523Y-286528390D01*
X235322619Y-286466485D01*
D10*
D11*
X285941666Y-285290295D02*
X285694047Y-285290295D01*
X285570238Y-285352200D01*
X285508333Y-285414104D01*
X285384523Y-285599819D01*
X285322619Y-285847438D01*
X285322619Y-286342676D01*
X285384523Y-286466485D01*
X285446428Y-286528390D01*
X285570238Y-286590295D01*
X285817857Y-286590295D01*
X285941666Y-286528390D01*
X286003571Y-286466485D01*
X286065476Y-286342676D01*
X286065476Y-286033152D01*
X286003571Y-285909342D01*
X285941666Y-285847438D01*
X285817857Y-285785533D01*
X285570238Y-285785533D01*
X285446428Y-285847438D01*
X285384523Y-285909342D01*
X285322619Y-286033152D01*
D10*
D11*
X335260714Y-285290295D02*
X336127380Y-285290295D01*
X335570238Y-286590295D01*
D10*
D11*
X385570238Y-285847438D02*
X385446428Y-285785533D01*
X385384523Y-285723628D01*
X385322619Y-285599819D01*
X385322619Y-285537914D01*
X385384523Y-285414104D01*
X385446428Y-285352200D01*
X385570238Y-285290295D01*
X385817857Y-285290295D01*
X385941666Y-285352200D01*
X386003571Y-285414104D01*
X386065476Y-285537914D01*
X386065476Y-285599819D01*
X386003571Y-285723628D01*
X385941666Y-285785533D01*
X385817857Y-285847438D01*
X385570238Y-285847438D01*
X385446428Y-285909342D01*
X385384523Y-285971247D01*
X385322619Y-286095057D01*
X385322619Y-286342676D01*
X385384523Y-286466485D01*
X385446428Y-286528390D01*
X385570238Y-286590295D01*
X385817857Y-286590295D01*
X385941666Y-286528390D01*
X386003571Y-286466485D01*
X386065476Y-286342676D01*
X386065476Y-286095057D01*
X386003571Y-285971247D01*
X385941666Y-285909342D01*
X385817857Y-285847438D01*
D10*
D11*
X10000000Y-60000000D02*
X12000000Y-60000000D01*
D10*
D11*
X10000000Y-110000000D02*
X12000000Y-110000000D01*
D10*
D11*
X10000000Y-160000000D02*
X12000000Y-160000000D01*
D10*
D11*
X10000000Y-210000000D02*
X12000000Y-210000000D01*
D10*
D11*
X10000000Y-260000000D02*
X12000000Y-260000000D01*
D10*
D11*
X10690476Y-35216666D02*
X11309523Y-35216666D01*
X10566666Y-35588095D02*
X11000000Y-34288095D01*
X11433333Y-35588095D01*
D10*
D11*
X11092857Y-84907142D02*
X11278571Y-84969047D01*
X11340476Y-85030952D01*
X11402380Y-85154761D01*
X11402380Y-85340476D01*
X11340476Y-85464285D01*
X11278571Y-85526190D01*
X11154761Y-85588095D01*
X10659523Y-85588095D01*
X10659523Y-84288095D01*
X11092857Y-84288095D01*
X11216666Y-84350000D01*
X11278571Y-84411904D01*
X11340476Y-84535714D01*
X11340476Y-84659523D01*
X11278571Y-84783333D01*
X11216666Y-84845238D01*
X11092857Y-84907142D01*
X10659523Y-84907142D01*
D10*
D11*
X11402380Y-135464285D02*
X11340476Y-135526190D01*
X11154761Y-135588095D01*
X11030952Y-135588095D01*
X10845238Y-135526190D01*
X10721428Y-135402380D01*
X10659523Y-135278571D01*
X10597619Y-135030952D01*
X10597619Y-134845238D01*
X10659523Y-134597619D01*
X10721428Y-134473809D01*
X10845238Y-134350000D01*
X11030952Y-134288095D01*
X11154761Y-134288095D01*
X11340476Y-134350000D01*
X11402380Y-134411904D01*
D10*
D11*
X10659523Y-185588095D02*
X10659523Y-184288095D01*
X10969047Y-184288095D01*
X11154761Y-184350000D01*
X11278571Y-184473809D01*
X11340476Y-184597619D01*
X11402380Y-184845238D01*
X11402380Y-185030952D01*
X11340476Y-185278571D01*
X11278571Y-185402380D01*
X11154761Y-185526190D01*
X10969047Y-185588095D01*
X10659523Y-185588095D01*
D10*
D11*
X10721428Y-234907142D02*
X11154761Y-234907142D01*
X11340476Y-235588095D02*
X10721428Y-235588095D01*
X10721428Y-234288095D01*
X11340476Y-234288095D01*
D10*
D11*
X11185714Y-284907142D02*
X10752380Y-284907142D01*
X10752380Y-285588095D02*
X10752380Y-284288095D01*
X11371428Y-284288095D01*
D10*
D11*
X409989000Y-60000000D02*
X407989000Y-60000000D01*
D10*
D11*
X409989000Y-110000000D02*
X407989000Y-110000000D01*
D10*
D11*
X409989000Y-160000000D02*
X407989000Y-160000000D01*
D10*
D11*
X409989000Y-210000000D02*
X407989000Y-210000000D01*
D10*
D11*
X409989000Y-260000000D02*
X407989000Y-260000000D01*
D10*
D11*
X408679476Y-35216666D02*
X409298523Y-35216666D01*
X408555666Y-35588095D02*
X408989000Y-34288095D01*
X409422333Y-35588095D01*
D10*
D11*
X409081857Y-84907142D02*
X409267571Y-84969047D01*
X409329476Y-85030952D01*
X409391380Y-85154761D01*
X409391380Y-85340476D01*
X409329476Y-85464285D01*
X409267571Y-85526190D01*
X409143761Y-85588095D01*
X408648523Y-85588095D01*
X408648523Y-84288095D01*
X409081857Y-84288095D01*
X409205666Y-84350000D01*
X409267571Y-84411904D01*
X409329476Y-84535714D01*
X409329476Y-84659523D01*
X409267571Y-84783333D01*
X409205666Y-84845238D01*
X409081857Y-84907142D01*
X408648523Y-84907142D01*
D10*
D11*
X409391380Y-135464285D02*
X409329476Y-135526190D01*
X409143761Y-135588095D01*
X409019952Y-135588095D01*
X408834238Y-135526190D01*
X408710428Y-135402380D01*
X408648523Y-135278571D01*
X408586619Y-135030952D01*
X408586619Y-134845238D01*
X408648523Y-134597619D01*
X408710428Y-134473809D01*
X408834238Y-134350000D01*
X409019952Y-134288095D01*
X409143761Y-134288095D01*
X409329476Y-134350000D01*
X409391380Y-134411904D01*
D10*
D11*
X408648523Y-185588095D02*
X408648523Y-184288095D01*
X408958047Y-184288095D01*
X409143761Y-184350000D01*
X409267571Y-184473809D01*
X409329476Y-184597619D01*
X409391380Y-184845238D01*
X409391380Y-185030952D01*
X409329476Y-185278571D01*
X409267571Y-185402380D01*
X409143761Y-185526190D01*
X408958047Y-185588095D01*
X408648523Y-185588095D01*
D10*
D11*
X408710428Y-234907142D02*
X409143761Y-234907142D01*
X409329476Y-235588095D02*
X408710428Y-235588095D01*
X408710428Y-234288095D01*
X409329476Y-234288095D01*
D10*
D11*
X409174714Y-284907142D02*
X408741380Y-284907142D01*
X408741380Y-285588095D02*
X408741380Y-284288095D01*
X409360428Y-284288095D01*
D10*
D11*
X323421142Y-280780771D02*
X323421142Y-279280771D01*
X323778285Y-279280771D01*
X323992571Y-279352200D01*
X324135428Y-279495057D01*
X324206857Y-279637914D01*
X324278285Y-279923628D01*
X324278285Y-280137914D01*
X324206857Y-280423628D01*
X324135428Y-280566485D01*
X323992571Y-280709342D01*
X323778285Y-280780771D01*
X323421142Y-280780771D01*
X325564000Y-280780771D02*
X325564000Y-279995057D01*
X325492571Y-279852200D01*
X325349714Y-279780771D01*
X325064000Y-279780771D01*
X324921142Y-279852200D01*
X325564000Y-280709342D02*
X325421142Y-280780771D01*
X325064000Y-280780771D01*
X324921142Y-280709342D01*
X324849714Y-280566485D01*
X324849714Y-280423628D01*
X324921142Y-280280771D01*
X325064000Y-280209342D01*
X325421142Y-280209342D01*
X325564000Y-280137914D01*
X326064000Y-279780771D02*
X326635428Y-279780771D01*
X326278285Y-279280771D02*
X326278285Y-280566485D01*
X326349714Y-280709342D01*
X326492571Y-280780771D01*
X326635428Y-280780771D01*
X327706857Y-280709342D02*
X327564000Y-280780771D01*
X327278285Y-280780771D01*
X327135428Y-280709342D01*
X327064000Y-280566485D01*
X327064000Y-279995057D01*
X327135428Y-279852200D01*
X327278285Y-279780771D01*
X327564000Y-279780771D01*
X327706857Y-279852200D01*
X327778285Y-279995057D01*
X327778285Y-280137914D01*
X327064000Y-280280771D01*
X328421142Y-280637914D02*
X328492571Y-280709342D01*
X328421142Y-280780771D01*
X328349714Y-280709342D01*
X328421142Y-280637914D01*
X328421142Y-280780771D01*
X328421142Y-279852200D02*
X328492571Y-279923628D01*
X328421142Y-279995057D01*
X328349714Y-279923628D01*
X328421142Y-279852200D01*
X328421142Y-279995057D01*
D10*
D11*
X299989000Y-281502200D02*
X407989000Y-281502200D01*
D10*
D11*
X301421142Y-283580771D02*
X301421142Y-282080771D01*
X302278285Y-283580771D02*
X301635428Y-282723628D01*
X302278285Y-282080771D02*
X301421142Y-282937914D01*
X302921142Y-283580771D02*
X302921142Y-282580771D01*
X302921142Y-282080771D02*
X302849714Y-282152200D01*
X302921142Y-282223628D01*
X302992571Y-282152200D01*
X302921142Y-282080771D01*
X302921142Y-282223628D01*
X304492571Y-283437914D02*
X304421142Y-283509342D01*
X304206857Y-283580771D01*
X304064000Y-283580771D01*
X303849714Y-283509342D01*
X303706857Y-283366485D01*
X303635428Y-283223628D01*
X303564000Y-282937914D01*
X303564000Y-282723628D01*
X303635428Y-282437914D01*
X303706857Y-282295057D01*
X303849714Y-282152200D01*
X304064000Y-282080771D01*
X304206857Y-282080771D01*
X304421142Y-282152200D01*
X304492571Y-282223628D01*
X305778285Y-283580771D02*
X305778285Y-282795057D01*
X305706857Y-282652200D01*
X305564000Y-282580771D01*
X305278285Y-282580771D01*
X305135428Y-282652200D01*
X305778285Y-283509342D02*
X305635428Y-283580771D01*
X305278285Y-283580771D01*
X305135428Y-283509342D01*
X305064000Y-283366485D01*
X305064000Y-283223628D01*
X305135428Y-283080771D01*
X305278285Y-283009342D01*
X305635428Y-283009342D01*
X305778285Y-282937914D01*
X307135428Y-283580771D02*
X307135428Y-282080771D01*
X307135428Y-283509342D02*
X306992571Y-283580771D01*
X306706857Y-283580771D01*
X306564000Y-283509342D01*
X306492571Y-283437914D01*
X306421142Y-283295057D01*
X306421142Y-282866485D01*
X306492571Y-282723628D01*
X306564000Y-282652200D01*
X306706857Y-282580771D01*
X306992571Y-282580771D01*
X307135428Y-282652200D01*
X308992571Y-282795057D02*
X309492571Y-282795057D01*
X309706857Y-283580771D02*
X308992571Y-283580771D01*
X308992571Y-282080771D01*
X309706857Y-282080771D01*
X310349714Y-283437914D02*
X310421142Y-283509342D01*
X310349714Y-283580771D01*
X310278285Y-283509342D01*
X310349714Y-283437914D01*
X310349714Y-283580771D01*
X311064000Y-283580771D02*
X311064000Y-282080771D01*
X311421142Y-282080771D01*
X311635428Y-282152200D01*
X311778285Y-282295057D01*
X311849714Y-282437914D01*
X311921142Y-282723628D01*
X311921142Y-282937914D01*
X311849714Y-283223628D01*
X311778285Y-283366485D01*
X311635428Y-283509342D01*
X311421142Y-283580771D01*
X311064000Y-283580771D01*
X312564000Y-283437914D02*
X312635428Y-283509342D01*
X312564000Y-283580771D01*
X312492571Y-283509342D01*
X312564000Y-283437914D01*
X312564000Y-283580771D01*
X313206857Y-283152200D02*
X313921142Y-283152200D01*
X313064000Y-283580771D02*
X313564000Y-282080771D01*
X314064000Y-283580771D01*
X314564000Y-283437914D02*
X314635428Y-283509342D01*
X314564000Y-283580771D01*
X314492571Y-283509342D01*
X314564000Y-283437914D01*
X314564000Y-283580771D01*
X317564000Y-283580771D02*
X317564000Y-282080771D01*
X317706857Y-283009342D02*
X318135428Y-283580771D01*
X318135428Y-282580771D02*
X317564000Y-283152200D01*
X318778285Y-283580771D02*
X318778285Y-282580771D01*
X318778285Y-282080771D02*
X318706857Y-282152200D01*
X318778285Y-282223628D01*
X318849714Y-282152200D01*
X318778285Y-282080771D01*
X318778285Y-282223628D01*
X320135428Y-283509342D02*
X319992571Y-283580771D01*
X319706857Y-283580771D01*
X319564000Y-283509342D01*
X319492571Y-283437914D01*
X319421142Y-283295057D01*
X319421142Y-282866485D01*
X319492571Y-282723628D01*
X319564000Y-282652200D01*
X319706857Y-282580771D01*
X319992571Y-282580771D01*
X320135428Y-282652200D01*
X321421142Y-283580771D02*
X321421142Y-282795057D01*
X321349714Y-282652200D01*
X321206857Y-282580771D01*
X320921142Y-282580771D01*
X320778285Y-282652200D01*
X321421142Y-283509342D02*
X321278285Y-283580771D01*
X320921142Y-283580771D01*
X320778285Y-283509342D01*
X320706857Y-283366485D01*
X320706857Y-283223628D01*
X320778285Y-283080771D01*
X320921142Y-283009342D01*
X321278285Y-283009342D01*
X321421142Y-282937914D01*
X322778285Y-283580771D02*
X322778285Y-282080771D01*
X322778285Y-283509342D02*
X322635428Y-283580771D01*
X322349714Y-283580771D01*
X322206857Y-283509342D01*
X322135428Y-283437914D01*
X322064000Y-283295057D01*
X322064000Y-282866485D01*
X322135428Y-282723628D01*
X322206857Y-282652200D01*
X322349714Y-282580771D01*
X322635428Y-282580771D01*
X322778285Y-282652200D01*
X325064000Y-284152200D02*
X324992571Y-284080771D01*
X324849714Y-283866485D01*
X324778285Y-283723628D01*
X324706857Y-283509342D01*
X324635428Y-283152200D01*
X324635428Y-282866485D01*
X324706857Y-282509342D01*
X324778285Y-282295057D01*
X324849714Y-282152200D01*
X324992571Y-281937914D01*
X325064000Y-281866485D01*
X326349714Y-282080771D02*
X325635428Y-282080771D01*
X325564000Y-282795057D01*
X325635428Y-282723628D01*
X325778285Y-282652200D01*
X326135428Y-282652200D01*
X326278285Y-282723628D01*
X326349714Y-282795057D01*
X326421142Y-282937914D01*
X326421142Y-283295057D01*
X326349714Y-283437914D01*
X326278285Y-283509342D01*
X326135428Y-283580771D01*
X325778285Y-283580771D01*
X325635428Y-283509342D01*
X325564000Y-283437914D01*
X327064000Y-283437914D02*
X327135428Y-283509342D01*
X327064000Y-283580771D01*
X326992571Y-283509342D01*
X327064000Y-283437914D01*
X327064000Y-283580771D01*
X328564000Y-283580771D02*
X327706857Y-283580771D01*
X328135428Y-283580771D02*
X328135428Y-282080771D01*
X327992571Y-282295057D01*
X327849714Y-282437914D01*
X327706857Y-282509342D01*
X329206857Y-283437914D02*
X329278285Y-283509342D01*
X329206857Y-283580771D01*
X329135428Y-283509342D01*
X329206857Y-283437914D01*
X329206857Y-283580771D01*
X329992571Y-283580771D02*
X330278285Y-283580771D01*
X330421142Y-283509342D01*
X330492571Y-283437914D01*
X330635428Y-283223628D01*
X330706857Y-282937914D01*
X330706857Y-282366485D01*
X330635428Y-282223628D01*
X330564000Y-282152200D01*
X330421142Y-282080771D01*
X330135428Y-282080771D01*
X329992571Y-282152200D01*
X329921142Y-282223628D01*
X329849714Y-282366485D01*
X329849714Y-282723628D01*
X329921142Y-282866485D01*
X329992571Y-282937914D01*
X330135428Y-283009342D01*
X330421142Y-283009342D01*
X330564000Y-282937914D01*
X330635428Y-282866485D01*
X330706857Y-282723628D01*
X331206857Y-284152200D02*
X331278285Y-284080771D01*
X331421142Y-283866485D01*
X331492571Y-283723628D01*
X331564000Y-283509342D01*
X331635428Y-283152200D01*
X331635428Y-282866485D01*
X331564000Y-282509342D01*
X331492571Y-282295057D01*
X331421142Y-282152200D01*
X331278285Y-281937914D01*
X331206857Y-281866485D01*
X332349714Y-283009342D02*
X333492571Y-283009342D01*
X334992571Y-283580771D02*
X334135428Y-283580771D01*
X334564000Y-283580771D02*
X334564000Y-282080771D01*
X334421142Y-282295057D01*
X334278285Y-282437914D01*
X334135428Y-282509342D01*
D10*
D11*
X299989000Y-278502200D02*
X407989000Y-278502200D01*
D10*
D12*
X387398285Y-280780771D02*
X386898285Y-280066485D01*
X386541142Y-280780771D02*
X386541142Y-279280771D01*
X387112571Y-279280771D01*
X387255428Y-279352200D01*
X387326857Y-279423628D01*
X387398285Y-279566485D01*
X387398285Y-279780771D01*
X387326857Y-279923628D01*
X387255428Y-279995057D01*
X387112571Y-280066485D01*
X386541142Y-280066485D01*
X388612571Y-280709342D02*
X388469714Y-280780771D01*
X388184000Y-280780771D01*
X388041142Y-280709342D01*
X387969714Y-280566485D01*
X387969714Y-279995057D01*
X388041142Y-279852200D01*
X388184000Y-279780771D01*
X388469714Y-279780771D01*
X388612571Y-279852200D01*
X388684000Y-279995057D01*
X388684000Y-280137914D01*
X387969714Y-280280771D01*
X389184000Y-279780771D02*
X389541142Y-280780771D01*
X389898285Y-279780771D01*
X390469714Y-280637914D02*
X390541142Y-280709342D01*
X390469714Y-280780771D01*
X390398285Y-280709342D01*
X390469714Y-280637914D01*
X390469714Y-280780771D01*
X390469714Y-279852200D02*
X390541142Y-279923628D01*
X390469714Y-279995057D01*
X390398285Y-279923628D01*
X390469714Y-279852200D01*
X390469714Y-279995057D01*
D10*
D11*
X301349714Y-280709342D02*
X301564000Y-280780771D01*
X301921142Y-280780771D01*
X302064000Y-280709342D01*
X302135428Y-280637914D01*
X302206857Y-280495057D01*
X302206857Y-280352200D01*
X302135428Y-280209342D01*
X302064000Y-280137914D01*
X301921142Y-280066485D01*
X301635428Y-279995057D01*
X301492571Y-279923628D01*
X301421142Y-279852200D01*
X301349714Y-279709342D01*
X301349714Y-279566485D01*
X301421142Y-279423628D01*
X301492571Y-279352200D01*
X301635428Y-279280771D01*
X301992571Y-279280771D01*
X302206857Y-279352200D01*
X302849714Y-280780771D02*
X302849714Y-279780771D01*
X302849714Y-279280771D02*
X302778285Y-279352200D01*
X302849714Y-279423628D01*
X302921142Y-279352200D01*
X302849714Y-279280771D01*
X302849714Y-279423628D01*
X303421142Y-279780771D02*
X304206857Y-279780771D01*
X303421142Y-280780771D01*
X304206857Y-280780771D01*
X305349714Y-280709342D02*
X305206857Y-280780771D01*
X304921142Y-280780771D01*
X304778285Y-280709342D01*
X304706857Y-280566485D01*
X304706857Y-279995057D01*
X304778285Y-279852200D01*
X304921142Y-279780771D01*
X305206857Y-279780771D01*
X305349714Y-279852200D01*
X305421142Y-279995057D01*
X305421142Y-280137914D01*
X304706857Y-280280771D01*
X306064000Y-280637914D02*
X306135428Y-280709342D01*
X306064000Y-280780771D01*
X305992571Y-280709342D01*
X306064000Y-280637914D01*
X306064000Y-280780771D01*
X306064000Y-279852200D02*
X306135428Y-279923628D01*
X306064000Y-279995057D01*
X305992571Y-279923628D01*
X306064000Y-279852200D01*
X306064000Y-279995057D01*
X307849714Y-280352200D02*
X308564000Y-280352200D01*
X307706857Y-280780771D02*
X308206857Y-279280771D01*
X308706857Y-280780771D01*
X309064000Y-279280771D02*
X309992571Y-279280771D01*
X309492571Y-279852200D01*
X309706857Y-279852200D01*
X309849714Y-279923628D01*
X309921142Y-279995057D01*
X309992571Y-280137914D01*
X309992571Y-280495057D01*
X309921142Y-280637914D01*
X309849714Y-280709342D01*
X309706857Y-280780771D01*
X309278285Y-280780771D01*
X309135428Y-280709342D01*
X309064000Y-280637914D01*
D10*
D11*
X386421142Y-283580771D02*
X386421142Y-282080771D01*
X387778285Y-283580771D02*
X387778285Y-282080771D01*
X387778285Y-283509342D02*
X387635428Y-283580771D01*
X387349714Y-283580771D01*
X387206857Y-283509342D01*
X387135428Y-283437914D01*
X387064000Y-283295057D01*
X387064000Y-282866485D01*
X387135428Y-282723628D01*
X387206857Y-282652200D01*
X387349714Y-282580771D01*
X387635428Y-282580771D01*
X387778285Y-282652200D01*
X388492571Y-283437914D02*
X388564000Y-283509342D01*
X388492571Y-283580771D01*
X388421142Y-283509342D01*
X388492571Y-283437914D01*
X388492571Y-283580771D01*
X388492571Y-282652200D02*
X388564000Y-282723628D01*
X388492571Y-282795057D01*
X388421142Y-282723628D01*
X388492571Y-282652200D01*
X388492571Y-282795057D01*
X391135428Y-283580771D02*
X390278285Y-283580771D01*
X390706857Y-283580771D02*
X390706857Y-282080771D01*
X390564000Y-282295057D01*
X390421142Y-282437914D01*
X390278285Y-282509342D01*
X392849714Y-282009342D02*
X391564000Y-283937914D01*
X394135428Y-283580771D02*
X393278285Y-283580771D01*
X393706857Y-283580771D02*
X393706857Y-282080771D01*
X393564000Y-282295057D01*
X393421142Y-282437914D01*
X393278285Y-282509342D01*
D10*
D11*
X299989000Y-274502200D02*
X407989000Y-274502200D01*
D10*
D13*
X301701380Y-275206961D02*
X302844238Y-275206961D01*
X302022809Y-277206961D02*
X302272809Y-275206961D01*
X303260904Y-277206961D02*
X303427571Y-275873628D01*
X303510904Y-275206961D02*
X303403761Y-275302200D01*
X303487095Y-275397438D01*
X303594238Y-275302200D01*
X303510904Y-275206961D01*
X303487095Y-275397438D01*
X304094238Y-275873628D02*
X304856142Y-275873628D01*
X304463285Y-275206961D02*
X304249000Y-276921247D01*
X304320428Y-277111723D01*
X304499000Y-277206961D01*
X304689476Y-277206961D01*
X305641857Y-277206961D02*
X305463285Y-277111723D01*
X305391857Y-276921247D01*
X305606142Y-275206961D01*
X307177571Y-277111723D02*
X306975190Y-277206961D01*
X306594238Y-277206961D01*
X306415666Y-277111723D01*
X306344238Y-276921247D01*
X306439476Y-276159342D01*
X306558523Y-275968866D01*
X306760904Y-275873628D01*
X307141857Y-275873628D01*
X307320428Y-275968866D01*
X307391857Y-276159342D01*
X307368047Y-276349819D01*
X306391857Y-276540295D01*
X308141857Y-277016485D02*
X308225190Y-277111723D01*
X308118047Y-277206961D01*
X308034714Y-277111723D01*
X308141857Y-277016485D01*
X308118047Y-277206961D01*
X308272809Y-275968866D02*
X308356142Y-276064104D01*
X308249000Y-276159342D01*
X308165666Y-276064104D01*
X308272809Y-275968866D01*
X308249000Y-276159342D01*
D10*
D11*
X301921142Y-272595057D02*
X301421142Y-272595057D01*
X301421142Y-273380771D02*
X301421142Y-271880771D01*
X302135428Y-271880771D01*
X302706857Y-273380771D02*
X302706857Y-272380771D01*
X302706857Y-271880771D02*
X302635428Y-271952200D01*
X302706857Y-272023628D01*
X302778285Y-271952200D01*
X302706857Y-271880771D01*
X302706857Y-272023628D01*
X303635428Y-273380771D02*
X303492571Y-273309342D01*
X303421142Y-273166485D01*
X303421142Y-271880771D01*
X304778285Y-273309342D02*
X304635428Y-273380771D01*
X304349714Y-273380771D01*
X304206857Y-273309342D01*
X304135428Y-273166485D01*
X304135428Y-272595057D01*
X304206857Y-272452200D01*
X304349714Y-272380771D01*
X304635428Y-272380771D01*
X304778285Y-272452200D01*
X304849714Y-272595057D01*
X304849714Y-272737914D01*
X304135428Y-272880771D01*
X305492571Y-273237914D02*
X305564000Y-273309342D01*
X305492571Y-273380771D01*
X305421142Y-273309342D01*
X305492571Y-273237914D01*
X305492571Y-273380771D01*
X305492571Y-272452200D02*
X305564000Y-272523628D01*
X305492571Y-272595057D01*
X305421142Y-272523628D01*
X305492571Y-272452200D01*
X305492571Y-272595057D01*
X307849714Y-272595057D02*
X307349714Y-272595057D01*
X307349714Y-273380771D02*
X307349714Y-271880771D01*
X308064000Y-271880771D01*
X308635428Y-273380771D02*
X308635428Y-271880771D01*
X309206857Y-271880771D01*
X309349714Y-271952200D01*
X309421142Y-272023628D01*
X309492571Y-272166485D01*
X309492571Y-272380771D01*
X309421142Y-272523628D01*
X309349714Y-272595057D01*
X309206857Y-272666485D01*
X308635428Y-272666485D01*
X310921142Y-271952200D02*
X310778285Y-271880771D01*
X310564000Y-271880771D01*
X310349714Y-271952200D01*
X310206857Y-272095057D01*
X310135428Y-272237914D01*
X310064000Y-272523628D01*
X310064000Y-272737914D01*
X310135428Y-273023628D01*
X310206857Y-273166485D01*
X310349714Y-273309342D01*
X310564000Y-273380771D01*
X310706857Y-273380771D01*
X310921142Y-273309342D01*
X310992571Y-273237914D01*
X310992571Y-272737914D01*
X310706857Y-272737914D01*
X311564000Y-272952200D02*
X312278285Y-272952200D01*
X311421142Y-273380771D02*
X311921142Y-271880771D01*
X312421142Y-273380771D01*
X312849714Y-273309342D02*
X312992571Y-273380771D01*
X313278285Y-273380771D01*
X313421142Y-273309342D01*
X313492571Y-273166485D01*
X313492571Y-273095057D01*
X313421142Y-272952200D01*
X313278285Y-272880771D01*
X313064000Y-272880771D01*
X312921142Y-272809342D01*
X312849714Y-272666485D01*
X312849714Y-272595057D01*
X312921142Y-272452200D01*
X313064000Y-272380771D01*
X313278285Y-272380771D01*
X313421142Y-272452200D01*
X314135428Y-272809342D02*
X315278285Y-272809342D01*
X315921142Y-272952200D02*
X316635428Y-272952200D01*
X315778285Y-273380771D02*
X316278285Y-271880771D01*
X316778285Y-273380771D01*
X317278285Y-273380771D02*
X317278285Y-272380771D01*
X317278285Y-272666485D02*
X317349714Y-272523628D01*
X317421142Y-272452200D01*
X317564000Y-272380771D01*
X317706857Y-272380771D01*
X318849714Y-273380771D02*
X318849714Y-271880771D01*
X318849714Y-273309342D02*
X318706857Y-273380771D01*
X318421142Y-273380771D01*
X318278285Y-273309342D01*
X318206857Y-273237914D01*
X318135428Y-273095057D01*
X318135428Y-272666485D01*
X318206857Y-272523628D01*
X318278285Y-272452200D01*
X318421142Y-272380771D01*
X318706857Y-272380771D01*
X318849714Y-272452200D01*
X319206857Y-273523628D02*
X320349714Y-273523628D01*
X321564000Y-273380771D02*
X321064000Y-272666485D01*
X320706857Y-273380771D02*
X320706857Y-271880771D01*
X321278285Y-271880771D01*
X321421142Y-271952200D01*
X321492571Y-272023628D01*
X321564000Y-272166485D01*
X321564000Y-272380771D01*
X321492571Y-272523628D01*
X321421142Y-272595057D01*
X321278285Y-272666485D01*
X320706857Y-272666485D01*
X322206857Y-273380771D02*
X322206857Y-271880771D01*
X322778285Y-271880771D01*
X322921142Y-271952200D01*
X322992571Y-272023628D01*
X323064000Y-272166485D01*
X323064000Y-272380771D01*
X322992571Y-272523628D01*
X322921142Y-272595057D01*
X322778285Y-272666485D01*
X322206857Y-272666485D01*
X323706857Y-273380771D02*
X323706857Y-272380771D01*
X323706857Y-271880771D02*
X323635428Y-271952200D01*
X323706857Y-272023628D01*
X323778285Y-271952200D01*
X323706857Y-271880771D01*
X323706857Y-272023628D01*
X324064000Y-273523628D02*
X325206857Y-273523628D01*
X326064000Y-272595057D02*
X326278285Y-272666485D01*
X326349714Y-272737914D01*
X326421142Y-272880771D01*
X326421142Y-273095057D01*
X326349714Y-273237914D01*
X326278285Y-273309342D01*
X326135428Y-273380771D01*
X325564000Y-273380771D01*
X325564000Y-271880771D01*
X326064000Y-271880771D01*
X326206857Y-271952200D01*
X326278285Y-272023628D01*
X326349714Y-272166485D01*
X326349714Y-272309342D01*
X326278285Y-272452200D01*
X326206857Y-272523628D01*
X326064000Y-272595057D01*
X325564000Y-272595057D01*
X327564000Y-272595057D02*
X327778285Y-272666485D01*
X327849714Y-272737914D01*
X327921142Y-272880771D01*
X327921142Y-273095057D01*
X327849714Y-273237914D01*
X327778285Y-273309342D01*
X327635428Y-273380771D01*
X327064000Y-273380771D01*
X327064000Y-271880771D01*
X327564000Y-271880771D01*
X327706857Y-271952200D01*
X327778285Y-272023628D01*
X327849714Y-272166485D01*
X327849714Y-272309342D01*
X327778285Y-272452200D01*
X327706857Y-272523628D01*
X327564000Y-272595057D01*
X327064000Y-272595057D01*
X328564000Y-273237914D02*
X328635428Y-273309342D01*
X328564000Y-273380771D01*
X328492571Y-273309342D01*
X328564000Y-273237914D01*
X328564000Y-273380771D01*
X329278285Y-273380771D02*
X329278285Y-271880771D01*
X329421142Y-272809342D02*
X329849714Y-273380771D01*
X329849714Y-272380771D02*
X329278285Y-272952200D01*
X330492571Y-273380771D02*
X330492571Y-272380771D01*
X330492571Y-271880771D02*
X330421142Y-271952200D01*
X330492571Y-272023628D01*
X330564000Y-271952200D01*
X330492571Y-271880771D01*
X330492571Y-272023628D01*
X331849714Y-273309342D02*
X331706857Y-273380771D01*
X331421142Y-273380771D01*
X331278285Y-273309342D01*
X331206857Y-273237914D01*
X331135428Y-273095057D01*
X331135428Y-272666485D01*
X331206857Y-272523628D01*
X331278285Y-272452200D01*
X331421142Y-272380771D01*
X331706857Y-272380771D01*
X331849714Y-272452200D01*
X333135428Y-273380771D02*
X333135428Y-272595057D01*
X333064000Y-272452200D01*
X332921142Y-272380771D01*
X332635428Y-272380771D01*
X332492571Y-272452200D01*
X333135428Y-273309342D02*
X332992571Y-273380771D01*
X332635428Y-273380771D01*
X332492571Y-273309342D01*
X332421142Y-273166485D01*
X332421142Y-273023628D01*
X332492571Y-272880771D01*
X332635428Y-272809342D01*
X332992571Y-272809342D01*
X333135428Y-272737914D01*
X334492571Y-273380771D02*
X334492571Y-271880771D01*
X334492571Y-273309342D02*
X334349714Y-273380771D01*
X334064000Y-273380771D01*
X333921142Y-273309342D01*
X333849714Y-273237914D01*
X333778285Y-273095057D01*
X333778285Y-272666485D01*
X333849714Y-272523628D01*
X333921142Y-272452200D01*
X334064000Y-272380771D01*
X334349714Y-272380771D01*
X334492571Y-272452200D01*
X334849714Y-273523628D02*
X335992571Y-273523628D01*
X336349714Y-272380771D02*
X336349714Y-273880771D01*
X336349714Y-272452200D02*
X336492571Y-272380771D01*
X336778285Y-272380771D01*
X336921142Y-272452200D01*
X336992571Y-272523628D01*
X337064000Y-272666485D01*
X337064000Y-273095057D01*
X336992571Y-273237914D01*
X336921142Y-273309342D01*
X336778285Y-273380771D01*
X336492571Y-273380771D01*
X336349714Y-273309342D01*
X338349714Y-273309342D02*
X338206857Y-273380771D01*
X337921142Y-273380771D01*
X337778285Y-273309342D01*
X337706857Y-273237914D01*
X337635428Y-273095057D01*
X337635428Y-272666485D01*
X337706857Y-272523628D01*
X337778285Y-272452200D01*
X337921142Y-272380771D01*
X338206857Y-272380771D01*
X338349714Y-272452200D01*
X338992571Y-273380771D02*
X338992571Y-271880771D01*
X338992571Y-272452200D02*
X339135428Y-272380771D01*
X339421142Y-272380771D01*
X339564000Y-272452200D01*
X339635428Y-272523628D01*
X339706857Y-272666485D01*
X339706857Y-273095057D01*
X339635428Y-273237914D01*
X339564000Y-273309342D01*
X339421142Y-273380771D01*
X339135428Y-273380771D01*
X338992571Y-273309342D01*
D10*
D11*
X299989000Y-268502200D02*
X407989000Y-268502200D01*
D10*
D11*
X301349714Y-270609342D02*
X301564000Y-270680771D01*
X301921142Y-270680771D01*
X302064000Y-270609342D01*
X302135428Y-270537914D01*
X302206857Y-270395057D01*
X302206857Y-270252200D01*
X302135428Y-270109342D01*
X302064000Y-270037914D01*
X301921142Y-269966485D01*
X301635428Y-269895057D01*
X301492571Y-269823628D01*
X301421142Y-269752200D01*
X301349714Y-269609342D01*
X301349714Y-269466485D01*
X301421142Y-269323628D01*
X301492571Y-269252200D01*
X301635428Y-269180771D01*
X301992571Y-269180771D01*
X302206857Y-269252200D01*
X302849714Y-270680771D02*
X302849714Y-269180771D01*
X303492571Y-270680771D02*
X303492571Y-269895057D01*
X303421142Y-269752200D01*
X303278285Y-269680771D01*
X303064000Y-269680771D01*
X302921142Y-269752200D01*
X302849714Y-269823628D01*
X304778285Y-270609342D02*
X304635428Y-270680771D01*
X304349714Y-270680771D01*
X304206857Y-270609342D01*
X304135428Y-270466485D01*
X304135428Y-269895057D01*
X304206857Y-269752200D01*
X304349714Y-269680771D01*
X304635428Y-269680771D01*
X304778285Y-269752200D01*
X304849714Y-269895057D01*
X304849714Y-270037914D01*
X304135428Y-270180771D01*
X306064000Y-270609342D02*
X305921142Y-270680771D01*
X305635428Y-270680771D01*
X305492571Y-270609342D01*
X305421142Y-270466485D01*
X305421142Y-269895057D01*
X305492571Y-269752200D01*
X305635428Y-269680771D01*
X305921142Y-269680771D01*
X306064000Y-269752200D01*
X306135428Y-269895057D01*
X306135428Y-270037914D01*
X305421142Y-270180771D01*
X306564000Y-269680771D02*
X307135428Y-269680771D01*
X306778285Y-269180771D02*
X306778285Y-270466485D01*
X306849714Y-270609342D01*
X306992571Y-270680771D01*
X307135428Y-270680771D01*
X307635428Y-270537914D02*
X307706857Y-270609342D01*
X307635428Y-270680771D01*
X307564000Y-270609342D01*
X307635428Y-270537914D01*
X307635428Y-270680771D01*
X307635428Y-269752200D02*
X307706857Y-269823628D01*
X307635428Y-269895057D01*
X307564000Y-269823628D01*
X307635428Y-269752200D01*
X307635428Y-269895057D01*
D10*
D11*
X319989000Y-278502200D02*
X319989000Y-281502200D01*
D10*
D11*
X383989000Y-278502200D02*
X383989000Y-285002200D01*
D10*
%TO.C,Lr_RPi_4B_Hdr1*%
X245059200Y-30861000D02*
X245059200Y-30861000D01*
X245059200Y-30861000D02*
X245059200Y-30861000D01*
X245059200Y-30861000D02*
X245059200Y-30861000D01*
X245059200Y-30861000D02*
X245059200Y-30861000D01*
X294589200Y-32066000D02*
X294589200Y-27116000D01*
X243789200Y-32066000D02*
X294589200Y-32066000D01*
X243789200Y-27116000D02*
X243789200Y-32066000D01*
X294589200Y-27116000D02*
X243789200Y-27116000D01*
D14*
%TO.C,PQG208-J1*%
X324354500Y-187066600D02*
X322964500Y-187066600D01*
X324354500Y-213186600D02*
X322964500Y-213186600D01*
X324354500Y-187066600D02*
X325349500Y-187066600D01*
X324354500Y-187066600D02*
X324354500Y-187066600D01*
X322964500Y-213186600D02*
X322964500Y-213186600D01*
X322964500Y-187066600D02*
X322964500Y-188066600D01*
X322964500Y-189186600D02*
X322964500Y-190066600D01*
X322964500Y-191186600D02*
X322964500Y-192066600D01*
X322964500Y-193186600D02*
X322964500Y-194066600D01*
X322964500Y-195186600D02*
X322964500Y-196066600D01*
X322964500Y-197186600D02*
X322964500Y-198066600D01*
X322964500Y-199186600D02*
X322964500Y-200066600D01*
X322964500Y-201186600D02*
X322964500Y-202066600D01*
X322964500Y-203186600D02*
X322964500Y-204066600D01*
X322964500Y-205186600D02*
X322964500Y-206066600D01*
X322964500Y-207186600D02*
X322964500Y-208066600D01*
X322964500Y-209186600D02*
X322964500Y-210066600D01*
X322964500Y-211186600D02*
X322964500Y-212066600D01*
X324354500Y-188186600D02*
X324354500Y-189066600D01*
X324354500Y-190186600D02*
X324354500Y-191066600D01*
X324354500Y-192186600D02*
X324354500Y-193066600D01*
X324354500Y-194186600D02*
X324354500Y-195066600D01*
X324354500Y-196186600D02*
X324354500Y-197066600D01*
X324354500Y-198186600D02*
X324354500Y-199066600D01*
X324354500Y-200186600D02*
X324354500Y-201066600D01*
X324354500Y-202186600D02*
X324354500Y-203066600D01*
X324354500Y-204186600D02*
X324354500Y-205066600D01*
X324354500Y-206186600D02*
X324354500Y-207066600D01*
X324354500Y-208186600D02*
X324354500Y-209066600D01*
X324354500Y-210186600D02*
X324354500Y-211066600D01*
X324354500Y-212186600D02*
X324354500Y-213186600D01*
%TO.C,PQG208-J2*%
X325268000Y-213782600D02*
X325268000Y-215172600D01*
X351388000Y-213782600D02*
X351388000Y-215172600D01*
X325268000Y-213782600D02*
X325268000Y-212787600D01*
X325268000Y-213782600D02*
X325268000Y-213782600D01*
X351388000Y-215172600D02*
X351388000Y-215172600D01*
X325268000Y-215172600D02*
X326268000Y-215172600D01*
X327388000Y-215172600D02*
X328268000Y-215172600D01*
X329388000Y-215172600D02*
X330268000Y-215172600D01*
X331388000Y-215172600D02*
X332268000Y-215172600D01*
X333388000Y-215172600D02*
X334268000Y-215172600D01*
X335388000Y-215172600D02*
X336268000Y-215172600D01*
X337388000Y-215172600D02*
X338268000Y-215172600D01*
X339388000Y-215172600D02*
X340268000Y-215172600D01*
X341388000Y-215172600D02*
X342268000Y-215172600D01*
X343388000Y-215172600D02*
X344268000Y-215172600D01*
X345388000Y-215172600D02*
X346268000Y-215172600D01*
X347388000Y-215172600D02*
X348268000Y-215172600D01*
X349388000Y-215172600D02*
X350268000Y-215172600D01*
X326388000Y-213782600D02*
X327268000Y-213782600D01*
X328388000Y-213782600D02*
X329268000Y-213782600D01*
X330388000Y-213782600D02*
X331268000Y-213782600D01*
X332388000Y-213782600D02*
X333268000Y-213782600D01*
X334388000Y-213782600D02*
X335268000Y-213782600D01*
X336388000Y-213782600D02*
X337268000Y-213782600D01*
X338388000Y-213782600D02*
X339268000Y-213782600D01*
X340388000Y-213782600D02*
X341268000Y-213782600D01*
X342388000Y-213782600D02*
X343268000Y-213782600D01*
X344388000Y-213782600D02*
X345268000Y-213782600D01*
X346388000Y-213782600D02*
X347268000Y-213782600D01*
X348388000Y-213782600D02*
X349268000Y-213782600D01*
X350388000Y-213782600D02*
X351388000Y-213782600D01*
%TO.C,PQG208-J3*%
X352569500Y-213241100D02*
X353959500Y-213241100D01*
X352569500Y-187121100D02*
X353959500Y-187121100D01*
X352569500Y-213241100D02*
X351574500Y-213241100D01*
X352569500Y-213241100D02*
X352569500Y-213241100D01*
X353959500Y-187121100D02*
X353959500Y-187121100D01*
X353959500Y-213241100D02*
X353959500Y-212241100D01*
X353959500Y-211121100D02*
X353959500Y-210241100D01*
X353959500Y-209121100D02*
X353959500Y-208241100D01*
X353959500Y-207121100D02*
X353959500Y-206241100D01*
X353959500Y-205121100D02*
X353959500Y-204241100D01*
X353959500Y-203121100D02*
X353959500Y-202241100D01*
X353959500Y-201121100D02*
X353959500Y-200241100D01*
X353959500Y-199121100D02*
X353959500Y-198241100D01*
X353959500Y-197121100D02*
X353959500Y-196241100D01*
X353959500Y-195121100D02*
X353959500Y-194241100D01*
X353959500Y-193121100D02*
X353959500Y-192241100D01*
X353959500Y-191121100D02*
X353959500Y-190241100D01*
X353959500Y-189121100D02*
X353959500Y-188241100D01*
X352569500Y-212121100D02*
X352569500Y-211241100D01*
X352569500Y-210121100D02*
X352569500Y-209241100D01*
X352569500Y-208121100D02*
X352569500Y-207241100D01*
X352569500Y-206121100D02*
X352569500Y-205241100D01*
X352569500Y-204121100D02*
X352569500Y-203241100D01*
X352569500Y-202121100D02*
X352569500Y-201241100D01*
X352569500Y-200121100D02*
X352569500Y-199241100D01*
X352569500Y-198121100D02*
X352569500Y-197241100D01*
X352569500Y-196121100D02*
X352569500Y-195241100D01*
X352569500Y-194121100D02*
X352569500Y-193241100D01*
X352569500Y-192121100D02*
X352569500Y-191241100D01*
X352569500Y-190121100D02*
X352569500Y-189241100D01*
X352569500Y-188121100D02*
X352569500Y-187121100D01*
%TO.C,PQG208-J4*%
X352086500Y-186851600D02*
X352086500Y-185461600D01*
X325966500Y-186851600D02*
X325966500Y-185461600D01*
X352086500Y-186851600D02*
X352086500Y-187846600D01*
X352086500Y-186851600D02*
X352086500Y-186851600D01*
X325966500Y-185461600D02*
X325966500Y-185461600D01*
X352086500Y-185461600D02*
X351086500Y-185461600D01*
X349966500Y-185461600D02*
X349086500Y-185461600D01*
X347966500Y-185461600D02*
X347086500Y-185461600D01*
X345966500Y-185461600D02*
X345086500Y-185461600D01*
X343966500Y-185461600D02*
X343086500Y-185461600D01*
X341966500Y-185461600D02*
X341086500Y-185461600D01*
X339966500Y-185461600D02*
X339086500Y-185461600D01*
X337966500Y-185461600D02*
X337086500Y-185461600D01*
X335966500Y-185461600D02*
X335086500Y-185461600D01*
X333966500Y-185461600D02*
X333086500Y-185461600D01*
X331966500Y-185461600D02*
X331086500Y-185461600D01*
X329966500Y-185461600D02*
X329086500Y-185461600D01*
X327966500Y-185461600D02*
X327086500Y-185461600D01*
X350966500Y-186851600D02*
X350086500Y-186851600D01*
X348966500Y-186851600D02*
X348086500Y-186851600D01*
X346966500Y-186851600D02*
X346086500Y-186851600D01*
X344966500Y-186851600D02*
X344086500Y-186851600D01*
X342966500Y-186851600D02*
X342086500Y-186851600D01*
X340966500Y-186851600D02*
X340086500Y-186851600D01*
X338966500Y-186851600D02*
X338086500Y-186851600D01*
X336966500Y-186851600D02*
X336086500Y-186851600D01*
X334966500Y-186851600D02*
X334086500Y-186851600D01*
X332966500Y-186851600D02*
X332086500Y-186851600D01*
X330966500Y-186851600D02*
X330086500Y-186851600D01*
X328966500Y-186851600D02*
X328086500Y-186851600D01*
X326966500Y-186851600D02*
X325966500Y-186851600D01*
%TO.C,Xx_BGA-8x8*%
X239291840Y-121995880D02*
X239291840Y-121295880D01*
X239291840Y-121295880D02*
X239991840Y-121295880D01*
X239328840Y-129714880D02*
X239328840Y-121967880D01*
X240217840Y-121205880D02*
X247837840Y-121332880D01*
X247837840Y-121332880D02*
X247837840Y-129714880D01*
X247837840Y-129714880D02*
X239455840Y-129714880D01*
%TO.C,PGQ256_BGA-8x8*%
X127948520Y-45361920D02*
X127948520Y-44661920D01*
X127948520Y-44661920D02*
X128648520Y-44661920D01*
X127985520Y-53080920D02*
X127985520Y-45333920D01*
X128874520Y-44571920D02*
X136494520Y-44698920D01*
X136494520Y-44698920D02*
X136494520Y-53080920D01*
X136494520Y-53080920D02*
X128112520Y-53080920D01*
%TO.C,SOIC-28W1*%
X225552000Y-237431400D02*
X221692000Y-237431400D01*
X221692000Y-237431400D02*
X221692000Y-237186400D01*
X225552000Y-237431400D02*
X229412000Y-237431400D01*
X229412000Y-237431400D02*
X229412000Y-237186400D01*
X225552000Y-219311400D02*
X221692000Y-219311400D01*
X221692000Y-219311400D02*
X221692000Y-219556400D01*
X225552000Y-219311400D02*
X229412000Y-219311400D01*
X229412000Y-219311400D02*
X229412000Y-219556400D01*
X229412000Y-219556400D02*
X231227000Y-219556400D01*
D11*
%TO.C,SSOP-28*%
X228960400Y-172398800D02*
X228960400Y-172973800D01*
X223210400Y-172398800D02*
X223210400Y-173048800D01*
X223210400Y-183048800D02*
X223210400Y-182398800D01*
X228960400Y-183048800D02*
X228960400Y-182398800D01*
X228960400Y-172398800D02*
X223210400Y-172398800D01*
X228960400Y-183048800D02*
X223210400Y-183048800D01*
X228960400Y-172973800D02*
X230560400Y-172973800D01*
D15*
%TO.C,SEN_RPi_Pico_SC915*%
X23543400Y-117414400D02*
X23293400Y-117414400D01*
X74293400Y-117414400D02*
X74043400Y-117414400D01*
X23293400Y-138414400D02*
X23543400Y-138414400D01*
X74293400Y-138414400D02*
X74043400Y-138414400D01*
X74293400Y-124254400D02*
X74293400Y-117414400D01*
X74293400Y-138414400D02*
X74293400Y-131574400D01*
X23293400Y-117414400D02*
X23293400Y-123914400D01*
X23293400Y-123914400D02*
X21993400Y-123914400D01*
X21993400Y-123914400D02*
X21993400Y-131914400D01*
X21993400Y-131914400D02*
X23293400Y-131914400D01*
X23293400Y-131914400D02*
X23293400Y-138414400D01*
D16*
X24763400Y-115724400D02*
G75*
G03*
X24763400Y-115724400I-100000J0D01*
G01*
D15*
%TO.C,LED_RPi_Pico_SC1*%
X39901000Y-189601200D02*
X39651000Y-189601200D01*
X90651000Y-189601200D02*
X90401000Y-189601200D01*
X39651000Y-210601200D02*
X39901000Y-210601200D01*
X90651000Y-210601200D02*
X90401000Y-210601200D01*
X90651000Y-196441200D02*
X90651000Y-189601200D01*
X90651000Y-210601200D02*
X90651000Y-203761200D01*
X39651000Y-189601200D02*
X39651000Y-196101200D01*
X39651000Y-196101200D02*
X38351000Y-196101200D01*
X38351000Y-196101200D02*
X38351000Y-204101200D01*
X38351000Y-204101200D02*
X39651000Y-204101200D01*
X39651000Y-204101200D02*
X39651000Y-210601200D01*
D16*
X41121000Y-187911200D02*
G75*
G03*
X41121000Y-187911200I-100000J0D01*
G01*
D15*
%TO.C,SMD_RPi_Pico_SC1*%
X23365600Y-37023400D02*
X23115600Y-37023400D01*
X74115600Y-37023400D02*
X73865600Y-37023400D01*
X23115600Y-58023400D02*
X23365600Y-58023400D01*
X74115600Y-58023400D02*
X73865600Y-58023400D01*
X74115600Y-43863400D02*
X74115600Y-37023400D01*
X74115600Y-58023400D02*
X74115600Y-51183400D01*
X23115600Y-37023400D02*
X23115600Y-43523400D01*
X23115600Y-43523400D02*
X21815600Y-43523400D01*
X21815600Y-43523400D02*
X21815600Y-51523400D01*
X21815600Y-51523400D02*
X23115600Y-51523400D01*
X23115600Y-51523400D02*
X23115600Y-58023400D01*
D16*
X24585600Y-35333400D02*
G75*
G03*
X24585600Y-35333400I-100000J0D01*
G01*
D14*
%TO.C,LED_RPi_R1*%
X85450142Y-197956700D02*
X85924658Y-197956700D01*
X85450142Y-196911700D02*
X85924658Y-196911700D01*
%TO.C,LED_RPi_R2*%
X84338900Y-202192658D02*
X84338900Y-201718142D01*
X85383900Y-202192658D02*
X85383900Y-201718142D01*
%TO.C,PQG256*%
D11*
X151511023Y-44615980D02*
X150939595Y-44615980D01*
X151225309Y-44615980D02*
X151225309Y-43615980D01*
X151130071Y-43758838D01*
X151034833Y-43854076D01*
X150939595Y-43901695D01*
X152368166Y-43615980D02*
X152177690Y-43615980D01*
X152082452Y-43663600D01*
X152034833Y-43711219D01*
X151939595Y-43854076D01*
X151891976Y-44044552D01*
X151891976Y-44425504D01*
X151939595Y-44520742D01*
X151987214Y-44568361D01*
X152082452Y-44615980D01*
X152272928Y-44615980D01*
X152368166Y-44568361D01*
X152415785Y-44520742D01*
X152463404Y-44425504D01*
X152463404Y-44187409D01*
X152415785Y-44092171D01*
X152368166Y-44044552D01*
X152272928Y-43996933D01*
X152082452Y-43996933D01*
X151987214Y-44044552D01*
X151939595Y-44092171D01*
X151891976Y-44187409D01*
X151987214Y-59615981D02*
X151415785Y-59615981D01*
X151701500Y-59615981D02*
X151701500Y-58615981D01*
X151606261Y-58758839D01*
X151511023Y-58854077D01*
X151415785Y-58901696D01*
X167785165Y-61080614D02*
X167785165Y-60509185D01*
X168785165Y-60794900D02*
X167785165Y-60794900D01*
X153499481Y-61032995D02*
X153499481Y-60556804D01*
X153785195Y-61128233D02*
X152785195Y-60794900D01*
X153785195Y-60461566D01*
%TO.C,Lr_RPi_4B_Hdr1*%
D17*
X242365296Y-29414237D02*
X242365296Y-29295189D01*
X242115296Y-29295189D01*
X242365296Y-29497570D02*
X242198629Y-29497570D01*
X242246248Y-29497570D02*
X242222439Y-29509475D01*
X242210534Y-29521379D01*
X242198629Y-29545189D01*
X242198629Y-29568999D01*
X242389105Y-29592808D02*
X242389105Y-29783284D01*
X242365296Y-29985665D02*
X242246248Y-29902332D01*
X242365296Y-29842808D02*
X242115296Y-29842808D01*
X242115296Y-29938046D01*
X242127201Y-29961856D01*
X242139105Y-29973760D01*
X242162915Y-29985665D01*
X242198629Y-29985665D01*
X242222439Y-29973760D01*
X242234343Y-29961856D01*
X242246248Y-29938046D01*
X242246248Y-29842808D01*
X242365296Y-30092808D02*
X242115296Y-30092808D01*
X242115296Y-30188046D01*
X242127201Y-30211856D01*
X242139105Y-30223760D01*
X242162915Y-30235665D01*
X242198629Y-30235665D01*
X242222439Y-30223760D01*
X242234343Y-30211856D01*
X242246248Y-30188046D01*
X242246248Y-30092808D01*
X242365296Y-30342808D02*
X242198629Y-30342808D01*
X242115296Y-30342808D02*
X242127201Y-30330903D01*
X242139105Y-30342808D01*
X242127201Y-30354713D01*
X242115296Y-30342808D01*
X242139105Y-30342808D01*
X242389105Y-30402332D02*
X242389105Y-30592808D01*
X242198629Y-30759475D02*
X242365296Y-30759475D01*
X242103391Y-30699951D02*
X242281962Y-30640427D01*
X242281962Y-30795189D01*
X242234343Y-30973760D02*
X242246248Y-31009475D01*
X242258153Y-31021379D01*
X242281962Y-31033284D01*
X242317677Y-31033284D01*
X242341486Y-31021379D01*
X242353391Y-31009475D01*
X242365296Y-30985665D01*
X242365296Y-30890427D01*
X242115296Y-30890427D01*
X242115296Y-30973760D01*
X242127201Y-30997570D01*
X242139105Y-31009475D01*
X242162915Y-31021379D01*
X242186724Y-31021379D01*
X242210534Y-31009475D01*
X242222439Y-30997570D01*
X242234343Y-30973760D01*
X242234343Y-30890427D01*
X242389105Y-31080903D02*
X242389105Y-31271379D01*
X242365296Y-31330903D02*
X242115296Y-31330903D01*
X242234343Y-31330903D02*
X242234343Y-31473760D01*
X242365296Y-31473760D02*
X242115296Y-31473760D01*
X242365296Y-31699951D02*
X242115296Y-31699951D01*
X242353391Y-31699951D02*
X242365296Y-31676141D01*
X242365296Y-31628522D01*
X242353391Y-31604713D01*
X242341486Y-31592808D01*
X242317677Y-31580903D01*
X242246248Y-31580903D01*
X242222439Y-31592808D01*
X242210534Y-31604713D01*
X242198629Y-31628522D01*
X242198629Y-31676141D01*
X242210534Y-31699951D01*
X242365296Y-31818999D02*
X242198629Y-31818999D01*
X242246248Y-31818999D02*
X242222439Y-31830903D01*
X242210534Y-31842808D01*
X242198629Y-31866618D01*
X242198629Y-31890427D01*
X242365296Y-32104713D02*
X242365296Y-31961856D01*
X242365296Y-32033284D02*
X242115296Y-32033284D01*
X242151010Y-32009475D01*
X242174820Y-31985665D01*
X242186724Y-31961856D01*
%TO.C,MS_TR1*%
X335726404Y-205764195D02*
X335726404Y-205514195D01*
X335643071Y-205692766D01*
X335559738Y-205514195D01*
X335559738Y-205764195D01*
X335452595Y-205752290D02*
X335416880Y-205764195D01*
X335357357Y-205764195D01*
X335333547Y-205752290D01*
X335321642Y-205740385D01*
X335309738Y-205716576D01*
X335309738Y-205692766D01*
X335321642Y-205668957D01*
X335333547Y-205657052D01*
X335357357Y-205645147D01*
X335404976Y-205633242D01*
X335428785Y-205621338D01*
X335440690Y-205609433D01*
X335452595Y-205585623D01*
X335452595Y-205561814D01*
X335440690Y-205538004D01*
X335428785Y-205526100D01*
X335404976Y-205514195D01*
X335345452Y-205514195D01*
X335309738Y-205526100D01*
X335262119Y-205788004D02*
X335071642Y-205788004D01*
X335047833Y-205514195D02*
X334904976Y-205514195D01*
X334976404Y-205764195D02*
X334976404Y-205514195D01*
X334678785Y-205764195D02*
X334762119Y-205645147D01*
X334821642Y-205764195D02*
X334821642Y-205514195D01*
X334726404Y-205514195D01*
X334702595Y-205526100D01*
X334690690Y-205538004D01*
X334678785Y-205561814D01*
X334678785Y-205597528D01*
X334690690Y-205621338D01*
X334702595Y-205633242D01*
X334726404Y-205645147D01*
X334821642Y-205645147D01*
X334440690Y-205764195D02*
X334583547Y-205764195D01*
X334512119Y-205764195D02*
X334512119Y-205514195D01*
X334535928Y-205549909D01*
X334559738Y-205573719D01*
X334583547Y-205585623D01*
%TO.C,Lr_U1*%
D11*
X269057380Y-47942523D02*
X269057380Y-48133000D01*
X269105000Y-48228238D01*
X269152619Y-48275857D01*
X269295476Y-48371095D01*
X269485952Y-48418714D01*
X269866904Y-48418714D01*
X269962142Y-48371095D01*
X270009761Y-48323476D01*
X270057380Y-48228238D01*
X270057380Y-48037761D01*
X270009761Y-47942523D01*
X269962142Y-47894904D01*
X269866904Y-47847285D01*
X269628809Y-47847285D01*
X269533571Y-47894904D01*
X269485952Y-47942523D01*
X269438333Y-48037761D01*
X269438333Y-48228238D01*
X269485952Y-48323476D01*
X269533571Y-48371095D01*
X269628809Y-48418714D01*
X268057380Y-47847285D02*
X268057380Y-48418714D01*
X268057380Y-48133000D02*
X267057380Y-48133000D01*
X267200238Y-48228238D01*
X267295476Y-48323476D01*
X267343095Y-48418714D01*
X266868257Y-50941171D02*
X266534923Y-50941171D01*
X266534923Y-51464980D02*
X266534923Y-50464980D01*
X267011114Y-50464980D01*
X266487304Y-49179266D02*
X266963495Y-49179266D01*
X266392066Y-49464980D02*
X266725400Y-48464980D01*
X267058733Y-49464980D01*
%TO.C,PQG208-J1*%
D17*
X324707119Y-186179695D02*
X324707119Y-185929695D01*
X324611880Y-185929695D01*
X324588071Y-185941600D01*
X324576166Y-185953504D01*
X324564261Y-185977314D01*
X324564261Y-186013028D01*
X324576166Y-186036838D01*
X324588071Y-186048742D01*
X324611880Y-186060647D01*
X324707119Y-186060647D01*
X324290452Y-186203504D02*
X324314261Y-186191600D01*
X324338071Y-186167790D01*
X324373785Y-186132076D01*
X324397595Y-186120171D01*
X324421404Y-186120171D01*
X324409500Y-186179695D02*
X324433309Y-186167790D01*
X324457119Y-186143980D01*
X324469023Y-186096361D01*
X324469023Y-186013028D01*
X324457119Y-185965409D01*
X324433309Y-185941600D01*
X324409500Y-185929695D01*
X324361880Y-185929695D01*
X324338071Y-185941600D01*
X324314261Y-185965409D01*
X324302357Y-186013028D01*
X324302357Y-186096361D01*
X324314261Y-186143980D01*
X324338071Y-186167790D01*
X324361880Y-186179695D01*
X324409500Y-186179695D01*
X324064261Y-185941600D02*
X324088071Y-185929695D01*
X324123785Y-185929695D01*
X324159500Y-185941600D01*
X324183309Y-185965409D01*
X324195214Y-185989219D01*
X324207119Y-186036838D01*
X324207119Y-186072552D01*
X324195214Y-186120171D01*
X324183309Y-186143980D01*
X324159500Y-186167790D01*
X324123785Y-186179695D01*
X324099976Y-186179695D01*
X324064261Y-186167790D01*
X324052357Y-186155885D01*
X324052357Y-186072552D01*
X324099976Y-186072552D01*
X323957119Y-185953504D02*
X323945214Y-185941600D01*
X323921404Y-185929695D01*
X323861880Y-185929695D01*
X323838071Y-185941600D01*
X323826166Y-185953504D01*
X323814261Y-185977314D01*
X323814261Y-186001123D01*
X323826166Y-186036838D01*
X323969023Y-186179695D01*
X323814261Y-186179695D01*
X323659500Y-185929695D02*
X323635690Y-185929695D01*
X323611880Y-185941600D01*
X323599976Y-185953504D01*
X323588071Y-185977314D01*
X323576166Y-186024933D01*
X323576166Y-186084457D01*
X323588071Y-186132076D01*
X323599976Y-186155885D01*
X323611880Y-186167790D01*
X323635690Y-186179695D01*
X323659500Y-186179695D01*
X323683309Y-186167790D01*
X323695214Y-186155885D01*
X323707119Y-186132076D01*
X323719023Y-186084457D01*
X323719023Y-186024933D01*
X323707119Y-185977314D01*
X323695214Y-185953504D01*
X323683309Y-185941600D01*
X323659500Y-185929695D01*
X323433309Y-186036838D02*
X323457119Y-186024933D01*
X323469023Y-186013028D01*
X323480928Y-185989219D01*
X323480928Y-185977314D01*
X323469023Y-185953504D01*
X323457119Y-185941600D01*
X323433309Y-185929695D01*
X323385690Y-185929695D01*
X323361880Y-185941600D01*
X323349976Y-185953504D01*
X323338071Y-185977314D01*
X323338071Y-185989219D01*
X323349976Y-186013028D01*
X323361880Y-186024933D01*
X323385690Y-186036838D01*
X323433309Y-186036838D01*
X323457119Y-186048742D01*
X323469023Y-186060647D01*
X323480928Y-186084457D01*
X323480928Y-186132076D01*
X323469023Y-186155885D01*
X323457119Y-186167790D01*
X323433309Y-186179695D01*
X323385690Y-186179695D01*
X323361880Y-186167790D01*
X323349976Y-186155885D01*
X323338071Y-186132076D01*
X323338071Y-186084457D01*
X323349976Y-186060647D01*
X323361880Y-186048742D01*
X323385690Y-186036838D01*
X323230928Y-186084457D02*
X323040452Y-186084457D01*
X322849976Y-185929695D02*
X322849976Y-186108266D01*
X322861880Y-186143980D01*
X322885690Y-186167790D01*
X322921404Y-186179695D01*
X322945214Y-186179695D01*
X322599976Y-186179695D02*
X322742833Y-186179695D01*
X322671404Y-186179695D02*
X322671404Y-185929695D01*
X322695214Y-185965409D01*
X322719023Y-185989219D01*
X322742833Y-186001123D01*
%TO.C,PQG208-J2*%
X324381095Y-213429980D02*
X324131095Y-213429980D01*
X324131095Y-213525219D01*
X324143000Y-213549028D01*
X324154904Y-213560933D01*
X324178714Y-213572838D01*
X324214428Y-213572838D01*
X324238238Y-213560933D01*
X324250142Y-213549028D01*
X324262047Y-213525219D01*
X324262047Y-213429980D01*
X324404904Y-213846647D02*
X324393000Y-213822838D01*
X324369190Y-213799028D01*
X324333476Y-213763314D01*
X324321571Y-213739504D01*
X324321571Y-213715695D01*
X324381095Y-213727600D02*
X324369190Y-213703790D01*
X324345380Y-213679980D01*
X324297761Y-213668076D01*
X324214428Y-213668076D01*
X324166809Y-213679980D01*
X324143000Y-213703790D01*
X324131095Y-213727600D01*
X324131095Y-213775219D01*
X324143000Y-213799028D01*
X324166809Y-213822838D01*
X324214428Y-213834742D01*
X324297761Y-213834742D01*
X324345380Y-213822838D01*
X324369190Y-213799028D01*
X324381095Y-213775219D01*
X324381095Y-213727600D01*
X324143000Y-214072838D02*
X324131095Y-214049028D01*
X324131095Y-214013314D01*
X324143000Y-213977600D01*
X324166809Y-213953790D01*
X324190619Y-213941885D01*
X324238238Y-213929980D01*
X324273952Y-213929980D01*
X324321571Y-213941885D01*
X324345380Y-213953790D01*
X324369190Y-213977600D01*
X324381095Y-214013314D01*
X324381095Y-214037123D01*
X324369190Y-214072838D01*
X324357285Y-214084742D01*
X324273952Y-214084742D01*
X324273952Y-214037123D01*
X324154904Y-214179980D02*
X324143000Y-214191885D01*
X324131095Y-214215695D01*
X324131095Y-214275219D01*
X324143000Y-214299028D01*
X324154904Y-214310933D01*
X324178714Y-214322838D01*
X324202523Y-214322838D01*
X324238238Y-214310933D01*
X324381095Y-214168076D01*
X324381095Y-214322838D01*
X324131095Y-214477600D02*
X324131095Y-214501409D01*
X324143000Y-214525219D01*
X324154904Y-214537123D01*
X324178714Y-214549028D01*
X324226333Y-214560933D01*
X324285857Y-214560933D01*
X324333476Y-214549028D01*
X324357285Y-214537123D01*
X324369190Y-214525219D01*
X324381095Y-214501409D01*
X324381095Y-214477600D01*
X324369190Y-214453790D01*
X324357285Y-214441885D01*
X324333476Y-214429980D01*
X324285857Y-214418076D01*
X324226333Y-214418076D01*
X324178714Y-214429980D01*
X324154904Y-214441885D01*
X324143000Y-214453790D01*
X324131095Y-214477600D01*
X324238238Y-214703790D02*
X324226333Y-214679980D01*
X324214428Y-214668076D01*
X324190619Y-214656171D01*
X324178714Y-214656171D01*
X324154904Y-214668076D01*
X324143000Y-214679980D01*
X324131095Y-214703790D01*
X324131095Y-214751409D01*
X324143000Y-214775219D01*
X324154904Y-214787123D01*
X324178714Y-214799028D01*
X324190619Y-214799028D01*
X324214428Y-214787123D01*
X324226333Y-214775219D01*
X324238238Y-214751409D01*
X324238238Y-214703790D01*
X324250142Y-214679980D01*
X324262047Y-214668076D01*
X324285857Y-214656171D01*
X324333476Y-214656171D01*
X324357285Y-214668076D01*
X324369190Y-214679980D01*
X324381095Y-214703790D01*
X324381095Y-214751409D01*
X324369190Y-214775219D01*
X324357285Y-214787123D01*
X324333476Y-214799028D01*
X324285857Y-214799028D01*
X324262047Y-214787123D01*
X324250142Y-214775219D01*
X324238238Y-214751409D01*
X324285857Y-214906171D02*
X324285857Y-215096647D01*
X324131095Y-215287123D02*
X324309666Y-215287123D01*
X324345380Y-215275219D01*
X324369190Y-215251409D01*
X324381095Y-215215695D01*
X324381095Y-215191885D01*
X324154904Y-215394266D02*
X324143000Y-215406171D01*
X324131095Y-215429980D01*
X324131095Y-215489504D01*
X324143000Y-215513314D01*
X324154904Y-215525219D01*
X324178714Y-215537123D01*
X324202523Y-215537123D01*
X324238238Y-215525219D01*
X324381095Y-215382361D01*
X324381095Y-215537123D01*
%TO.C,PQG208-J3*%
X354312119Y-214354195D02*
X354312119Y-214104195D01*
X354216880Y-214104195D01*
X354193071Y-214116100D01*
X354181166Y-214128004D01*
X354169261Y-214151814D01*
X354169261Y-214187528D01*
X354181166Y-214211338D01*
X354193071Y-214223242D01*
X354216880Y-214235147D01*
X354312119Y-214235147D01*
X353895452Y-214378004D02*
X353919261Y-214366100D01*
X353943071Y-214342290D01*
X353978785Y-214306576D01*
X354002595Y-214294671D01*
X354026404Y-214294671D01*
X354014500Y-214354195D02*
X354038309Y-214342290D01*
X354062119Y-214318480D01*
X354074023Y-214270861D01*
X354074023Y-214187528D01*
X354062119Y-214139909D01*
X354038309Y-214116100D01*
X354014500Y-214104195D01*
X353966880Y-214104195D01*
X353943071Y-214116100D01*
X353919261Y-214139909D01*
X353907357Y-214187528D01*
X353907357Y-214270861D01*
X353919261Y-214318480D01*
X353943071Y-214342290D01*
X353966880Y-214354195D01*
X354014500Y-214354195D01*
X353669261Y-214116100D02*
X353693071Y-214104195D01*
X353728785Y-214104195D01*
X353764500Y-214116100D01*
X353788309Y-214139909D01*
X353800214Y-214163719D01*
X353812119Y-214211338D01*
X353812119Y-214247052D01*
X353800214Y-214294671D01*
X353788309Y-214318480D01*
X353764500Y-214342290D01*
X353728785Y-214354195D01*
X353704976Y-214354195D01*
X353669261Y-214342290D01*
X353657357Y-214330385D01*
X353657357Y-214247052D01*
X353704976Y-214247052D01*
X353562119Y-214128004D02*
X353550214Y-214116100D01*
X353526404Y-214104195D01*
X353466880Y-214104195D01*
X353443071Y-214116100D01*
X353431166Y-214128004D01*
X353419261Y-214151814D01*
X353419261Y-214175623D01*
X353431166Y-214211338D01*
X353574023Y-214354195D01*
X353419261Y-214354195D01*
X353264500Y-214104195D02*
X353240690Y-214104195D01*
X353216880Y-214116100D01*
X353204976Y-214128004D01*
X353193071Y-214151814D01*
X353181166Y-214199433D01*
X353181166Y-214258957D01*
X353193071Y-214306576D01*
X353204976Y-214330385D01*
X353216880Y-214342290D01*
X353240690Y-214354195D01*
X353264500Y-214354195D01*
X353288309Y-214342290D01*
X353300214Y-214330385D01*
X353312119Y-214306576D01*
X353324023Y-214258957D01*
X353324023Y-214199433D01*
X353312119Y-214151814D01*
X353300214Y-214128004D01*
X353288309Y-214116100D01*
X353264500Y-214104195D01*
X353038309Y-214211338D02*
X353062119Y-214199433D01*
X353074023Y-214187528D01*
X353085928Y-214163719D01*
X353085928Y-214151814D01*
X353074023Y-214128004D01*
X353062119Y-214116100D01*
X353038309Y-214104195D01*
X352990690Y-214104195D01*
X352966880Y-214116100D01*
X352954976Y-214128004D01*
X352943071Y-214151814D01*
X352943071Y-214163719D01*
X352954976Y-214187528D01*
X352966880Y-214199433D01*
X352990690Y-214211338D01*
X353038309Y-214211338D01*
X353062119Y-214223242D01*
X353074023Y-214235147D01*
X353085928Y-214258957D01*
X353085928Y-214306576D01*
X353074023Y-214330385D01*
X353062119Y-214342290D01*
X353038309Y-214354195D01*
X352990690Y-214354195D01*
X352966880Y-214342290D01*
X352954976Y-214330385D01*
X352943071Y-214306576D01*
X352943071Y-214258957D01*
X352954976Y-214235147D01*
X352966880Y-214223242D01*
X352990690Y-214211338D01*
X352835928Y-214258957D02*
X352645452Y-214258957D01*
X352454976Y-214104195D02*
X352454976Y-214282766D01*
X352466880Y-214318480D01*
X352490690Y-214342290D01*
X352526404Y-214354195D01*
X352550214Y-214354195D01*
X352359738Y-214104195D02*
X352204976Y-214104195D01*
X352288309Y-214199433D01*
X352252595Y-214199433D01*
X352228785Y-214211338D01*
X352216880Y-214223242D01*
X352204976Y-214247052D01*
X352204976Y-214306576D01*
X352216880Y-214330385D01*
X352228785Y-214342290D01*
X352252595Y-214354195D01*
X352324023Y-214354195D01*
X352347833Y-214342290D01*
X352359738Y-214330385D01*
%TO.C,PQG208-J4*%
X353199595Y-185108980D02*
X352949595Y-185108980D01*
X352949595Y-185204219D01*
X352961500Y-185228028D01*
X352973404Y-185239933D01*
X352997214Y-185251838D01*
X353032928Y-185251838D01*
X353056738Y-185239933D01*
X353068642Y-185228028D01*
X353080547Y-185204219D01*
X353080547Y-185108980D01*
X353223404Y-185525647D02*
X353211500Y-185501838D01*
X353187690Y-185478028D01*
X353151976Y-185442314D01*
X353140071Y-185418504D01*
X353140071Y-185394695D01*
X353199595Y-185406600D02*
X353187690Y-185382790D01*
X353163880Y-185358980D01*
X353116261Y-185347076D01*
X353032928Y-185347076D01*
X352985309Y-185358980D01*
X352961500Y-185382790D01*
X352949595Y-185406600D01*
X352949595Y-185454219D01*
X352961500Y-185478028D01*
X352985309Y-185501838D01*
X353032928Y-185513742D01*
X353116261Y-185513742D01*
X353163880Y-185501838D01*
X353187690Y-185478028D01*
X353199595Y-185454219D01*
X353199595Y-185406600D01*
X352961500Y-185751838D02*
X352949595Y-185728028D01*
X352949595Y-185692314D01*
X352961500Y-185656600D01*
X352985309Y-185632790D01*
X353009119Y-185620885D01*
X353056738Y-185608980D01*
X353092452Y-185608980D01*
X353140071Y-185620885D01*
X353163880Y-185632790D01*
X353187690Y-185656600D01*
X353199595Y-185692314D01*
X353199595Y-185716123D01*
X353187690Y-185751838D01*
X353175785Y-185763742D01*
X353092452Y-185763742D01*
X353092452Y-185716123D01*
X352973404Y-185858980D02*
X352961500Y-185870885D01*
X352949595Y-185894695D01*
X352949595Y-185954219D01*
X352961500Y-185978028D01*
X352973404Y-185989933D01*
X352997214Y-186001838D01*
X353021023Y-186001838D01*
X353056738Y-185989933D01*
X353199595Y-185847076D01*
X353199595Y-186001838D01*
X352949595Y-186156600D02*
X352949595Y-186180409D01*
X352961500Y-186204219D01*
X352973404Y-186216123D01*
X352997214Y-186228028D01*
X353044833Y-186239933D01*
X353104357Y-186239933D01*
X353151976Y-186228028D01*
X353175785Y-186216123D01*
X353187690Y-186204219D01*
X353199595Y-186180409D01*
X353199595Y-186156600D01*
X353187690Y-186132790D01*
X353175785Y-186120885D01*
X353151976Y-186108980D01*
X353104357Y-186097076D01*
X353044833Y-186097076D01*
X352997214Y-186108980D01*
X352973404Y-186120885D01*
X352961500Y-186132790D01*
X352949595Y-186156600D01*
X353056738Y-186382790D02*
X353044833Y-186358980D01*
X353032928Y-186347076D01*
X353009119Y-186335171D01*
X352997214Y-186335171D01*
X352973404Y-186347076D01*
X352961500Y-186358980D01*
X352949595Y-186382790D01*
X352949595Y-186430409D01*
X352961500Y-186454219D01*
X352973404Y-186466123D01*
X352997214Y-186478028D01*
X353009119Y-186478028D01*
X353032928Y-186466123D01*
X353044833Y-186454219D01*
X353056738Y-186430409D01*
X353056738Y-186382790D01*
X353068642Y-186358980D01*
X353080547Y-186347076D01*
X353104357Y-186335171D01*
X353151976Y-186335171D01*
X353175785Y-186347076D01*
X353187690Y-186358980D01*
X353199595Y-186382790D01*
X353199595Y-186430409D01*
X353187690Y-186454219D01*
X353175785Y-186466123D01*
X353151976Y-186478028D01*
X353104357Y-186478028D01*
X353080547Y-186466123D01*
X353068642Y-186454219D01*
X353056738Y-186430409D01*
X353104357Y-186585171D02*
X353104357Y-186775647D01*
X352949595Y-186966123D02*
X353128166Y-186966123D01*
X353163880Y-186954219D01*
X353187690Y-186930409D01*
X353199595Y-186894695D01*
X353199595Y-186870885D01*
X353032928Y-187192314D02*
X353199595Y-187192314D01*
X352937690Y-187132790D02*
X353116261Y-187073266D01*
X353116261Y-187228028D01*
%TO.C,Xx_BGA-8x8*%
X238175935Y-124646927D02*
X238425935Y-124813594D01*
X238175935Y-124813594D02*
X238425935Y-124646927D01*
X238425935Y-124885022D02*
X238259268Y-125015975D01*
X238259268Y-124885022D02*
X238425935Y-125015975D01*
X238449744Y-125051689D02*
X238449744Y-125242165D01*
X238294982Y-125385022D02*
X238306887Y-125420737D01*
X238318792Y-125432641D01*
X238342601Y-125444546D01*
X238378316Y-125444546D01*
X238402125Y-125432641D01*
X238414030Y-125420737D01*
X238425935Y-125396927D01*
X238425935Y-125301689D01*
X238175935Y-125301689D01*
X238175935Y-125385022D01*
X238187840Y-125408832D01*
X238199744Y-125420737D01*
X238223554Y-125432641D01*
X238247363Y-125432641D01*
X238271173Y-125420737D01*
X238283078Y-125408832D01*
X238294982Y-125385022D01*
X238294982Y-125301689D01*
X238187840Y-125682641D02*
X238175935Y-125658832D01*
X238175935Y-125623118D01*
X238187840Y-125587403D01*
X238211649Y-125563594D01*
X238235459Y-125551689D01*
X238283078Y-125539784D01*
X238318792Y-125539784D01*
X238366411Y-125551689D01*
X238390220Y-125563594D01*
X238414030Y-125587403D01*
X238425935Y-125623118D01*
X238425935Y-125646927D01*
X238414030Y-125682641D01*
X238402125Y-125694546D01*
X238318792Y-125694546D01*
X238318792Y-125646927D01*
X238354506Y-125789784D02*
X238354506Y-125908832D01*
X238425935Y-125765975D02*
X238175935Y-125849308D01*
X238425935Y-125932641D01*
X238330697Y-126015975D02*
X238330697Y-126206451D01*
X238283078Y-126361213D02*
X238271173Y-126337403D01*
X238259268Y-126325499D01*
X238235459Y-126313594D01*
X238223554Y-126313594D01*
X238199744Y-126325499D01*
X238187840Y-126337403D01*
X238175935Y-126361213D01*
X238175935Y-126408832D01*
X238187840Y-126432641D01*
X238199744Y-126444546D01*
X238223554Y-126456451D01*
X238235459Y-126456451D01*
X238259268Y-126444546D01*
X238271173Y-126432641D01*
X238283078Y-126408832D01*
X238283078Y-126361213D01*
X238294982Y-126337403D01*
X238306887Y-126325499D01*
X238330697Y-126313594D01*
X238378316Y-126313594D01*
X238402125Y-126325499D01*
X238414030Y-126337403D01*
X238425935Y-126361213D01*
X238425935Y-126408832D01*
X238414030Y-126432641D01*
X238402125Y-126444546D01*
X238378316Y-126456451D01*
X238330697Y-126456451D01*
X238306887Y-126444546D01*
X238294982Y-126432641D01*
X238283078Y-126408832D01*
X238425935Y-126539784D02*
X238259268Y-126670737D01*
X238259268Y-126539784D02*
X238425935Y-126670737D01*
X238283078Y-126801689D02*
X238271173Y-126777880D01*
X238259268Y-126765975D01*
X238235459Y-126754070D01*
X238223554Y-126754070D01*
X238199744Y-126765975D01*
X238187840Y-126777880D01*
X238175935Y-126801689D01*
X238175935Y-126849308D01*
X238187840Y-126873118D01*
X238199744Y-126885022D01*
X238223554Y-126896927D01*
X238235459Y-126896927D01*
X238259268Y-126885022D01*
X238271173Y-126873118D01*
X238283078Y-126849308D01*
X238283078Y-126801689D01*
X238294982Y-126777880D01*
X238306887Y-126765975D01*
X238330697Y-126754070D01*
X238378316Y-126754070D01*
X238402125Y-126765975D01*
X238414030Y-126777880D01*
X238425935Y-126801689D01*
X238425935Y-126849308D01*
X238414030Y-126873118D01*
X238402125Y-126885022D01*
X238378316Y-126896927D01*
X238330697Y-126896927D01*
X238306887Y-126885022D01*
X238294982Y-126873118D01*
X238283078Y-126849308D01*
%TO.C,PGQ256_BGA-8x8*%
X131769520Y-44867895D02*
X131769520Y-44617895D01*
X131674281Y-44617895D01*
X131650472Y-44629800D01*
X131638567Y-44641704D01*
X131626662Y-44665514D01*
X131626662Y-44701228D01*
X131638567Y-44725038D01*
X131650472Y-44736942D01*
X131674281Y-44748847D01*
X131769520Y-44748847D01*
X131388567Y-44629800D02*
X131412377Y-44617895D01*
X131448091Y-44617895D01*
X131483805Y-44629800D01*
X131507615Y-44653609D01*
X131519520Y-44677419D01*
X131531424Y-44725038D01*
X131531424Y-44760752D01*
X131519520Y-44808371D01*
X131507615Y-44832180D01*
X131483805Y-44855990D01*
X131448091Y-44867895D01*
X131424281Y-44867895D01*
X131388567Y-44855990D01*
X131376662Y-44844085D01*
X131376662Y-44760752D01*
X131424281Y-44760752D01*
X131102853Y-44891704D02*
X131126662Y-44879800D01*
X131150472Y-44855990D01*
X131186186Y-44820276D01*
X131209996Y-44808371D01*
X131233805Y-44808371D01*
X131221900Y-44867895D02*
X131245710Y-44855990D01*
X131269520Y-44832180D01*
X131281424Y-44784561D01*
X131281424Y-44701228D01*
X131269520Y-44653609D01*
X131245710Y-44629800D01*
X131221900Y-44617895D01*
X131174281Y-44617895D01*
X131150472Y-44629800D01*
X131126662Y-44653609D01*
X131114758Y-44701228D01*
X131114758Y-44784561D01*
X131126662Y-44832180D01*
X131150472Y-44855990D01*
X131174281Y-44867895D01*
X131221900Y-44867895D01*
X131019520Y-44641704D02*
X131007615Y-44629800D01*
X130983805Y-44617895D01*
X130924281Y-44617895D01*
X130900472Y-44629800D01*
X130888567Y-44641704D01*
X130876662Y-44665514D01*
X130876662Y-44689323D01*
X130888567Y-44725038D01*
X131031424Y-44867895D01*
X130876662Y-44867895D01*
X130650472Y-44617895D02*
X130769520Y-44617895D01*
X130781424Y-44736942D01*
X130769520Y-44725038D01*
X130745710Y-44713133D01*
X130686186Y-44713133D01*
X130662377Y-44725038D01*
X130650472Y-44736942D01*
X130638567Y-44760752D01*
X130638567Y-44820276D01*
X130650472Y-44844085D01*
X130662377Y-44855990D01*
X130686186Y-44867895D01*
X130745710Y-44867895D01*
X130769520Y-44855990D01*
X130781424Y-44844085D01*
X130424281Y-44617895D02*
X130471900Y-44617895D01*
X130495710Y-44629800D01*
X130507615Y-44641704D01*
X130531424Y-44677419D01*
X130543329Y-44725038D01*
X130543329Y-44820276D01*
X130531424Y-44844085D01*
X130519520Y-44855990D01*
X130495710Y-44867895D01*
X130448091Y-44867895D01*
X130424281Y-44855990D01*
X130412377Y-44844085D01*
X130400472Y-44820276D01*
X130400472Y-44760752D01*
X130412377Y-44736942D01*
X130424281Y-44725038D01*
X130448091Y-44713133D01*
X130495710Y-44713133D01*
X130519520Y-44725038D01*
X130531424Y-44736942D01*
X130543329Y-44760752D01*
X130352853Y-44891704D02*
X130162377Y-44891704D01*
X130019520Y-44736942D02*
X129983805Y-44748847D01*
X129971900Y-44760752D01*
X129959996Y-44784561D01*
X129959996Y-44820276D01*
X129971900Y-44844085D01*
X129983805Y-44855990D01*
X130007615Y-44867895D01*
X130102853Y-44867895D01*
X130102853Y-44617895D01*
X130019520Y-44617895D01*
X129995710Y-44629800D01*
X129983805Y-44641704D01*
X129971900Y-44665514D01*
X129971900Y-44689323D01*
X129983805Y-44713133D01*
X129995710Y-44725038D01*
X130019520Y-44736942D01*
X130102853Y-44736942D01*
X129721900Y-44629800D02*
X129745710Y-44617895D01*
X129781424Y-44617895D01*
X129817139Y-44629800D01*
X129840948Y-44653609D01*
X129852853Y-44677419D01*
X129864758Y-44725038D01*
X129864758Y-44760752D01*
X129852853Y-44808371D01*
X129840948Y-44832180D01*
X129817139Y-44855990D01*
X129781424Y-44867895D01*
X129757615Y-44867895D01*
X129721900Y-44855990D01*
X129709996Y-44844085D01*
X129709996Y-44760752D01*
X129757615Y-44760752D01*
X129614758Y-44796466D02*
X129495710Y-44796466D01*
X129638567Y-44867895D02*
X129555234Y-44617895D01*
X129471900Y-44867895D01*
X129388567Y-44772657D02*
X129198091Y-44772657D01*
X129043329Y-44725038D02*
X129067139Y-44713133D01*
X129079043Y-44701228D01*
X129090948Y-44677419D01*
X129090948Y-44665514D01*
X129079043Y-44641704D01*
X129067139Y-44629800D01*
X129043329Y-44617895D01*
X128995710Y-44617895D01*
X128971900Y-44629800D01*
X128959996Y-44641704D01*
X128948091Y-44665514D01*
X128948091Y-44677419D01*
X128959996Y-44701228D01*
X128971900Y-44713133D01*
X128995710Y-44725038D01*
X129043329Y-44725038D01*
X129067139Y-44736942D01*
X129079043Y-44748847D01*
X129090948Y-44772657D01*
X129090948Y-44820276D01*
X129079043Y-44844085D01*
X129067139Y-44855990D01*
X129043329Y-44867895D01*
X128995710Y-44867895D01*
X128971900Y-44855990D01*
X128959996Y-44844085D01*
X128948091Y-44820276D01*
X128948091Y-44772657D01*
X128959996Y-44748847D01*
X128971900Y-44736942D01*
X128995710Y-44725038D01*
X128864758Y-44867895D02*
X128733805Y-44701228D01*
X128864758Y-44701228D02*
X128733805Y-44867895D01*
X128602853Y-44725038D02*
X128626662Y-44713133D01*
X128638567Y-44701228D01*
X128650472Y-44677419D01*
X128650472Y-44665514D01*
X128638567Y-44641704D01*
X128626662Y-44629800D01*
X128602853Y-44617895D01*
X128555234Y-44617895D01*
X128531424Y-44629800D01*
X128519520Y-44641704D01*
X128507615Y-44665514D01*
X128507615Y-44677419D01*
X128519520Y-44701228D01*
X128531424Y-44713133D01*
X128555234Y-44725038D01*
X128602853Y-44725038D01*
X128626662Y-44736942D01*
X128638567Y-44748847D01*
X128650472Y-44772657D01*
X128650472Y-44820276D01*
X128638567Y-44844085D01*
X128626662Y-44855990D01*
X128602853Y-44867895D01*
X128555234Y-44867895D01*
X128531424Y-44855990D01*
X128519520Y-44844085D01*
X128507615Y-44820276D01*
X128507615Y-44772657D01*
X128519520Y-44748847D01*
X128531424Y-44736942D01*
X128555234Y-44725038D01*
%TO.C,SOIC-28W1*%
X231191066Y-218972990D02*
X231155352Y-218984895D01*
X231095828Y-218984895D01*
X231072019Y-218972990D01*
X231060114Y-218961085D01*
X231048209Y-218937276D01*
X231048209Y-218913466D01*
X231060114Y-218889657D01*
X231072019Y-218877752D01*
X231095828Y-218865847D01*
X231143447Y-218853942D01*
X231167257Y-218842038D01*
X231179161Y-218830133D01*
X231191066Y-218806323D01*
X231191066Y-218782514D01*
X231179161Y-218758704D01*
X231167257Y-218746800D01*
X231143447Y-218734895D01*
X231083923Y-218734895D01*
X231048209Y-218746800D01*
X230893447Y-218734895D02*
X230845828Y-218734895D01*
X230822019Y-218746800D01*
X230798209Y-218770609D01*
X230786304Y-218818228D01*
X230786304Y-218901561D01*
X230798209Y-218949180D01*
X230822019Y-218972990D01*
X230845828Y-218984895D01*
X230893447Y-218984895D01*
X230917257Y-218972990D01*
X230941066Y-218949180D01*
X230952971Y-218901561D01*
X230952971Y-218818228D01*
X230941066Y-218770609D01*
X230917257Y-218746800D01*
X230893447Y-218734895D01*
X230679161Y-218984895D02*
X230679161Y-218734895D01*
X230417257Y-218961085D02*
X230429161Y-218972990D01*
X230464876Y-218984895D01*
X230488685Y-218984895D01*
X230524400Y-218972990D01*
X230548209Y-218949180D01*
X230560114Y-218925371D01*
X230572019Y-218877752D01*
X230572019Y-218842038D01*
X230560114Y-218794419D01*
X230548209Y-218770609D01*
X230524400Y-218746800D01*
X230488685Y-218734895D01*
X230464876Y-218734895D01*
X230429161Y-218746800D01*
X230417257Y-218758704D01*
X230310114Y-218889657D02*
X230119638Y-218889657D01*
X230012495Y-218758704D02*
X230000590Y-218746800D01*
X229976780Y-218734895D01*
X229917257Y-218734895D01*
X229893447Y-218746800D01*
X229881542Y-218758704D01*
X229869638Y-218782514D01*
X229869638Y-218806323D01*
X229881542Y-218842038D01*
X230024400Y-218984895D01*
X229869638Y-218984895D01*
X229726780Y-218842038D02*
X229750590Y-218830133D01*
X229762495Y-218818228D01*
X229774400Y-218794419D01*
X229774400Y-218782514D01*
X229762495Y-218758704D01*
X229750590Y-218746800D01*
X229726780Y-218734895D01*
X229679161Y-218734895D01*
X229655352Y-218746800D01*
X229643447Y-218758704D01*
X229631542Y-218782514D01*
X229631542Y-218794419D01*
X229643447Y-218818228D01*
X229655352Y-218830133D01*
X229679161Y-218842038D01*
X229726780Y-218842038D01*
X229750590Y-218853942D01*
X229762495Y-218865847D01*
X229774400Y-218889657D01*
X229774400Y-218937276D01*
X229762495Y-218961085D01*
X229750590Y-218972990D01*
X229726780Y-218984895D01*
X229679161Y-218984895D01*
X229655352Y-218972990D01*
X229643447Y-218961085D01*
X229631542Y-218937276D01*
X229631542Y-218889657D01*
X229643447Y-218865847D01*
X229655352Y-218853942D01*
X229679161Y-218842038D01*
X229548209Y-218734895D02*
X229488685Y-218984895D01*
X229441066Y-218806323D01*
X229393447Y-218984895D01*
X229333923Y-218734895D01*
X229107733Y-218984895D02*
X229250590Y-218984895D01*
X229179161Y-218984895D02*
X229179161Y-218734895D01*
X229202971Y-218770609D01*
X229226780Y-218794419D01*
X229250590Y-218806323D01*
%TO.C,SSOP-28*%
X226924685Y-171574990D02*
X226888971Y-171586895D01*
X226829447Y-171586895D01*
X226805638Y-171574990D01*
X226793733Y-171563085D01*
X226781828Y-171539276D01*
X226781828Y-171515466D01*
X226793733Y-171491657D01*
X226805638Y-171479752D01*
X226829447Y-171467847D01*
X226877066Y-171455942D01*
X226900876Y-171444038D01*
X226912780Y-171432133D01*
X226924685Y-171408323D01*
X226924685Y-171384514D01*
X226912780Y-171360704D01*
X226900876Y-171348800D01*
X226877066Y-171336895D01*
X226817542Y-171336895D01*
X226781828Y-171348800D01*
X226686590Y-171574990D02*
X226650876Y-171586895D01*
X226591352Y-171586895D01*
X226567542Y-171574990D01*
X226555638Y-171563085D01*
X226543733Y-171539276D01*
X226543733Y-171515466D01*
X226555638Y-171491657D01*
X226567542Y-171479752D01*
X226591352Y-171467847D01*
X226638971Y-171455942D01*
X226662780Y-171444038D01*
X226674685Y-171432133D01*
X226686590Y-171408323D01*
X226686590Y-171384514D01*
X226674685Y-171360704D01*
X226662780Y-171348800D01*
X226638971Y-171336895D01*
X226579447Y-171336895D01*
X226543733Y-171348800D01*
X226388971Y-171336895D02*
X226341352Y-171336895D01*
X226317542Y-171348800D01*
X226293733Y-171372609D01*
X226281828Y-171420228D01*
X226281828Y-171503561D01*
X226293733Y-171551180D01*
X226317542Y-171574990D01*
X226341352Y-171586895D01*
X226388971Y-171586895D01*
X226412780Y-171574990D01*
X226436590Y-171551180D01*
X226448495Y-171503561D01*
X226448495Y-171420228D01*
X226436590Y-171372609D01*
X226412780Y-171348800D01*
X226388971Y-171336895D01*
X226174685Y-171586895D02*
X226174685Y-171336895D01*
X226079447Y-171336895D01*
X226055638Y-171348800D01*
X226043733Y-171360704D01*
X226031828Y-171384514D01*
X226031828Y-171420228D01*
X226043733Y-171444038D01*
X226055638Y-171455942D01*
X226079447Y-171467847D01*
X226174685Y-171467847D01*
X225924685Y-171491657D02*
X225734209Y-171491657D01*
X225627066Y-171360704D02*
X225615161Y-171348800D01*
X225591352Y-171336895D01*
X225531828Y-171336895D01*
X225508019Y-171348800D01*
X225496114Y-171360704D01*
X225484209Y-171384514D01*
X225484209Y-171408323D01*
X225496114Y-171444038D01*
X225638971Y-171586895D01*
X225484209Y-171586895D01*
X225341352Y-171444038D02*
X225365161Y-171432133D01*
X225377066Y-171420228D01*
X225388971Y-171396419D01*
X225388971Y-171384514D01*
X225377066Y-171360704D01*
X225365161Y-171348800D01*
X225341352Y-171336895D01*
X225293733Y-171336895D01*
X225269923Y-171348800D01*
X225258019Y-171360704D01*
X225246114Y-171384514D01*
X225246114Y-171396419D01*
X225258019Y-171420228D01*
X225269923Y-171432133D01*
X225293733Y-171444038D01*
X225341352Y-171444038D01*
X225365161Y-171455942D01*
X225377066Y-171467847D01*
X225388971Y-171491657D01*
X225388971Y-171539276D01*
X225377066Y-171563085D01*
X225365161Y-171574990D01*
X225341352Y-171586895D01*
X225293733Y-171586895D01*
X225269923Y-171574990D01*
X225258019Y-171563085D01*
X225246114Y-171539276D01*
X225246114Y-171491657D01*
X225258019Y-171467847D01*
X225269923Y-171455942D01*
X225293733Y-171444038D01*
%TO.C,SEN_RPi_Pico_SC915*%
X29780466Y-115442590D02*
X29744752Y-115454495D01*
X29685228Y-115454495D01*
X29661419Y-115442590D01*
X29649514Y-115430685D01*
X29637609Y-115406876D01*
X29637609Y-115383066D01*
X29649514Y-115359257D01*
X29661419Y-115347352D01*
X29685228Y-115335447D01*
X29732847Y-115323542D01*
X29756657Y-115311638D01*
X29768561Y-115299733D01*
X29780466Y-115275923D01*
X29780466Y-115252114D01*
X29768561Y-115228304D01*
X29756657Y-115216400D01*
X29732847Y-115204495D01*
X29673323Y-115204495D01*
X29637609Y-115216400D01*
X29530466Y-115323542D02*
X29447133Y-115323542D01*
X29411419Y-115454495D02*
X29530466Y-115454495D01*
X29530466Y-115204495D01*
X29411419Y-115204495D01*
X29304276Y-115454495D02*
X29304276Y-115204495D01*
X29161419Y-115454495D01*
X29161419Y-115204495D01*
X29101895Y-115478304D02*
X28911419Y-115478304D01*
X28709038Y-115454495D02*
X28792371Y-115335447D01*
X28851895Y-115454495D02*
X28851895Y-115204495D01*
X28756657Y-115204495D01*
X28732847Y-115216400D01*
X28720942Y-115228304D01*
X28709038Y-115252114D01*
X28709038Y-115287828D01*
X28720942Y-115311638D01*
X28732847Y-115323542D01*
X28756657Y-115335447D01*
X28851895Y-115335447D01*
X28601895Y-115454495D02*
X28601895Y-115204495D01*
X28506657Y-115204495D01*
X28482847Y-115216400D01*
X28470942Y-115228304D01*
X28459038Y-115252114D01*
X28459038Y-115287828D01*
X28470942Y-115311638D01*
X28482847Y-115323542D01*
X28506657Y-115335447D01*
X28601895Y-115335447D01*
X28351895Y-115454495D02*
X28351895Y-115287828D01*
X28351895Y-115204495D02*
X28363800Y-115216400D01*
X28351895Y-115228304D01*
X28339990Y-115216400D01*
X28351895Y-115204495D01*
X28351895Y-115228304D01*
X28292371Y-115478304D02*
X28101895Y-115478304D01*
X28042371Y-115454495D02*
X28042371Y-115204495D01*
X27947133Y-115204495D01*
X27923323Y-115216400D01*
X27911419Y-115228304D01*
X27899514Y-115252114D01*
X27899514Y-115287828D01*
X27911419Y-115311638D01*
X27923323Y-115323542D01*
X27947133Y-115335447D01*
X28042371Y-115335447D01*
X27792371Y-115454495D02*
X27792371Y-115287828D01*
X27792371Y-115204495D02*
X27804276Y-115216400D01*
X27792371Y-115228304D01*
X27780466Y-115216400D01*
X27792371Y-115204495D01*
X27792371Y-115228304D01*
X27566180Y-115442590D02*
X27589990Y-115454495D01*
X27637609Y-115454495D01*
X27661419Y-115442590D01*
X27673323Y-115430685D01*
X27685228Y-115406876D01*
X27685228Y-115335447D01*
X27673323Y-115311638D01*
X27661419Y-115299733D01*
X27637609Y-115287828D01*
X27589990Y-115287828D01*
X27566180Y-115299733D01*
X27423323Y-115454495D02*
X27447133Y-115442590D01*
X27459038Y-115430685D01*
X27470942Y-115406876D01*
X27470942Y-115335447D01*
X27459038Y-115311638D01*
X27447133Y-115299733D01*
X27423323Y-115287828D01*
X27387609Y-115287828D01*
X27363800Y-115299733D01*
X27351895Y-115311638D01*
X27339990Y-115335447D01*
X27339990Y-115406876D01*
X27351895Y-115430685D01*
X27363800Y-115442590D01*
X27387609Y-115454495D01*
X27423323Y-115454495D01*
X27292371Y-115478304D02*
X27101895Y-115478304D01*
X27054276Y-115442590D02*
X27018561Y-115454495D01*
X26959038Y-115454495D01*
X26935228Y-115442590D01*
X26923323Y-115430685D01*
X26911419Y-115406876D01*
X26911419Y-115383066D01*
X26923323Y-115359257D01*
X26935228Y-115347352D01*
X26959038Y-115335447D01*
X27006657Y-115323542D01*
X27030466Y-115311638D01*
X27042371Y-115299733D01*
X27054276Y-115275923D01*
X27054276Y-115252114D01*
X27042371Y-115228304D01*
X27030466Y-115216400D01*
X27006657Y-115204495D01*
X26947133Y-115204495D01*
X26911419Y-115216400D01*
X26661419Y-115430685D02*
X26673323Y-115442590D01*
X26709038Y-115454495D01*
X26732847Y-115454495D01*
X26768561Y-115442590D01*
X26792371Y-115418780D01*
X26804276Y-115394971D01*
X26816180Y-115347352D01*
X26816180Y-115311638D01*
X26804276Y-115264019D01*
X26792371Y-115240209D01*
X26768561Y-115216400D01*
X26732847Y-115204495D01*
X26709038Y-115204495D01*
X26673323Y-115216400D01*
X26661419Y-115228304D01*
X26542371Y-115454495D02*
X26494752Y-115454495D01*
X26470942Y-115442590D01*
X26459038Y-115430685D01*
X26435228Y-115394971D01*
X26423323Y-115347352D01*
X26423323Y-115252114D01*
X26435228Y-115228304D01*
X26447133Y-115216400D01*
X26470942Y-115204495D01*
X26518561Y-115204495D01*
X26542371Y-115216400D01*
X26554276Y-115228304D01*
X26566180Y-115252114D01*
X26566180Y-115311638D01*
X26554276Y-115335447D01*
X26542371Y-115347352D01*
X26518561Y-115359257D01*
X26470942Y-115359257D01*
X26447133Y-115347352D01*
X26435228Y-115335447D01*
X26423323Y-115311638D01*
X26185228Y-115454495D02*
X26328085Y-115454495D01*
X26256657Y-115454495D02*
X26256657Y-115204495D01*
X26280466Y-115240209D01*
X26304276Y-115264019D01*
X26328085Y-115275923D01*
X25959038Y-115204495D02*
X26078085Y-115204495D01*
X26089990Y-115323542D01*
X26078085Y-115311638D01*
X26054276Y-115299733D01*
X25994752Y-115299733D01*
X25970942Y-115311638D01*
X25959038Y-115323542D01*
X25947133Y-115347352D01*
X25947133Y-115406876D01*
X25959038Y-115430685D01*
X25970942Y-115442590D01*
X25994752Y-115454495D01*
X26054276Y-115454495D01*
X26078085Y-115442590D01*
X26089990Y-115430685D01*
%TO.C,LED_RPi_Pico_SC1*%
X37730495Y-189534990D02*
X37730495Y-189415942D01*
X37480495Y-189415942D01*
X37599542Y-189618323D02*
X37599542Y-189701657D01*
X37730495Y-189737371D02*
X37730495Y-189618323D01*
X37480495Y-189618323D01*
X37480495Y-189737371D01*
X37730495Y-189844514D02*
X37480495Y-189844514D01*
X37480495Y-189904038D01*
X37492400Y-189939752D01*
X37516209Y-189963561D01*
X37540019Y-189975466D01*
X37587638Y-189987371D01*
X37623352Y-189987371D01*
X37670971Y-189975466D01*
X37694780Y-189963561D01*
X37718590Y-189939752D01*
X37730495Y-189904038D01*
X37730495Y-189844514D01*
X37754304Y-190034990D02*
X37754304Y-190225466D01*
X37730495Y-190427847D02*
X37611447Y-190344514D01*
X37730495Y-190284990D02*
X37480495Y-190284990D01*
X37480495Y-190380228D01*
X37492400Y-190404038D01*
X37504304Y-190415942D01*
X37528114Y-190427847D01*
X37563828Y-190427847D01*
X37587638Y-190415942D01*
X37599542Y-190404038D01*
X37611447Y-190380228D01*
X37611447Y-190284990D01*
X37730495Y-190534990D02*
X37480495Y-190534990D01*
X37480495Y-190630228D01*
X37492400Y-190654038D01*
X37504304Y-190665942D01*
X37528114Y-190677847D01*
X37563828Y-190677847D01*
X37587638Y-190665942D01*
X37599542Y-190654038D01*
X37611447Y-190630228D01*
X37611447Y-190534990D01*
X37730495Y-190784990D02*
X37563828Y-190784990D01*
X37480495Y-190784990D02*
X37492400Y-190773085D01*
X37504304Y-190784990D01*
X37492400Y-190796895D01*
X37480495Y-190784990D01*
X37504304Y-190784990D01*
X37754304Y-190844514D02*
X37754304Y-191034990D01*
X37730495Y-191094514D02*
X37480495Y-191094514D01*
X37480495Y-191189752D01*
X37492400Y-191213561D01*
X37504304Y-191225466D01*
X37528114Y-191237371D01*
X37563828Y-191237371D01*
X37587638Y-191225466D01*
X37599542Y-191213561D01*
X37611447Y-191189752D01*
X37611447Y-191094514D01*
X37730495Y-191344514D02*
X37563828Y-191344514D01*
X37480495Y-191344514D02*
X37492400Y-191332609D01*
X37504304Y-191344514D01*
X37492400Y-191356419D01*
X37480495Y-191344514D01*
X37504304Y-191344514D01*
X37718590Y-191570704D02*
X37730495Y-191546895D01*
X37730495Y-191499276D01*
X37718590Y-191475466D01*
X37706685Y-191463561D01*
X37682876Y-191451657D01*
X37611447Y-191451657D01*
X37587638Y-191463561D01*
X37575733Y-191475466D01*
X37563828Y-191499276D01*
X37563828Y-191546895D01*
X37575733Y-191570704D01*
X37730495Y-191713561D02*
X37718590Y-191689752D01*
X37706685Y-191677847D01*
X37682876Y-191665942D01*
X37611447Y-191665942D01*
X37587638Y-191677847D01*
X37575733Y-191689752D01*
X37563828Y-191713561D01*
X37563828Y-191749276D01*
X37575733Y-191773085D01*
X37587638Y-191784990D01*
X37611447Y-191796895D01*
X37682876Y-191796895D01*
X37706685Y-191784990D01*
X37718590Y-191773085D01*
X37730495Y-191749276D01*
X37730495Y-191713561D01*
X37754304Y-191844514D02*
X37754304Y-192034990D01*
X37718590Y-192082609D02*
X37730495Y-192118323D01*
X37730495Y-192177847D01*
X37718590Y-192201657D01*
X37706685Y-192213561D01*
X37682876Y-192225466D01*
X37659066Y-192225466D01*
X37635257Y-192213561D01*
X37623352Y-192201657D01*
X37611447Y-192177847D01*
X37599542Y-192130228D01*
X37587638Y-192106419D01*
X37575733Y-192094514D01*
X37551923Y-192082609D01*
X37528114Y-192082609D01*
X37504304Y-192094514D01*
X37492400Y-192106419D01*
X37480495Y-192130228D01*
X37480495Y-192189752D01*
X37492400Y-192225466D01*
X37706685Y-192475466D02*
X37718590Y-192463561D01*
X37730495Y-192427847D01*
X37730495Y-192404038D01*
X37718590Y-192368323D01*
X37694780Y-192344514D01*
X37670971Y-192332609D01*
X37623352Y-192320704D01*
X37587638Y-192320704D01*
X37540019Y-192332609D01*
X37516209Y-192344514D01*
X37492400Y-192368323D01*
X37480495Y-192404038D01*
X37480495Y-192427847D01*
X37492400Y-192463561D01*
X37504304Y-192475466D01*
X37730495Y-192713561D02*
X37730495Y-192570704D01*
X37730495Y-192642133D02*
X37480495Y-192642133D01*
X37516209Y-192618323D01*
X37540019Y-192594514D01*
X37551923Y-192570704D01*
%TO.C,SMD_RPi_Pico_SC1*%
X29566180Y-60349990D02*
X29530466Y-60361895D01*
X29470942Y-60361895D01*
X29447133Y-60349990D01*
X29435228Y-60338085D01*
X29423323Y-60314276D01*
X29423323Y-60290466D01*
X29435228Y-60266657D01*
X29447133Y-60254752D01*
X29470942Y-60242847D01*
X29518561Y-60230942D01*
X29542371Y-60219038D01*
X29554276Y-60207133D01*
X29566180Y-60183323D01*
X29566180Y-60159514D01*
X29554276Y-60135704D01*
X29542371Y-60123800D01*
X29518561Y-60111895D01*
X29459038Y-60111895D01*
X29423323Y-60123800D01*
X29316180Y-60361895D02*
X29316180Y-60111895D01*
X29232847Y-60290466D01*
X29149514Y-60111895D01*
X29149514Y-60361895D01*
X29030466Y-60361895D02*
X29030466Y-60111895D01*
X28970942Y-60111895D01*
X28935228Y-60123800D01*
X28911419Y-60147609D01*
X28899514Y-60171419D01*
X28887609Y-60219038D01*
X28887609Y-60254752D01*
X28899514Y-60302371D01*
X28911419Y-60326180D01*
X28935228Y-60349990D01*
X28970942Y-60361895D01*
X29030466Y-60361895D01*
X28839990Y-60385704D02*
X28649514Y-60385704D01*
X28447133Y-60361895D02*
X28530466Y-60242847D01*
X28589990Y-60361895D02*
X28589990Y-60111895D01*
X28494752Y-60111895D01*
X28470942Y-60123800D01*
X28459038Y-60135704D01*
X28447133Y-60159514D01*
X28447133Y-60195228D01*
X28459038Y-60219038D01*
X28470942Y-60230942D01*
X28494752Y-60242847D01*
X28589990Y-60242847D01*
X28339990Y-60361895D02*
X28339990Y-60111895D01*
X28244752Y-60111895D01*
X28220942Y-60123800D01*
X28209038Y-60135704D01*
X28197133Y-60159514D01*
X28197133Y-60195228D01*
X28209038Y-60219038D01*
X28220942Y-60230942D01*
X28244752Y-60242847D01*
X28339990Y-60242847D01*
X28089990Y-60361895D02*
X28089990Y-60195228D01*
X28089990Y-60111895D02*
X28101895Y-60123800D01*
X28089990Y-60135704D01*
X28078085Y-60123800D01*
X28089990Y-60111895D01*
X28089990Y-60135704D01*
X28030466Y-60385704D02*
X27839990Y-60385704D01*
X27780466Y-60361895D02*
X27780466Y-60111895D01*
X27685228Y-60111895D01*
X27661419Y-60123800D01*
X27649514Y-60135704D01*
X27637609Y-60159514D01*
X27637609Y-60195228D01*
X27649514Y-60219038D01*
X27661419Y-60230942D01*
X27685228Y-60242847D01*
X27780466Y-60242847D01*
X27530466Y-60361895D02*
X27530466Y-60195228D01*
X27530466Y-60111895D02*
X27542371Y-60123800D01*
X27530466Y-60135704D01*
X27518561Y-60123800D01*
X27530466Y-60111895D01*
X27530466Y-60135704D01*
X27304276Y-60349990D02*
X27328085Y-60361895D01*
X27375704Y-60361895D01*
X27399514Y-60349990D01*
X27411419Y-60338085D01*
X27423323Y-60314276D01*
X27423323Y-60242847D01*
X27411419Y-60219038D01*
X27399514Y-60207133D01*
X27375704Y-60195228D01*
X27328085Y-60195228D01*
X27304276Y-60207133D01*
X27161419Y-60361895D02*
X27185228Y-60349990D01*
X27197133Y-60338085D01*
X27209038Y-60314276D01*
X27209038Y-60242847D01*
X27197133Y-60219038D01*
X27185228Y-60207133D01*
X27161419Y-60195228D01*
X27125704Y-60195228D01*
X27101895Y-60207133D01*
X27089990Y-60219038D01*
X27078085Y-60242847D01*
X27078085Y-60314276D01*
X27089990Y-60338085D01*
X27101895Y-60349990D01*
X27125704Y-60361895D01*
X27161419Y-60361895D01*
X27030466Y-60385704D02*
X26839990Y-60385704D01*
X26792371Y-60349990D02*
X26756657Y-60361895D01*
X26697133Y-60361895D01*
X26673323Y-60349990D01*
X26661419Y-60338085D01*
X26649514Y-60314276D01*
X26649514Y-60290466D01*
X26661419Y-60266657D01*
X26673323Y-60254752D01*
X26697133Y-60242847D01*
X26744752Y-60230942D01*
X26768561Y-60219038D01*
X26780466Y-60207133D01*
X26792371Y-60183323D01*
X26792371Y-60159514D01*
X26780466Y-60135704D01*
X26768561Y-60123800D01*
X26744752Y-60111895D01*
X26685228Y-60111895D01*
X26649514Y-60123800D01*
X26399514Y-60338085D02*
X26411419Y-60349990D01*
X26447133Y-60361895D01*
X26470942Y-60361895D01*
X26506657Y-60349990D01*
X26530466Y-60326180D01*
X26542371Y-60302371D01*
X26554276Y-60254752D01*
X26554276Y-60219038D01*
X26542371Y-60171419D01*
X26530466Y-60147609D01*
X26506657Y-60123800D01*
X26470942Y-60111895D01*
X26447133Y-60111895D01*
X26411419Y-60123800D01*
X26399514Y-60135704D01*
X26161419Y-60361895D02*
X26304276Y-60361895D01*
X26232847Y-60361895D02*
X26232847Y-60111895D01*
X26256657Y-60147609D01*
X26280466Y-60171419D01*
X26304276Y-60183323D01*
%TO.C,LED_RPi_R1*%
X86592161Y-198977295D02*
X86711209Y-198977295D01*
X86711209Y-198727295D01*
X86508828Y-198846342D02*
X86425495Y-198846342D01*
X86389780Y-198977295D02*
X86508828Y-198977295D01*
X86508828Y-198727295D01*
X86389780Y-198727295D01*
X86282638Y-198977295D02*
X86282638Y-198727295D01*
X86223114Y-198727295D01*
X86187400Y-198739200D01*
X86163590Y-198763009D01*
X86151685Y-198786819D01*
X86139780Y-198834438D01*
X86139780Y-198870152D01*
X86151685Y-198917771D01*
X86163590Y-198941580D01*
X86187400Y-198965390D01*
X86223114Y-198977295D01*
X86282638Y-198977295D01*
X86092161Y-199001104D02*
X85901685Y-199001104D01*
X85699304Y-198977295D02*
X85782638Y-198858247D01*
X85842161Y-198977295D02*
X85842161Y-198727295D01*
X85746923Y-198727295D01*
X85723114Y-198739200D01*
X85711209Y-198751104D01*
X85699304Y-198774914D01*
X85699304Y-198810628D01*
X85711209Y-198834438D01*
X85723114Y-198846342D01*
X85746923Y-198858247D01*
X85842161Y-198858247D01*
X85592161Y-198977295D02*
X85592161Y-198727295D01*
X85496923Y-198727295D01*
X85473114Y-198739200D01*
X85461209Y-198751104D01*
X85449304Y-198774914D01*
X85449304Y-198810628D01*
X85461209Y-198834438D01*
X85473114Y-198846342D01*
X85496923Y-198858247D01*
X85592161Y-198858247D01*
X85342161Y-198977295D02*
X85342161Y-198810628D01*
X85342161Y-198727295D02*
X85354066Y-198739200D01*
X85342161Y-198751104D01*
X85330257Y-198739200D01*
X85342161Y-198727295D01*
X85342161Y-198751104D01*
X85282638Y-199001104D02*
X85092161Y-199001104D01*
X84889780Y-198977295D02*
X84973114Y-198858247D01*
X85032638Y-198977295D02*
X85032638Y-198727295D01*
X84937400Y-198727295D01*
X84913590Y-198739200D01*
X84901685Y-198751104D01*
X84889780Y-198774914D01*
X84889780Y-198810628D01*
X84901685Y-198834438D01*
X84913590Y-198846342D01*
X84937400Y-198858247D01*
X85032638Y-198858247D01*
X84651685Y-198977295D02*
X84794542Y-198977295D01*
X84723114Y-198977295D02*
X84723114Y-198727295D01*
X84746923Y-198763009D01*
X84770733Y-198786819D01*
X84794542Y-198798723D01*
%TO.C,LED_RPi_R2*%
X86178304Y-202860161D02*
X86178304Y-202979209D01*
X86428304Y-202979209D01*
X86309257Y-202776828D02*
X86309257Y-202693495D01*
X86178304Y-202657780D02*
X86178304Y-202776828D01*
X86428304Y-202776828D01*
X86428304Y-202657780D01*
X86178304Y-202550638D02*
X86428304Y-202550638D01*
X86428304Y-202491114D01*
X86416400Y-202455400D01*
X86392590Y-202431590D01*
X86368780Y-202419685D01*
X86321161Y-202407780D01*
X86285447Y-202407780D01*
X86237828Y-202419685D01*
X86214019Y-202431590D01*
X86190209Y-202455400D01*
X86178304Y-202491114D01*
X86178304Y-202550638D01*
X86154495Y-202360161D02*
X86154495Y-202169685D01*
X86178304Y-201967304D02*
X86297352Y-202050638D01*
X86178304Y-202110161D02*
X86428304Y-202110161D01*
X86428304Y-202014923D01*
X86416400Y-201991114D01*
X86404495Y-201979209D01*
X86380685Y-201967304D01*
X86344971Y-201967304D01*
X86321161Y-201979209D01*
X86309257Y-201991114D01*
X86297352Y-202014923D01*
X86297352Y-202110161D01*
X86178304Y-201860161D02*
X86428304Y-201860161D01*
X86428304Y-201764923D01*
X86416400Y-201741114D01*
X86404495Y-201729209D01*
X86380685Y-201717304D01*
X86344971Y-201717304D01*
X86321161Y-201729209D01*
X86309257Y-201741114D01*
X86297352Y-201764923D01*
X86297352Y-201860161D01*
X86178304Y-201610161D02*
X86344971Y-201610161D01*
X86428304Y-201610161D02*
X86416400Y-201622066D01*
X86404495Y-201610161D01*
X86416400Y-201598257D01*
X86428304Y-201610161D01*
X86404495Y-201610161D01*
X86154495Y-201550638D02*
X86154495Y-201360161D01*
X86178304Y-201157780D02*
X86297352Y-201241114D01*
X86178304Y-201300638D02*
X86428304Y-201300638D01*
X86428304Y-201205400D01*
X86416400Y-201181590D01*
X86404495Y-201169685D01*
X86380685Y-201157780D01*
X86344971Y-201157780D01*
X86321161Y-201169685D01*
X86309257Y-201181590D01*
X86297352Y-201205400D01*
X86297352Y-201300638D01*
X86404495Y-201062542D02*
X86416400Y-201050638D01*
X86428304Y-201026828D01*
X86428304Y-200967304D01*
X86416400Y-200943495D01*
X86404495Y-200931590D01*
X86380685Y-200919685D01*
X86356876Y-200919685D01*
X86321161Y-200931590D01*
X86178304Y-201074447D01*
X86178304Y-200919685D01*
%TD*%
M02*
