M48
; DRILL file {KiCad (7.0.0)} date Mon Mar  6 14:49:43 2023
; FORMAT={-:-/ absolute / inch / decimal}
; #@! TF.CreationDate,2023-03-06T14:49:43-05:00
; #@! TF.GenerationSoftware,Kicad,Pcbnew,(7.0.0)
; #@! TF.FileFunction,Plated,1,3,Blind
FMAT,2
INCH
; #@! TA.AperFunction,Plated,Buried,ViaDrill
T1C0.0060
%
G90
G05
T1
X6.69Y-5.025
X6.709Y-5.025
X6.73Y-5.024
X6.75Y-5.024
X7.148Y-5.024
X7.149Y-5.009
X7.162Y-5.024
X7.163Y-5.009
X7.164Y-4.978
X7.164Y-4.993
X7.178Y-5.024
X7.179Y-5.009
X7.18Y-4.977
X7.193Y-5.024
X7.194Y-5.009
X7.196Y-4.993
X7.21Y-5.024
X7.211Y-5.009
X7.379Y-1.676
X7.392Y-1.711
X11.425Y-8.053
X11.426Y-7.915
X11.426Y-8.014
X11.445Y-7.915
X11.445Y-7.955
X11.445Y-8.053
X11.465Y-7.915
X11.465Y-8.053
X11.484Y-7.915
X11.485Y-8.053
X11.504Y-8.053
X11.505Y-7.914
X11.524Y-7.914
X11.524Y-7.954
X11.524Y-8.053
X11.544Y-7.914
X11.544Y-7.954
X11.544Y-8.053
T0
M30
