M48
; DRILL file {KiCad (7.0.0)} date Mon Mar  6 14:49:43 2023
; FORMAT={-:-/ absolute / inch / decimal}
; #@! TF.CreationDate,2023-03-06T14:49:43-05:00
; #@! TF.GenerationSoftware,Kicad,Pcbnew,(7.0.0)
; #@! TF.FileFunction,Plated,1,2,Blind
FMAT,2
INCH
; #@! TA.AperFunction,Plated,Buried,ViaDrill
T1C0.0060
; #@! TA.AperFunction,Plated,Buried,ViaDrill
T2C0.0100
%
G90
G05
T1
X6.141Y-5.044
X6.16Y-5.044
X6.18Y-5.044
X6.2Y-5.044
X6.69Y-5.004
X6.691Y-4.964
X6.711Y-4.964
X6.729Y-4.964
X6.748Y-4.964
X7.149Y-4.978
X7.149Y-4.994
X7.149Y-5.041
X7.164Y-5.041
X7.179Y-5.041
X7.194Y-4.978
X7.194Y-5.041
X7.211Y-4.978
X7.211Y-4.994
X7.211Y-5.041
X7.354Y-2.173
X7.355Y-2.22
X7.355Y-2.235
X7.355Y-2.251
X7.359Y-2.204
X7.365Y-2.189
X7.375Y-2.253
X7.39Y-2.154
X7.391Y-1.742
X7.406Y-2.155
X7.547Y-1.694
X7.547Y-1.726
X7.547Y-1.742
X7.547Y-1.757
X7.548Y-1.711
X7.665Y-2.164
X7.665Y-2.228
X7.666Y-2.181
X7.666Y-2.197
X7.666Y-2.212
X11.426Y-7.955
X11.426Y-7.975
X11.426Y-8.033
X11.427Y-7.935
X11.524Y-7.974
X11.544Y-7.974
X11.545Y-7.934
T2
X6.18Y-4.964
X6.18Y-4.984
T0
M30
