%TF.GenerationSoftware,KiCad,Pcbnew,(7.0.0)*%
%TF.CreationDate,2023-03-18T13:26:35-04:00*%
%TF.ProjectId,FPGAs-Ard_RPi_BB,46504741-732d-4417-9264-5f5250695f42,rev?*%
%TF.SameCoordinates,Original*%
%TF.FileFunction,Profile,NP*%
%FSLAX46Y46*%
G04 Gerber Fmt 4.6, Leading zero omitted, Abs format (unit mm)*
G04 Created by KiCad (PCBNEW (7.0.0)) date 2023-03-18 13:26:35*
%MOMM*%
%LPD*%
G01*
G04 APERTURE LIST*
%TA.AperFunction,Profile*%
%ADD10C,0.100000*%
%TD*%
G04 APERTURE END LIST*
D10*
X354650000Y-22250000D02*
X355500000Y-22250000D01*
X355500000Y-22250000D02*
X355500000Y-23350000D01*
X355500000Y-23750000D02*
X355500000Y-24850000D01*
X355500000Y-25250000D02*
X355500000Y-26350000D01*
X355500000Y-26750000D02*
X355500000Y-27850000D01*
X355500000Y-28250000D02*
X355500000Y-29350000D01*
X355500000Y-29750000D02*
X355500000Y-30850000D01*
X355500000Y-31250000D02*
X355500000Y-32350000D01*
X355500000Y-32750000D02*
X355500000Y-32800000D01*
X355500000Y-32800000D02*
X354650000Y-32800000D01*
X354650000Y-32800000D02*
X354650000Y-31700000D01*
X354650000Y-31300000D02*
X354650000Y-30200000D01*
X354650000Y-29800000D02*
X354650000Y-28700000D01*
X354650000Y-28300000D02*
X354650000Y-27200000D01*
X354650000Y-26800000D02*
X354650000Y-25700000D01*
X354650000Y-25300000D02*
X354650000Y-24200000D01*
X354650000Y-23800000D02*
X354650000Y-22700000D01*
X354650000Y-22300000D02*
X354650000Y-22250000D01*
X244400000Y-21850000D02*
X245250000Y-21850000D01*
X245250000Y-21850000D02*
X245250000Y-22950000D01*
X245250000Y-23350000D02*
X245250000Y-24450000D01*
X245250000Y-24850000D02*
X245250000Y-25950000D01*
X245250000Y-26350000D02*
X245250000Y-27450000D01*
X245250000Y-27850000D02*
X245250000Y-28950000D01*
X245250000Y-29350000D02*
X245250000Y-30450000D01*
X245250000Y-30850000D02*
X245250000Y-31950000D01*
X245250000Y-32350000D02*
X245250000Y-33450000D01*
X245250000Y-33850000D02*
X245250000Y-34950000D01*
X245250000Y-35350000D02*
X245250000Y-36450000D01*
X245250000Y-36850000D02*
X245250000Y-37950000D01*
X245250000Y-38350000D02*
X245250000Y-39450000D01*
X245250000Y-39850000D02*
X245250000Y-40950000D01*
X245250000Y-41350000D02*
X245250000Y-42450000D01*
X245250000Y-42850000D02*
X245250000Y-43950000D01*
X245250000Y-44350000D02*
X245250000Y-45450000D01*
X245250000Y-45850000D02*
X245250000Y-46950000D01*
X245250000Y-47350000D02*
X245250000Y-48450000D01*
X245250000Y-48850000D02*
X245250000Y-49950000D01*
X245250000Y-50350000D02*
X245250000Y-51450000D01*
X245250000Y-51850000D02*
X245250000Y-52950000D01*
X245250000Y-53350000D02*
X245250000Y-54450000D01*
X245250000Y-54850000D02*
X245250000Y-55950000D01*
X245250000Y-56350000D02*
X245250000Y-57450000D01*
X245250000Y-57850000D02*
X245250000Y-58950000D01*
X245250000Y-59350000D02*
X245250000Y-60450000D01*
X245250000Y-60850000D02*
X245250000Y-61950000D01*
X245250000Y-62350000D02*
X245250000Y-63450000D01*
X245250000Y-63850000D02*
X245250000Y-64950000D01*
X245250000Y-65350000D02*
X245250000Y-66450000D01*
X245250000Y-66850000D02*
X245250000Y-67950000D01*
X245250000Y-68350000D02*
X245250000Y-69450000D01*
X245250000Y-69850000D02*
X245250000Y-70950000D01*
X245250000Y-71350000D02*
X245250000Y-72450000D01*
X245250000Y-72850000D02*
X245250000Y-73950000D01*
X245250000Y-74350000D02*
X245250000Y-75450000D01*
X245250000Y-75850000D02*
X245250000Y-76950000D01*
X245250000Y-77350000D02*
X245250000Y-78450000D01*
X245250000Y-78850000D02*
X245250000Y-79950000D01*
X245250000Y-80350000D02*
X245250000Y-81450000D01*
X245250000Y-81850000D02*
X245250000Y-82950000D01*
X245250000Y-83350000D02*
X245250000Y-84450000D01*
X245250000Y-84850000D02*
X245250000Y-85950000D01*
X245250000Y-86350000D02*
X245250000Y-87450000D01*
X245250000Y-87850000D02*
X245250000Y-88950000D01*
X245250000Y-89350000D02*
X245250000Y-90450000D01*
X245250000Y-90850000D02*
X245250000Y-91950000D01*
X245250000Y-92350000D02*
X245250000Y-93450000D01*
X245250000Y-93850000D02*
X245250000Y-94950000D01*
X245250000Y-95350000D02*
X245250000Y-96450000D01*
X245250000Y-96850000D02*
X245250000Y-97950000D01*
X245250000Y-98350000D02*
X245250000Y-99450000D01*
X245250000Y-99850000D02*
X245250000Y-100950000D01*
X245250000Y-101350000D02*
X245250000Y-102450000D01*
X245250000Y-102850000D02*
X245250000Y-103950000D01*
X245250000Y-104350000D02*
X245250000Y-105100000D01*
X245250000Y-105100000D02*
X244400000Y-105100000D01*
X244400000Y-105100000D02*
X244400000Y-104000000D01*
X244400000Y-103600000D02*
X244400000Y-102500000D01*
X244400000Y-102100000D02*
X244400000Y-101000000D01*
X244400000Y-100600000D02*
X244400000Y-99500000D01*
X244400000Y-99100000D02*
X244400000Y-98000000D01*
X244400000Y-97600000D02*
X244400000Y-96500000D01*
X244400000Y-96100000D02*
X244400000Y-95000000D01*
X244400000Y-94600000D02*
X244400000Y-93500000D01*
X244400000Y-93100000D02*
X244400000Y-92000000D01*
X244400000Y-91600000D02*
X244400000Y-90500000D01*
X244400000Y-90100000D02*
X244400000Y-89000000D01*
X244400000Y-88600000D02*
X244400000Y-87500000D01*
X244400000Y-87100000D02*
X244400000Y-86000000D01*
X244400000Y-85600000D02*
X244400000Y-84500000D01*
X244400000Y-84100000D02*
X244400000Y-83000000D01*
X244400000Y-82600000D02*
X244400000Y-81500000D01*
X244400000Y-81100000D02*
X244400000Y-80000000D01*
X244400000Y-79600000D02*
X244400000Y-78500000D01*
X244400000Y-78100000D02*
X244400000Y-77000000D01*
X244400000Y-76600000D02*
X244400000Y-75500000D01*
X244400000Y-75100000D02*
X244400000Y-74000000D01*
X244400000Y-73600000D02*
X244400000Y-72500000D01*
X244400000Y-72100000D02*
X244400000Y-71000000D01*
X244400000Y-70600000D02*
X244400000Y-69500000D01*
X244400000Y-69100000D02*
X244400000Y-68000000D01*
X244400000Y-67600000D02*
X244400000Y-66500000D01*
X244400000Y-66100000D02*
X244400000Y-65000000D01*
X244400000Y-64600000D02*
X244400000Y-63500000D01*
X244400000Y-63100000D02*
X244400000Y-62000000D01*
X244400000Y-61600000D02*
X244400000Y-60500000D01*
X244400000Y-60100000D02*
X244400000Y-59000000D01*
X244400000Y-58600000D02*
X244400000Y-57500000D01*
X244400000Y-57100000D02*
X244400000Y-56000000D01*
X244400000Y-55600000D02*
X244400000Y-54500000D01*
X244400000Y-54100000D02*
X244400000Y-53000000D01*
X244400000Y-52600000D02*
X244400000Y-51500000D01*
X244400000Y-51100000D02*
X244400000Y-50000000D01*
X244400000Y-49600000D02*
X244400000Y-48500000D01*
X244400000Y-48100000D02*
X244400000Y-47000000D01*
X244400000Y-46600000D02*
X244400000Y-45500000D01*
X244400000Y-45100000D02*
X244400000Y-44000000D01*
X244400000Y-43600000D02*
X244400000Y-42500000D01*
X244400000Y-42100000D02*
X244400000Y-41000000D01*
X244400000Y-40600000D02*
X244400000Y-39500000D01*
X244400000Y-39100000D02*
X244400000Y-38000000D01*
X244400000Y-37600000D02*
X244400000Y-36500000D01*
X244400000Y-36100000D02*
X244400000Y-35000000D01*
X244400000Y-34600000D02*
X244400000Y-33500000D01*
X244400000Y-33100000D02*
X244400000Y-32000000D01*
X244400000Y-31600000D02*
X244400000Y-30500000D01*
X244400000Y-30100000D02*
X244400000Y-29000000D01*
X244400000Y-28600000D02*
X244400000Y-27500000D01*
X244400000Y-27100000D02*
X244400000Y-26000000D01*
X244400000Y-25600000D02*
X244400000Y-24500000D01*
X244400000Y-24100000D02*
X244400000Y-23000000D01*
X244400000Y-22600000D02*
X244400000Y-21850000D01*
X354650000Y-35550000D02*
X355500000Y-35550000D01*
X355500000Y-35550000D02*
X355500000Y-36650000D01*
X355500000Y-37050000D02*
X355500000Y-38150000D01*
X355500000Y-38550000D02*
X355500000Y-39650000D01*
X355500000Y-40050000D02*
X355500000Y-41150000D01*
X355500000Y-41550000D02*
X355500000Y-42650000D01*
X355500000Y-43050000D02*
X355500000Y-44150000D01*
X355500000Y-44550000D02*
X355500000Y-45650000D01*
X355500000Y-46050000D02*
X355500000Y-46100000D01*
X355500000Y-46100000D02*
X354650000Y-46100000D01*
X354650000Y-46100000D02*
X354650000Y-45000000D01*
X354650000Y-44600000D02*
X354650000Y-43500000D01*
X354650000Y-43100000D02*
X354650000Y-42000000D01*
X354650000Y-41600000D02*
X354650000Y-40500000D01*
X354650000Y-40100000D02*
X354650000Y-39000000D01*
X354650000Y-38600000D02*
X354650000Y-37500000D01*
X354650000Y-37100000D02*
X354650000Y-36000000D01*
X354650000Y-35600000D02*
X354650000Y-35550000D01*
X257100000Y-15800000D02*
X258200000Y-15800000D01*
X258600000Y-15800000D02*
X259700000Y-15800000D01*
X260100000Y-15800000D02*
X261200000Y-15800000D01*
X261600000Y-15800000D02*
X262700000Y-15800000D01*
X263100000Y-15800000D02*
X264200000Y-15800000D01*
X264600000Y-15800000D02*
X265700000Y-15800000D01*
X266100000Y-15800000D02*
X267200000Y-15800000D01*
X267600000Y-15800000D02*
X268700000Y-15800000D01*
X269100000Y-15800000D02*
X270200000Y-15800000D01*
X270600000Y-15800000D02*
X271700000Y-15800000D01*
X272100000Y-15800000D02*
X273200000Y-15800000D01*
X273600000Y-15800000D02*
X274700000Y-15800000D01*
X275100000Y-15800000D02*
X276200000Y-15800000D01*
X276600000Y-15800000D02*
X277700000Y-15800000D01*
X278100000Y-15800000D02*
X279200000Y-15800000D01*
X279600000Y-15800000D02*
X280700000Y-15800000D01*
X281100000Y-15800000D02*
X282200000Y-15800000D01*
X282600000Y-15800000D02*
X283700000Y-15800000D01*
X284100000Y-15800000D02*
X285200000Y-15800000D01*
X285600000Y-15800000D02*
X286700000Y-15800000D01*
X287100000Y-15800000D02*
X288200000Y-15800000D01*
X288600000Y-15800000D02*
X289700000Y-15800000D01*
X290100000Y-15800000D02*
X291200000Y-15800000D01*
X291600000Y-15800000D02*
X292700000Y-15800000D01*
X293100000Y-15800000D02*
X294200000Y-15800000D01*
X294600000Y-15800000D02*
X295700000Y-15800000D01*
X296100000Y-15800000D02*
X297200000Y-15800000D01*
X297600000Y-15800000D02*
X298700000Y-15800000D01*
X299100000Y-15800000D02*
X300200000Y-15800000D01*
X300600000Y-15800000D02*
X301700000Y-15800000D01*
X302100000Y-15800000D02*
X303200000Y-15800000D01*
X303600000Y-15800000D02*
X304700000Y-15800000D01*
X305100000Y-15800000D02*
X306200000Y-15800000D01*
X306600000Y-15800000D02*
X307700000Y-15800000D01*
X308100000Y-15800000D02*
X309200000Y-15800000D01*
X309600000Y-15800000D02*
X310700000Y-15800000D01*
X311100000Y-15800000D02*
X312200000Y-15800000D01*
X312600000Y-15800000D02*
X313700000Y-15800000D01*
X314100000Y-15800000D02*
X315200000Y-15800000D01*
X315600000Y-15800000D02*
X316700000Y-15800000D01*
X317100000Y-15800000D02*
X318200000Y-15800000D01*
X318600000Y-15800000D02*
X319700000Y-15800000D01*
X320100000Y-15800000D02*
X321200000Y-15800000D01*
X321600000Y-15800000D02*
X322700000Y-15800000D01*
X323100000Y-15800000D02*
X324200000Y-15800000D01*
X324600000Y-15800000D02*
X325700000Y-15800000D01*
X326100000Y-15800000D02*
X327200000Y-15800000D01*
X327600000Y-15800000D02*
X328700000Y-15800000D01*
X329100000Y-15800000D02*
X330200000Y-15800000D01*
X330600000Y-15800000D02*
X331700000Y-15800000D01*
X332100000Y-15800000D02*
X333200000Y-15800000D01*
X333600000Y-15800000D02*
X334700000Y-15800000D01*
X335100000Y-15800000D02*
X336200000Y-15800000D01*
X336600000Y-15800000D02*
X337700000Y-15800000D01*
X338100000Y-15800000D02*
X339200000Y-15800000D01*
X339600000Y-15800000D02*
X340350000Y-15800000D01*
X340350000Y-15800000D02*
X340350000Y-16650000D01*
X340350000Y-16650000D02*
X339250000Y-16650000D01*
X338850000Y-16650000D02*
X337750000Y-16650000D01*
X337350000Y-16650000D02*
X336250000Y-16650000D01*
X335850000Y-16650000D02*
X334750000Y-16650000D01*
X334350000Y-16650000D02*
X333250000Y-16650000D01*
X332850000Y-16650000D02*
X331750000Y-16650000D01*
X331350000Y-16650000D02*
X330250000Y-16650000D01*
X329850000Y-16650000D02*
X328750000Y-16650000D01*
X328350000Y-16650000D02*
X327250000Y-16650000D01*
X326850000Y-16650000D02*
X325750000Y-16650000D01*
X325350000Y-16650000D02*
X324250000Y-16650000D01*
X323850000Y-16650000D02*
X322750000Y-16650000D01*
X322350000Y-16650000D02*
X321250000Y-16650000D01*
X320850000Y-16650000D02*
X319750000Y-16650000D01*
X319350000Y-16650000D02*
X318250000Y-16650000D01*
X317850000Y-16650000D02*
X316750000Y-16650000D01*
X316350000Y-16650000D02*
X315250000Y-16650000D01*
X314850000Y-16650000D02*
X313750000Y-16650000D01*
X313350000Y-16650000D02*
X312250000Y-16650000D01*
X311850000Y-16650000D02*
X310750000Y-16650000D01*
X310350000Y-16650000D02*
X309250000Y-16650000D01*
X308850000Y-16650000D02*
X307750000Y-16650000D01*
X307350000Y-16650000D02*
X306250000Y-16650000D01*
X305850000Y-16650000D02*
X304750000Y-16650000D01*
X304350000Y-16650000D02*
X303250000Y-16650000D01*
X302850000Y-16650000D02*
X301750000Y-16650000D01*
X301350000Y-16650000D02*
X300250000Y-16650000D01*
X299850000Y-16650000D02*
X298750000Y-16650000D01*
X298350000Y-16650000D02*
X297250000Y-16650000D01*
X296850000Y-16650000D02*
X295750000Y-16650000D01*
X295350000Y-16650000D02*
X294250000Y-16650000D01*
X293850000Y-16650000D02*
X292750000Y-16650000D01*
X292350000Y-16650000D02*
X291250000Y-16650000D01*
X290850000Y-16650000D02*
X289750000Y-16650000D01*
X289350000Y-16650000D02*
X288250000Y-16650000D01*
X287850000Y-16650000D02*
X286750000Y-16650000D01*
X286350000Y-16650000D02*
X285250000Y-16650000D01*
X284850000Y-16650000D02*
X283750000Y-16650000D01*
X283350000Y-16650000D02*
X282250000Y-16650000D01*
X281850000Y-16650000D02*
X280750000Y-16650000D01*
X280350000Y-16650000D02*
X279250000Y-16650000D01*
X278850000Y-16650000D02*
X277750000Y-16650000D01*
X277350000Y-16650000D02*
X276250000Y-16650000D01*
X275850000Y-16650000D02*
X274750000Y-16650000D01*
X274350000Y-16650000D02*
X273250000Y-16650000D01*
X272850000Y-16650000D02*
X271750000Y-16650000D01*
X271350000Y-16650000D02*
X270250000Y-16650000D01*
X269850000Y-16650000D02*
X268750000Y-16650000D01*
X268350000Y-16650000D02*
X267250000Y-16650000D01*
X266850000Y-16650000D02*
X265750000Y-16650000D01*
X265350000Y-16650000D02*
X264250000Y-16650000D01*
X263850000Y-16650000D02*
X262750000Y-16650000D01*
X262350000Y-16650000D02*
X261250000Y-16650000D01*
X260850000Y-16650000D02*
X259750000Y-16650000D01*
X259350000Y-16650000D02*
X258250000Y-16650000D01*
X257850000Y-16650000D02*
X257100000Y-16650000D01*
X257100000Y-16650000D02*
X257100000Y-15800000D01*
X402700000Y-22300000D02*
X403800000Y-22300000D01*
X404000000Y-22300000D02*
X404000000Y-23400000D01*
X404000000Y-23800000D02*
X404000000Y-24900000D01*
X404000000Y-25300000D02*
X404000000Y-26400000D01*
X404000000Y-26800000D02*
X404000000Y-27900000D01*
X404000000Y-28300000D02*
X404000000Y-29400000D01*
X404000000Y-29800000D02*
X404000000Y-30900000D01*
X404000000Y-31300000D02*
X404000000Y-32400000D01*
X404000000Y-32800000D02*
X404000000Y-33900000D01*
X404000000Y-34300000D02*
X404000000Y-35400000D01*
X404000000Y-35800000D02*
X404000000Y-36900000D01*
X404000000Y-37300000D02*
X404000000Y-38400000D01*
X404000000Y-38800000D02*
X404000000Y-39900000D01*
X404000000Y-40300000D02*
X404000000Y-41400000D01*
X404000000Y-41800000D02*
X404000000Y-42900000D01*
X404000000Y-43300000D02*
X404000000Y-44400000D01*
X404000000Y-44800000D02*
X404000000Y-45900000D01*
X404000000Y-46300000D02*
X404000000Y-47400000D01*
X404000000Y-47800000D02*
X404000000Y-48900000D01*
X404000000Y-49300000D02*
X404000000Y-50400000D01*
X404000000Y-50800000D02*
X404000000Y-51900000D01*
X404000000Y-52300000D02*
X404000000Y-53400000D01*
X404000000Y-53800000D02*
X404000000Y-54900000D01*
X404000000Y-55300000D02*
X404000000Y-56400000D01*
X404000000Y-56800000D02*
X404000000Y-57900000D01*
X404000000Y-58300000D02*
X404000000Y-59400000D01*
X404000000Y-59800000D02*
X404000000Y-60900000D01*
X404000000Y-61300000D02*
X404000000Y-62400000D01*
X404000000Y-62800000D02*
X404000000Y-63900000D01*
X404000000Y-64300000D02*
X404000000Y-65400000D01*
X404000000Y-65800000D02*
X404000000Y-66900000D01*
X404000000Y-67300000D02*
X404000000Y-68400000D01*
X404000000Y-68800000D02*
X404000000Y-69900000D01*
X404000000Y-70300000D02*
X404000000Y-71400000D01*
X404000000Y-71800000D02*
X404000000Y-72900000D01*
X404000000Y-73300000D02*
X404000000Y-74400000D01*
X404000000Y-74800000D02*
X404000000Y-75900000D01*
X404000000Y-76300000D02*
X404000000Y-77400000D01*
X404000000Y-77800000D02*
X404000000Y-78900000D01*
X404000000Y-79300000D02*
X404000000Y-80400000D01*
X404000000Y-80800000D02*
X404000000Y-81900000D01*
X404000000Y-82300000D02*
X404000000Y-83400000D01*
X404000000Y-83800000D02*
X404000000Y-84900000D01*
X404000000Y-85300000D02*
X404000000Y-86400000D01*
X404000000Y-86800000D02*
X404000000Y-87900000D01*
X404000000Y-88300000D02*
X404000000Y-89400000D01*
X404000000Y-89800000D02*
X404000000Y-90900000D01*
X404000000Y-91300000D02*
X404000000Y-92400000D01*
X404000000Y-92800000D02*
X404000000Y-93900000D01*
X404000000Y-94300000D02*
X404000000Y-95400000D01*
X404000000Y-95800000D02*
X404000000Y-96900000D01*
X404000000Y-97300000D02*
X404000000Y-98400000D01*
X404000000Y-98800000D02*
X404000000Y-99900000D01*
X404000000Y-100300000D02*
X404000000Y-101400000D01*
X404000000Y-101800000D02*
X404000000Y-102900000D01*
X404000000Y-103300000D02*
X404000000Y-104400000D01*
X404000000Y-104800000D02*
X404000000Y-105900000D01*
X404000000Y-106300000D02*
X404000000Y-107400000D01*
X404000000Y-107800000D02*
X404000000Y-108200000D01*
X404000000Y-108200000D02*
X402900000Y-108200000D01*
X402700000Y-108200000D02*
X402700000Y-107100000D01*
X402700000Y-106700000D02*
X402700000Y-105600000D01*
X402700000Y-105200000D02*
X402700000Y-104100000D01*
X402700000Y-103700000D02*
X402700000Y-102600000D01*
X402700000Y-102200000D02*
X402700000Y-101100000D01*
X402700000Y-100700000D02*
X402700000Y-99600000D01*
X402700000Y-99200000D02*
X402700000Y-98100000D01*
X402700000Y-97700000D02*
X402700000Y-96600000D01*
X402700000Y-96200000D02*
X402700000Y-95100000D01*
X402700000Y-94700000D02*
X402700000Y-93600000D01*
X402700000Y-93200000D02*
X402700000Y-92100000D01*
X402700000Y-91700000D02*
X402700000Y-90600000D01*
X402700000Y-90200000D02*
X402700000Y-89100000D01*
X402700000Y-88700000D02*
X402700000Y-87600000D01*
X402700000Y-87200000D02*
X402700000Y-86100000D01*
X402700000Y-85700000D02*
X402700000Y-84600000D01*
X402700000Y-84200000D02*
X402700000Y-83100000D01*
X402700000Y-82700000D02*
X402700000Y-81600000D01*
X402700000Y-81200000D02*
X402700000Y-80100000D01*
X402700000Y-79700000D02*
X402700000Y-78600000D01*
X402700000Y-78200000D02*
X402700000Y-77100000D01*
X402700000Y-76700000D02*
X402700000Y-75600000D01*
X402700000Y-75200000D02*
X402700000Y-74100000D01*
X402700000Y-73700000D02*
X402700000Y-72600000D01*
X402700000Y-72200000D02*
X402700000Y-71100000D01*
X402700000Y-70700000D02*
X402700000Y-69600000D01*
X402700000Y-69200000D02*
X402700000Y-68100000D01*
X402700000Y-67700000D02*
X402700000Y-66600000D01*
X402700000Y-66200000D02*
X402700000Y-65100000D01*
X402700000Y-64700000D02*
X402700000Y-63600000D01*
X402700000Y-63200000D02*
X402700000Y-62100000D01*
X402700000Y-61700000D02*
X402700000Y-60600000D01*
X402700000Y-60200000D02*
X402700000Y-59100000D01*
X402700000Y-58700000D02*
X402700000Y-57600000D01*
X402700000Y-57200000D02*
X402700000Y-56100000D01*
X402700000Y-55700000D02*
X402700000Y-54600000D01*
X402700000Y-54200000D02*
X402700000Y-53100000D01*
X402700000Y-52700000D02*
X402700000Y-51600000D01*
X402700000Y-51200000D02*
X402700000Y-50100000D01*
X402700000Y-49700000D02*
X402700000Y-48600000D01*
X402700000Y-48200000D02*
X402700000Y-47100000D01*
X402700000Y-46700000D02*
X402700000Y-45600000D01*
X402700000Y-45200000D02*
X402700000Y-44100000D01*
X402700000Y-43700000D02*
X402700000Y-42600000D01*
X402700000Y-42200000D02*
X402700000Y-41100000D01*
X402700000Y-40700000D02*
X402700000Y-39600000D01*
X402700000Y-39200000D02*
X402700000Y-38100000D01*
X402700000Y-37700000D02*
X402700000Y-36600000D01*
X402700000Y-36200000D02*
X402700000Y-35100000D01*
X402700000Y-34700000D02*
X402700000Y-33600000D01*
X402700000Y-33200000D02*
X402700000Y-32100000D01*
X402700000Y-31700000D02*
X402700000Y-30600000D01*
X402700000Y-30200000D02*
X402700000Y-29100000D01*
X402700000Y-28700000D02*
X402700000Y-27600000D01*
X402700000Y-27200000D02*
X402700000Y-26100000D01*
X402700000Y-25700000D02*
X402700000Y-24600000D01*
X402700000Y-24200000D02*
X402700000Y-23100000D01*
X402700000Y-22700000D02*
X402700000Y-22300000D01*
X176900000Y-15800000D02*
X406000000Y-15800000D01*
X406000000Y-15800000D02*
X406000000Y-210300000D01*
X406000000Y-210300000D02*
X176900000Y-210300000D01*
X176900000Y-210300000D02*
X176900000Y-15800000D01*
X354750000Y-94950000D02*
X355600000Y-94950000D01*
X355600000Y-94950000D02*
X355600000Y-96050000D01*
X355600000Y-96450000D02*
X355600000Y-97550000D01*
X355600000Y-97950000D02*
X355600000Y-99050000D01*
X355600000Y-99450000D02*
X355600000Y-100550000D01*
X355600000Y-100950000D02*
X355600000Y-102050000D01*
X355600000Y-102450000D02*
X355600000Y-103550000D01*
X355600000Y-103950000D02*
X355600000Y-105050000D01*
X355600000Y-105450000D02*
X355600000Y-105500000D01*
X355600000Y-105500000D02*
X354750000Y-105500000D01*
X354750000Y-105500000D02*
X354750000Y-104400000D01*
X354750000Y-104000000D02*
X354750000Y-102900000D01*
X354750000Y-102500000D02*
X354750000Y-101400000D01*
X354750000Y-101000000D02*
X354750000Y-99900000D01*
X354750000Y-99500000D02*
X354750000Y-98400000D01*
X354750000Y-98000000D02*
X354750000Y-96900000D01*
X354750000Y-96500000D02*
X354750000Y-95400000D01*
X354750000Y-95000000D02*
X354750000Y-94950000D01*
X355500000Y-107300000D02*
X356600000Y-107300000D01*
X357000000Y-107300000D02*
X358100000Y-107300000D01*
X358500000Y-107300000D02*
X359600000Y-107300000D01*
X360000000Y-107300000D02*
X361100000Y-107300000D01*
X361500000Y-107300000D02*
X362600000Y-107300000D01*
X363000000Y-107300000D02*
X364100000Y-107300000D01*
X364500000Y-107300000D02*
X365600000Y-107300000D01*
X366000000Y-107300000D02*
X367100000Y-107300000D01*
X367500000Y-107300000D02*
X368600000Y-107300000D01*
X369000000Y-107300000D02*
X370100000Y-107300000D01*
X370500000Y-107300000D02*
X371600000Y-107300000D01*
X372000000Y-107300000D02*
X373100000Y-107300000D01*
X373500000Y-107300000D02*
X374600000Y-107300000D01*
X375000000Y-107300000D02*
X376100000Y-107300000D01*
X376500000Y-107300000D02*
X377600000Y-107300000D01*
X378000000Y-107300000D02*
X379100000Y-107300000D01*
X379500000Y-107300000D02*
X380600000Y-107300000D01*
X381000000Y-107300000D02*
X382100000Y-107300000D01*
X382500000Y-107300000D02*
X383600000Y-107300000D01*
X384000000Y-107300000D02*
X385100000Y-107300000D01*
X385500000Y-107300000D02*
X386600000Y-107300000D01*
X387000000Y-107300000D02*
X388100000Y-107300000D01*
X388500000Y-107300000D02*
X389600000Y-107300000D01*
X390000000Y-107300000D02*
X391100000Y-107300000D01*
X391500000Y-107300000D02*
X392600000Y-107300000D01*
X393000000Y-107300000D02*
X394100000Y-107300000D01*
X394500000Y-107300000D02*
X395600000Y-107300000D01*
X396000000Y-107300000D02*
X397100000Y-107300000D01*
X397500000Y-107300000D02*
X398600000Y-107300000D01*
X399000000Y-107300000D02*
X399000000Y-107300000D01*
X399000000Y-107300000D02*
X399000000Y-108400000D01*
X399000000Y-108400000D02*
X397900000Y-108400000D01*
X397500000Y-108400000D02*
X396400000Y-108400000D01*
X396000000Y-108400000D02*
X394900000Y-108400000D01*
X394500000Y-108400000D02*
X393400000Y-108400000D01*
X393000000Y-108400000D02*
X391900000Y-108400000D01*
X391500000Y-108400000D02*
X390400000Y-108400000D01*
X390000000Y-108400000D02*
X388900000Y-108400000D01*
X388500000Y-108400000D02*
X387400000Y-108400000D01*
X387000000Y-108400000D02*
X385900000Y-108400000D01*
X385500000Y-108400000D02*
X384400000Y-108400000D01*
X384000000Y-108400000D02*
X382900000Y-108400000D01*
X382500000Y-108400000D02*
X381400000Y-108400000D01*
X381000000Y-108400000D02*
X379900000Y-108400000D01*
X379500000Y-108400000D02*
X378400000Y-108400000D01*
X378000000Y-108400000D02*
X376900000Y-108400000D01*
X376500000Y-108400000D02*
X375400000Y-108400000D01*
X375000000Y-108400000D02*
X373900000Y-108400000D01*
X373500000Y-108400000D02*
X372400000Y-108400000D01*
X372000000Y-108400000D02*
X370900000Y-108400000D01*
X370500000Y-108400000D02*
X369400000Y-108400000D01*
X369000000Y-108400000D02*
X367900000Y-108400000D01*
X367500000Y-108400000D02*
X366400000Y-108400000D01*
X366000000Y-108400000D02*
X364900000Y-108400000D01*
X364500000Y-108400000D02*
X363400000Y-108400000D01*
X363000000Y-108400000D02*
X361900000Y-108400000D01*
X361500000Y-108400000D02*
X360400000Y-108400000D01*
X360000000Y-108400000D02*
X358900000Y-108400000D01*
X358500000Y-108400000D02*
X357400000Y-108400000D01*
X357000000Y-108400000D02*
X355900000Y-108400000D01*
X355500000Y-108400000D02*
X355500000Y-108400000D01*
X355500000Y-108400000D02*
X355500000Y-107300000D01*
X354650000Y-47850000D02*
X355500000Y-47850000D01*
X355500000Y-47850000D02*
X355500000Y-48950000D01*
X355500000Y-49350000D02*
X355500000Y-50450000D01*
X355500000Y-50850000D02*
X355500000Y-51950000D01*
X355500000Y-52350000D02*
X355500000Y-53450000D01*
X355500000Y-53850000D02*
X355500000Y-54950000D01*
X355500000Y-55350000D02*
X355500000Y-56450000D01*
X355500000Y-56850000D02*
X355500000Y-57950000D01*
X355500000Y-58350000D02*
X355500000Y-58400000D01*
X355500000Y-58400000D02*
X354650000Y-58400000D01*
X354650000Y-58400000D02*
X354650000Y-57300000D01*
X354650000Y-56900000D02*
X354650000Y-55800000D01*
X354650000Y-55400000D02*
X354650000Y-54300000D01*
X354650000Y-53900000D02*
X354650000Y-52800000D01*
X354650000Y-52400000D02*
X354650000Y-51300000D01*
X354650000Y-50900000D02*
X354650000Y-49800000D01*
X354650000Y-49400000D02*
X354650000Y-48300000D01*
X354650000Y-47900000D02*
X354650000Y-47850000D01*
X257750000Y-108050000D02*
X258850000Y-108050000D01*
X259250000Y-108050000D02*
X260350000Y-108050000D01*
X260750000Y-108050000D02*
X261850000Y-108050000D01*
X262250000Y-108050000D02*
X263350000Y-108050000D01*
X263750000Y-108050000D02*
X264850000Y-108050000D01*
X265250000Y-108050000D02*
X266350000Y-108050000D01*
X266750000Y-108050000D02*
X267850000Y-108050000D01*
X268250000Y-108050000D02*
X269350000Y-108050000D01*
X269750000Y-108050000D02*
X270850000Y-108050000D01*
X271250000Y-108050000D02*
X272350000Y-108050000D01*
X272750000Y-108050000D02*
X273850000Y-108050000D01*
X274250000Y-108050000D02*
X275350000Y-108050000D01*
X275750000Y-108050000D02*
X276850000Y-108050000D01*
X277250000Y-108050000D02*
X278350000Y-108050000D01*
X278750000Y-108050000D02*
X279850000Y-108050000D01*
X280250000Y-108050000D02*
X281350000Y-108050000D01*
X281750000Y-108050000D02*
X282850000Y-108050000D01*
X283250000Y-108050000D02*
X284350000Y-108050000D01*
X284750000Y-108050000D02*
X285850000Y-108050000D01*
X286250000Y-108050000D02*
X287350000Y-108050000D01*
X287750000Y-108050000D02*
X288850000Y-108050000D01*
X289250000Y-108050000D02*
X290350000Y-108050000D01*
X290750000Y-108050000D02*
X291850000Y-108050000D01*
X292250000Y-108050000D02*
X293350000Y-108050000D01*
X293750000Y-108050000D02*
X294850000Y-108050000D01*
X295250000Y-108050000D02*
X296350000Y-108050000D01*
X296750000Y-108050000D02*
X297850000Y-108050000D01*
X298250000Y-108050000D02*
X299350000Y-108050000D01*
X299750000Y-108050000D02*
X300850000Y-108050000D01*
X301250000Y-108050000D02*
X302350000Y-108050000D01*
X302750000Y-108050000D02*
X303850000Y-108050000D01*
X304250000Y-108050000D02*
X305350000Y-108050000D01*
X305750000Y-108050000D02*
X306850000Y-108050000D01*
X307250000Y-108050000D02*
X308350000Y-108050000D01*
X308750000Y-108050000D02*
X309850000Y-108050000D01*
X310250000Y-108050000D02*
X311350000Y-108050000D01*
X311750000Y-108050000D02*
X312850000Y-108050000D01*
X313250000Y-108050000D02*
X314350000Y-108050000D01*
X314750000Y-108050000D02*
X315850000Y-108050000D01*
X316250000Y-108050000D02*
X317350000Y-108050000D01*
X317750000Y-108050000D02*
X318850000Y-108050000D01*
X319250000Y-108050000D02*
X320350000Y-108050000D01*
X320750000Y-108050000D02*
X321850000Y-108050000D01*
X322250000Y-108050000D02*
X323350000Y-108050000D01*
X323750000Y-108050000D02*
X324850000Y-108050000D01*
X325250000Y-108050000D02*
X326350000Y-108050000D01*
X326750000Y-108050000D02*
X327850000Y-108050000D01*
X328250000Y-108050000D02*
X329350000Y-108050000D01*
X329750000Y-108050000D02*
X330850000Y-108050000D01*
X331250000Y-108050000D02*
X332350000Y-108050000D01*
X332750000Y-108050000D02*
X333850000Y-108050000D01*
X334250000Y-108050000D02*
X335350000Y-108050000D01*
X335750000Y-108050000D02*
X336850000Y-108050000D01*
X337250000Y-108050000D02*
X338350000Y-108050000D01*
X338750000Y-108050000D02*
X339850000Y-108050000D01*
X340250000Y-108050000D02*
X341000000Y-108050000D01*
X341000000Y-108050000D02*
X341000000Y-108900000D01*
X341000000Y-108900000D02*
X339900000Y-108900000D01*
X339500000Y-108900000D02*
X338400000Y-108900000D01*
X338000000Y-108900000D02*
X336900000Y-108900000D01*
X336500000Y-108900000D02*
X335400000Y-108900000D01*
X335000000Y-108900000D02*
X333900000Y-108900000D01*
X333500000Y-108900000D02*
X332400000Y-108900000D01*
X332000000Y-108900000D02*
X330900000Y-108900000D01*
X330500000Y-108900000D02*
X329400000Y-108900000D01*
X329000000Y-108900000D02*
X327900000Y-108900000D01*
X327500000Y-108900000D02*
X326400000Y-108900000D01*
X326000000Y-108900000D02*
X324900000Y-108900000D01*
X324500000Y-108900000D02*
X323400000Y-108900000D01*
X323000000Y-108900000D02*
X321900000Y-108900000D01*
X321500000Y-108900000D02*
X320400000Y-108900000D01*
X320000000Y-108900000D02*
X318900000Y-108900000D01*
X318500000Y-108900000D02*
X317400000Y-108900000D01*
X317000000Y-108900000D02*
X315900000Y-108900000D01*
X315500000Y-108900000D02*
X314400000Y-108900000D01*
X314000000Y-108900000D02*
X312900000Y-108900000D01*
X312500000Y-108900000D02*
X311400000Y-108900000D01*
X311000000Y-108900000D02*
X309900000Y-108900000D01*
X309500000Y-108900000D02*
X308400000Y-108900000D01*
X308000000Y-108900000D02*
X306900000Y-108900000D01*
X306500000Y-108900000D02*
X305400000Y-108900000D01*
X305000000Y-108900000D02*
X303900000Y-108900000D01*
X303500000Y-108900000D02*
X302400000Y-108900000D01*
X302000000Y-108900000D02*
X300900000Y-108900000D01*
X300500000Y-108900000D02*
X299400000Y-108900000D01*
X299000000Y-108900000D02*
X297900000Y-108900000D01*
X297500000Y-108900000D02*
X296400000Y-108900000D01*
X296000000Y-108900000D02*
X294900000Y-108900000D01*
X294500000Y-108900000D02*
X293400000Y-108900000D01*
X293000000Y-108900000D02*
X291900000Y-108900000D01*
X291500000Y-108900000D02*
X290400000Y-108900000D01*
X290000000Y-108900000D02*
X288900000Y-108900000D01*
X288500000Y-108900000D02*
X287400000Y-108900000D01*
X287000000Y-108900000D02*
X285900000Y-108900000D01*
X285500000Y-108900000D02*
X284400000Y-108900000D01*
X284000000Y-108900000D02*
X282900000Y-108900000D01*
X282500000Y-108900000D02*
X281400000Y-108900000D01*
X281000000Y-108900000D02*
X279900000Y-108900000D01*
X279500000Y-108900000D02*
X278400000Y-108900000D01*
X278000000Y-108900000D02*
X276900000Y-108900000D01*
X276500000Y-108900000D02*
X275400000Y-108900000D01*
X275000000Y-108900000D02*
X273900000Y-108900000D01*
X273500000Y-108900000D02*
X272400000Y-108900000D01*
X272000000Y-108900000D02*
X270900000Y-108900000D01*
X270500000Y-108900000D02*
X269400000Y-108900000D01*
X269000000Y-108900000D02*
X267900000Y-108900000D01*
X267500000Y-108900000D02*
X266400000Y-108900000D01*
X266000000Y-108900000D02*
X264900000Y-108900000D01*
X264500000Y-108900000D02*
X263400000Y-108900000D01*
X263000000Y-108900000D02*
X261900000Y-108900000D01*
X261500000Y-108900000D02*
X260400000Y-108900000D01*
X260000000Y-108900000D02*
X258900000Y-108900000D01*
X258500000Y-108900000D02*
X257750000Y-108900000D01*
X257750000Y-108900000D02*
X257750000Y-108050000D01*
X354650000Y-83450000D02*
X355500000Y-83450000D01*
X355500000Y-83450000D02*
X355500000Y-84550000D01*
X355500000Y-84950000D02*
X355500000Y-86050000D01*
X355500000Y-86450000D02*
X355500000Y-87550000D01*
X355500000Y-87950000D02*
X355500000Y-89050000D01*
X355500000Y-89450000D02*
X355500000Y-90550000D01*
X355500000Y-90950000D02*
X355500000Y-92050000D01*
X355500000Y-92450000D02*
X355500000Y-93550000D01*
X355500000Y-93950000D02*
X355500000Y-94000000D01*
X355500000Y-94000000D02*
X354650000Y-94000000D01*
X354650000Y-94000000D02*
X354650000Y-92900000D01*
X354650000Y-92500000D02*
X354650000Y-91400000D01*
X354650000Y-91000000D02*
X354650000Y-89900000D01*
X354650000Y-89500000D02*
X354650000Y-88400000D01*
X354650000Y-88000000D02*
X354650000Y-86900000D01*
X354650000Y-86500000D02*
X354650000Y-85400000D01*
X354650000Y-85000000D02*
X354650000Y-83900000D01*
X354650000Y-83500000D02*
X354650000Y-83450000D01*
X356400000Y-22000000D02*
X357500000Y-22000000D01*
X357900000Y-22000000D02*
X359000000Y-22000000D01*
X359400000Y-22000000D02*
X360500000Y-22000000D01*
X360900000Y-22000000D02*
X362000000Y-22000000D01*
X362400000Y-22000000D02*
X363500000Y-22000000D01*
X363900000Y-22000000D02*
X365000000Y-22000000D01*
X365400000Y-22000000D02*
X366500000Y-22000000D01*
X366900000Y-22000000D02*
X368000000Y-22000000D01*
X368400000Y-22000000D02*
X369500000Y-22000000D01*
X369900000Y-22000000D02*
X371000000Y-22000000D01*
X371400000Y-22000000D02*
X372500000Y-22000000D01*
X372900000Y-22000000D02*
X374000000Y-22000000D01*
X374400000Y-22000000D02*
X375500000Y-22000000D01*
X375900000Y-22000000D02*
X377000000Y-22000000D01*
X377400000Y-22000000D02*
X378500000Y-22000000D01*
X378900000Y-22000000D02*
X380000000Y-22000000D01*
X380400000Y-22000000D02*
X381500000Y-22000000D01*
X381900000Y-22000000D02*
X383000000Y-22000000D01*
X383400000Y-22000000D02*
X384500000Y-22000000D01*
X384900000Y-22000000D02*
X386000000Y-22000000D01*
X386400000Y-22000000D02*
X387500000Y-22000000D01*
X387900000Y-22000000D02*
X389000000Y-22000000D01*
X389400000Y-22000000D02*
X390500000Y-22000000D01*
X390900000Y-22000000D02*
X392000000Y-22000000D01*
X392400000Y-22000000D02*
X393500000Y-22000000D01*
X393900000Y-22000000D02*
X395000000Y-22000000D01*
X395400000Y-22000000D02*
X396500000Y-22000000D01*
X396900000Y-22000000D02*
X398000000Y-22000000D01*
X398400000Y-22000000D02*
X399500000Y-22000000D01*
X399900000Y-22000000D02*
X399900000Y-22000000D01*
X399900000Y-22000000D02*
X399900000Y-23100000D01*
X399900000Y-23100000D02*
X398800000Y-23100000D01*
X398400000Y-23100000D02*
X397300000Y-23100000D01*
X396900000Y-23100000D02*
X395800000Y-23100000D01*
X395400000Y-23100000D02*
X394300000Y-23100000D01*
X393900000Y-23100000D02*
X392800000Y-23100000D01*
X392400000Y-23100000D02*
X391300000Y-23100000D01*
X390900000Y-23100000D02*
X389800000Y-23100000D01*
X389400000Y-23100000D02*
X388300000Y-23100000D01*
X387900000Y-23100000D02*
X386800000Y-23100000D01*
X386400000Y-23100000D02*
X385300000Y-23100000D01*
X384900000Y-23100000D02*
X383800000Y-23100000D01*
X383400000Y-23100000D02*
X382300000Y-23100000D01*
X381900000Y-23100000D02*
X380800000Y-23100000D01*
X380400000Y-23100000D02*
X379300000Y-23100000D01*
X378900000Y-23100000D02*
X377800000Y-23100000D01*
X377400000Y-23100000D02*
X376300000Y-23100000D01*
X375900000Y-23100000D02*
X374800000Y-23100000D01*
X374400000Y-23100000D02*
X373300000Y-23100000D01*
X372900000Y-23100000D02*
X371800000Y-23100000D01*
X371400000Y-23100000D02*
X370300000Y-23100000D01*
X369900000Y-23100000D02*
X368800000Y-23100000D01*
X368400000Y-23100000D02*
X367300000Y-23100000D01*
X366900000Y-23100000D02*
X365800000Y-23100000D01*
X365400000Y-23100000D02*
X364300000Y-23100000D01*
X363900000Y-23100000D02*
X362800000Y-23100000D01*
X362400000Y-23100000D02*
X361300000Y-23100000D01*
X360900000Y-23100000D02*
X359800000Y-23100000D01*
X359400000Y-23100000D02*
X358300000Y-23100000D01*
X357900000Y-23100000D02*
X356800000Y-23100000D01*
X356400000Y-23100000D02*
X356400000Y-23100000D01*
X356400000Y-23100000D02*
X356400000Y-22000000D01*
%TO.C,PCIe_J4*%
X257250000Y-99650000D02*
X257250000Y-107550000D01*
X257250000Y-107550000D02*
X257750000Y-108050000D01*
X257750000Y-108050000D02*
X267950000Y-108050000D01*
X268450000Y-100600000D02*
X268450000Y-107550000D01*
X268450000Y-107550000D02*
X267950000Y-108050000D01*
X270350000Y-100600000D02*
X270350000Y-107550000D01*
X270350000Y-107550000D02*
X270850000Y-108050000D01*
X270850000Y-108050000D02*
X341050000Y-108050000D01*
X341550000Y-99650000D02*
X341550000Y-107550000D01*
X341550000Y-107550000D02*
X341050000Y-108050000D01*
X270350000Y-100600000D02*
G75*
G03*
X268450000Y-100600000I-950000J0D01*
G01*
%TO.C,PCIe_J2*%
X253650000Y-21350000D02*
X245750000Y-21350000D01*
X245750000Y-21350000D02*
X245250000Y-21850000D01*
X245250000Y-21850000D02*
X245250000Y-32050000D01*
X252700000Y-32550000D02*
X245750000Y-32550000D01*
X245750000Y-32550000D02*
X245250000Y-32050000D01*
X252700000Y-34450000D02*
X245750000Y-34450000D01*
X245750000Y-34450000D02*
X245250000Y-34950000D01*
X245250000Y-34950000D02*
X245250000Y-105150000D01*
X253650000Y-105650000D02*
X245750000Y-105650000D01*
X245750000Y-105650000D02*
X245250000Y-105150000D01*
X252700000Y-34450000D02*
G75*
G03*
X252700000Y-32550000I0J950000D01*
G01*
%TO.C,PCIe_J1*%
X346250000Y-106050000D02*
X354150000Y-106050000D01*
X354150000Y-106050000D02*
X354650000Y-105550000D01*
X354650000Y-105550000D02*
X354650000Y-95350000D01*
X347200000Y-94850000D02*
X354150000Y-94850000D01*
X354150000Y-94850000D02*
X354650000Y-95350000D01*
X347200000Y-92950000D02*
X354150000Y-92950000D01*
X354150000Y-92950000D02*
X354650000Y-92450000D01*
X354650000Y-92450000D02*
X354650000Y-22250000D01*
X346250000Y-21750000D02*
X354150000Y-21750000D01*
X354150000Y-21750000D02*
X354650000Y-22250000D01*
X347200000Y-92950000D02*
G75*
G03*
X347200000Y-94850000I0J-950000D01*
G01*
%TO.C,PCIe_J3*%
X340850000Y-25050000D02*
X340850000Y-17150000D01*
X340850000Y-17150000D02*
X340350000Y-16650000D01*
X340350000Y-16650000D02*
X330150000Y-16650000D01*
X329650000Y-24100000D02*
X329650000Y-17150000D01*
X329650000Y-17150000D02*
X330150000Y-16650000D01*
X327750000Y-24100000D02*
X327750000Y-17150000D01*
X327750000Y-17150000D02*
X327250000Y-16650000D01*
X327250000Y-16650000D02*
X257050000Y-16650000D01*
X256550000Y-25050000D02*
X256550000Y-17150000D01*
X256550000Y-17150000D02*
X257050000Y-16650000D01*
X327750000Y-24100000D02*
G75*
G03*
X329650000Y-24100000I950000J0D01*
G01*
%TD*%
M02*
