%TF.GenerationSoftware,KiCad,Pcbnew,(7.0.0)*%
%TF.CreationDate,2023-03-18T13:26:35-04:00*%
%TF.ProjectId,FPGAs-Ard_RPi_BB,46504741-732d-4417-9264-5f5250695f42,rev?*%
%TF.SameCoordinates,Original*%
%TF.FileFunction,Paste,Top*%
%TF.FilePolarity,Positive*%
%FSLAX46Y46*%
G04 Gerber Fmt 4.6, Leading zero omitted, Abs format (unit mm)*
G04 Created by KiCad (PCBNEW (7.0.0)) date 2023-03-18 13:26:35*
%MOMM*%
%LPD*%
G01*
G04 APERTURE LIST*
G04 Aperture macros list*
%AMRoundRect*
0 Rectangle with rounded corners*
0 $1 Rounding radius*
0 $2 $3 $4 $5 $6 $7 $8 $9 X,Y pos of 4 corners*
0 Add a 4 corners polygon primitive as box body*
4,1,4,$2,$3,$4,$5,$6,$7,$8,$9,$2,$3,0*
0 Add four circle primitives for the rounded corners*
1,1,$1+$1,$2,$3*
1,1,$1+$1,$4,$5*
1,1,$1+$1,$6,$7*
1,1,$1+$1,$8,$9*
0 Add four rect primitives between the rounded corners*
20,1,$1+$1,$2,$3,$4,$5,0*
20,1,$1+$1,$4,$5,$6,$7,0*
20,1,$1+$1,$6,$7,$8,$9,0*
20,1,$1+$1,$8,$9,$2,$3,0*%
G04 Aperture macros list end*
%ADD10RoundRect,0.140000X0.170000X-0.140000X0.170000X0.140000X-0.170000X0.140000X-0.170000X-0.140000X0*%
%ADD11RoundRect,0.250000X-0.350000X-0.450000X0.350000X-0.450000X0.350000X0.450000X-0.350000X0.450000X0*%
%ADD12RoundRect,0.250000X0.450000X-0.350000X0.450000X0.350000X-0.450000X0.350000X-0.450000X-0.350000X0*%
%ADD13RoundRect,0.140000X-0.170000X0.140000X-0.170000X-0.140000X0.170000X-0.140000X0.170000X0.140000X0*%
%ADD14RoundRect,0.140000X0.140000X0.170000X-0.140000X0.170000X-0.140000X-0.170000X0.140000X-0.170000X0*%
%ADD15RoundRect,0.250000X0.350000X0.450000X-0.350000X0.450000X-0.350000X-0.450000X0.350000X-0.450000X0*%
%ADD16RoundRect,0.250000X0.850000X-0.375000X0.850000X0.375000X-0.850000X0.375000X-0.850000X-0.375000X0*%
%ADD17RoundRect,0.250000X-0.325000X-0.650000X0.325000X-0.650000X0.325000X0.650000X-0.325000X0.650000X0*%
%ADD18RoundRect,0.243750X0.456250X-0.243750X0.456250X0.243750X-0.456250X0.243750X-0.456250X-0.243750X0*%
%ADD19RoundRect,0.250000X-0.450000X0.262500X-0.450000X-0.262500X0.450000X-0.262500X0.450000X0.262500X0*%
%ADD20RoundRect,0.250000X-0.450000X0.350000X-0.450000X-0.350000X0.450000X-0.350000X0.450000X0.350000X0*%
%ADD21RoundRect,0.079500X-0.079500X-0.100500X0.079500X-0.100500X0.079500X0.100500X-0.079500X0.100500X0*%
%ADD22C,0.787400*%
%ADD23RoundRect,0.250000X-0.475000X0.250000X-0.475000X-0.250000X0.475000X-0.250000X0.475000X0.250000X0*%
%ADD24RoundRect,0.250000X-0.262500X-0.450000X0.262500X-0.450000X0.262500X0.450000X-0.262500X0.450000X0*%
%ADD25R,0.400000X0.380000*%
%ADD26RoundRect,0.250000X0.475000X-0.250000X0.475000X0.250000X-0.475000X0.250000X-0.475000X-0.250000X0*%
%ADD27R,1.295400X0.685800*%
%ADD28RoundRect,0.250000X0.250000X0.475000X-0.250000X0.475000X-0.250000X-0.475000X0.250000X-0.475000X0*%
%ADD29RoundRect,0.250000X0.262500X0.450000X-0.262500X0.450000X-0.262500X-0.450000X0.262500X-0.450000X0*%
%ADD30RoundRect,0.079500X0.079500X0.100500X-0.079500X0.100500X-0.079500X-0.100500X0.079500X-0.100500X0*%
%ADD31RoundRect,0.250000X0.450000X-0.262500X0.450000X0.262500X-0.450000X0.262500X-0.450000X-0.262500X0*%
%ADD32RoundRect,0.243750X-0.456250X0.243750X-0.456250X-0.243750X0.456250X-0.243750X0.456250X0.243750X0*%
%ADD33O,4.013200X1.295400*%
%ADD34O,1.295400X4.013200*%
%ADD35RoundRect,0.140000X-0.140000X-0.170000X0.140000X-0.170000X0.140000X0.170000X-0.140000X0.170000X0*%
%ADD36RoundRect,0.125000X-0.125000X0.125000X-0.125000X-0.125000X0.125000X-0.125000X0.125000X0.125000X0*%
%ADD37R,1.050000X0.840000*%
%ADD38R,0.800000X0.800000*%
%ADD39C,0.355600*%
%ADD40R,1.100000X1.300000*%
%ADD41R,0.400000X1.350000*%
%ADD42R,1.500000X1.900000*%
%ADD43RoundRect,0.243750X-0.243750X-0.456250X0.243750X-0.456250X0.243750X0.456250X-0.243750X0.456250X0*%
%ADD44RoundRect,0.250000X-0.250000X-0.475000X0.250000X-0.475000X0.250000X0.475000X-0.250000X0.475000X0*%
%ADD45R,1.397000X1.193800*%
%ADD46RoundRect,0.177500X-0.177500X-0.397500X0.177500X-0.397500X0.177500X0.397500X-0.177500X0.397500X0*%
%ADD47RoundRect,0.062500X-0.362500X-0.062500X0.362500X-0.062500X0.362500X0.062500X-0.362500X0.062500X0*%
%ADD48RoundRect,0.062500X-0.062500X-0.362500X0.062500X-0.362500X0.062500X0.362500X-0.062500X0.362500X0*%
%ADD49RoundRect,0.150000X-0.875000X-0.150000X0.875000X-0.150000X0.875000X0.150000X-0.875000X0.150000X0*%
%ADD50RoundRect,0.250000X-0.375000X-0.850000X0.375000X-0.850000X0.375000X0.850000X-0.375000X0.850000X0*%
G04 APERTURE END LIST*
D10*
%TO.C,U1_C20*%
X291575001Y-59650001D03*
X291575001Y-58690001D03*
%TD*%
%TO.C,U1_C21*%
X291575001Y-62130001D03*
X291575001Y-61170001D03*
%TD*%
D11*
%TO.C,R2*%
X294174999Y-80599999D03*
X296174999Y-80599999D03*
%TD*%
D12*
%TO.C,R1*%
X309674999Y-96099999D03*
X309674999Y-94099999D03*
%TD*%
D13*
%TO.C,U1_C7*%
X308575001Y-56650001D03*
X308575001Y-57610001D03*
%TD*%
D14*
%TO.C,U1_C39*%
X297845001Y-70400001D03*
X298805001Y-70400001D03*
%TD*%
D15*
%TO.C,R11*%
X269640000Y-95050000D03*
X267640000Y-95050000D03*
%TD*%
D16*
%TO.C,PR_L2*%
X256297500Y-132463500D03*
X256297500Y-130313500D03*
%TD*%
D17*
%TO.C,U1_C9*%
X308900000Y-71750000D03*
X311850000Y-71750000D03*
%TD*%
D18*
%TO.C,D3*%
X280047500Y-126593500D03*
X280047500Y-124718500D03*
%TD*%
D19*
%TO.C,PR_R11*%
X262047500Y-130476000D03*
X262047500Y-132301000D03*
%TD*%
D15*
%TO.C,R5*%
X301625000Y-80500000D03*
X299625000Y-80500000D03*
%TD*%
D20*
%TO.C,R6*%
X273390000Y-82550000D03*
X273390000Y-84550000D03*
%TD*%
D21*
%TO.C,PR_R1*%
X381695000Y-166825000D03*
X382385000Y-166825000D03*
%TD*%
D22*
%TO.C,TC2030*%
X370969000Y-50600000D03*
X372239000Y-50600000D03*
X370969000Y-51870000D03*
X372239000Y-51870000D03*
X370969000Y-53140000D03*
X372239000Y-53140000D03*
%TD*%
D14*
%TO.C,U1_C2*%
X294285001Y-70400001D03*
X293325001Y-70400001D03*
%TD*%
D20*
%TO.C,R14*%
X278375000Y-57000000D03*
X278375000Y-59000000D03*
%TD*%
D10*
%TO.C,U1_C13*%
X289825001Y-62110001D03*
X289825001Y-61150001D03*
%TD*%
%TO.C,U1_C11*%
X289825001Y-57110001D03*
X289825001Y-56150001D03*
%TD*%
D14*
%TO.C,U1_C41*%
X298805001Y-71650001D03*
X297845001Y-71650001D03*
%TD*%
%TO.C,U1_C16*%
X291765001Y-70400001D03*
X290805001Y-70400001D03*
%TD*%
D23*
%TO.C,PR_C1*%
X382540000Y-170625000D03*
X382540000Y-172525000D03*
%TD*%
D13*
%TO.C,U1_C6*%
X308575001Y-59150001D03*
X308575001Y-60110001D03*
%TD*%
D24*
%TO.C,PR_R15*%
X278385000Y-128906000D03*
X280210000Y-128906000D03*
%TD*%
D25*
%TO.C,PR_FB1*%
X285709999Y-165975999D03*
X285709999Y-165413999D03*
%TD*%
D26*
%TO.C,C3*%
X306125000Y-50950000D03*
X306125000Y-49050000D03*
%TD*%
D13*
%TO.C,U1_C31*%
X311825001Y-64400001D03*
X311825001Y-65360001D03*
%TD*%
D27*
%TO.C,Y3*%
X281124999Y-58999999D03*
X281124999Y-60269999D03*
X281124999Y-61539999D03*
X283639599Y-61539999D03*
X283639599Y-60269999D03*
X283639599Y-58999999D03*
%TD*%
D22*
%TO.C,TC2050_1*%
X366538000Y-65387000D03*
X366538000Y-66657000D03*
X366538000Y-67927000D03*
X366538000Y-69190000D03*
X366538000Y-70460000D03*
X367808000Y-70460000D03*
X367808000Y-69190000D03*
X367808000Y-67927000D03*
X367808000Y-66657000D03*
X367808000Y-65387000D03*
%TD*%
%TO.C,TC2070*%
X358538000Y-65047000D03*
X358538000Y-66317000D03*
X358538000Y-67587000D03*
X358538000Y-68850000D03*
X358538000Y-70120000D03*
X358538000Y-71390000D03*
X358538000Y-72660000D03*
X359808000Y-72660000D03*
X359808000Y-71390000D03*
X359808000Y-70120000D03*
X359808000Y-68850000D03*
X359808000Y-67587000D03*
X359808000Y-66317000D03*
X359808000Y-65047000D03*
%TD*%
D10*
%TO.C,U1_C18*%
X308575001Y-62360001D03*
X308575001Y-61400001D03*
%TD*%
D28*
%TO.C,PR_C16*%
X272497500Y-122976000D03*
X270597500Y-122976000D03*
%TD*%
D10*
%TO.C,U1_C14*%
X289825001Y-64610001D03*
X289825001Y-63650001D03*
%TD*%
D14*
%TO.C,U1_C3*%
X301285001Y-70400001D03*
X300325001Y-70400001D03*
%TD*%
D26*
%TO.C,C1*%
X291174999Y-85299999D03*
X291174999Y-83399999D03*
%TD*%
D14*
%TO.C,U1_C38*%
X296580000Y-72900000D03*
X295620000Y-72900000D03*
%TD*%
D17*
%TO.C,U1_C34*%
X310850001Y-59650001D03*
X313800001Y-59650001D03*
%TD*%
D29*
%TO.C,PR_R13*%
X272460000Y-125476000D03*
X270635000Y-125476000D03*
%TD*%
D10*
%TO.C,U1_C33*%
X287075001Y-60860001D03*
X287075001Y-59900001D03*
%TD*%
D30*
%TO.C,PR_D1*%
X382385000Y-165575000D03*
X381695000Y-165575000D03*
%TD*%
D26*
%TO.C,PR_C11*%
X255797500Y-123886000D03*
X255797500Y-121986000D03*
%TD*%
D16*
%TO.C,PR_L1*%
X256047500Y-118713500D03*
X256047500Y-116563500D03*
%TD*%
D11*
%TO.C,R9*%
X282890000Y-95050000D03*
X284890000Y-95050000D03*
%TD*%
D10*
%TO.C,U1_C32*%
X288325001Y-60880001D03*
X288325001Y-59920001D03*
%TD*%
D31*
%TO.C,PR_R14*%
X274210000Y-168638500D03*
X274210000Y-166813500D03*
%TD*%
D19*
%TO.C,PR_R9*%
X261547500Y-116726000D03*
X261547500Y-118551000D03*
%TD*%
D13*
%TO.C,U1_C8*%
X310575001Y-56670001D03*
X310575001Y-57630001D03*
%TD*%
D11*
%TO.C,R4*%
X290924999Y-92849999D03*
X292924999Y-92849999D03*
%TD*%
D31*
%TO.C,PR_R10*%
X264547500Y-132301000D03*
X264547500Y-130476000D03*
%TD*%
D13*
%TO.C,U1_C30*%
X310575001Y-65380001D03*
X310575001Y-64420001D03*
%TD*%
%TO.C,U1_C28*%
X311825001Y-61920001D03*
X311825001Y-62880001D03*
%TD*%
D14*
%TO.C,U1_C4*%
X303785001Y-70400001D03*
X302825001Y-70400001D03*
%TD*%
D32*
%TO.C,D2*%
X271210000Y-166788500D03*
X271210000Y-168663500D03*
%TD*%
D33*
%TO.C,DC_PWR_J2*%
X391924987Y-144449999D03*
D34*
X386624999Y-146749999D03*
X389124999Y-150449999D03*
%TD*%
D14*
%TO.C,U1_C42*%
X298805001Y-72900001D03*
X297845001Y-72900001D03*
%TD*%
D10*
%TO.C,U1_C12*%
X289825001Y-59610001D03*
X289825001Y-58650001D03*
%TD*%
D14*
%TO.C,U1_C24*%
X288325001Y-65150001D03*
X287365001Y-65150001D03*
%TD*%
D35*
%TO.C,U1_C36*%
X310615001Y-66900001D03*
X311575001Y-66900001D03*
%TD*%
D13*
%TO.C,U1_C27*%
X310575001Y-61920001D03*
X310575001Y-62880001D03*
%TD*%
D23*
%TO.C,PR_C13*%
X267047500Y-116688500D03*
X267047500Y-118588500D03*
%TD*%
D36*
%TO.C,D1*%
X280047500Y-119556000D03*
X280047500Y-121756000D03*
%TD*%
D23*
%TO.C,PR_C14*%
X259547500Y-130438500D03*
X259547500Y-132338500D03*
%TD*%
D28*
%TO.C,PR_C17*%
X272447500Y-130226000D03*
X270547500Y-130226000D03*
%TD*%
D37*
%TO.C,Y1*%
X316147499Y-70229999D03*
X316147499Y-71499999D03*
X316147499Y-72769999D03*
X318367499Y-72769999D03*
X318367499Y-71499999D03*
X318367499Y-70229999D03*
D38*
X317257499Y-69449999D03*
X317257499Y-73549999D03*
%TD*%
D39*
%TO.C,U1*%
X294825001Y-55650001D03*
X295625001Y-55650001D03*
X296425000Y-55650001D03*
X297225000Y-55650001D03*
X298025000Y-55650001D03*
X298825000Y-55650001D03*
X299625000Y-55650001D03*
X300425000Y-55650001D03*
X301225000Y-55650001D03*
X302025000Y-55650001D03*
X302825000Y-55650001D03*
X303625000Y-55650001D03*
X304425000Y-55650001D03*
X305224999Y-55650001D03*
X306024999Y-55650001D03*
X294825001Y-56450001D03*
X295625001Y-56450001D03*
X296425000Y-56450001D03*
X297225000Y-56450001D03*
X298025000Y-56450001D03*
X298825000Y-56450001D03*
X299625000Y-56450001D03*
X300425000Y-56450001D03*
X301225000Y-56450001D03*
X302025000Y-56450001D03*
X302825000Y-56450001D03*
X303625000Y-56450001D03*
X304425000Y-56450001D03*
X305224999Y-56450001D03*
X306024999Y-56450001D03*
X294825001Y-57250000D03*
X295625001Y-57250000D03*
X296425000Y-57250000D03*
X297225000Y-57250000D03*
X298025000Y-57250000D03*
X298825000Y-57250000D03*
X299625000Y-57250000D03*
X300425000Y-57250000D03*
X301225000Y-57250000D03*
X302025000Y-57250000D03*
X302825000Y-57250000D03*
X303625000Y-57250000D03*
X304425000Y-57250000D03*
X305224999Y-57250000D03*
X306024999Y-57250000D03*
X294825001Y-58050000D03*
X295625001Y-58050000D03*
X296425000Y-58050000D03*
X297225000Y-58050000D03*
X298025000Y-58050000D03*
X298825000Y-58050000D03*
X299625000Y-58050000D03*
X300425000Y-58050000D03*
X301225000Y-58050000D03*
X302025000Y-58050000D03*
X302825000Y-58050000D03*
X303625000Y-58050000D03*
X304425000Y-58050000D03*
X305224999Y-58050000D03*
X306024999Y-58050000D03*
X294825001Y-58850000D03*
X295625001Y-58850000D03*
X296425000Y-58850000D03*
X297225000Y-58850000D03*
X298025000Y-58850000D03*
X298825000Y-58850000D03*
X299625000Y-58850000D03*
X300425000Y-58850000D03*
X301225000Y-58850000D03*
X302025000Y-58850000D03*
X302825000Y-58850000D03*
X303625000Y-58850000D03*
X304425000Y-58850000D03*
X305224999Y-58850000D03*
X306024999Y-58850000D03*
X294825001Y-59650000D03*
X295625001Y-59650000D03*
X296425000Y-59650000D03*
X297225000Y-59650000D03*
X298025000Y-59650000D03*
X298825000Y-59650000D03*
X299625000Y-59650000D03*
X300425000Y-59650000D03*
X301225000Y-59650000D03*
X302025000Y-59650000D03*
X302825000Y-59650000D03*
X303625000Y-59650000D03*
X304425000Y-59650000D03*
X305224999Y-59650000D03*
X306024999Y-59650000D03*
X294825001Y-60450000D03*
X295625001Y-60450000D03*
X296425000Y-60450000D03*
X297225000Y-60450000D03*
X298025000Y-60450000D03*
X298825000Y-60450000D03*
X299625000Y-60450000D03*
X300425000Y-60450000D03*
X301225000Y-60450000D03*
X302025000Y-60450000D03*
X302825000Y-60450000D03*
X303625000Y-60450000D03*
X304425000Y-60450000D03*
X305224999Y-60450000D03*
X306024999Y-60450000D03*
X294825001Y-61250000D03*
X295625001Y-61250000D03*
X296425000Y-61250000D03*
X297225000Y-61250000D03*
X298025000Y-61250000D03*
X298825000Y-61250000D03*
X299625000Y-61250000D03*
X300425000Y-61250000D03*
X301225000Y-61250000D03*
X302025000Y-61250000D03*
X302825000Y-61250000D03*
X303625000Y-61250000D03*
X304425000Y-61250000D03*
X305224999Y-61250000D03*
X306024999Y-61250000D03*
X294825001Y-62050000D03*
X295625001Y-62050000D03*
X296425000Y-62050000D03*
X297225000Y-62050000D03*
X298025000Y-62050000D03*
X298825000Y-62050000D03*
X299625000Y-62050000D03*
X300425000Y-62050000D03*
X301225000Y-62050000D03*
X302025000Y-62050000D03*
X302825000Y-62050000D03*
X303625000Y-62050000D03*
X304425000Y-62050000D03*
X305224999Y-62050000D03*
X306024999Y-62050000D03*
X294825001Y-62850000D03*
X295625001Y-62850000D03*
X296425000Y-62850000D03*
X297225000Y-62850000D03*
X298025000Y-62850000D03*
X298825000Y-62850000D03*
X299625000Y-62850000D03*
X300425000Y-62850000D03*
X301225000Y-62850000D03*
X302025000Y-62850000D03*
X302825000Y-62850000D03*
X303625000Y-62850000D03*
X304425000Y-62850000D03*
X305224999Y-62850000D03*
X306024999Y-62850000D03*
X294825001Y-63650000D03*
X295625001Y-63650000D03*
X296425000Y-63650000D03*
X297225000Y-63650000D03*
X298025000Y-63650000D03*
X298825000Y-63650000D03*
X299625000Y-63650000D03*
X300425000Y-63650000D03*
X301225000Y-63650000D03*
X302025000Y-63650000D03*
X302825000Y-63650000D03*
X303625000Y-63650000D03*
X304425000Y-63650000D03*
X305224999Y-63650000D03*
X306024999Y-63650000D03*
X294825001Y-64450000D03*
X295625001Y-64450000D03*
X296425000Y-64450000D03*
X297225000Y-64450000D03*
X298025000Y-64450000D03*
X298825000Y-64450000D03*
X299625000Y-64450000D03*
X300425000Y-64450000D03*
X301225000Y-64450000D03*
X302025000Y-64450000D03*
X302825000Y-64450000D03*
X303625000Y-64450000D03*
X304425000Y-64450000D03*
X305224999Y-64450000D03*
X306024999Y-64450000D03*
X294825001Y-65250000D03*
X295625001Y-65250000D03*
X296425000Y-65250000D03*
X297225000Y-65250000D03*
X298025000Y-65250000D03*
X298825000Y-65250000D03*
X299625000Y-65250000D03*
X300425000Y-65250000D03*
X301225000Y-65250000D03*
X302025000Y-65250000D03*
X302825000Y-65250000D03*
X303625000Y-65250000D03*
X304425000Y-65250000D03*
X305224999Y-65250000D03*
X306024999Y-65250000D03*
X294825001Y-66049999D03*
X295625001Y-66049999D03*
X296425000Y-66049999D03*
X297225000Y-66049999D03*
X298025000Y-66049999D03*
X298825000Y-66049999D03*
X299625000Y-66049999D03*
X300425000Y-66049999D03*
X301225000Y-66049999D03*
X302025000Y-66049999D03*
X302825000Y-66049999D03*
X303625000Y-66049999D03*
X304425000Y-66049999D03*
X305224999Y-66049999D03*
X306024999Y-66049999D03*
X294825001Y-66849999D03*
X295625001Y-66849999D03*
X296425000Y-66849999D03*
X297225000Y-66849999D03*
X298025000Y-66849999D03*
X298825000Y-66849999D03*
X299625000Y-66849999D03*
X300425000Y-66849999D03*
X301225000Y-66849999D03*
X302025000Y-66849999D03*
X302825000Y-66849999D03*
X303625000Y-66849999D03*
X304425000Y-66849999D03*
X305224999Y-66849999D03*
X306024999Y-66849999D03*
%TD*%
D40*
%TO.C,Y2*%
X280174999Y-67099999D03*
X280174999Y-69399999D03*
X282074999Y-69399999D03*
X282074999Y-67099999D03*
%TD*%
D13*
%TO.C,U1_C29*%
X313075001Y-61900001D03*
X313075001Y-62860001D03*
%TD*%
D14*
%TO.C,U1_C25*%
X288325001Y-66400001D03*
X287365001Y-66400001D03*
%TD*%
D31*
%TO.C,PR_R16*%
X287625000Y-58162500D03*
X287625000Y-56337500D03*
%TD*%
D20*
%TO.C,R8*%
X279140000Y-82550000D03*
X279140000Y-84550000D03*
%TD*%
D35*
%TO.C,U1_C37*%
X308595001Y-68150001D03*
X309555001Y-68150001D03*
%TD*%
D20*
%TO.C,R13*%
X313625000Y-67250000D03*
X313625000Y-69250000D03*
%TD*%
D17*
%TO.C,U1_C23*%
X312600001Y-56900001D03*
X315550001Y-56900001D03*
%TD*%
D24*
%TO.C,PR_R12*%
X270547500Y-127976000D03*
X272372500Y-127976000D03*
%TD*%
D14*
%TO.C,U1_C26*%
X288325001Y-67650001D03*
X287365001Y-67650001D03*
%TD*%
D10*
%TO.C,U1_C17*%
X291575001Y-67400001D03*
X291575001Y-66440001D03*
%TD*%
D31*
%TO.C,PR_R8*%
X264297500Y-118551000D03*
X264297500Y-116726000D03*
%TD*%
D10*
%TO.C,U1_C15*%
X289825001Y-67380001D03*
X289825001Y-66420001D03*
%TD*%
%TO.C,U1_C1*%
X308575001Y-66880001D03*
X308575001Y-65920001D03*
%TD*%
D14*
%TO.C,U1_C40*%
X296555001Y-71650001D03*
X295595001Y-71650001D03*
%TD*%
D41*
%TO.C,J_USB_uB1*%
X294909999Y-169775999D03*
X295559999Y-169775999D03*
X296209999Y-169775999D03*
X296859999Y-169775999D03*
X297509999Y-169775999D03*
D42*
X295209999Y-172475999D03*
X297209999Y-172475999D03*
%TD*%
D20*
%TO.C,R7*%
X276140000Y-82550000D03*
X276140000Y-84550000D03*
%TD*%
D43*
%TO.C,D4*%
X287437500Y-53750000D03*
X289312500Y-53750000D03*
%TD*%
D44*
%TO.C,C2*%
X281425000Y-55750000D03*
X283325000Y-55750000D03*
%TD*%
D23*
%TO.C,PR_C12*%
X259047500Y-116688500D03*
X259047500Y-118588500D03*
%TD*%
D10*
%TO.C,U1_C10*%
X308575001Y-64630001D03*
X308575001Y-63670001D03*
%TD*%
%TO.C,U1_C22*%
X291575001Y-64630001D03*
X291575001Y-63670001D03*
%TD*%
D45*
%TO.C,Y4*%
X303124999Y-47943799D03*
X298044999Y-47943799D03*
X298044999Y-51749999D03*
X303124999Y-51749999D03*
%TD*%
D46*
%TO.C,PWR_IC1*%
X260687500Y-123816000D03*
X260687500Y-125136000D03*
X261507500Y-123816000D03*
X261507500Y-125136000D03*
D47*
X259647500Y-123226000D03*
X259647500Y-123726000D03*
X259647500Y-124226000D03*
X259647500Y-124726000D03*
X259647500Y-125226000D03*
X259647500Y-125726000D03*
D48*
X260347500Y-126426000D03*
X260847500Y-126426000D03*
X261347500Y-126426000D03*
X261847500Y-126426000D03*
D47*
X262547500Y-125726000D03*
X262547500Y-125226000D03*
X262547500Y-124726000D03*
X262547500Y-124226000D03*
X262547500Y-123726000D03*
X262547500Y-123226000D03*
D48*
X261847500Y-122526000D03*
X261347500Y-122526000D03*
X260847500Y-122526000D03*
X260347500Y-122526000D03*
%TD*%
D11*
%TO.C,R3*%
X290924999Y-87849999D03*
X292924999Y-87849999D03*
%TD*%
D49*
%TO.C,U6*%
X296225000Y-85305000D03*
X296225000Y-86575000D03*
X296225000Y-87845000D03*
X296225000Y-89115000D03*
X296225000Y-90385000D03*
X296225000Y-91655000D03*
X296225000Y-92925000D03*
X296225000Y-94195000D03*
X305525000Y-94195000D03*
X305525000Y-92925000D03*
X305525000Y-91655000D03*
X305525000Y-90385000D03*
X305525000Y-89115000D03*
X305525000Y-87845000D03*
X305525000Y-86575000D03*
X305525000Y-85305000D03*
%TD*%
D28*
%TO.C,C4*%
X318075000Y-66750000D03*
X316175000Y-66750000D03*
%TD*%
D14*
%TO.C,U1_C5*%
X306535001Y-70400001D03*
X305575001Y-70400001D03*
%TD*%
D15*
%TO.C,R12*%
X306125000Y-45500000D03*
X304125000Y-45500000D03*
%TD*%
D50*
%TO.C,PR_L3*%
X270472500Y-119726000D03*
X272622500Y-119726000D03*
%TD*%
D22*
%TO.C,TC2050_2*%
X375489000Y-65157000D03*
X375489000Y-66427000D03*
X375489000Y-67697000D03*
X375489000Y-68960000D03*
X375489000Y-70230000D03*
X376759000Y-70230000D03*
X376759000Y-68960000D03*
X376759000Y-67697000D03*
X376759000Y-66427000D03*
X376759000Y-65157000D03*
%TD*%
D23*
%TO.C,PR_C15*%
X267047500Y-130438500D03*
X267047500Y-132338500D03*
%TD*%
D10*
%TO.C,U1_C19*%
X291575001Y-57130001D03*
X291575001Y-56170001D03*
%TD*%
D23*
%TO.C,PR_C18*%
X277047500Y-121956000D03*
X277047500Y-123856000D03*
%TD*%
D11*
%TO.C,R10*%
X282890000Y-92300000D03*
X284890000Y-92300000D03*
%TD*%
D14*
%TO.C,U1_C35*%
X296555001Y-70400001D03*
X295595001Y-70400001D03*
%TD*%
D23*
%TO.C,C5*%
X285125000Y-67050000D03*
X285125000Y-68950000D03*
%TD*%
M02*
