%TF.GenerationSoftware,KiCad,Pcbnew,(7.0.0)*%
%TF.CreationDate,2023-03-18T13:26:35-04:00*%
%TF.ProjectId,FPGAs-Ard_RPi_BB,46504741-732d-4417-9264-5f5250695f42,rev?*%
%TF.SameCoordinates,Original*%
%TF.FileFunction,Soldermask,Bot*%
%TF.FilePolarity,Negative*%
%FSLAX46Y46*%
G04 Gerber Fmt 4.6, Leading zero omitted, Abs format (unit mm)*
G04 Created by KiCad (PCBNEW (7.0.0)) date 2023-03-18 13:26:35*
%MOMM*%
%LPD*%
G01*
G04 APERTURE LIST*
%ADD10R,1.000000X1.000000*%
%ADD11O,1.000000X1.000000*%
%ADD12C,2.500000*%
%ADD13C,1.600000*%
%ADD14R,1.200000X2.000000*%
%ADD15O,1.200000X2.000000*%
%ADD16R,0.850000X0.850000*%
%ADD17O,0.850000X0.850000*%
%ADD18R,0.700000X3.200000*%
%ADD19R,0.700000X4.300000*%
%ADD20R,1.700000X1.700000*%
%ADD21O,1.700000X1.700000*%
%ADD22O,3.708400X1.498600*%
%ADD23O,1.498600X3.708400*%
%ADD24C,0.990600*%
%ADD25C,2.311400*%
%ADD26C,0.700000*%
%ADD27O,2.400000X0.900000*%
%ADD28O,1.700000X0.900000*%
%ADD29C,2.374900*%
%ADD30R,1.200000X1.200000*%
%ADD31C,1.200000*%
%ADD32R,2.000000X1.200000*%
%ADD33O,2.000000X1.200000*%
%ADD34R,1.860000X1.860000*%
%ADD35C,1.860000*%
%ADD36C,1.700000*%
%ADD37C,0.787400*%
%ADD38R,2.600000X2.600000*%
%ADD39C,2.600000*%
%ADD40R,3.200000X0.700000*%
%ADD41R,4.300000X0.700000*%
%ADD42C,0.999998*%
%ADD43O,1.507998X4.008120*%
%ADD44O,1.507998X3.507994*%
%ADD45O,3.507994X1.507998*%
%ADD46R,1.600000X1.600000*%
%ADD47O,1.600000X1.600000*%
%ADD48O,1.200000X1.900000*%
%ADD49C,1.450000*%
%ADD50R,1.500000X2.300000*%
%ADD51O,1.500000X2.300000*%
%ADD52R,1.980000X3.960000*%
%ADD53O,1.980000X3.960000*%
G04 APERTURE END LIST*
D10*
%TO.C,PCIe_J3_JTAG1*%
X334849999Y-27499999D03*
D11*
X333579999Y-27499999D03*
X332309999Y-27499999D03*
X331039999Y-27499999D03*
X329769999Y-27499999D03*
%TD*%
D10*
%TO.C,PCIe_J2_JTAG1*%
X267299999Y-28189999D03*
D11*
X267299999Y-29459999D03*
X267299999Y-30729999D03*
X267299999Y-31999999D03*
X267299999Y-33269999D03*
%TD*%
D10*
%TO.C,PCIe_J1_JTAG1*%
X343599999Y-104309999D03*
D11*
X343599999Y-103039999D03*
X343599999Y-101769999D03*
X343599999Y-100499999D03*
X343599999Y-99229999D03*
%TD*%
D12*
%TO.C,H7*%
X403600000Y-18300000D03*
%TD*%
D13*
%TO.C,PR_C9*%
X268400000Y-145450000D03*
X268400000Y-147950000D03*
%TD*%
D12*
%TO.C,H2*%
X246100000Y-210100000D03*
%TD*%
D14*
%TO.C,U2*%
X187279999Y-197599999D03*
D15*
X189819999Y-197599999D03*
X192359999Y-197599999D03*
X194899999Y-197599999D03*
X197439999Y-197599999D03*
X199979999Y-197599999D03*
X202519999Y-197599999D03*
X205059999Y-197599999D03*
X207599999Y-197599999D03*
X210139999Y-197599999D03*
X212679999Y-197599999D03*
X215219999Y-197599999D03*
X217759999Y-197599999D03*
X220299999Y-197599999D03*
X222839999Y-197599999D03*
X225379999Y-197599999D03*
X227919999Y-197599999D03*
X230459999Y-197599999D03*
X232999999Y-197599999D03*
X232997279Y-172203679D03*
X230457279Y-172203679D03*
X227919999Y-172199999D03*
X225379999Y-172199999D03*
X222839999Y-172199999D03*
X220299999Y-172199999D03*
X217759999Y-172199999D03*
X215219999Y-172199999D03*
X212679999Y-172199999D03*
X210139999Y-172199999D03*
X207599999Y-172199999D03*
X205059999Y-172199999D03*
X202519999Y-172199999D03*
X199979999Y-172199999D03*
X197439999Y-172199999D03*
X194899999Y-172199999D03*
X192359999Y-172199999D03*
X189819999Y-172199999D03*
X187279999Y-172199999D03*
%TD*%
D16*
%TO.C,BO_9*%
X356927999Y-29971999D03*
D17*
X357927999Y-29971999D03*
X358927999Y-29971999D03*
X359927999Y-29971999D03*
X360927999Y-29971999D03*
X361927999Y-29971999D03*
X362927999Y-29971999D03*
X363927999Y-29971999D03*
X364927999Y-29971999D03*
X365927999Y-29971999D03*
X366927999Y-29971999D03*
X367927999Y-29971999D03*
X368927999Y-29971999D03*
X369927999Y-29971999D03*
X370927999Y-29971999D03*
X371927999Y-29971999D03*
X372927999Y-29971999D03*
X373927999Y-29971999D03*
X374927999Y-29971999D03*
X375927999Y-29971999D03*
X376927999Y-29971999D03*
X377927999Y-29971999D03*
X378927999Y-29971999D03*
X379927999Y-29971999D03*
X380927999Y-29971999D03*
X381927999Y-29971999D03*
X382927999Y-29971999D03*
X383927999Y-29971999D03*
X384927999Y-29971999D03*
X385927999Y-29971999D03*
X386927999Y-29971999D03*
X387927999Y-29971999D03*
X388927999Y-29971999D03*
X389927999Y-29971999D03*
X390927999Y-29971999D03*
X391927999Y-29971999D03*
X392927999Y-29971999D03*
X393927999Y-29971999D03*
X394927999Y-29971999D03*
X395927999Y-29971999D03*
%TD*%
D18*
%TO.C,PCIe_J4*%
X257899999Y-104049999D03*
D19*
X258899999Y-104599999D03*
X259899999Y-104599999D03*
X260899999Y-104599999D03*
X261899999Y-104599999D03*
X262899999Y-104599999D03*
X263899999Y-104599999D03*
X264899999Y-104599999D03*
X265899999Y-104599999D03*
X266899999Y-104599999D03*
X267899999Y-104599999D03*
X270899999Y-104599999D03*
X271899999Y-104599999D03*
X272899999Y-104599999D03*
X273899999Y-104599999D03*
X274899999Y-104599999D03*
X275899999Y-104599999D03*
X276899999Y-104599999D03*
X277899999Y-104599999D03*
X278899999Y-104599999D03*
X279899999Y-104599999D03*
X280899999Y-104599999D03*
X281899999Y-104599999D03*
X282899999Y-104599999D03*
X283899999Y-104599999D03*
X284899999Y-104599999D03*
X285899999Y-104599999D03*
X286899999Y-104599999D03*
X287899999Y-104599999D03*
X288899999Y-104599999D03*
X289899999Y-104599999D03*
X290899999Y-104599999D03*
X291899999Y-104599999D03*
X292899999Y-104599999D03*
X293899999Y-104599999D03*
X294899999Y-104599999D03*
X295899999Y-104599999D03*
X296899999Y-104599999D03*
X297899999Y-104599999D03*
X298899999Y-104599999D03*
X299899999Y-104599999D03*
X300899999Y-104599999D03*
X301899999Y-104599999D03*
X302899999Y-104599999D03*
X303899999Y-104599999D03*
X304899999Y-104599999D03*
X305899999Y-104599999D03*
X306899999Y-104599999D03*
X307899999Y-104599999D03*
X308899999Y-104599999D03*
X309899999Y-104599999D03*
X310899999Y-104599999D03*
X311899999Y-104599999D03*
X312899999Y-104599999D03*
X313899999Y-104599999D03*
X314899999Y-104599999D03*
X315899999Y-104599999D03*
X316899999Y-104599999D03*
X317899999Y-104599999D03*
X318899999Y-104599999D03*
X319899999Y-104599999D03*
X320899999Y-104599999D03*
X321899999Y-104599999D03*
X322899999Y-104599999D03*
X323899999Y-104599999D03*
X324899999Y-104599999D03*
X325899999Y-104599999D03*
X326899999Y-104599999D03*
X327899999Y-104599999D03*
X328899999Y-104599999D03*
X329899999Y-104599999D03*
X330899999Y-104599999D03*
X331899999Y-104599999D03*
X332899999Y-104599999D03*
X333899999Y-104599999D03*
X334899999Y-104599999D03*
X335899999Y-104599999D03*
X336899999Y-104599999D03*
X337899999Y-104599999D03*
X338899999Y-104599999D03*
X339899999Y-104599999D03*
X340899999Y-104599999D03*
%TD*%
D16*
%TO.C,BO_6*%
X401573999Y-115063999D03*
D17*
X401573999Y-116063999D03*
X401573999Y-117063999D03*
X401573999Y-118063999D03*
X401573999Y-119063999D03*
X401573999Y-120063999D03*
X401573999Y-121063999D03*
X401573999Y-122063999D03*
X401573999Y-123063999D03*
X401573999Y-124063999D03*
X401573999Y-125063999D03*
X401573999Y-126063999D03*
X401573999Y-127063999D03*
X401573999Y-128063999D03*
X401573999Y-129063999D03*
X401573999Y-130063999D03*
X401573999Y-131063999D03*
X401573999Y-132063999D03*
X401573999Y-133063999D03*
X401573999Y-134063999D03*
X401573999Y-135063999D03*
X401573999Y-136063999D03*
X401573999Y-137063999D03*
X401573999Y-138063999D03*
X401573999Y-139063999D03*
X401573999Y-140063999D03*
X401573999Y-141063999D03*
X401573999Y-142063999D03*
X401573999Y-143063999D03*
X401573999Y-144063999D03*
X401573999Y-145063999D03*
X401573999Y-146063999D03*
X401573999Y-147063999D03*
X401573999Y-148063999D03*
X401573999Y-149063999D03*
X401573999Y-150063999D03*
X401573999Y-151063999D03*
X401573999Y-152063999D03*
X401573999Y-153063999D03*
X401573999Y-154063999D03*
%TD*%
D16*
%TO.C,BO_5*%
X401065999Y-162815999D03*
D17*
X401065999Y-163815999D03*
X401065999Y-164815999D03*
X401065999Y-165815999D03*
X401065999Y-166815999D03*
X401065999Y-167815999D03*
X401065999Y-168815999D03*
X401065999Y-169815999D03*
X401065999Y-170815999D03*
X401065999Y-171815999D03*
X401065999Y-172815999D03*
X401065999Y-173815999D03*
X401065999Y-174815999D03*
X401065999Y-175815999D03*
X401065999Y-176815999D03*
X401065999Y-177815999D03*
X401065999Y-178815999D03*
X401065999Y-179815999D03*
X401065999Y-180815999D03*
X401065999Y-181815999D03*
X401065999Y-182815999D03*
X401065999Y-183815999D03*
X401065999Y-184815999D03*
X401065999Y-185815999D03*
X401065999Y-186815999D03*
X401065999Y-187815999D03*
X401065999Y-188815999D03*
X401065999Y-189815999D03*
X401065999Y-190815999D03*
X401065999Y-191815999D03*
X401065999Y-192815999D03*
X401065999Y-193815999D03*
X401065999Y-194815999D03*
X401065999Y-195815999D03*
X401065999Y-196815999D03*
X401065999Y-197815999D03*
X401065999Y-198815999D03*
X401065999Y-199815999D03*
X401065999Y-200815999D03*
X401065999Y-201815999D03*
%TD*%
D16*
%TO.C,BO_7*%
X401399999Y-68199999D03*
D17*
X401399999Y-69199999D03*
X401399999Y-70199999D03*
X401399999Y-71199999D03*
X401399999Y-72199999D03*
X401399999Y-73199999D03*
X401399999Y-74199999D03*
X401399999Y-75199999D03*
X401399999Y-76199999D03*
X401399999Y-77199999D03*
X401399999Y-78199999D03*
X401399999Y-79199999D03*
X401399999Y-80199999D03*
X401399999Y-81199999D03*
X401399999Y-82199999D03*
X401399999Y-83199999D03*
X401399999Y-84199999D03*
X401399999Y-85199999D03*
X401399999Y-86199999D03*
X401399999Y-87199999D03*
X401399999Y-88199999D03*
X401399999Y-89199999D03*
X401399999Y-90199999D03*
X401399999Y-91199999D03*
X401399999Y-92199999D03*
X401399999Y-93199999D03*
X401399999Y-94199999D03*
X401399999Y-95199999D03*
X401399999Y-96199999D03*
X401399999Y-97199999D03*
X401399999Y-98199999D03*
X401399999Y-99199999D03*
X401399999Y-100199999D03*
X401399999Y-101199999D03*
X401399999Y-102199999D03*
X401399999Y-103199999D03*
X401399999Y-104199999D03*
X401399999Y-105199999D03*
X401399999Y-106199999D03*
X401399999Y-107199999D03*
%TD*%
D20*
%TO.C,QSPI_JTAG1*%
X319549999Y-94749999D03*
D21*
X319549999Y-92209999D03*
X322089999Y-94749999D03*
X322089999Y-92209999D03*
X324629999Y-94749999D03*
X324629999Y-92209999D03*
X327169999Y-94749999D03*
X327169999Y-92209999D03*
X329709999Y-94749999D03*
X329709999Y-92209999D03*
%TD*%
D20*
%TO.C,FPGA_PWR_J1*%
X284547499Y-119605999D03*
D21*
X284547499Y-122145999D03*
X284547499Y-124685999D03*
X284547499Y-127225999D03*
%TD*%
D22*
%TO.C,DC_PWR_J1*%
X384733889Y-129304909D03*
D23*
X388283887Y-134304899D03*
X381683890Y-134304899D03*
D24*
X385838790Y-129304910D03*
X383628990Y-129304910D03*
X388283888Y-133200000D03*
X381683891Y-133200000D03*
D25*
X392083875Y-134304900D03*
D24*
X388283888Y-135409800D03*
X381683891Y-135409800D03*
%TD*%
D26*
%TO.C,USB3_TypeC1*%
X387015000Y-171800000D03*
X387015000Y-170950000D03*
X387015000Y-170100000D03*
X387015000Y-169250000D03*
X387015000Y-168400000D03*
X387015000Y-167550000D03*
X387015000Y-166700000D03*
X387015000Y-165850000D03*
X388365000Y-165850000D03*
X388365000Y-166700000D03*
X388365000Y-167550000D03*
X388365000Y-168400000D03*
X388365000Y-169250000D03*
X388365000Y-170100000D03*
X388365000Y-170950000D03*
X388365000Y-171800000D03*
D27*
X387994999Y-173149999D03*
D28*
X391374999Y-173149999D03*
D27*
X387994999Y-164499999D03*
D28*
X391374999Y-164499999D03*
%TD*%
D20*
%TO.C,FPGA_J2*%
X340624999Y-46089999D03*
D21*
X343164999Y-46089999D03*
X340624999Y-48629999D03*
X343164999Y-48629999D03*
X340624999Y-51169999D03*
X343164999Y-51169999D03*
X340624999Y-53709999D03*
X343164999Y-53709999D03*
X340624999Y-56249999D03*
X343164999Y-56249999D03*
X340624999Y-58789999D03*
X343164999Y-58789999D03*
X340624999Y-61329999D03*
X343164999Y-61329999D03*
X340624999Y-63869999D03*
X343164999Y-63869999D03*
X340624999Y-66409999D03*
X343164999Y-66409999D03*
X340624999Y-68949999D03*
X343164999Y-68949999D03*
X340624999Y-71489999D03*
X343164999Y-71489999D03*
X340624999Y-74029999D03*
X343164999Y-74029999D03*
X340624999Y-76569999D03*
X343164999Y-76569999D03*
X340624999Y-79109999D03*
X343164999Y-79109999D03*
X340624999Y-81649999D03*
X343164999Y-81649999D03*
X340624999Y-84189999D03*
X343164999Y-84189999D03*
X340624999Y-86729999D03*
X343164999Y-86729999D03*
X340624999Y-89269999D03*
X343164999Y-89269999D03*
X340624999Y-91809999D03*
X343164999Y-91809999D03*
X340624999Y-94349999D03*
X343164999Y-94349999D03*
%TD*%
D29*
%TO.C,TC2030*%
X369048000Y-49363000D03*
X369048000Y-52538000D03*
D24*
X370588000Y-54410000D03*
X371604000Y-49330000D03*
X372620000Y-54410000D03*
D29*
X374128000Y-49363000D03*
X374128000Y-52538000D03*
%TD*%
D13*
%TO.C,PR_C5*%
X277710000Y-154231100D03*
X275210000Y-154231100D03*
%TD*%
D30*
%TO.C,PR_C6*%
X276709999Y-160731099D03*
D31*
X276710000Y-158731100D03*
%TD*%
D32*
%TO.C,U5*%
X206799999Y-157343439D03*
D33*
X206799999Y-154803439D03*
X206799999Y-152263439D03*
X206799999Y-149723439D03*
X206799999Y-147183439D03*
X206799999Y-144643439D03*
X206799999Y-142103439D03*
X206799999Y-139563439D03*
X206799999Y-137023439D03*
X206799999Y-134483439D03*
X206799999Y-131943439D03*
X206799999Y-129403439D03*
X206799999Y-126863439D03*
X206799999Y-124323439D03*
X206799999Y-121783439D03*
X206799999Y-119243439D03*
X206799999Y-116703439D03*
X206799999Y-114163439D03*
X206799999Y-111623439D03*
X206799999Y-109083439D03*
X206799999Y-106543439D03*
X181399999Y-106543439D03*
X181399999Y-109083439D03*
X181399999Y-111623439D03*
X181399999Y-114163439D03*
X181399999Y-116703439D03*
X181399999Y-119243439D03*
X181399999Y-121783439D03*
X181399999Y-124323439D03*
X181399999Y-126863439D03*
X181399999Y-129403439D03*
X181399999Y-131943439D03*
X181399999Y-134483439D03*
X181399999Y-137023439D03*
X181399999Y-139563439D03*
X181399999Y-142103439D03*
X181399999Y-144643439D03*
X181399999Y-147183439D03*
X181399999Y-149723439D03*
X181399999Y-152263439D03*
X181399999Y-154803439D03*
X181399999Y-157343439D03*
%TD*%
D34*
%TO.C,PR_U3_3V1*%
X283209999Y-154685999D03*
D35*
X283210000Y-157226000D03*
X283210000Y-159766000D03*
%TD*%
D12*
%TO.C,H1*%
X241900000Y-18700000D03*
%TD*%
D20*
%TO.C,USB3_TypeC_J1*%
X347754999Y-173039999D03*
D21*
X347754999Y-170499999D03*
X350294999Y-173039999D03*
X350294999Y-170499999D03*
X352834999Y-173039999D03*
X352834999Y-170499999D03*
X355374999Y-173039999D03*
X355374999Y-170499999D03*
X357914999Y-173039999D03*
X357914999Y-170499999D03*
X360454999Y-173039999D03*
X360454999Y-170499999D03*
X362994999Y-173039999D03*
X362994999Y-170499999D03*
X365534999Y-173039999D03*
X365534999Y-170499999D03*
X368074999Y-173039999D03*
X368074999Y-170499999D03*
X370614999Y-173039999D03*
X370614999Y-170499999D03*
X373154999Y-173039999D03*
X373154999Y-170499999D03*
%TD*%
D12*
%TO.C,H4*%
X179200000Y-18400000D03*
%TD*%
D20*
%TO.C,J_USB_uB2*%
X286494999Y-172600999D03*
D21*
X283954999Y-172600999D03*
X281414999Y-172600999D03*
X278874999Y-172600999D03*
X276334999Y-172600999D03*
X273794999Y-172600999D03*
X271254999Y-172600999D03*
%TD*%
D24*
%TO.C,TC2050_1*%
X366157000Y-71730000D03*
X367173000Y-64117000D03*
X368189000Y-71730000D03*
%TD*%
%TO.C,TC2070*%
X358157000Y-73930000D03*
X359173000Y-63777000D03*
X360189000Y-73930000D03*
%TD*%
D20*
%TO.C,Digilent_Cmod_S7*%
X229439999Y-85339999D03*
D21*
X229439999Y-82799999D03*
X229439999Y-80259999D03*
X229439999Y-77719999D03*
X229439999Y-75179999D03*
X229439999Y-72639999D03*
X229439999Y-70099999D03*
X229439999Y-67559999D03*
X229439999Y-65019999D03*
X229439999Y-47239999D03*
X229439999Y-44699999D03*
X229439999Y-42159999D03*
X229439999Y-39619999D03*
X229439999Y-37079999D03*
X229439999Y-34539999D03*
X229439999Y-31999999D03*
X229439999Y-29459999D03*
X229439999Y-26919999D03*
X214199999Y-26919999D03*
X214199999Y-29459999D03*
X214199999Y-31999999D03*
X214199999Y-34539999D03*
X214199999Y-37079999D03*
X214199999Y-39619999D03*
X214199999Y-42159999D03*
X214199999Y-44699999D03*
X214199999Y-47239999D03*
X214199999Y-65019999D03*
X214199999Y-67559999D03*
X214199999Y-70099999D03*
X214199999Y-72639999D03*
X214199999Y-75179999D03*
X214199999Y-77719999D03*
X214199999Y-80259999D03*
X214199999Y-82799999D03*
D36*
X214200000Y-85340000D03*
%TD*%
D16*
%TO.C,BO_16*%
X357919999Y-105409999D03*
D17*
X358919999Y-105409999D03*
X359919999Y-105409999D03*
X360919999Y-105409999D03*
X361919999Y-105409999D03*
X362919999Y-105409999D03*
X363919999Y-105409999D03*
X364919999Y-105409999D03*
X365919999Y-105409999D03*
X366919999Y-105409999D03*
X367919999Y-105409999D03*
X368919999Y-105409999D03*
X369919999Y-105409999D03*
X370919999Y-105409999D03*
X371919999Y-105409999D03*
X372919999Y-105409999D03*
X373919999Y-105409999D03*
X374919999Y-105409999D03*
X375919999Y-105409999D03*
X376919999Y-105409999D03*
X377919999Y-105409999D03*
X378919999Y-105409999D03*
X379919999Y-105409999D03*
X380919999Y-105409999D03*
X381919999Y-105409999D03*
X382919999Y-105409999D03*
X383919999Y-105409999D03*
X384919999Y-105409999D03*
X385919999Y-105409999D03*
X386919999Y-105409999D03*
X387919999Y-105409999D03*
X388919999Y-105409999D03*
X389919999Y-105409999D03*
X390919999Y-105409999D03*
X391919999Y-105409999D03*
X392919999Y-105409999D03*
X393919999Y-105409999D03*
X394919999Y-105409999D03*
X395919999Y-105409999D03*
X396919999Y-105409999D03*
%TD*%
D32*
%TO.C,U4*%
X236999999Y-158739999D03*
D33*
X236999999Y-156199999D03*
X236999999Y-153659999D03*
X236999999Y-151119999D03*
X236999999Y-148579999D03*
X236999999Y-146039999D03*
X236999999Y-143499999D03*
X236999999Y-140959999D03*
X236999999Y-138419999D03*
X236999999Y-135879999D03*
X236999999Y-133339999D03*
X236999999Y-130799999D03*
X236999999Y-128259999D03*
X236999999Y-125719999D03*
X236999999Y-123179999D03*
X236999999Y-120639999D03*
X236999999Y-118099999D03*
X236999999Y-115559999D03*
X236999999Y-113019999D03*
X237003679Y-110482719D03*
X237003679Y-107942719D03*
X214143679Y-107942719D03*
X214139999Y-110482719D03*
X214139999Y-113022719D03*
X214139999Y-115562719D03*
X214139999Y-118102719D03*
X214139999Y-120642719D03*
X214139999Y-123182719D03*
X214139999Y-125722719D03*
X214139999Y-128262719D03*
X214139999Y-130802719D03*
X214139999Y-133342719D03*
X214139999Y-135882719D03*
X214139999Y-138422719D03*
X214139999Y-140962719D03*
X214139999Y-143502719D03*
X214139999Y-146042719D03*
X214139999Y-148582719D03*
X214139999Y-151122719D03*
X214139999Y-153662719D03*
X214139999Y-156202719D03*
X214139999Y-158742719D03*
%TD*%
D16*
%TO.C,BO_4*%
X250443999Y-160481999D03*
D17*
X250443999Y-161481999D03*
X250443999Y-162481999D03*
X250443999Y-163481999D03*
X250443999Y-164481999D03*
X250443999Y-165481999D03*
X250443999Y-166481999D03*
X250443999Y-167481999D03*
X250443999Y-168481999D03*
X250443999Y-169481999D03*
X250443999Y-170481999D03*
X250443999Y-171481999D03*
X250443999Y-172481999D03*
X250443999Y-173481999D03*
X250443999Y-174481999D03*
X250443999Y-175481999D03*
X250443999Y-176481999D03*
X250443999Y-177481999D03*
X250443999Y-178481999D03*
X250443999Y-179481999D03*
X250443999Y-180481999D03*
X250443999Y-181481999D03*
X250443999Y-182481999D03*
X250443999Y-183481999D03*
X250443999Y-184481999D03*
X250443999Y-185481999D03*
X250443999Y-186481999D03*
X250443999Y-187481999D03*
X250443999Y-188481999D03*
X250443999Y-189481999D03*
X250443999Y-190481999D03*
X250443999Y-191481999D03*
X250443999Y-192481999D03*
X250443999Y-193481999D03*
X250443999Y-194481999D03*
X250443999Y-195481999D03*
X250443999Y-196481999D03*
X250443999Y-197481999D03*
X250443999Y-198481999D03*
X250443999Y-199481999D03*
%TD*%
D12*
%TO.C,H3*%
X177700000Y-100000000D03*
%TD*%
%TO.C,H5*%
X391600000Y-207700000D03*
%TD*%
D37*
%TO.C,DC_PWR_J2*%
X393283888Y-144450000D03*
X390566088Y-144450000D03*
X386625000Y-145391100D03*
X386625000Y-148108900D03*
X389125000Y-149091100D03*
X389125000Y-151808900D03*
%TD*%
D16*
%TO.C,BO_8*%
X401319999Y-25813999D03*
D17*
X401319999Y-26813999D03*
X401319999Y-27813999D03*
X401319999Y-28813999D03*
X401319999Y-29813999D03*
X401319999Y-30813999D03*
X401319999Y-31813999D03*
X401319999Y-32813999D03*
X401319999Y-33813999D03*
X401319999Y-34813999D03*
X401319999Y-35813999D03*
X401319999Y-36813999D03*
X401319999Y-37813999D03*
X401319999Y-38813999D03*
X401319999Y-39813999D03*
X401319999Y-40813999D03*
X401319999Y-41813999D03*
X401319999Y-42813999D03*
X401319999Y-43813999D03*
X401319999Y-44813999D03*
X401319999Y-45813999D03*
X401319999Y-46813999D03*
X401319999Y-47813999D03*
X401319999Y-48813999D03*
X401319999Y-49813999D03*
X401319999Y-50813999D03*
X401319999Y-51813999D03*
X401319999Y-52813999D03*
X401319999Y-53813999D03*
X401319999Y-54813999D03*
X401319999Y-55813999D03*
X401319999Y-56813999D03*
X401319999Y-57813999D03*
X401319999Y-58813999D03*
X401319999Y-59813999D03*
X401319999Y-60813999D03*
X401319999Y-61813999D03*
X401319999Y-62813999D03*
X401319999Y-63813999D03*
X401319999Y-64813999D03*
%TD*%
D38*
%TO.C,12V_J1*%
X258999999Y-31799999D03*
D39*
X262500000Y-31800000D03*
%TD*%
D38*
%TO.C,PWR_DC_IN1*%
X260099999Y-144499999D03*
D39*
X260100000Y-141000000D03*
%TD*%
D40*
%TO.C,PCIe_J2*%
X249249999Y-21999999D03*
D41*
X248699999Y-22999999D03*
X248699999Y-23999999D03*
X248699999Y-24999999D03*
X248699999Y-25999999D03*
X248699999Y-26999999D03*
X248699999Y-27999999D03*
X248699999Y-28999999D03*
X248699999Y-29999999D03*
X248699999Y-30999999D03*
X248699999Y-31999999D03*
X248699999Y-34999999D03*
X248699999Y-35999999D03*
X248699999Y-36999999D03*
X248699999Y-37999999D03*
X248699999Y-38999999D03*
X248699999Y-39999999D03*
X248699999Y-40999999D03*
X248699999Y-41999999D03*
X248699999Y-42999999D03*
X248699999Y-43999999D03*
X248699999Y-44999999D03*
X248699999Y-45999999D03*
X248699999Y-46999999D03*
X248699999Y-47999999D03*
X248699999Y-48999999D03*
X248699999Y-49999999D03*
X248699999Y-50999999D03*
X248699999Y-51999999D03*
X248699999Y-52999999D03*
X248699999Y-53999999D03*
X248699999Y-54999999D03*
X248699999Y-55999999D03*
X248699999Y-56999999D03*
X248699999Y-57999999D03*
X248699999Y-58999999D03*
X248699999Y-59999999D03*
X248699999Y-60999999D03*
X248699999Y-61999999D03*
X248699999Y-62999999D03*
X248699999Y-63999999D03*
X248699999Y-64999999D03*
X248699999Y-65999999D03*
X248699999Y-66999999D03*
X248699999Y-67999999D03*
X248699999Y-68999999D03*
X248699999Y-69999999D03*
X248699999Y-70999999D03*
X248699999Y-71999999D03*
X248699999Y-72999999D03*
X248699999Y-73999999D03*
X248699999Y-74999999D03*
X248699999Y-75999999D03*
X248699999Y-76999999D03*
X248699999Y-77999999D03*
X248699999Y-78999999D03*
X248699999Y-79999999D03*
X248699999Y-80999999D03*
X248699999Y-81999999D03*
X248699999Y-82999999D03*
X248699999Y-83999999D03*
X248699999Y-84999999D03*
X248699999Y-85999999D03*
X248699999Y-86999999D03*
X248699999Y-87999999D03*
X248699999Y-88999999D03*
X248699999Y-89999999D03*
X248699999Y-90999999D03*
X248699999Y-91999999D03*
X248699999Y-92999999D03*
X248699999Y-93999999D03*
X248699999Y-94999999D03*
X248699999Y-95999999D03*
X248699999Y-96999999D03*
X248699999Y-97999999D03*
X248699999Y-98999999D03*
X248699999Y-99999999D03*
X248699999Y-100999999D03*
X248699999Y-101999999D03*
X248699999Y-102999999D03*
X248699999Y-103999999D03*
X248699999Y-104999999D03*
%TD*%
D12*
%TO.C,H6*%
X354600000Y-17400000D03*
%TD*%
D20*
%TO.C,PWR_OUT2*%
X357424999Y-80499999D03*
D21*
X359964999Y-80499999D03*
%TD*%
D16*
%TO.C,BO_3*%
X250189999Y-115555999D03*
D17*
X250189999Y-116555999D03*
X250189999Y-117555999D03*
X250189999Y-118555999D03*
X250189999Y-119555999D03*
X250189999Y-120555999D03*
X250189999Y-121555999D03*
X250189999Y-122555999D03*
X250189999Y-123555999D03*
X250189999Y-124555999D03*
X250189999Y-125555999D03*
X250189999Y-126555999D03*
X250189999Y-127555999D03*
X250189999Y-128555999D03*
X250189999Y-129555999D03*
X250189999Y-130555999D03*
X250189999Y-131555999D03*
X250189999Y-132555999D03*
X250189999Y-133555999D03*
X250189999Y-134555999D03*
X250189999Y-135555999D03*
X250189999Y-136555999D03*
X250189999Y-137555999D03*
X250189999Y-138555999D03*
X250189999Y-139555999D03*
X250189999Y-140555999D03*
X250189999Y-141555999D03*
X250189999Y-142555999D03*
X250189999Y-143555999D03*
X250189999Y-144555999D03*
X250189999Y-145555999D03*
X250189999Y-146555999D03*
X250189999Y-147555999D03*
X250189999Y-148555999D03*
X250189999Y-149555999D03*
X250189999Y-150555999D03*
X250189999Y-151555999D03*
X250189999Y-152555999D03*
X250189999Y-153555999D03*
X250189999Y-154555999D03*
%TD*%
D42*
%TO.C,DC_PWR_J3*%
X387838790Y-122054910D03*
X387838790Y-120054914D03*
X385838786Y-116154911D03*
X383838790Y-116154911D03*
X381838789Y-122304973D03*
X381838789Y-119804851D03*
D43*
X381838788Y-121054911D03*
D44*
X387838789Y-121054911D03*
D45*
X384838787Y-116154910D03*
%TD*%
D20*
%TO.C,JTAG7*%
X389678999Y-82084999D03*
D21*
X392218999Y-82084999D03*
X389678999Y-84624999D03*
X392218999Y-84624999D03*
X389678999Y-87164999D03*
X392218999Y-87164999D03*
X389678999Y-89704999D03*
X392218999Y-89704999D03*
X389678999Y-92244999D03*
X392218999Y-92244999D03*
X389678999Y-94784999D03*
X392218999Y-94784999D03*
X389678999Y-97324999D03*
X392218999Y-97324999D03*
%TD*%
D46*
%TO.C,SW1*%
X273849999Y-95049999D03*
D47*
X276389999Y-95049999D03*
X278929999Y-95049999D03*
X278929999Y-87429999D03*
X276389999Y-87429999D03*
X273849999Y-87429999D03*
%TD*%
D38*
%TO.C,12V_J3*%
X338999999Y-33899999D03*
D39*
X342500000Y-33900000D03*
%TD*%
D20*
%TO.C,FPGA_J1*%
X261124999Y-93409999D03*
D21*
X258584999Y-93409999D03*
X261124999Y-90869999D03*
X258584999Y-90869999D03*
X261124999Y-88329999D03*
X258584999Y-88329999D03*
X261124999Y-85789999D03*
X258584999Y-85789999D03*
X261124999Y-83249999D03*
X258584999Y-83249999D03*
X261124999Y-80709999D03*
X258584999Y-80709999D03*
X261124999Y-78169999D03*
X258584999Y-78169999D03*
X261124999Y-75629999D03*
X258584999Y-75629999D03*
X261124999Y-73089999D03*
X258584999Y-73089999D03*
X261124999Y-70549999D03*
X258584999Y-70549999D03*
X261124999Y-68009999D03*
X258584999Y-68009999D03*
X261124999Y-65469999D03*
X258584999Y-65469999D03*
X261124999Y-62929999D03*
X258584999Y-62929999D03*
X261124999Y-60389999D03*
X258584999Y-60389999D03*
X261124999Y-57849999D03*
X258584999Y-57849999D03*
X261124999Y-55309999D03*
X258584999Y-55309999D03*
X261124999Y-52769999D03*
X258584999Y-52769999D03*
X261124999Y-50229999D03*
X258584999Y-50229999D03*
X261124999Y-47689999D03*
X258584999Y-47689999D03*
X261124999Y-45149999D03*
X258584999Y-45149999D03*
%TD*%
D20*
%TO.C,DC_J1*%
X371583874Y-137079899D03*
D21*
X371583874Y-134539899D03*
%TD*%
D40*
%TO.C,PCIe_J1*%
X350649999Y-105399999D03*
D41*
X351199999Y-104399999D03*
X351199999Y-103399999D03*
X351199999Y-102399999D03*
X351199999Y-101399999D03*
X351199999Y-100399999D03*
X351199999Y-99399999D03*
X351199999Y-98399999D03*
X351199999Y-97399999D03*
X351199999Y-96399999D03*
X351199999Y-95399999D03*
X351199999Y-92399999D03*
X351199999Y-91399999D03*
X351199999Y-90399999D03*
X351199999Y-89399999D03*
X351199999Y-88399999D03*
X351199999Y-87399999D03*
X351199999Y-86399999D03*
X351199999Y-85399999D03*
X351199999Y-84399999D03*
X351199999Y-83399999D03*
X351199999Y-82399999D03*
X351199999Y-81399999D03*
X351199999Y-80399999D03*
X351199999Y-79399999D03*
X351199999Y-78399999D03*
X351199999Y-77399999D03*
X351199999Y-76399999D03*
X351199999Y-75399999D03*
X351199999Y-74399999D03*
X351199999Y-73399999D03*
X351199999Y-72399999D03*
X351199999Y-71399999D03*
X351199999Y-70399999D03*
X351199999Y-69399999D03*
X351199999Y-68399999D03*
X351199999Y-67399999D03*
X351199999Y-66399999D03*
X351199999Y-65399999D03*
X351199999Y-64399999D03*
X351199999Y-63399999D03*
X351199999Y-62399999D03*
X351199999Y-61399999D03*
X351199999Y-60399999D03*
X351199999Y-59399999D03*
X351199999Y-58399999D03*
X351199999Y-57399999D03*
X351199999Y-56399999D03*
X351199999Y-55399999D03*
X351199999Y-54399999D03*
X351199999Y-53399999D03*
X351199999Y-52399999D03*
X351199999Y-51399999D03*
X351199999Y-50399999D03*
X351199999Y-49399999D03*
X351199999Y-48399999D03*
X351199999Y-47399999D03*
X351199999Y-46399999D03*
X351199999Y-45399999D03*
X351199999Y-44399999D03*
X351199999Y-43399999D03*
X351199999Y-42399999D03*
X351199999Y-41399999D03*
X351199999Y-40399999D03*
X351199999Y-39399999D03*
X351199999Y-38399999D03*
X351199999Y-37399999D03*
X351199999Y-36399999D03*
X351199999Y-35399999D03*
X351199999Y-34399999D03*
X351199999Y-33399999D03*
X351199999Y-32399999D03*
X351199999Y-31399999D03*
X351199999Y-30399999D03*
X351199999Y-29399999D03*
X351199999Y-28399999D03*
X351199999Y-27399999D03*
X351199999Y-26399999D03*
X351199999Y-25399999D03*
X351199999Y-24399999D03*
X351199999Y-23399999D03*
X351199999Y-22399999D03*
%TD*%
D30*
%TO.C,PR_C10*%
X288199999Y-145499999D03*
D31*
X288200000Y-147500000D03*
%TD*%
D20*
%TO.C,JTAG6*%
X388873999Y-43179999D03*
D21*
X391413999Y-43179999D03*
X388873999Y-45719999D03*
X391413999Y-45719999D03*
X388873999Y-48259999D03*
X391413999Y-48259999D03*
X388873999Y-50799999D03*
X391413999Y-50799999D03*
X388873999Y-53339999D03*
X391413999Y-53339999D03*
X388873999Y-55879999D03*
X391413999Y-55879999D03*
X388873999Y-58419999D03*
X391413999Y-58419999D03*
X388873999Y-60959999D03*
X391413999Y-60959999D03*
X388873999Y-63499999D03*
X391413999Y-63499999D03*
X388873999Y-66039999D03*
X391413999Y-66039999D03*
%TD*%
D10*
%TO.C,JTAG5*%
X368908999Y-89824999D03*
D11*
X370178999Y-89824999D03*
X368908999Y-91094999D03*
X370178999Y-91094999D03*
X368908999Y-92364999D03*
X370178999Y-92364999D03*
X368908999Y-93634999D03*
X370178999Y-93634999D03*
X368908999Y-94904999D03*
X370178999Y-94904999D03*
X368908999Y-96174999D03*
X370178999Y-96174999D03*
X368908999Y-97444999D03*
X370178999Y-97444999D03*
%TD*%
D48*
%TO.C,J_USB_uB1*%
X292709999Y-172475999D03*
D49*
X293710000Y-169776000D03*
X298710000Y-169776000D03*
D48*
X299709999Y-172475999D03*
%TD*%
D50*
%TO.C,U_DC_DC1*%
X276252999Y-145107499D03*
D51*
X278792999Y-145107499D03*
X281332999Y-145107499D03*
%TD*%
D32*
%TO.C,U3*%
X183128679Y-33366159D03*
D33*
X183128679Y-35906159D03*
X183128679Y-38446159D03*
X183128679Y-40986159D03*
X183128679Y-43526159D03*
X183128679Y-46066159D03*
X183128679Y-48606159D03*
X183128679Y-51146159D03*
X183128679Y-53686159D03*
X183128679Y-56226159D03*
X183128679Y-58766159D03*
X183128679Y-61306159D03*
X183128679Y-63846159D03*
X183128679Y-66386159D03*
X183128679Y-68926159D03*
X183128679Y-71466159D03*
X183128679Y-74006159D03*
X183128679Y-76546159D03*
X183128679Y-79086159D03*
X183124999Y-81623439D03*
X183124999Y-84163439D03*
X183124999Y-86703439D03*
X205988679Y-86706159D03*
X205988679Y-84166159D03*
X205988679Y-81626159D03*
X205988679Y-79086159D03*
X205988679Y-76546159D03*
X205988679Y-74006159D03*
X205988679Y-71466159D03*
X205988679Y-68926159D03*
X205988679Y-66386159D03*
X205988679Y-63846159D03*
X205988679Y-61306159D03*
X205988679Y-58766159D03*
X205988679Y-56226159D03*
X205988679Y-53686159D03*
X205988679Y-51146159D03*
X205988679Y-48606159D03*
X205988679Y-46066159D03*
X205988679Y-43526159D03*
X205988679Y-40986159D03*
X205988679Y-38446159D03*
X205988679Y-35906159D03*
X205988679Y-33366159D03*
%TD*%
D20*
%TO.C,FPGA_J3*%
X325744999Y-28749999D03*
D21*
X325744999Y-31289999D03*
X323204999Y-28749999D03*
X323204999Y-31289999D03*
X320664999Y-28749999D03*
X320664999Y-31289999D03*
X318124999Y-28749999D03*
X318124999Y-31289999D03*
X315584999Y-28749999D03*
X315584999Y-31289999D03*
X313044999Y-28749999D03*
X313044999Y-31289999D03*
X310504999Y-28749999D03*
X310504999Y-31289999D03*
X307964999Y-28749999D03*
X307964999Y-31289999D03*
X305424999Y-28749999D03*
X305424999Y-31289999D03*
X302884999Y-28749999D03*
X302884999Y-31289999D03*
X300344999Y-28749999D03*
X300344999Y-31289999D03*
X297804999Y-28749999D03*
X297804999Y-31289999D03*
X295264999Y-28749999D03*
X295264999Y-31289999D03*
X292724999Y-28749999D03*
X292724999Y-31289999D03*
X290184999Y-28749999D03*
X290184999Y-31289999D03*
X287644999Y-28749999D03*
X287644999Y-31289999D03*
X285104999Y-28749999D03*
X285104999Y-31289999D03*
X282564999Y-28749999D03*
X282564999Y-31289999D03*
X280024999Y-28749999D03*
X280024999Y-31289999D03*
X277484999Y-28749999D03*
X277484999Y-31289999D03*
%TD*%
D20*
%TO.C,PWR_OUT1*%
X383899999Y-78174999D03*
D21*
X383899999Y-75634999D03*
%TD*%
D20*
%TO.C,TEST_VPP_J1*%
X367459999Y-80599999D03*
D21*
X369999999Y-80599999D03*
%TD*%
D12*
%TO.C,H8*%
X359800000Y-208000000D03*
%TD*%
D18*
%TO.C,PCIe_J3*%
X340199999Y-20649999D03*
D19*
X339199999Y-20099999D03*
X338199999Y-20099999D03*
X337199999Y-20099999D03*
X336199999Y-20099999D03*
X335199999Y-20099999D03*
X334199999Y-20099999D03*
X333199999Y-20099999D03*
X332199999Y-20099999D03*
X331199999Y-20099999D03*
X330199999Y-20099999D03*
X327199999Y-20099999D03*
X326199999Y-20099999D03*
X325199999Y-20099999D03*
X324199999Y-20099999D03*
X323199999Y-20099999D03*
X322199999Y-20099999D03*
X321199999Y-20099999D03*
X320199999Y-20099999D03*
X319199999Y-20099999D03*
X318199999Y-20099999D03*
X317199999Y-20099999D03*
X316199999Y-20099999D03*
X315199999Y-20099999D03*
X314199999Y-20099999D03*
X313199999Y-20099999D03*
X312199999Y-20099999D03*
X311199999Y-20099999D03*
X310199999Y-20099999D03*
X309199999Y-20099999D03*
X308199999Y-20099999D03*
X307199999Y-20099999D03*
X306199999Y-20099999D03*
X305199999Y-20099999D03*
X304199999Y-20099999D03*
X303199999Y-20099999D03*
X302199999Y-20099999D03*
X301199999Y-20099999D03*
X300199999Y-20099999D03*
X299199999Y-20099999D03*
X298199999Y-20099999D03*
X297199999Y-20099999D03*
X296199999Y-20099999D03*
X295199999Y-20099999D03*
X294199999Y-20099999D03*
X293199999Y-20099999D03*
X292199999Y-20099999D03*
X291199999Y-20099999D03*
X290199999Y-20099999D03*
X289199999Y-20099999D03*
X288199999Y-20099999D03*
X287199999Y-20099999D03*
X286199999Y-20099999D03*
X285199999Y-20099999D03*
X284199999Y-20099999D03*
X283199999Y-20099999D03*
X282199999Y-20099999D03*
X281199999Y-20099999D03*
X280199999Y-20099999D03*
X279199999Y-20099999D03*
X278199999Y-20099999D03*
X277199999Y-20099999D03*
X276199999Y-20099999D03*
X275199999Y-20099999D03*
X274199999Y-20099999D03*
X273199999Y-20099999D03*
X272199999Y-20099999D03*
X271199999Y-20099999D03*
X270199999Y-20099999D03*
X269199999Y-20099999D03*
X268199999Y-20099999D03*
X267199999Y-20099999D03*
X266199999Y-20099999D03*
X265199999Y-20099999D03*
X264199999Y-20099999D03*
X263199999Y-20099999D03*
X262199999Y-20099999D03*
X261199999Y-20099999D03*
X260199999Y-20099999D03*
X259199999Y-20099999D03*
X258199999Y-20099999D03*
X257199999Y-20099999D03*
%TD*%
D52*
%TO.C,Ext_DC_PWR1*%
X259459999Y-167975999D03*
D53*
X264459999Y-167975999D03*
%TD*%
D38*
%TO.C,PWR_DC_OUT1*%
X297854999Y-141049999D03*
D39*
X297855000Y-144550000D03*
%TD*%
D24*
%TO.C,TC2050_2*%
X375108000Y-71500000D03*
X376124000Y-63887000D03*
X377140000Y-71500000D03*
%TD*%
D20*
%TO.C,DC_J2*%
X371833874Y-150079899D03*
D21*
X371833874Y-147539899D03*
%TD*%
D20*
%TO.C,DC_J3*%
X371333874Y-118804899D03*
D21*
X371333874Y-121344899D03*
%TD*%
D12*
%TO.C,H9*%
X177900000Y-209400000D03*
%TD*%
D20*
%TO.C,JTAG2*%
X379559999Y-85459999D03*
D21*
X382099999Y-85459999D03*
X379559999Y-87999999D03*
X382099999Y-87999999D03*
X379559999Y-90539999D03*
X382099999Y-90539999D03*
X379559999Y-93079999D03*
X382099999Y-93079999D03*
%TD*%
D10*
%TO.C,JTAG3*%
X379029999Y-48989999D03*
D11*
X380299999Y-48989999D03*
X379029999Y-50259999D03*
X380299999Y-50259999D03*
X379029999Y-51529999D03*
X380299999Y-51529999D03*
X379029999Y-52799999D03*
X380299999Y-52799999D03*
X379029999Y-54069999D03*
X380299999Y-54069999D03*
%TD*%
M02*
