%TF.GenerationSoftware,KiCad,Pcbnew,(7.0.0)*%
%TF.CreationDate,2023-03-18T13:26:35-04:00*%
%TF.ProjectId,FPGAs-Ard_RPi_BB,46504741-732d-4417-9264-5f5250695f42,rev?*%
%TF.SameCoordinates,Original*%
%TF.FileFunction,Legend,Bot*%
%TF.FilePolarity,Positive*%
%FSLAX46Y46*%
G04 Gerber Fmt 4.6, Leading zero omitted, Abs format (unit mm)*
G04 Created by KiCad (PCBNEW (7.0.0)) date 2023-03-18 13:26:35*
%MOMM*%
%LPD*%
G01*
G04 APERTURE LIST*
%ADD10C,0.150000*%
%ADD11C,0.120000*%
G04 APERTURE END LIST*
D10*
%TO.C,U1*%
X295192381Y-53826885D02*
X295192381Y-54398313D01*
X295192381Y-54112599D02*
X294192381Y-54112599D01*
X294192381Y-54112599D02*
X294335239Y-54207837D01*
X294335239Y-54207837D02*
X294430477Y-54303075D01*
X294430477Y-54303075D02*
X294478096Y-54398313D01*
X293597123Y-67217379D02*
X293263790Y-66741189D01*
X293025695Y-67217379D02*
X293025695Y-66217379D01*
X293025695Y-66217379D02*
X293406647Y-66217379D01*
X293406647Y-66217379D02*
X293501885Y-66264999D01*
X293501885Y-66264999D02*
X293549504Y-66312618D01*
X293549504Y-66312618D02*
X293597123Y-66407856D01*
X293597123Y-66407856D02*
X293597123Y-66550713D01*
X293597123Y-66550713D02*
X293549504Y-66645951D01*
X293549504Y-66645951D02*
X293501885Y-66693570D01*
X293501885Y-66693570D02*
X293406647Y-66741189D01*
X293406647Y-66741189D02*
X293025695Y-66741189D01*
X293049505Y-55731667D02*
X293525695Y-55731667D01*
X292954267Y-56017381D02*
X293287600Y-55017381D01*
X293287600Y-55017381D02*
X293620933Y-56017381D01*
X306392379Y-54303076D02*
X306392379Y-54874504D01*
X306392379Y-54588790D02*
X305392379Y-54588790D01*
X305392379Y-54588790D02*
X305535237Y-54684028D01*
X305535237Y-54684028D02*
X305630475Y-54779266D01*
X305630475Y-54779266D02*
X305678094Y-54874504D01*
X305392379Y-53398314D02*
X305392379Y-53874504D01*
X305392379Y-53874504D02*
X305868570Y-53922123D01*
X305868570Y-53922123D02*
X305820951Y-53874504D01*
X305820951Y-53874504D02*
X305773332Y-53779266D01*
X305773332Y-53779266D02*
X305773332Y-53541171D01*
X305773332Y-53541171D02*
X305820951Y-53445933D01*
X305820951Y-53445933D02*
X305868570Y-53398314D01*
X305868570Y-53398314D02*
X305963808Y-53350695D01*
X305963808Y-53350695D02*
X306201903Y-53350695D01*
X306201903Y-53350695D02*
X306297141Y-53398314D01*
X306297141Y-53398314D02*
X306344760Y-53445933D01*
X306344760Y-53445933D02*
X306392379Y-53541171D01*
X306392379Y-53541171D02*
X306392379Y-53779266D01*
X306392379Y-53779266D02*
X306344760Y-53874504D01*
X306344760Y-53874504D02*
X306297141Y-53922123D01*
D11*
%TO.C,DC_PWR_J1*%
X382064891Y-140705700D02*
G75*
G03*
X382064891Y-140705700I-381000J0D01*
G01*
%TO.C,DC_PWR_J2*%
X392435388Y-141549200D02*
G75*
G03*
X392435388Y-141549200I-381000J0D01*
G01*
D10*
%TO.C,JTAG2*%
X383430000Y-94410000D02*
X378230000Y-94410000D01*
X383430000Y-84130000D02*
X383430000Y-94410000D01*
X383430000Y-84130000D02*
X380830000Y-84130000D01*
X380830000Y-86730000D02*
X378230000Y-86730000D01*
X380830000Y-84130000D02*
X380830000Y-86730000D01*
X379560000Y-84130000D02*
X378230000Y-84130000D01*
X378230000Y-86730000D02*
X378230000Y-94410000D01*
X378230000Y-84130000D02*
X378230000Y-85460000D01*
%TO.C,JTAG3*%
X381250000Y-54765000D02*
X380607530Y-54765000D01*
X381250000Y-48295000D02*
X381250000Y-54765000D01*
X381250000Y-48295000D02*
X380607530Y-48295000D01*
X379992470Y-54765000D02*
X379337530Y-54765000D01*
X379992470Y-48295000D02*
X379790000Y-48295000D01*
X379030000Y-48230000D02*
X378080000Y-48230000D01*
X378722470Y-54765000D02*
X378080000Y-54765000D01*
X378270000Y-49625000D02*
X378080000Y-49625000D01*
X378080000Y-49625000D02*
X378080000Y-54765000D01*
X378080000Y-48230000D02*
X378080000Y-48990000D01*
%TD*%
M02*
