M48
; DRILL file {KiCad (7.0.0)} date Sat Mar 18 13:27:09 2023
; FORMAT={-:-/ absolute / inch / decimal}
; #@! TF.CreationDate,2023-03-18T13:27:09-04:00
; #@! TF.GenerationSoftware,Kicad,Pcbnew,(7.0.0)
; #@! TF.FileFunction,NonPlated,1,6,NPTH
FMAT,2
INCH
; #@! TA.AperFunction,NonPlated,NPTH,ComponentDrill
T1C0.0310
; #@! TA.AperFunction,NonPlated,NPTH,ComponentDrill
T2C0.0390
; #@! TA.AperFunction,NonPlated,NPTH,ComponentDrill
T3C0.0394
; #@! TA.AperFunction,NonPlated,NPTH,ComponentDrill
T4C0.0910
; #@! TA.AperFunction,NonPlated,NPTH,ComponentDrill
T5C0.0935
; #@! TA.AperFunction,NonPlated,NPTH,ComponentDrill
T6C0.0984
%
G90
G05
T1
X15.2215Y-5.7241
X15.2215Y-5.8311
X15.3199Y-5.8697
X15.3199Y-5.9767
X15.3766Y-5.687
X15.4836Y-5.687
T2
X14.1007Y-2.9106
X14.1407Y-2.5109
X14.1807Y-2.9106
X14.4156Y-2.824
X14.4556Y-2.5243
X14.4956Y-2.824
X14.5901Y-2.1421
X14.6301Y-1.9421
X14.6701Y-2.1421
X14.768Y-2.815
X14.808Y-2.5152
X14.848Y-2.815
X15.0269Y-5.2441
X15.0269Y-5.3311
X15.1035Y-5.0907
X15.1905Y-5.0907
X15.2868Y-5.2441
X15.2868Y-5.3311
T3
X15.033Y-4.7167
X15.033Y-4.8152
X15.1118Y-4.573
X15.1905Y-4.573
X15.2692Y-4.7266
X15.2692Y-4.8053
T4
X15.4364Y-5.2876
T5
X14.5294Y-1.9434
X14.5294Y-2.0684
X14.7294Y-1.9434
X14.7294Y-2.0684
T6
X6.9961Y-3.937
X7.0039Y-8.2441
X7.0551Y-0.7244
X9.5236Y-0.7362
X9.689Y-8.2717
X13.9606Y-0.685
X14.1654Y-8.189
X15.4173Y-8.1772
X15.8898Y-0.7205
T0
M30
