M48
; DRILL file {KiCad (7.0.0)} date Sat Mar 18 13:27:09 2023
; FORMAT={-:-/ absolute / inch / decimal}
; #@! TF.CreationDate,2023-03-18T13:27:09-04:00
; #@! TF.GenerationSoftware,Kicad,Pcbnew,(7.0.0)
; #@! TF.FileFunction,Plated,1,6,PTH
FMAT,2
INCH
; #@! TA.AperFunction,Plated,PTH,ComponentDrill
T1C0.0010
; #@! TA.AperFunction,Plated,PTH,ViaDrill
T2C0.0022
; #@! TA.AperFunction,Plated,PTH,ViaDrill
T3C0.0060
; #@! TA.AperFunction,Plated,PTH,ComponentDrill
T4C0.0079
; #@! TA.AperFunction,Plated,PTH,ViaDrill
T5C0.0080
; #@! TA.AperFunction,Plated,PTH,ViaDrill
T6C0.0100
; #@! TA.AperFunction,Plated,PTH,ViaDrill
T7C0.0118
; #@! TA.AperFunction,Plated,PTH,ComponentDrill
T8C0.0157
; #@! TA.AperFunction,Plated,PTH,ComponentDrill
T9C0.0197
; #@! TA.AperFunction,Plated,PTH,ComponentDrill
T10C0.0236
; #@! TA.AperFunction,Plated,PTH,ComponentDrill
T11C0.0256
; #@! TA.AperFunction,Plated,PTH,ComponentDrill
T12C0.0276
; #@! TA.AperFunction,Plated,PTH,ComponentDrill
T13C0.0315
; #@! TA.AperFunction,Plated,PTH,ComponentDrill
T14C0.0335
; #@! TA.AperFunction,Plated,PTH,ComponentDrill
T15C0.0394
; #@! TA.AperFunction,Plated,PTH,ComponentDrill
T16C0.0488
; #@! TA.AperFunction,Plated,PTH,ComponentDrill
T17C0.0512
; #@! TA.AperFunction,Plated,PTH,ComponentDrill
T18C0.0520
%
G90
G05
T1
X15.0269Y-5.2876
X15.033Y-4.7659
X15.147Y-5.0907
X15.1511Y-4.573
X15.2692Y-4.7659
X15.2868Y-5.2876
T2
X9.8937Y-1.063
X9.8937Y-2.9724
X9.8976Y-2.2047
X9.9016Y-2.5
X9.9055Y-2.2126
X9.9055Y-2.5591
X9.9094Y-1.0236
X9.9094Y-2.5984
X9.9291Y-2.9213
X9.9331Y-2.5354
X9.9631Y-3.2795
X9.9685Y-2.3622
X9.9764Y-2.4055
X9.9803Y-2.6575
X9.9803Y-3.5709
X9.9921Y-4.126
X9.9961Y-2.7795
X9.9961Y-3.063
X10.0015Y-2.0315
X10.0015Y-2.083
X10.0346Y-1.6575
X10.0346Y-1.748
X10.0346Y-1.7953
X10.0354Y-1.8307
X10.0379Y-2.0866
X10.0394Y-1.6772
X10.0394Y-1.7087
X10.0394Y-1.8622
X10.0394Y-1.9016
X10.0433Y-2.4843
X10.0433Y-2.5079
X10.0433Y-2.5591
X10.0472Y-1.5866
X10.0472Y-2.1417
X10.0512Y-1.185
X10.0548Y-1.9409
X10.0548Y-1.9567
X10.0551Y-2.7638
X10.063Y-2.5118
X10.0669Y-2.1181
X10.0709Y-2.252
X10.0748Y-2.6969
X10.0748Y-1.9488
X10.0827Y-1.563
X10.0906Y-1.3465
X10.0906Y-4.0945
X10.0984Y-1.9961
X10.0984Y-3.1575
X10.1024Y-2.0709
X10.1024Y-2.1299
X10.1102Y-2.4843
X10.1102Y-3.2717
X10.1142Y-2.3031
X10.1142Y-2.3346
X10.1417Y-1.1378
X10.1457Y-2.9213
X10.1732Y-1.0276
X10.2047Y-1.5512
X10.2165Y-2.0433
X10.2205Y-1.0512
X10.2283Y-1.1654
X10.2283Y-2.9291
X10.2362Y-1.1378
X10.2717Y-1.1496
X10.4567Y-2.252
X10.4764Y-1.1545
X11.1772Y-1.0394
X11.2756Y-1.0591
X11.4685Y-1.0591
X12.1102Y-0.8804
X12.1299Y-1.0394
X12.3189Y-0.8858
X12.3189Y-1.0369
X12.3465Y-1.0315
X12.3701Y-0.9291
X12.5Y-1.0315
X13.0906Y-0.9528
X13.1299Y-3.3537
X13.1575Y-2.8583
X13.1751Y-0.9743
X13.2087Y-2.1417
X13.2087Y-3.5433
X13.2717Y-3.1417
X13.274Y-2.7795
X13.2874Y-2.6535
X13.2953Y-2.9528
X13.2953Y-3.5551
X13.2953Y-3.6575
X13.3031Y-2.3268
X13.311Y-3.5512
X13.5748Y-2.6575
X13.5773Y-2.563
X13.5906Y-2.6732
X13.5906Y-2.7244
X13.5945Y-1.9646
X13.5945Y-2.8622
X13.5984Y-3.3701
X13.6024Y-2.3583
X13.6053Y-2.5472
X13.6053Y-2.5906
X13.6053Y-3.1654
X13.6535Y-2.5079
X13.6772Y-2.4331
X13.685Y-2.9646
X13.6969Y-2.7323
X13.7047Y-3.2244
X13.7087Y-3.5197
X13.7126Y-3.3661
X13.7205Y-3.0079
X13.7205Y-3.3228
X13.7244Y-3.0515
X13.7244Y-3.1654
X13.7244Y-3.252
X13.7283Y-2.7165
X13.7283Y-2.8189
X13.7283Y-3.2008
X14.0748Y-2.5512
T3
X10.05Y-4.59
X10.05Y-4.79
X10.05Y-4.8071
X10.05Y-4.87
X10.06Y-4.57
X10.06Y-5.12
X10.06Y-5.21
X10.0669Y-4.8819
X10.08Y-4.59
X10.08Y-4.87
X10.08Y-5.12
X10.08Y-5.21
X10.09Y-4.79
X10.09Y-4.8071
X10.1Y-4.58
X10.1Y-5.12
X10.1Y-5.21
X10.11Y-4.6
X10.12Y-5.12
X10.12Y-5.21
X10.18Y-4.98
X10.19Y-4.59
X10.2Y-5.13
X10.2Y-5.21
X10.21Y-4.58
X10.21Y-4.89
X10.21Y-4.93
X10.21Y-4.95
X10.22Y-5.21
X10.23Y-5.13
X10.24Y-5.21
X10.28Y-4.59
X10.29Y-4.81
X10.3Y-5.02
X10.3Y-5.13
X10.3Y-5.21
X10.31Y-4.59
X10.31Y-4.81
X10.311Y-4.9764
X10.33Y-5.13
X10.33Y-5.21
X10.35Y-4.89
X10.35Y-4.91
X10.35Y-4.93
X10.38Y-4.85
X10.4Y-4.59
X10.4Y-5.13
X10.4Y-5.21
X10.42Y-4.59
X10.43Y-5.13
X10.43Y-5.21
X10.4331Y-2.2493
X10.5Y-5.13
X10.5Y-5.21
X10.51Y-4.59
X10.52Y-5.13
X10.53Y-4.59
X10.53Y-5.21
X10.56Y-4.73
X10.58Y-5.05
X10.7098Y-5.0507
X10.71Y-5.02
X10.7126Y-4.8268
X10.7126Y-4.8425
X10.7126Y-4.8622
X10.72Y-4.69
X10.72Y-4.73
X10.72Y-4.75
X10.72Y-4.92
X10.72Y-4.96
X10.72Y-5.11
X10.72Y-5.14
X10.7283Y-4.8268
X10.7283Y-4.8622
X10.7293Y-4.8445
X10.73Y-4.69
X10.73Y-4.73
X10.73Y-4.75
X10.7441Y-4.8268
X10.7441Y-4.8465
X10.7441Y-4.8622
X10.7677Y-3.252
X10.78Y-4.98
X10.8701Y-3.252
X10.89Y-4.87
X10.92Y-4.87
X10.95Y-5.06
X10.95Y-5.09
X10.9606Y-2.2441
X10.9882Y-3.248
X11.01Y-4.98
X11.02Y-4.71
X11.02Y-4.79
X11.02Y-5.06
X11.02Y-5.09
X11.04Y-2.22
X11.04Y-4.98
X11.0787Y-2.1929
X11.1Y-4.84
X11.1063Y-2.6417
X11.14Y-2.24
X11.1654Y-2.3268
X11.1693Y-2.6791
X11.1693Y-2.6989
X11.2037Y-2.4252
X11.2205Y-2.3819
X11.2244Y-2.6417
X11.23Y-2.13
X11.23Y-2.26
X11.252Y-2.4803
X11.3031Y-2.3976
X11.3386Y-1.4567
X11.3386Y-2.4764
X11.3504Y-2.3976
X11.3504Y-2.5669
X11.3504Y-2.6142
X11.3504Y-2.6654
X11.4094Y-2.248
X11.4094Y-2.3071
X11.4094Y-2.3504
X11.4094Y-2.4449
X11.4094Y-2.5433
X11.4094Y-2.6535
X11.437Y-3.4429
X11.437Y-3.4587
X11.437Y-3.4783
X11.437Y-3.6378
X11.437Y-3.6535
X11.437Y-3.6732
X11.4449Y-3.3425
X11.4449Y-3.3583
X11.4449Y-3.374
X11.4528Y-3.4429
X11.4528Y-3.4783
X11.4528Y-3.6378
X11.4528Y-3.6732
X11.4537Y-3.4606
X11.4537Y-3.6555
X11.4606Y-3.374
X11.4626Y-3.3573
X11.4646Y-3.3425
X11.4685Y-3.4429
X11.4685Y-3.4626
X11.4685Y-3.4783
X11.4685Y-3.6378
X11.4685Y-3.6575
X11.4685Y-3.6732
X11.4764Y-2.6535
X11.4803Y-2.248
X11.4803Y-2.311
X11.4803Y-2.3504
X11.4803Y-2.4449
X11.4803Y-2.5472
X11.4803Y-3.3425
X11.4803Y-3.3583
X11.4803Y-3.374
X11.4882Y-2.7717
X11.5157Y-2.3701
X11.52Y-2.19
X11.5236Y-2.5433
X11.54Y-2.3
X11.5433Y-2.5433
X11.5472Y-2.374
X11.56Y-6.76
X11.56Y-6.82
X11.57Y-2.2
X11.5752Y-2.4357
X11.5787Y-1.4567
X11.5787Y-2.378
X11.58Y-2.26
X11.5827Y-3.1732
X11.5866Y-2.5551
X11.5866Y-2.6299
X11.5866Y-2.7717
X11.5892Y-2.4217
X11.5906Y-2.3976
X11.5906Y-2.4606
X11.5945Y-2.1772
X11.6Y-6.77
X11.6Y-6.81
X11.61Y-6.67
X11.61Y-6.7
X11.62Y-6.77
X11.62Y-6.81
X11.622Y-1.5236
X11.6234Y-2.349
X11.626Y-2.2638
X11.626Y-2.3031
X11.626Y-2.3898
X11.626Y-2.4921
X11.6339Y-1.4764
X11.6378Y-2.6024
X11.6496Y-2.2756
X11.6496Y-2.3976
X11.6575Y-3.4094
X11.6614Y-2.3701
X11.6693Y-1.4961
X11.6693Y-2.5394
X11.6693Y-2.6024
X11.6703Y-2.5059
X11.6732Y-2.7717
X11.6732Y-2.8189
X11.6772Y-2.4252
X11.6772Y-2.8701
X11.68Y-6.77
X11.68Y-6.81
X11.6811Y-2.2638
X11.6811Y-2.4606
X11.685Y-2.3456
X11.6885Y-2.3711
X11.689Y-2.4016
X11.69Y-2.24
X11.6929Y-1.4961
X11.6929Y-2.2992
X11.7Y-6.77
X11.7Y-6.81
X11.7008Y-2.5394
X11.7008Y-2.5866
X11.7087Y-1.9724
X11.71Y-6.67
X11.71Y-6.7
X11.7165Y-2.2874
X11.7165Y-2.4567
X11.72Y-2.24
X11.72Y-2.66
X11.7244Y-3.7087
X11.7283Y-1.3701
X11.7283Y-1.8386
X11.7283Y-3.4606
X11.7285Y-2.3976
X11.7285Y-2.5851
X11.7321Y-2.4274
X11.7323Y-2.5394
X11.7323Y-3.0
X11.7362Y-3.1063
X11.7362Y-3.6299
X11.7441Y-2.5906
X11.748Y-2.3976
X11.75Y-2.13
X11.7503Y-2.3417
X11.752Y-2.3268
X11.752Y-2.5748
X11.752Y-3.7677
X11.7577Y-2.3656
X11.76Y-6.77
X11.76Y-6.81
X11.7638Y-2.5984
X11.7638Y-2.8228
X11.7638Y-2.8701
X11.7677Y-2.7717
X11.77Y-3.4
X11.77Y-3.44
X11.7795Y-2.2992
X11.7795Y-2.4094
X11.7795Y-2.5197
X11.7795Y-3.2559
X11.7795Y-3.6299
X11.7835Y-2.3583
X11.7835Y-2.4213
X11.7835Y-2.4843
X11.7835Y-2.5394
X11.7835Y-2.9409
X11.7953Y-2.5669
X11.7953Y-2.5984
X11.7953Y-3.126
X11.7992Y-2.1378
X11.8071Y-2.1772
X11.8071Y-2.3701
X11.8071Y-2.4331
X11.811Y-2.4882
X11.815Y-2.5197
X11.815Y-2.5512
X11.8228Y-3.6693
X11.8268Y-2.5669
X11.8386Y-1.3858
X11.8425Y-2.4882
X11.8425Y-3.2402
X11.8465Y-2.2362
X11.8465Y-2.6102
X11.8583Y-2.5709
X11.8622Y-2.7717
X11.8622Y-3.1693
X11.874Y-2.3307
X11.874Y-2.4882
X11.874Y-2.5472
X11.874Y-2.6142
X11.878Y-2.4528
X11.901Y-2.6142
X11.9055Y-2.4252
X11.9055Y-2.4921
X11.9055Y-2.5827
X11.9252Y-2.6024
X11.9252Y-3.4567
X11.929Y-2.7992
X11.937Y-2.0354
X11.937Y-2.4606
X11.937Y-2.5236
X11.937Y-2.5827
X11.9409Y-2.5472
X11.9449Y-3.9094
X11.9526Y-2.4903
X11.9528Y-2.6024
X11.9567Y-2.6575
X11.9685Y-2.2441
X11.9685Y-2.4882
X11.9685Y-3.1969
X11.9685Y-3.8071
X11.9694Y-2.4405
X11.9764Y-3.0866
X11.9882Y-2.5709
X11.9953Y-3.1654
X11.9961Y-2.5236
X12.0Y-2.3622
X12.0Y-2.9449
X12.0039Y-2.4528
X12.0039Y-2.5512
X12.0197Y-1.8425
X12.0276Y-2.2992
X12.0315Y-2.3661
X12.0315Y-2.4134
X12.0315Y-2.5197
X12.039Y-2.9331
X12.0512Y-1.7913
X12.0512Y-2.0079
X12.0568Y-2.6173
X12.0569Y-2.5847
X12.063Y-2.1772
X12.0669Y-2.311
X12.0709Y-2.6299
X12.0984Y-2.6672
X12.126Y-1.374
X12.1457Y-2.4528
X12.1496Y-2.2283
X12.1496Y-2.3268
X12.1496Y-2.5433
X12.1496Y-2.6339
X12.1496Y-2.6811
X12.1575Y-2.8268
X12.1732Y-2.3386
X12.189Y-3.5748
X12.1929Y-2.3583
X12.2283Y-2.2323
X12.2283Y-2.437
X12.2283Y-2.5394
X12.2283Y-2.6339
X12.2402Y-2.3504
X12.248Y-2.3031
X12.252Y-3.1142
X12.2756Y-2.437
X12.2756Y-2.5354
X12.2795Y-3.4488
X12.3031Y-2.2362
X12.32Y-2.41
X12.3268Y-2.437
X12.3465Y-2.6457
X12.3701Y-2.4291
X12.4055Y-2.611
X12.4173Y-1.9449
X12.4213Y-3.5079
X12.4882Y-2.2598
X12.4882Y-2.5039
X12.5197Y-2.2677
X12.5236Y-2.6299
X12.5315Y-2.7559
X12.5866Y-2.6929
X12.5906Y-2.5315
X12.6299Y-2.9764
X12.6614Y-1.5236
X12.6938Y-2.5363
X12.7078Y-2.5503
X12.7323Y-3.5709
X12.7756Y-1.4764
X12.8543Y-1.4961
X12.8976Y-3.2165
X12.9016Y-2.7441
X12.9252Y-2.4331
X12.9331Y-2.8189
X12.9449Y-2.8308
X12.9528Y-2.5512
X12.9567Y-2.759
X12.9606Y-2.8425
X12.9764Y-2.811
X12.9882Y-2.7992
X12.9882Y-2.9094
X13.0512Y-2.6929
X14.035Y-2.9815
X14.0586Y-2.4067
X14.0862Y-2.4697
X14.0862Y-3.1035
X14.13Y-6.66
X14.2279Y-2.5012
X14.36Y-7.03
X14.3618Y-2.9776
X14.3736Y-2.3831
X14.6452Y-3.0051
X14.6807Y-3.6035
X14.6846Y-2.6902
X14.7023Y-3.2945
X14.787Y-3.0051
X14.8421Y-2.4815
X14.8657Y-2.2886
X14.8815Y-2.0839
X14.8893Y-2.1705
X14.9956Y-2.4185
X15.04Y-6.71
X15.04Y-6.78
X15.07Y-6.71
X15.08Y-6.78
X15.13Y-6.96
X15.1413Y-2.1665
X15.15Y-6.94
X15.16Y-6.71
X15.16Y-6.76
X15.1885Y-1.9185
X15.33Y-6.42
X15.36Y-6.41
X15.53Y-6.96
T4
X10.2568Y-4.8583
X10.2568Y-4.9006
X10.2568Y-4.943
X10.3021Y-4.8583
X10.3021Y-4.9006
X10.3021Y-4.943
T5
X10.1Y-3.32
X10.173Y-3.8677
X10.43Y-3.8307
X10.5Y-3.64
X10.52Y-3.57
X10.57Y-2.72
X10.6457Y-3.878
X10.85Y-2.38
X10.9Y-2.66
X10.92Y-2.78
X10.93Y-2.49
X10.98Y-2.45
X10.98Y-2.52
X10.99Y-2.55
X11.0Y-2.57
X11.02Y-2.57
X11.15Y-2.74
X11.2009Y-2.58
X11.27Y-2.5867
X11.3751Y-2.3724
X11.38Y-2.2
X11.38Y-3.46
X11.39Y-2.5696
X11.44Y-2.6152
X11.5Y-2.06
X11.5239Y-2.3061
X11.55Y-3.0
X11.55Y-3.02
X11.5868Y-2.508
X11.59Y-2.49
X11.6Y-2.73
X11.6218Y-2.3179
X11.63Y-2.73
X11.65Y-2.49
X11.65Y-2.52
X11.65Y-2.66
X11.66Y-2.718
X11.66Y-2.75
X11.67Y-2.99
X11.72Y-2.7495
X11.742Y-2.3669
X11.743Y-2.0374
X11.75Y-2.65
X11.762Y-2.7495
X11.7684Y-2.6616
X11.81Y-2.62
X11.8114Y-2.4561
X11.82Y-2.65
X11.84Y-2.64
X11.84Y-2.66
X11.8425Y-2.4529
X11.8425Y-2.5866
X11.8587Y-2.6613
X11.87Y-2.65
X11.9Y-2.65
X11.94Y-2.81
X11.94Y-2.9
X11.98Y-2.52
X11.982Y-2.852
X11.9824Y-2.6437
X11.99Y-2.88
X12.0Y-2.5827
X12.0197Y-2.4724
X12.03Y-2.4913
X12.03Y-2.62
X12.03Y-2.98
X12.04Y-2.65
X12.06Y-2.4285
X12.06Y-2.86
X12.0695Y-2.5396
X12.0699Y-2.46
X12.0699Y-2.52
X12.0699Y-2.575
X12.0699Y-2.61
X12.07Y-2.99
X12.08Y-2.84
X12.09Y-2.98
X12.12Y-2.16
X12.14Y-1.87
X12.18Y-2.54
X12.1916Y-2.551
X12.21Y-3.24
X12.27Y-2.6
X12.3Y-3.13
X12.5Y-3.0
X12.5Y-3.03
X12.54Y-2.54
X12.6Y-2.29
X12.615Y-2.575
X12.7Y-2.4654
X12.74Y-2.61
X12.81Y-2.52
X12.93Y-3.06
X12.94Y-3.25
X12.95Y-2.66
X12.96Y-3.36
X12.98Y-1.87
X12.98Y-2.56
X12.98Y-3.24
X12.99Y-2.488
X13.0Y-2.32
X13.02Y-3.17
X13.03Y-2.27
X13.03Y-2.38
X13.03Y-3.11
X13.04Y-2.17
X13.04Y-2.512
X13.04Y-2.85
X13.04Y-2.96
X13.04Y-3.21
X13.05Y-1.73
X13.05Y-2.07
X13.05Y-2.81
X13.06Y-2.38
X13.06Y-2.92
X13.06Y-3.01
X13.07Y-1.92
X13.07Y-2.12
X13.07Y-2.22
X13.08Y-2.01
X13.08Y-2.5
X13.09Y-3.32
X13.1Y-3.11
X13.1Y-3.42
X13.11Y-1.84
X13.11Y-3.45
X13.12Y-3.49
X13.14Y-3.56
X13.15Y-3.6
X13.18Y-3.69
X13.9961Y-2.626
X14.0866Y-2.6142
X14.2323Y-2.8583
X14.374Y-3.2165
X14.3937Y-2.7008
X14.4134Y-2.8858
X14.4646Y-1.7126
X14.5315Y-2.6732
X14.5315Y-2.7835
X14.6181Y-3.2638
X14.6378Y-3.7205
X14.6811Y-2.7874
X14.6846Y-2.4449
X14.685Y-3.0945
X14.7283Y-2.1969
X14.7283Y-2.9528
X14.7441Y-2.3425
X14.7441Y-2.6535
X14.748Y-2.4331
X14.748Y-2.7138
X14.752Y-2.7835
X14.7559Y-2.9409
X14.7638Y-3.4803
X14.7756Y-3.5512
X14.8071Y-2.7913
X14.8268Y-3.2283
X14.8465Y-2.689
X14.8504Y-2.3858
X14.8504Y-2.7323
X14.8858Y-2.878
X14.9016Y-2.7362
X15.0236Y-1.8937
X15.0394Y-1.9567
X15.0433Y-2.0394
X15.063Y-2.3
X15.0709Y-1.9291
X15.0827Y-1.9843
X15.0827Y-2.0945
X15.0827Y-2.1181
X15.0827Y-2.189
X15.1102Y-2.6142
X15.122Y-2.3622
X15.1413Y-2.1102
X15.2205Y-3.6811
X15.248Y-3.7835
X15.2638Y-3.5827
T6
X9.8622Y-4.4055
X10.0512Y-4.437
X10.4085Y-3.0345
X10.4291Y-2.8177
X10.4331Y-2.6102
X10.4606Y-2.4567
X10.4882Y-2.7905
X10.4961Y-2.6457
X10.6024Y-2.9646
X10.6102Y-2.8307
X11.0315Y-2.7323
X11.0433Y-3.6456
X11.0748Y-2.7441
X11.0866Y-3.3307
X11.1614Y-1.6614
X11.1614Y-1.7126
X11.1614Y-1.7283
X11.1614Y-1.7598
X11.1614Y-1.7756
X11.1614Y-1.8031
X11.1614Y-1.8189
X11.1614Y-1.8504
X11.1614Y-1.8819
X11.1614Y-1.8976
X11.1614Y-1.9409
X11.1614Y-1.9606
X11.1614Y-1.9882
X11.1614Y-2.0039
X11.2283Y-6.4921
X11.2559Y-6.5748
X11.311Y-2.563
X11.311Y-2.6614
X11.315Y-2.6142
X11.3228Y-2.2874
X11.3386Y-1.6614
X11.3386Y-1.7165
X11.3386Y-1.7323
X11.3386Y-1.7638
X11.3386Y-1.7795
X11.3386Y-1.8071
X11.3386Y-1.8228
X11.3386Y-1.8543
X11.3386Y-1.8858
X11.3386Y-1.9016
X11.3386Y-1.9449
X11.3386Y-1.9646
X11.3386Y-1.9921
X11.3386Y-2.0079
X11.3661Y-2.8858
X11.4094Y-2.6142
X11.4488Y-2.7717
X11.4685Y-2.7323
X11.4803Y-2.6142
X11.5157Y-2.8307
X11.5472Y-2.7717
X11.5748Y-3.3346
X11.616Y-2.8465
X11.6339Y-2.8189
X11.6378Y-2.7717
X11.6378Y-2.8701
X11.7165Y-1.874
X11.7244Y-2.8228
X11.752Y-1.874
X11.7648Y-2.3484
X11.8228Y-2.7717
X11.8465Y-2.7441
X11.9213Y-2.7717
X11.941Y-2.8307
X12.0276Y-2.7717
X12.0709Y-2.7441
X12.0709Y-2.7717
X12.1732Y-3.7717
X12.1772Y-3.7992
X12.189Y-2.6811
X12.1929Y-3.7835
X12.2087Y-3.3386
X12.2087Y-3.7717
X12.2087Y-3.7992
X12.2677Y-2.6378
X12.2677Y-2.7441
X12.2756Y-2.7992
X12.2756Y-2.8228
X12.2756Y-2.8504
X12.3661Y-3.5276
X12.5354Y-2.8661
X12.8189Y-2.8622
X13.2677Y-2.8307
X14.0827Y-2.7126
X14.1024Y-2.4134
X14.3937Y-2.7559
X14.3976Y-2.3531
X14.4016Y-2.5787
X14.4055Y-2.6535
X14.4646Y-1.9606
X14.4685Y-1.8425
X14.5153Y-2.4697
X14.5276Y-2.626
X14.5276Y-2.7441
X14.5909Y-1.9571
X14.6811Y-2.0154
X14.6846Y-1.9929
X14.7992Y-6.8661
X14.7996Y-1.9949
X14.874Y-1.937
X14.8787Y-2.6138
X14.9173Y-2.6102
X14.9843Y-2.6102
X15.0945Y-6.5276
X15.1811Y-6.4803
T7
X9.8898Y-2.437
X9.9055Y-0.8661
X9.9055Y-0.9016
X9.9055Y-0.937
X9.9173Y-2.0984
X9.9213Y-3.937
X9.9252Y-1.1417
X9.9252Y-2.8346
X9.9252Y-3.7874
X9.9252Y-3.8976
X9.9252Y-4.0551
X9.9291Y-2.4843
X9.9291Y-2.7559
X9.9291Y-2.9528
X9.9291Y-2.9921
X9.9291Y-3.1063
X9.9291Y-3.1496
X9.9291Y-3.2677
X9.9291Y-3.311
X9.9291Y-3.4213
X9.9291Y-3.4646
X9.9291Y-3.5787
X9.9291Y-3.622
X9.9291Y-3.7362
X9.9331Y-1.4173
X9.9331Y-1.5354
X9.9331Y-1.6142
X9.9331Y-1.7283
X9.9331Y-1.7717
X9.9331Y-1.8819
X9.9331Y-1.9291
X9.9331Y-2.1654
X9.9331Y-2.2835
X9.9331Y-2.3228
X9.9331Y-2.437
X9.9331Y-2.6378
X9.937Y-2.0472
X9.9843Y-1.4449
X9.9882Y-1.4724
X9.9882Y-3.4252
X10.0157Y-1.0984
X10.0236Y-1.0551
X10.0433Y-1.9803
X10.0433Y-2.5945
X10.0512Y-1.0827
X10.0669Y-2.0157
X10.0669Y-2.2087
X10.0787Y-1.0512
X10.0787Y-1.1102
X10.0945Y-2.0315
X10.0984Y-3.626
X10.1102Y-2.1929
X10.1339Y-0.9803
X10.1535Y-1.5039
X10.1535Y-1.6732
X10.1929Y-3.9921
X10.2323Y-3.9921
X10.252Y-1.5039
X10.2598Y-1.6732
X10.3583Y-1.5039
X10.3583Y-1.6732
X10.4291Y-3.9961
X10.5079Y-3.9961
X11.0433Y-0.9646
X11.5787Y-0.9252
X11.622Y-0.9094
X11.7205Y-0.8976
X11.7795Y-0.9173
X11.8071Y-1.0512
X11.8189Y-0.9173
X11.8622Y-1.0354
X11.8622Y-1.3268
X11.878Y-0.9016
X11.9173Y-0.9843
X11.937Y-0.9094
X11.9764Y-0.9173
X12.0039Y-1.0512
X12.0236Y-0.9606
X12.0433Y-0.9858
X12.0684Y-0.9213
X12.0945Y-0.9134
X12.1772Y-1.0591
X12.1874Y-0.9041
X12.2165Y-0.9306
X12.2323Y-0.9016
X12.2362Y-0.971
X12.252Y-1.0748
X12.2575Y-1.187
X12.2717Y-0.9016
X12.3031Y-0.9409
X12.3661Y-0.9685
X12.4134Y-0.9409
X12.4291Y-0.8976
X12.4409Y-1.0591
X12.4764Y-0.9843
X12.4882Y-0.9041
X12.5669Y-0.8976
X12.5787Y-1.0591
X12.6063Y-0.9173
X12.6378Y-0.9213
X12.685Y-0.9134
X12.8425Y-0.8937
X13.1181Y-0.9173
X13.315Y-0.9449
X13.3425Y-2.0559
X13.3504Y-2.1811
X13.3543Y-0.937
X13.4567Y-3.0472
X13.4724Y-1.5866
X13.5669Y-2.7362
X13.5694Y-3.1496
X13.5827Y-1.6693
X13.5975Y-2.2165
X13.6417Y-1.252
X13.6575Y-3.7953
X13.6811Y-2.3189
X13.6811Y-2.378
X13.689Y-1.2362
X13.6929Y-1.2756
X13.6929Y-3.874
X13.7047Y-3.2835
X13.7047Y-4.0709
X13.7047Y-4.1102
X13.7126Y-1.9252
X13.7165Y-2.9055
X13.7205Y-0.8819
X13.7244Y-2.2559
X13.7298Y-2.752
T8
X15.2368Y-6.5295
X15.2368Y-6.563
X15.2368Y-6.5965
X15.2368Y-6.6299
X15.2368Y-6.6634
X15.2368Y-6.6969
X15.2368Y-6.7303
X15.2368Y-6.7638
X15.29Y-6.5295
X15.29Y-6.563
X15.29Y-6.5965
X15.29Y-6.6299
X15.29Y-6.6634
X15.29Y-6.6969
X15.29Y-6.7303
X15.29Y-6.7638
T9
X9.85Y-4.5494
X9.85Y-4.5888
X9.85Y-4.6282
X9.85Y-4.6676
X9.85Y-4.7069
X9.85Y-4.7463
X9.85Y-4.7857
X9.85Y-4.825
X9.85Y-4.8644
X9.85Y-4.9038
X9.85Y-4.9431
X9.85Y-4.9825
X9.85Y-5.0219
X9.85Y-5.0613
X9.85Y-5.1006
X9.85Y-5.14
X9.85Y-5.1794
X9.85Y-5.2187
X9.85Y-5.2581
X9.85Y-5.2975
X9.85Y-5.3369
X9.85Y-5.3762
X9.85Y-5.4156
X9.85Y-5.455
X9.85Y-5.4943
X9.85Y-5.5337
X9.85Y-5.5731
X9.85Y-5.6124
X9.85Y-5.6518
X9.85Y-5.6912
X9.85Y-5.7306
X9.85Y-5.7699
X9.85Y-5.8093
X9.85Y-5.8487
X9.85Y-5.888
X9.85Y-5.9274
X9.85Y-5.9668
X9.85Y-6.0061
X9.85Y-6.0455
X9.85Y-6.0849
X9.86Y-6.3182
X9.86Y-6.3576
X9.86Y-6.3969
X9.86Y-6.4363
X9.86Y-6.4757
X9.86Y-6.515
X9.86Y-6.5544
X9.86Y-6.5938
X9.86Y-6.6331
X9.86Y-6.6725
X9.86Y-6.7119
X9.86Y-6.7513
X9.86Y-6.7906
X9.86Y-6.83
X9.86Y-6.8694
X9.86Y-6.9087
X9.86Y-6.9481
X9.86Y-6.9875
X9.86Y-7.0269
X9.86Y-7.0662
X9.86Y-7.1056
X9.86Y-7.145
X9.86Y-7.1843
X9.86Y-7.2237
X9.86Y-7.2631
X9.86Y-7.3024
X9.86Y-7.3418
X9.86Y-7.3812
X9.86Y-7.4206
X9.86Y-7.4599
X9.86Y-7.4993
X9.86Y-7.5387
X9.86Y-7.578
X9.86Y-7.6174
X9.86Y-7.6568
X9.86Y-7.6961
X9.86Y-7.7355
X9.86Y-7.7749
X9.86Y-7.8143
X9.86Y-7.8536
X14.0523Y-1.18
X14.0913Y-4.15
X14.0917Y-1.18
X14.1307Y-4.15
X14.131Y-1.18
X14.1701Y-4.15
X14.1704Y-1.18
X14.2094Y-4.15
X14.2098Y-1.18
X14.2488Y-4.15
X14.2491Y-1.18
X14.2882Y-4.15
X14.2885Y-1.18
X14.3276Y-4.15
X14.3279Y-1.18
X14.3669Y-4.15
X14.3672Y-1.18
X14.4063Y-4.15
X14.4066Y-1.18
X14.4457Y-4.15
X14.446Y-1.18
X14.485Y-4.15
X14.4854Y-1.18
X14.5244Y-4.15
X14.5247Y-1.18
X14.5638Y-4.15
X14.5641Y-1.18
X14.6031Y-4.15
X14.6035Y-1.18
X14.6425Y-4.15
X14.6428Y-1.18
X14.6819Y-4.15
X14.6822Y-1.18
X14.7213Y-4.15
X14.7216Y-1.18
X14.7606Y-4.15
X14.7609Y-1.18
X14.8Y-4.15
X14.8003Y-1.18
X14.8394Y-4.15
X14.8397Y-1.18
X14.8787Y-4.15
X14.8791Y-1.18
X14.9181Y-4.15
X14.9184Y-1.18
X14.9575Y-4.15
X14.9578Y-1.18
X14.9969Y-4.15
X14.9972Y-1.18
X15.0362Y-4.15
X15.0365Y-1.18
X15.0756Y-4.15
X15.0759Y-1.18
X15.115Y-4.15
X15.1153Y-1.18
X15.1543Y-4.15
X15.1546Y-1.18
X15.1937Y-4.15
X15.194Y-1.18
X15.2331Y-4.15
X15.2334Y-1.18
X15.2724Y-4.15
X15.2728Y-1.18
X15.3118Y-4.15
X15.3121Y-1.18
X15.3512Y-4.15
X15.3515Y-1.18
X15.3906Y-4.15
X15.3909Y-1.18
X15.4299Y-4.15
X15.4302Y-1.18
X15.4693Y-4.15
X15.4696Y-1.18
X15.5087Y-4.15
X15.509Y-1.18
X15.548Y-4.15
X15.5483Y-1.18
X15.5874Y-4.15
X15.5877Y-1.18
X15.6268Y-4.15
X15.79Y-6.4101
X15.79Y-6.4494
X15.79Y-6.4888
X15.79Y-6.5282
X15.79Y-6.5676
X15.79Y-6.6069
X15.79Y-6.6463
X15.79Y-6.6857
X15.79Y-6.725
X15.79Y-6.7644
X15.79Y-6.8038
X15.79Y-6.8431
X15.79Y-6.8825
X15.79Y-6.9219
X15.79Y-6.9613
X15.79Y-7.0006
X15.79Y-7.04
X15.79Y-7.0794
X15.79Y-7.1187
X15.79Y-7.1581
X15.79Y-7.1975
X15.79Y-7.2369
X15.79Y-7.2762
X15.79Y-7.3156
X15.79Y-7.355
X15.79Y-7.3943
X15.79Y-7.4337
X15.79Y-7.4731
X15.79Y-7.5124
X15.79Y-7.5518
X15.79Y-7.5912
X15.79Y-7.6306
X15.79Y-7.6699
X15.79Y-7.7093
X15.79Y-7.7487
X15.79Y-7.788
X15.79Y-7.8274
X15.79Y-7.8668
X15.79Y-7.9061
X15.79Y-7.9455
X15.8Y-1.0163
X15.8Y-1.0557
X15.8Y-1.095
X15.8Y-1.1344
X15.8Y-1.1738
X15.8Y-1.2131
X15.8Y-1.2525
X15.8Y-1.2919
X15.8Y-1.3313
X15.8Y-1.3706
X15.8Y-1.41
X15.8Y-1.4494
X15.8Y-1.4887
X15.8Y-1.5281
X15.8Y-1.5675
X15.8Y-1.6069
X15.8Y-1.6462
X15.8Y-1.6856
X15.8Y-1.725
X15.8Y-1.7643
X15.8Y-1.8037
X15.8Y-1.8431
X15.8Y-1.8824
X15.8Y-1.9218
X15.8Y-1.9612
X15.8Y-2.0006
X15.8Y-2.0399
X15.8Y-2.0793
X15.8Y-2.1187
X15.8Y-2.158
X15.8Y-2.1974
X15.8Y-2.2368
X15.8Y-2.2761
X15.8Y-2.3155
X15.8Y-2.3549
X15.8Y-2.3943
X15.8Y-2.4336
X15.8Y-2.473
X15.8Y-2.5124
X15.8Y-2.5517
X15.8031Y-2.685
X15.8031Y-2.7244
X15.8031Y-2.7638
X15.8031Y-2.8031
X15.8031Y-2.8425
X15.8031Y-2.8819
X15.8031Y-2.9213
X15.8031Y-2.9606
X15.8031Y-3.0
X15.8031Y-3.0394
X15.8031Y-3.0787
X15.8031Y-3.1181
X15.8031Y-3.1575
X15.8031Y-3.1969
X15.8031Y-3.2362
X15.8031Y-3.2756
X15.8031Y-3.315
X15.8031Y-3.3543
X15.8031Y-3.3937
X15.8031Y-3.4331
X15.8031Y-3.4724
X15.8031Y-3.5118
X15.8031Y-3.5512
X15.8031Y-3.5906
X15.8031Y-3.6299
X15.8031Y-3.6693
X15.8031Y-3.7087
X15.8031Y-3.748
X15.8031Y-3.7874
X15.8031Y-3.8268
X15.8031Y-3.8661
X15.8031Y-3.9055
X15.8031Y-3.9449
X15.8031Y-3.9843
X15.8031Y-4.0236
X15.8031Y-4.063
X15.8031Y-4.1024
X15.8031Y-4.1417
X15.8031Y-4.1811
X15.8031Y-4.2205
X15.81Y-4.5301
X15.81Y-4.5694
X15.81Y-4.6088
X15.81Y-4.6482
X15.81Y-4.6876
X15.81Y-4.7269
X15.81Y-4.7663
X15.81Y-4.8057
X15.81Y-4.845
X15.81Y-4.8844
X15.81Y-4.9238
X15.81Y-4.9631
X15.81Y-5.0025
X15.81Y-5.0419
X15.81Y-5.0813
X15.81Y-5.1206
X15.81Y-5.16
X15.81Y-5.1994
X15.81Y-5.2387
X15.81Y-5.2781
X15.81Y-5.3175
X15.81Y-5.3569
X15.81Y-5.3962
X15.81Y-5.4356
X15.81Y-5.475
X15.81Y-5.5143
X15.81Y-5.5537
X15.81Y-5.5931
X15.81Y-5.6324
X15.81Y-5.6718
X15.81Y-5.7112
X15.81Y-5.7506
X15.81Y-5.7899
X15.81Y-5.8293
X15.81Y-5.8687
X15.81Y-5.908
X15.81Y-5.9474
X15.81Y-5.9868
X15.81Y-6.0261
X15.81Y-6.0655
T10
X10.8941Y-6.2493
X10.8941Y-6.328
X11.3465Y-5.7283
X11.3465Y-5.8071
T11
X10.5236Y-1.1098
X10.5236Y-1.1598
X10.5236Y-1.2098
X10.5236Y-1.2598
X10.5236Y-1.3098
X12.9831Y-1.0827
X13.0331Y-1.0827
X13.0831Y-1.0827
X13.1331Y-1.0827
X13.1831Y-1.0827
X13.5276Y-3.9067
X13.5276Y-3.9567
X13.5276Y-4.0067
X13.5276Y-4.0567
X13.5276Y-4.1067
X14.524Y-3.5364
X14.524Y-3.5864
X14.524Y-3.6364
X14.524Y-3.6864
X14.524Y-3.7364
X14.524Y-3.7864
X14.524Y-3.8364
X14.574Y-3.5364
X14.574Y-3.5864
X14.574Y-3.6364
X14.574Y-3.6864
X14.574Y-3.7364
X14.574Y-3.7864
X14.574Y-3.8364
T12
X14.9224Y-1.9287
X14.9224Y-1.9787
X14.9224Y-2.0287
X14.9224Y-2.0787
X14.9224Y-2.1287
X14.9724Y-1.9287
X14.9724Y-1.9787
X14.9724Y-2.0287
X14.9724Y-2.0787
X14.9724Y-2.1287
T13
X7.1417Y-4.1946
X7.1417Y-4.2946
X7.1417Y-4.3946
X7.1417Y-4.4946
X7.1417Y-4.5946
X7.1417Y-4.6946
X7.1417Y-4.7946
X7.1417Y-4.8946
X7.1417Y-4.9946
X7.1417Y-5.0946
X7.1417Y-5.1946
X7.1417Y-5.2946
X7.1417Y-5.3946
X7.1417Y-5.4946
X7.1417Y-5.5946
X7.1417Y-5.6946
X7.1417Y-5.7946
X7.1417Y-5.8946
X7.1417Y-5.9946
X7.1417Y-6.0946
X7.1417Y-6.1946
X7.2096Y-3.2135
X7.2096Y-3.3135
X7.2096Y-3.4135
X7.2098Y-1.3136
X7.2098Y-1.4136
X7.2098Y-1.5136
X7.2098Y-1.6136
X7.2098Y-1.7136
X7.2098Y-1.8136
X7.2098Y-1.9136
X7.2098Y-2.0136
X7.2098Y-2.1136
X7.2098Y-2.2136
X7.2098Y-2.3136
X7.2098Y-2.4136
X7.2098Y-2.5136
X7.2098Y-2.6136
X7.2098Y-2.7136
X7.2098Y-2.8136
X7.2098Y-2.9136
X7.2098Y-3.0136
X7.2098Y-3.1136
X7.3732Y-6.7795
X7.3732Y-7.7795
X7.4732Y-6.7795
X7.4732Y-7.7795
X7.5732Y-6.7795
X7.5732Y-7.7795
X7.6732Y-6.7795
X7.6732Y-7.7795
X7.7732Y-6.7795
X7.7732Y-7.7795
X7.8732Y-6.7795
X7.8732Y-7.7795
X7.9732Y-6.7795
X7.9732Y-7.7795
X8.0732Y-6.7795
X8.0732Y-7.7795
X8.1098Y-1.3136
X8.1098Y-1.4136
X8.1098Y-1.5136
X8.1098Y-1.6136
X8.1098Y-1.7136
X8.1098Y-1.8136
X8.1098Y-1.9136
X8.1098Y-2.0136
X8.1098Y-2.1136
X8.1098Y-2.2136
X8.1098Y-2.3136
X8.1098Y-2.4136
X8.1098Y-2.5136
X8.1098Y-2.6136
X8.1098Y-2.7136
X8.1098Y-2.8136
X8.1098Y-2.9136
X8.1098Y-3.0136
X8.1098Y-3.1136
X8.1098Y-3.2136
X8.1098Y-3.3136
X8.1098Y-3.4136
X8.1417Y-4.1946
X8.1417Y-4.2946
X8.1417Y-4.3946
X8.1417Y-4.4946
X8.1417Y-4.5946
X8.1417Y-4.6946
X8.1417Y-4.7946
X8.1417Y-4.8946
X8.1417Y-4.9946
X8.1417Y-5.0946
X8.1417Y-5.1946
X8.1417Y-5.2946
X8.1417Y-5.3946
X8.1417Y-5.4946
X8.1417Y-5.5946
X8.1417Y-5.6946
X8.1417Y-5.7946
X8.1417Y-5.8946
X8.1417Y-5.9946
X8.1417Y-6.0946
X8.1417Y-6.1946
X8.1732Y-6.7795
X8.1732Y-7.7795
X8.2732Y-6.7795
X8.2732Y-7.7795
X8.3732Y-6.7795
X8.3732Y-7.7795
X8.4307Y-4.3497
X8.4307Y-4.4497
X8.4307Y-4.5497
X8.4307Y-4.6497
X8.4307Y-4.7497
X8.4307Y-4.8497
X8.4307Y-4.9497
X8.4307Y-5.0497
X8.4307Y-5.1497
X8.4307Y-5.2497
X8.4307Y-5.3497
X8.4307Y-5.4497
X8.4307Y-5.5497
X8.4307Y-5.6497
X8.4307Y-5.7497
X8.4307Y-5.8497
X8.4307Y-5.9497
X8.4307Y-6.0497
X8.4307Y-6.1497
X8.4307Y-6.2497
X8.4309Y-4.2497
X8.4732Y-6.7795
X8.4732Y-7.7795
X8.5732Y-6.7795
X8.5732Y-7.7795
X8.6732Y-6.7795
X8.6732Y-7.7795
X8.7732Y-6.7795
X8.7732Y-7.7795
X8.8732Y-6.7795
X8.8732Y-7.7795
X8.9732Y-6.7795
X8.9732Y-7.7795
X9.0731Y-6.7797
X9.0732Y-7.7795
X9.1731Y-6.7797
X9.1732Y-7.7795
X9.3307Y-4.4496
X9.3307Y-4.5496
X9.3307Y-4.6496
X9.3307Y-4.7496
X9.3307Y-4.8496
X9.3307Y-4.9496
X9.3307Y-5.0496
X9.3307Y-5.1496
X9.3307Y-5.2496
X9.3307Y-5.3496
X9.3307Y-5.4496
X9.3307Y-5.5496
X9.3307Y-5.6496
X9.3307Y-5.7496
X9.3307Y-5.8496
X9.3307Y-5.9496
X9.3307Y-6.0496
X9.3307Y-6.1496
X9.3307Y-6.2496
X9.3309Y-4.2497
X9.3309Y-4.3497
X10.5669Y-5.7264
X10.5669Y-5.8248
X10.7815Y-3.4421
X10.7815Y-3.7421
X10.835Y-6.0721
X10.8815Y-3.4421
X10.8815Y-3.7421
X10.9335Y-6.0721
X10.9815Y-3.4421
X10.9815Y-3.7421
T14
X11.5634Y-6.6841
X11.7602Y-6.6841
T15
X8.4331Y-1.0598
X8.4331Y-1.1598
X8.4331Y-1.2598
X8.4331Y-1.3598
X8.4331Y-1.4598
X8.4331Y-1.5598
X8.4331Y-1.6598
X8.4331Y-1.7598
X8.4331Y-1.8598
X8.4331Y-2.5598
X8.4331Y-2.6598
X8.4331Y-2.7598
X8.4331Y-2.8598
X8.4331Y-2.9598
X8.4331Y-3.0598
X8.4331Y-3.1598
X8.4331Y-3.2598
X8.4331Y-3.3598
X9.0331Y-1.0598
X9.0331Y-1.1598
X9.0331Y-1.2598
X9.0331Y-1.3598
X9.0331Y-1.4598
X9.0331Y-1.5598
X9.0331Y-1.6598
X9.0331Y-1.7598
X9.0331Y-1.8598
X9.0331Y-2.5598
X9.0331Y-2.6598
X9.0331Y-2.7598
X9.0331Y-2.8598
X9.0331Y-2.9598
X9.0331Y-3.0598
X9.0331Y-3.1598
X9.0331Y-3.2598
X9.0331Y-3.3598
X10.1805Y-1.7776
X10.1805Y-1.8776
X10.1805Y-1.9776
X10.1805Y-2.0776
X10.1805Y-2.1776
X10.1805Y-2.2776
X10.1805Y-2.3776
X10.1805Y-2.4776
X10.1805Y-2.5776
X10.1805Y-2.6776
X10.1805Y-2.7776
X10.1805Y-2.8776
X10.1805Y-2.9776
X10.1805Y-3.0776
X10.1805Y-3.1776
X10.1805Y-3.2776
X10.1805Y-3.3776
X10.1805Y-3.4776
X10.1805Y-3.5776
X10.1805Y-3.6776
X10.2805Y-1.7776
X10.2805Y-1.8776
X10.2805Y-1.9776
X10.2805Y-2.0776
X10.2805Y-2.1776
X10.2805Y-2.2776
X10.2805Y-2.3776
X10.2805Y-2.4776
X10.2805Y-2.5776
X10.2805Y-2.6776
X10.2805Y-2.7776
X10.2805Y-2.8776
X10.2805Y-2.9776
X10.2805Y-3.0776
X10.2805Y-3.1776
X10.2805Y-3.2776
X10.2805Y-3.3776
X10.2805Y-3.4776
X10.2805Y-3.5776
X10.2805Y-3.6776
X10.6793Y-6.7953
X10.7793Y-6.7953
X10.8761Y-5.7129
X10.8793Y-6.7953
X10.9246Y-1.1319
X10.9246Y-1.2319
X10.9761Y-5.7129
X10.9793Y-6.7953
X11.0246Y-1.1319
X11.0246Y-1.2319
X11.0761Y-5.7129
X11.0793Y-6.7953
X11.1246Y-1.1319
X11.1246Y-1.2319
X11.1793Y-6.7953
X11.2027Y-4.7089
X11.2027Y-4.8089
X11.2027Y-4.9089
X11.2027Y-5.0089
X11.2246Y-1.1319
X11.2246Y-1.2319
X11.2793Y-6.7953
X11.3246Y-1.1319
X11.3246Y-1.2319
X11.4246Y-1.1319
X11.4246Y-1.2319
X11.5246Y-1.1319
X11.5246Y-1.2319
X11.6246Y-1.1319
X11.6246Y-1.2319
X11.7246Y-1.1319
X11.7246Y-1.2319
X11.8246Y-1.1319
X11.8246Y-1.2319
X11.9246Y-1.1319
X11.9246Y-1.2319
X12.0246Y-1.1319
X12.0246Y-1.2319
X12.1246Y-1.1319
X12.1246Y-1.2319
X12.2246Y-1.1319
X12.2246Y-1.2319
X12.3246Y-1.1319
X12.3246Y-1.2319
X12.4246Y-1.1319
X12.4246Y-1.2319
X12.5246Y-1.1319
X12.5246Y-1.2319
X12.5807Y-3.6303
X12.5807Y-3.7303
X12.6246Y-1.1319
X12.6246Y-1.2319
X12.6807Y-3.6303
X12.6807Y-3.7303
X12.7246Y-1.1319
X12.7246Y-1.2319
X12.7807Y-3.6303
X12.7807Y-3.7303
X12.8246Y-1.1319
X12.8246Y-1.2319
X12.8807Y-3.6303
X12.8807Y-3.7303
X12.9807Y-3.6303
X12.9807Y-3.7303
X13.4104Y-1.8146
X13.4104Y-1.9146
X13.4104Y-2.0146
X13.4104Y-2.1146
X13.4104Y-2.2146
X13.4104Y-2.3146
X13.4104Y-2.4146
X13.4104Y-2.5146
X13.4104Y-2.6146
X13.4104Y-2.7146
X13.4104Y-2.8146
X13.4104Y-2.9146
X13.4104Y-3.0146
X13.4104Y-3.1146
X13.4104Y-3.2146
X13.4104Y-3.3146
X13.4104Y-3.4146
X13.4104Y-3.5146
X13.4104Y-3.6146
X13.4104Y-3.7146
X13.5104Y-1.8146
X13.5104Y-1.9146
X13.5104Y-2.0146
X13.5104Y-2.1146
X13.5104Y-2.2146
X13.5104Y-2.3146
X13.5104Y-2.4146
X13.5104Y-2.5146
X13.5104Y-2.6146
X13.5104Y-2.7146
X13.5104Y-2.8146
X13.5104Y-2.9146
X13.5104Y-3.0146
X13.5104Y-3.1146
X13.5104Y-3.2146
X13.5104Y-3.3146
X13.5104Y-3.4146
X13.5104Y-3.5146
X13.5104Y-3.6146
X13.5104Y-3.7146
X13.6911Y-6.7126
X13.6911Y-6.8126
X13.7911Y-6.7126
X13.7911Y-6.8126
X13.8911Y-6.7126
X13.8911Y-6.8126
X13.9911Y-6.7126
X13.9911Y-6.8126
X14.0719Y-3.1693
X14.0911Y-6.7126
X14.0911Y-6.8126
X14.1719Y-3.1693
X14.1911Y-6.7126
X14.1911Y-6.8126
X14.2911Y-6.7126
X14.2911Y-6.8126
X14.3911Y-6.7126
X14.3911Y-6.8126
X14.4669Y-3.1732
X14.4911Y-6.7126
X14.4911Y-6.8126
X14.5669Y-3.1732
X14.5911Y-6.7126
X14.5911Y-6.8126
X14.6194Y-4.6774
X14.6194Y-4.7774
X14.6293Y-5.2968
X14.6293Y-5.3968
X14.6391Y-5.8087
X14.6391Y-5.9087
X14.6911Y-6.7126
X14.6911Y-6.8126
X14.9433Y-3.3646
X14.9433Y-3.4646
X14.9433Y-3.5646
X14.9433Y-3.6646
X15.0433Y-3.3646
X15.0433Y-3.4646
X15.0433Y-3.5646
X15.0433Y-3.6646
X15.1142Y-2.9778
X15.1142Y-3.0778
X15.31Y-1.7
X15.31Y-1.8
X15.31Y-1.9
X15.31Y-2.0
X15.31Y-2.1
X15.31Y-2.2
X15.31Y-2.3
X15.31Y-2.4
X15.31Y-2.5
X15.31Y-2.6
X15.3417Y-3.2317
X15.3417Y-3.3317
X15.3417Y-3.4317
X15.3417Y-3.5317
X15.3417Y-3.6317
X15.3417Y-3.7317
X15.3417Y-3.8317
X15.41Y-1.7
X15.41Y-1.8
X15.41Y-1.9
X15.41Y-2.0
X15.41Y-2.1
X15.41Y-2.2
X15.41Y-2.3
X15.41Y-2.4
X15.41Y-2.5
X15.41Y-2.6
X15.4417Y-3.2317
X15.4417Y-3.3317
X15.4417Y-3.4317
X15.4417Y-3.5317
X15.4417Y-3.6317
X15.4417Y-3.7317
X15.4417Y-3.8317
T16
X11.15Y-6.09
X11.15Y-6.19
X11.15Y-6.29
T17
X10.1969Y-1.252
X10.2402Y-5.5512
X10.2402Y-5.689
X10.3346Y-1.252
X11.7266Y-5.5531
X11.7266Y-5.6909
X13.3465Y-1.3346
X13.4843Y-1.3346
T18
X10.215Y-6.6132
X10.4118Y-6.6132
T10
G00X11.524Y-6.8042
M15
G01X11.524Y-6.7766
M16
G05
G00X11.7996Y-6.7766
M15
G01X11.7996Y-6.8042
M16
G05
G00X15.2459Y-6.4764
M15
G01X15.3049Y-6.4764
M16
G05
G00X15.2459Y-6.8169
M15
G01X15.3049Y-6.8169
M16
G05
G00X15.3927Y-6.4764
M15
G01X15.4242Y-6.4764
M16
G05
G00X15.3927Y-6.8169
M15
G01X15.4242Y-6.8169
M16
G05
T0
M30
