M48
;Layer_Color=9474304
;FILE_FORMAT=2:5
INCH,LZ
;TYPE=PLATED
T1F00S00C0.01000
T2F00S00C0.04000
%
T01
X0087062Y00435
X00945Y00526
X00781Y00513
X00761Y0045779
X00784Y004322
X006212Y004318
X00636Y00479
X00577Y00476
X0055Y00403
X00567Y00336
X0065873Y0029427
X0071Y00231
X00579Y00188
X00403Y0007
X00219Y00153
X00259Y0053
X00509Y00621
X00621Y00632
X00708Y00616
X00714Y00666
X00817Y00706
X00864Y0074
T02
X0015Y00296
Y00396
Y00496
Y00596
Y00696
X00475Y0090158
X00575Y0089657
Y00117
X00475
M30
