%FSLAX25Y25*%
%MOIN*%
G70*
G01*
G75*
G04 Layer_Color=128*
%ADD10R,0.03150X0.02362*%
%ADD11R,0.04331X0.02559*%
%ADD12O,0.06693X0.01378*%
%ADD13R,0.02362X0.03150*%
%ADD14C,0.01500*%
%ADD15C,0.01000*%
%ADD16C,0.03000*%
%ADD17C,0.02500*%
%ADD18C,0.01300*%
%ADD19C,0.02000*%
%ADD20C,0.00800*%
%ADD21C,0.06496*%
%ADD22R,0.06496X0.06496*%
%ADD23R,0.06496X0.06496*%
%ADD24C,0.02000*%
G04:AMPARAMS|DCode=25|XSize=39.37mil|YSize=15.75mil|CornerRadius=3.94mil|HoleSize=0mil|Usage=FLASHONLY|Rotation=0.000|XOffset=0mil|YOffset=0mil|HoleType=Round|Shape=RoundedRectangle|*
%AMROUNDEDRECTD25*
21,1,0.03937,0.00787,0,0,0.0*
21,1,0.03150,0.01575,0,0,0.0*
1,1,0.00787,0.01575,-0.00394*
1,1,0.00787,-0.01575,-0.00394*
1,1,0.00787,-0.01575,0.00394*
1,1,0.00787,0.01575,0.00394*
%
%ADD25ROUNDEDRECTD25*%
G04:AMPARAMS|DCode=26|XSize=74.8mil|YSize=133.86mil|CornerRadius=0mil|HoleSize=0mil|Usage=FLASHONLY|Rotation=270.000|XOffset=0mil|YOffset=0mil|HoleType=Round|Shape=Octagon|*
%AMOCTAGOND26*
4,1,8,0.06693,0.01870,0.06693,-0.01870,0.04823,-0.03740,-0.04823,-0.03740,-0.06693,-0.01870,-0.06693,0.01870,-0.04823,0.03740,0.04823,0.03740,0.06693,0.01870,0.0*
%
%ADD26OCTAGOND26*%

%ADD27R,0.05512X0.03543*%
%ADD28R,0.07087X0.03543*%
%ADD29R,0.03740X0.03937*%
%ADD30R,0.08500X0.10799*%
%ADD31R,0.03937X0.03740*%
%ADD32R,0.02362X0.07480*%
%ADD33C,0.03500*%
%ADD34C,0.00984*%
%ADD35C,0.02362*%
%ADD36C,0.00700*%
%ADD37C,0.00787*%
%ADD38C,0.00600*%
%ADD39C,0.00500*%
%ADD40R,0.03750X0.02962*%
%ADD41R,0.04931X0.03159*%
%ADD42O,0.07293X0.01978*%
%ADD43R,0.02962X0.03750*%
%ADD44C,0.02600*%
G04:AMPARAMS|DCode=45|XSize=45.37mil|YSize=21.75mil|CornerRadius=6.94mil|HoleSize=0mil|Usage=FLASHONLY|Rotation=0.000|XOffset=0mil|YOffset=0mil|HoleType=Round|Shape=RoundedRectangle|*
%AMROUNDEDRECTD45*
21,1,0.04537,0.00787,0,0,0.0*
21,1,0.03150,0.02175,0,0,0.0*
1,1,0.01387,0.01575,-0.00394*
1,1,0.01387,-0.01575,-0.00394*
1,1,0.01387,-0.01575,0.00394*
1,1,0.01387,0.01575,0.00394*
%
%ADD45ROUNDEDRECTD45*%
G04:AMPARAMS|DCode=46|XSize=80.8mil|YSize=139.86mil|CornerRadius=0mil|HoleSize=0mil|Usage=FLASHONLY|Rotation=270.000|XOffset=0mil|YOffset=0mil|HoleType=Round|Shape=Octagon|*
%AMOCTAGOND46*
4,1,8,0.06993,0.02020,0.06993,-0.02020,0.04973,-0.04040,-0.04973,-0.04040,-0.06993,-0.02020,-0.06993,0.02020,-0.04973,0.04040,0.04973,0.04040,0.06993,0.02020,0.0*
%
%ADD46OCTAGOND46*%

%ADD47R,0.06112X0.04143*%
%ADD48R,0.07687X0.04143*%
%ADD49R,0.04340X0.04537*%
%ADD50R,0.09100X0.11399*%
%ADD51R,0.04537X0.04340*%
%ADD52R,0.02962X0.08080*%
D20*
X57700Y-79851D02*
Y-85849D01*
X60699D01*
X61699Y-84850D01*
Y-83850D01*
X60699Y-82850D01*
X57700D01*
X60699D01*
X61699Y-81851D01*
Y-80851D01*
X60699Y-79851D01*
X57700D01*
X64698Y-85849D02*
X66697D01*
X67697Y-84850D01*
Y-82850D01*
X66697Y-81851D01*
X64698D01*
X63698Y-82850D01*
Y-84850D01*
X64698Y-85849D01*
X70696Y-80851D02*
Y-81851D01*
X69696D01*
X71696D01*
X70696D01*
Y-84850D01*
X71696Y-85849D01*
X75694Y-80851D02*
Y-81851D01*
X74695D01*
X76694D01*
X75694D01*
Y-84850D01*
X76694Y-85849D01*
X80693D02*
X82692D01*
X83692Y-84850D01*
Y-82850D01*
X82692Y-81851D01*
X80693D01*
X79693Y-82850D01*
Y-84850D01*
X80693Y-85849D01*
X85691D02*
Y-81851D01*
X86691D01*
X87690Y-82850D01*
Y-85849D01*
Y-82850D01*
X88690Y-81851D01*
X89690Y-82850D01*
Y-85849D01*
X97687D02*
Y-79851D01*
X100686D01*
X101686Y-80851D01*
Y-82850D01*
X100686Y-83850D01*
X97687D01*
X104685Y-81851D02*
X106684D01*
X107684Y-82850D01*
Y-85849D01*
X104685D01*
X103685Y-84850D01*
X104685Y-83850D01*
X107684D01*
X109683Y-85849D02*
X112682D01*
X113682Y-84850D01*
X112682Y-83850D01*
X110683D01*
X109683Y-82850D01*
X110683Y-81851D01*
X113682D01*
X116681Y-80851D02*
Y-81851D01*
X115681D01*
X117681D01*
X116681D01*
Y-84850D01*
X117681Y-85849D01*
X123679D02*
X121679D01*
X120680Y-84850D01*
Y-82850D01*
X121679Y-81851D01*
X123679D01*
X124678Y-82850D01*
Y-83850D01*
X120680D01*
D25*
X31129Y39961D02*
D03*
Y42520D02*
D03*
Y45079D02*
D03*
Y47639D02*
D03*
X47271Y39961D02*
D03*
Y42520D02*
D03*
Y45079D02*
D03*
Y47639D02*
D03*
D26*
X73143Y29500D02*
D03*
D27*
X62120Y35405D02*
D03*
Y23595D02*
D03*
D28*
X62907Y29500D02*
D03*
D29*
X35800Y55950D02*
D03*
Y62250D02*
D03*
X55800Y55950D02*
D03*
Y62250D02*
D03*
D30*
X54001Y74600D02*
D03*
X36599D02*
D03*
X46301Y23000D02*
D03*
X28899D02*
D03*
D31*
X48950Y55700D02*
D03*
X42650D02*
D03*
D32*
X72080Y85400D02*
D03*
X64600D02*
D03*
X68340Y77920D02*
D03*
M02*
