%FSLAX25Y25*%
%MOIN*%
G70*
G01*
G75*
G04 Layer_Color=11296232*
%ADD10R,0.03150X0.02362*%
%ADD11R,0.04331X0.02559*%
%ADD12O,0.06693X0.01378*%
%ADD13R,0.02362X0.03150*%
%ADD14C,0.01500*%
%ADD15C,0.01000*%
%ADD16C,0.03000*%
%ADD17C,0.02500*%
%ADD18C,0.01300*%
%ADD19C,0.02000*%
%ADD20C,0.00800*%
%ADD21C,0.06496*%
%ADD22R,0.06496X0.06496*%
%ADD23R,0.06496X0.06496*%
%ADD24C,0.02000*%
G04:AMPARAMS|DCode=25|XSize=39.37mil|YSize=15.75mil|CornerRadius=3.94mil|HoleSize=0mil|Usage=FLASHONLY|Rotation=0.000|XOffset=0mil|YOffset=0mil|HoleType=Round|Shape=RoundedRectangle|*
%AMROUNDEDRECTD25*
21,1,0.03937,0.00787,0,0,0.0*
21,1,0.03150,0.01575,0,0,0.0*
1,1,0.00787,0.01575,-0.00394*
1,1,0.00787,-0.01575,-0.00394*
1,1,0.00787,-0.01575,0.00394*
1,1,0.00787,0.01575,0.00394*
%
%ADD25ROUNDEDRECTD25*%
G04:AMPARAMS|DCode=26|XSize=74.8mil|YSize=133.86mil|CornerRadius=0mil|HoleSize=0mil|Usage=FLASHONLY|Rotation=270.000|XOffset=0mil|YOffset=0mil|HoleType=Round|Shape=Octagon|*
%AMOCTAGOND26*
4,1,8,0.06693,0.01870,0.06693,-0.01870,0.04823,-0.03740,-0.04823,-0.03740,-0.06693,-0.01870,-0.06693,0.01870,-0.04823,0.03740,0.04823,0.03740,0.06693,0.01870,0.0*
%
%ADD26OCTAGOND26*%

%ADD27R,0.05512X0.03543*%
%ADD28R,0.07087X0.03543*%
%ADD29R,0.03740X0.03937*%
%ADD30R,0.08500X0.10799*%
%ADD31R,0.03937X0.03740*%
%ADD32R,0.02362X0.07480*%
%ADD33C,0.03500*%
%ADD34C,0.00984*%
%ADD35C,0.02362*%
%ADD36C,0.00700*%
%ADD37C,0.00787*%
%ADD38C,0.00600*%
%ADD39C,0.00500*%
%ADD40R,0.03750X0.02962*%
%ADD41R,0.04931X0.03159*%
%ADD42O,0.07293X0.01978*%
%ADD43R,0.02962X0.03750*%
%ADD44C,0.02600*%
G04:AMPARAMS|DCode=45|XSize=45.37mil|YSize=21.75mil|CornerRadius=6.94mil|HoleSize=0mil|Usage=FLASHONLY|Rotation=0.000|XOffset=0mil|YOffset=0mil|HoleType=Round|Shape=RoundedRectangle|*
%AMROUNDEDRECTD45*
21,1,0.04537,0.00787,0,0,0.0*
21,1,0.03150,0.02175,0,0,0.0*
1,1,0.01387,0.01575,-0.00394*
1,1,0.01387,-0.01575,-0.00394*
1,1,0.01387,-0.01575,0.00394*
1,1,0.01387,0.01575,0.00394*
%
%ADD45ROUNDEDRECTD45*%
G04:AMPARAMS|DCode=46|XSize=80.8mil|YSize=139.86mil|CornerRadius=0mil|HoleSize=0mil|Usage=FLASHONLY|Rotation=270.000|XOffset=0mil|YOffset=0mil|HoleType=Round|Shape=Octagon|*
%AMOCTAGOND46*
4,1,8,0.06993,0.02020,0.06993,-0.02020,0.04973,-0.04040,-0.04973,-0.04040,-0.06993,-0.02020,-0.06993,0.02020,-0.04973,0.04040,0.04973,0.04040,0.06993,0.02020,0.0*
%
%ADD46OCTAGOND46*%

%ADD47R,0.06112X0.04143*%
%ADD48R,0.07687X0.04143*%
%ADD49R,0.04340X0.04537*%
%ADD50R,0.09100X0.11399*%
%ADD51R,0.04537X0.04340*%
%ADD52R,0.02962X0.08080*%
%ADD53R,0.02000X0.16400*%
D15*
X100000Y50000D02*
G03*
X100000Y50000I-50000J0D01*
G01*
D20*
X57700Y-85849D02*
Y-79851D01*
X59699Y-81851D01*
X61699Y-79851D01*
Y-85849D01*
X63698D02*
X65697D01*
X64698D01*
Y-79851D01*
X63698Y-80851D01*
X74695Y-79851D02*
Y-85849D01*
X77693D01*
X78693Y-84850D01*
Y-83850D01*
X77693Y-82850D01*
X74695D01*
X77693D01*
X78693Y-81851D01*
Y-80851D01*
X77693Y-79851D01*
X74695D01*
X81692Y-85849D02*
X83692D01*
X84691Y-84850D01*
Y-82850D01*
X83692Y-81851D01*
X81692D01*
X80693Y-82850D01*
Y-84850D01*
X81692Y-85849D01*
X87690Y-81851D02*
X89690D01*
X90689Y-82850D01*
Y-85849D01*
X87690D01*
X86691Y-84850D01*
X87690Y-83850D01*
X90689D01*
X92689Y-81851D02*
Y-85849D01*
Y-83850D01*
X93688Y-82850D01*
X94688Y-81851D01*
X95688D01*
X102685Y-79851D02*
Y-85849D01*
X99686D01*
X98687Y-84850D01*
Y-82850D01*
X99686Y-81851D01*
X102685D01*
X113682Y-79851D02*
X111682D01*
X110683Y-80851D01*
Y-84850D01*
X111682Y-85849D01*
X113682D01*
X114682Y-84850D01*
Y-80851D01*
X113682Y-79851D01*
X116681Y-81851D02*
Y-84850D01*
X117681Y-85849D01*
X120680D01*
Y-81851D01*
X123679Y-80851D02*
Y-81851D01*
X122679D01*
X124678D01*
X123679D01*
Y-84850D01*
X124678Y-85849D01*
X127677D02*
X129677D01*
X128677D01*
Y-79851D01*
X127677D01*
X132676Y-85849D02*
X134675D01*
X133675D01*
Y-81851D01*
X132676D01*
X137674Y-85849D02*
Y-81851D01*
X140673D01*
X141673Y-82850D01*
Y-85849D01*
X146671D02*
X144672D01*
X143672Y-84850D01*
Y-82850D01*
X144672Y-81851D01*
X146671D01*
X147671Y-82850D01*
Y-83850D01*
X143672D01*
M02*
