%FSLAX25Y25*%
%MOIN*%
G70*
G01*
G75*
G04 Layer_Physical_Order=1*
G04 Layer_Color=255*
%ADD10R,0.03150X0.02362*%
%ADD11R,0.04331X0.02559*%
%ADD12O,0.06693X0.01378*%
%ADD13R,0.02362X0.03150*%
%ADD14C,0.01500*%
%ADD15C,0.01000*%
%ADD16C,0.03000*%
%ADD17C,0.02500*%
%ADD18C,0.01300*%
%ADD19C,0.02000*%
%ADD20C,0.00800*%
%ADD21C,0.06496*%
%ADD22R,0.06496X0.06496*%
%ADD23R,0.06496X0.06496*%
%ADD24C,0.02000*%
G36*
X54140Y97315D02*
X58248Y96774D01*
X62293Y95877D01*
X66244Y94631D01*
X70072Y93045D01*
X73748Y91132D01*
X77242Y88906D01*
X80529Y86383D01*
X83584Y83584D01*
X86383Y80529D01*
X88906Y77242D01*
X91132Y73748D01*
X93045Y70072D01*
X94631Y66244D01*
X95877Y62293D01*
X96774Y58248D01*
X97315Y54140D01*
X97487Y50182D01*
X97451Y50000D01*
X97487Y49818D01*
X97315Y45860D01*
X96774Y41753D01*
X95877Y37707D01*
X94631Y33756D01*
X93045Y29928D01*
X91132Y26252D01*
X88906Y22758D01*
X86383Y19471D01*
X83584Y16416D01*
X80529Y13617D01*
X77242Y11094D01*
X73748Y8868D01*
X70072Y6955D01*
X66244Y5369D01*
X62293Y4123D01*
X58248Y3226D01*
X54140Y2685D01*
X50182Y2513D01*
X50000Y2549D01*
X49818Y2513D01*
X45860Y2685D01*
X41753Y3226D01*
X37707Y4123D01*
X33756Y5369D01*
X29928Y6955D01*
X26252Y8868D01*
X22758Y11094D01*
X19471Y13617D01*
X16416Y16416D01*
X13617Y19471D01*
X11094Y22758D01*
X8868Y26252D01*
X6955Y29928D01*
X5369Y33756D01*
X4123Y37707D01*
X3226Y41753D01*
X2685Y45860D01*
X2513Y49818D01*
X2549Y50000D01*
X2513Y50182D01*
X2685Y54140D01*
X3226Y58248D01*
X4123Y62293D01*
X5369Y66244D01*
X6955Y70072D01*
X8868Y73748D01*
X11094Y77242D01*
X13617Y80529D01*
X16416Y83584D01*
X19471Y86383D01*
X22758Y88906D01*
X26252Y91132D01*
X29928Y93045D01*
X33756Y94631D01*
X37707Y95877D01*
X41753Y96774D01*
X45860Y97315D01*
X49818Y97487D01*
X50000Y97451D01*
X50182Y97487D01*
X54140Y97315D01*
D02*
G37*
%LPC*%
G36*
X18948Y73548D02*
X11052D01*
Y65652D01*
X18948D01*
Y68122D01*
X63263D01*
Y67719D01*
X64124D01*
Y64959D01*
X64081Y64931D01*
X63242Y64482D01*
X62763Y64801D01*
X62100Y64933D01*
X61437Y64801D01*
X61253Y64678D01*
X55600D01*
X55034Y64566D01*
X54555Y64245D01*
X53192Y62883D01*
X52872Y62404D01*
X52759Y61838D01*
Y61381D01*
X51963D01*
Y57619D01*
X52759D01*
Y55104D01*
X51877Y54632D01*
X51679Y54765D01*
X51137Y54873D01*
X48792D01*
X48480Y54935D01*
X44916D01*
Y57619D01*
X45713D01*
Y61381D01*
X41163D01*
Y60978D01*
X18702D01*
X18449Y61591D01*
X17816Y62416D01*
X16991Y63049D01*
X16031Y63446D01*
X15000Y63582D01*
X13969Y63446D01*
X13009Y63049D01*
X12184Y62416D01*
X11551Y61591D01*
X11154Y60631D01*
X11018Y59600D01*
X11154Y58569D01*
X11551Y57609D01*
X12184Y56784D01*
X13009Y56151D01*
X13969Y55754D01*
X15000Y55618D01*
X16031Y55754D01*
X16991Y56151D01*
X17816Y56784D01*
X18449Y57609D01*
X18620Y58022D01*
X41163D01*
Y57619D01*
X41959D01*
Y54062D01*
X42072Y53496D01*
X42072Y53496D01*
X42072Y53496D01*
X42392Y53017D01*
X42998Y52411D01*
X43477Y52091D01*
X44043Y51978D01*
X48480D01*
X48792Y52040D01*
X51137D01*
X51679Y52148D01*
X51877Y52281D01*
X52759Y51810D01*
Y50250D01*
X52326Y49817D01*
X48480D01*
X48167Y49755D01*
X45822D01*
X45280Y49647D01*
X44821Y49340D01*
X44514Y48880D01*
X44406Y48339D01*
X44467Y48031D01*
X43985Y47443D01*
X43707Y47258D01*
X42102D01*
Y49137D01*
X38339D01*
Y48341D01*
X36602D01*
Y49513D01*
X32839D01*
Y48817D01*
X31157D01*
Y49220D01*
X27140D01*
Y49220D01*
X27140Y49220D01*
X26608Y49220D01*
X26520D01*
X26433D01*
X25901Y49220D01*
X25901Y49220D01*
Y49220D01*
X21883D01*
Y48817D01*
X19637D01*
X18978Y49569D01*
X18982Y49600D01*
X18846Y50631D01*
X18449Y51591D01*
X17816Y52416D01*
X16991Y53049D01*
X16031Y53446D01*
X15000Y53582D01*
X13969Y53446D01*
X13009Y53049D01*
X12184Y52416D01*
X11551Y51591D01*
X11154Y50631D01*
X11018Y49600D01*
X11154Y48569D01*
X11551Y47609D01*
X12184Y46784D01*
X13009Y46151D01*
X13969Y45754D01*
X15000Y45618D01*
X16031Y45754D01*
X16582Y45982D01*
X16596Y45973D01*
X17161Y45860D01*
X21883D01*
Y45458D01*
X25901D01*
Y45458D01*
X25901Y45458D01*
X26433Y45458D01*
X26520D01*
X26608D01*
X27140Y45458D01*
X27140Y45458D01*
Y45458D01*
X31157D01*
Y45860D01*
X32839D01*
Y44963D01*
X36602D01*
Y45384D01*
X38339D01*
X38339Y44587D01*
X38339D01*
X38339Y44413D01*
D01*
X38339Y43616D01*
X36602D01*
Y43837D01*
X32839D01*
Y43041D01*
X31258D01*
Y43620D01*
X27240D01*
Y43620D01*
X27240Y43620D01*
X26708Y43620D01*
X26621D01*
X26533D01*
X26001Y43620D01*
X26001Y43620D01*
Y43620D01*
X21983D01*
Y43217D01*
X17239D01*
X16797Y43129D01*
X16031Y43446D01*
X15000Y43582D01*
X13969Y43446D01*
X13009Y43049D01*
X12184Y42416D01*
X11551Y41591D01*
X11154Y40631D01*
X11018Y39600D01*
X11154Y38569D01*
X11551Y37609D01*
X12184Y36784D01*
X13009Y36151D01*
X13969Y35754D01*
X15000Y35618D01*
X16031Y35754D01*
X16991Y36151D01*
X17816Y36784D01*
X18449Y37609D01*
X18846Y38569D01*
X18982Y39600D01*
X19561Y40260D01*
X21983D01*
Y39858D01*
X26001D01*
Y39858D01*
X26001Y39858D01*
X26533Y39858D01*
X26621D01*
X26708D01*
X27240Y39858D01*
X27240Y39858D01*
Y39858D01*
X31258D01*
Y40084D01*
X32839D01*
Y39287D01*
X36602D01*
Y40659D01*
X38339D01*
Y39863D01*
X39896D01*
X40159Y39687D01*
X40649Y39090D01*
X40584Y38762D01*
Y33188D01*
X39877Y32481D01*
X39787D01*
X39700D01*
X39613D01*
X39080Y32481D01*
X39080Y32481D01*
Y32481D01*
X35063D01*
Y32078D01*
X33537D01*
Y32481D01*
X28987D01*
Y28719D01*
X29784D01*
Y26937D01*
X29419D01*
Y22920D01*
X29419D01*
X29419Y22920D01*
X29419Y22387D01*
Y22300D01*
Y22213D01*
X29419Y21680D01*
X29419Y21680D01*
X29419D01*
Y17663D01*
X29822D01*
Y15781D01*
X29463D01*
Y15378D01*
X23912D01*
X23544Y15746D01*
X23501Y15963D01*
X23126Y16526D01*
X22563Y16901D01*
X21900Y17033D01*
X21237Y16901D01*
X20674Y16526D01*
X20299Y15963D01*
X20167Y15300D01*
X20299Y14637D01*
X20674Y14074D01*
X21237Y13699D01*
X21454Y13656D01*
X22255Y12855D01*
X22734Y12534D01*
X23300Y12422D01*
X29463D01*
Y12019D01*
X33480D01*
Y12019D01*
X33480Y12019D01*
X34013Y12019D01*
X34187D01*
D01*
Y12019D01*
X34684Y12019D01*
Y11138D01*
X34796Y10572D01*
X34796Y10572D01*
X34796Y10572D01*
X35117Y10092D01*
X38655Y6554D01*
X38699Y6337D01*
X39074Y5774D01*
X39637Y5399D01*
X40300Y5267D01*
X40963Y5399D01*
X41526Y5774D01*
X41901Y6337D01*
X42033Y7000D01*
X41901Y7663D01*
X41526Y8226D01*
X40963Y8601D01*
X40746Y8644D01*
X38296Y11095D01*
X38678Y12019D01*
X38737D01*
Y15781D01*
X34720D01*
Y15781D01*
X34720Y15781D01*
X34187Y15781D01*
X34100D01*
X34013D01*
X33485Y15781D01*
X32778Y16488D01*
Y17663D01*
X33181D01*
Y21680D01*
X33181D01*
X33181Y21680D01*
X33181Y22213D01*
Y22300D01*
Y22387D01*
X33181Y22920D01*
X33181Y22920D01*
X33181D01*
Y26937D01*
X32741D01*
Y28719D01*
X33537D01*
Y29122D01*
X35063D01*
Y28719D01*
X39080D01*
Y28719D01*
X39080Y28719D01*
X39613Y28719D01*
X39700D01*
X39787D01*
X40014D01*
X40722Y28012D01*
Y26700D01*
X40834Y26134D01*
X40834Y26134D01*
X40834Y26134D01*
X41155Y25655D01*
X42455Y24355D01*
X42934Y24034D01*
X43500Y23922D01*
X46463D01*
Y23519D01*
X51013D01*
Y23519D01*
X51013D01*
X51013Y23519D01*
X51187D01*
Y23519D01*
X55737D01*
D01*
X55737D01*
X56422Y22834D01*
Y20097D01*
X56063Y19561D01*
X55912Y18800D01*
X56063Y18039D01*
X56494Y17394D01*
X57139Y16963D01*
X57900Y16812D01*
X79100D01*
X79861Y16963D01*
X80506Y17394D01*
X88606Y25494D01*
X89037Y26139D01*
X89188Y26900D01*
Y35462D01*
X89037Y36223D01*
X88887Y36447D01*
X89099Y36764D01*
X89250Y37524D01*
X89250Y37524D01*
X89250Y37524D01*
Y37524D01*
Y41512D01*
X90319D01*
Y40787D01*
X94081D01*
Y41943D01*
X94372Y42379D01*
X94543Y43238D01*
Y46980D01*
X94590D01*
Y50939D01*
X92742D01*
X92300Y51027D01*
X91858Y50939D01*
X88859D01*
Y46980D01*
X90057D01*
Y45488D01*
X87062D01*
X86524Y45381D01*
X85320D01*
Y45381D01*
X85320Y45381D01*
X84787Y45381D01*
X84613D01*
D01*
Y45381D01*
X84581Y45381D01*
Y46980D01*
X85141D01*
Y50939D01*
X80129D01*
X79833Y51300D01*
X79701Y51963D01*
X79578Y52147D01*
Y54068D01*
X79971Y54461D01*
X85141D01*
Y58420D01*
X84409D01*
Y60563D01*
X84581D01*
Y64580D01*
X84581D01*
X84581Y64580D01*
X84581Y65113D01*
Y65200D01*
Y65287D01*
X84581Y65820D01*
X84581Y65820D01*
X84581D01*
Y69837D01*
X84131D01*
X84084Y70072D01*
X84066Y70166D01*
X83745Y70645D01*
X83345Y71046D01*
X83301Y71263D01*
X82926Y71826D01*
X82363Y72201D01*
X81700Y72333D01*
X81037Y72201D01*
X80474Y71826D01*
X80099Y71263D01*
X79967Y70600D01*
X80099Y69937D01*
X80474Y69374D01*
X80819Y69144D01*
Y65820D01*
X80819D01*
X80819Y65820D01*
X80819Y65287D01*
Y65200D01*
Y65113D01*
X80819Y64580D01*
X80819Y64580D01*
X80819D01*
Y60563D01*
X80942D01*
Y58420D01*
X79410D01*
Y57829D01*
X79294Y57806D01*
X78814Y57486D01*
X77055Y55726D01*
X76734Y55246D01*
X76622Y54680D01*
Y52147D01*
X76499Y51963D01*
X76367Y51300D01*
X76499Y50637D01*
X75790Y50163D01*
X74959Y50719D01*
X74994Y50898D01*
X74886Y51440D01*
X74579Y51899D01*
Y52455D01*
X74886Y52915D01*
X74994Y53457D01*
X74886Y53999D01*
X74579Y54458D01*
X74120Y54765D01*
X73578Y54873D01*
X72399D01*
Y56619D01*
X73013D01*
Y60381D01*
X73013D01*
X72401Y60937D01*
X72401Y60937D01*
D01*
D01*
D01*
X72533Y61600D01*
X72401Y62263D01*
X72026Y62826D01*
X71463Y63201D01*
X70800Y63333D01*
X70137Y63201D01*
X69574Y62826D01*
X69199Y62263D01*
X69067Y61600D01*
X69155Y61154D01*
X68521Y60381D01*
X68463D01*
Y56619D01*
X69442D01*
Y54873D01*
X68263D01*
X67721Y54765D01*
X66876Y56029D01*
Y67719D01*
X67813D01*
Y71481D01*
X63263D01*
Y71078D01*
X18948D01*
Y73548D01*
D02*
G37*
G36*
X61448Y15648D02*
X53552D01*
Y7752D01*
X61448D01*
Y15648D01*
D02*
G37*
G36*
X47500Y94140D02*
X46469Y94004D01*
X45509Y93606D01*
X44684Y92973D01*
X44051Y92149D01*
X43654Y91188D01*
X43518Y90158D01*
X43654Y89127D01*
X44051Y88166D01*
X44684Y87342D01*
X45509Y86709D01*
X46469Y86311D01*
X47500Y86175D01*
X48531Y86311D01*
X49491Y86709D01*
X50316Y87342D01*
X50949Y88166D01*
X51346Y89127D01*
X51482Y90158D01*
X51346Y91188D01*
X50949Y92149D01*
X50316Y92973D01*
X49491Y93606D01*
X48531Y94004D01*
X47500Y94140D01*
D02*
G37*
G36*
X61448Y93606D02*
X53552D01*
Y85710D01*
X61448D01*
Y93606D01*
D02*
G37*
%LPD*%
G36*
X64081Y61469D02*
X64124Y61441D01*
Y52500D01*
X64228Y51973D01*
X64527Y51527D01*
X66129Y49924D01*
X66576Y49626D01*
X67102Y49521D01*
X67102Y49521D01*
X66955Y48880D01*
X66955Y48880D01*
X66955Y48880D01*
X66847Y48339D01*
X66955Y47797D01*
X67262Y47337D01*
Y46781D01*
X66955Y46321D01*
X66847Y45779D01*
X66955Y45238D01*
X67262Y44778D01*
Y44222D01*
X66955Y43762D01*
X66847Y43220D01*
X66955Y42678D01*
X67262Y42219D01*
X67721Y41912D01*
X68263Y41804D01*
X70608D01*
X70920Y41742D01*
X77553D01*
X77737Y41619D01*
X78400Y41487D01*
X79063Y41619D01*
X79063Y41619D01*
X79063Y41619D01*
X80063Y41619D01*
Y41619D01*
X81193D01*
X81479Y41428D01*
X82338Y41257D01*
X83196Y41428D01*
X83482Y41619D01*
X84080D01*
Y41619D01*
X84080Y41619D01*
X84613Y41619D01*
X84787D01*
Y41619D01*
X85274Y41619D01*
Y38737D01*
X84781D01*
Y38737D01*
X81019D01*
Y37941D01*
X79681D01*
Y38737D01*
X76916D01*
X76505Y39148D01*
X76026Y39468D01*
X75460Y39581D01*
X70920D01*
X70608Y39518D01*
X68263D01*
X67721Y39411D01*
X67262Y39104D01*
X66955Y38644D01*
X66847Y38102D01*
X66955Y37560D01*
X67262Y37101D01*
Y36545D01*
X66955Y36085D01*
X66847Y35543D01*
X66955Y35001D01*
X67262Y34542D01*
X67721Y34235D01*
X68263Y34127D01*
X69697D01*
Y32537D01*
X69119D01*
Y27987D01*
X72881D01*
Y28784D01*
X76324D01*
X76890Y28896D01*
X77370Y29217D01*
X77370Y29217D01*
X77370Y29217D01*
X77616Y29463D01*
X79681D01*
Y34013D01*
D01*
Y34013D01*
X79681Y34013D01*
Y34187D01*
D01*
X79681Y34984D01*
X81019D01*
Y34187D01*
X84781D01*
D01*
X84781D01*
X85212Y33757D01*
Y27724D01*
X78276Y20788D01*
X59378D01*
Y32400D01*
X59359Y32497D01*
X60241Y32968D01*
X64228Y28981D01*
X64272Y28764D01*
X64647Y28201D01*
X65210Y27826D01*
X65873Y27694D01*
X66536Y27826D01*
X67099Y28201D01*
X67474Y28764D01*
X67606Y29427D01*
X67474Y30090D01*
X67099Y30653D01*
X66536Y31028D01*
X66319Y31071D01*
X56644Y40746D01*
X56601Y40963D01*
X56226Y41526D01*
X55663Y41901D01*
X55000Y42033D01*
X54337Y41901D01*
X53774Y41526D01*
X53427Y41005D01*
X52446Y41201D01*
X52445Y41203D01*
X52138Y41663D01*
Y42219D01*
X52445Y42678D01*
X52553Y43220D01*
X52445Y43762D01*
X52138Y44222D01*
Y44778D01*
X52445Y45238D01*
X52553Y45779D01*
X52503Y46030D01*
X53059Y46862D01*
X53407Y46931D01*
X53454Y46963D01*
X53504Y46973D01*
X53984Y47293D01*
X53984Y47293D01*
X53984Y47293D01*
X55165Y48474D01*
X55611Y48236D01*
D01*
X56047Y48003D01*
X55967Y47600D01*
X56099Y46937D01*
X56474Y46374D01*
X57037Y45999D01*
X57379Y45931D01*
X60450Y42859D01*
X60518Y42517D01*
X60894Y41955D01*
X61456Y41579D01*
X62120Y41447D01*
X62783Y41579D01*
X63345Y41955D01*
X63721Y42517D01*
X63853Y43180D01*
X63721Y43844D01*
X63345Y44406D01*
X62783Y44782D01*
X62691Y44800D01*
X59320Y48171D01*
X59301Y48263D01*
X58926Y48826D01*
X58363Y49201D01*
X57700Y49333D01*
X57037Y49201D01*
X56500Y48843D01*
D01*
X56125Y49093D01*
D01*
X55669Y49398D01*
X55716Y49638D01*
X55716Y49638D01*
X55716Y49638D01*
Y49638D01*
Y57619D01*
X56513D01*
Y61381D01*
D01*
Y61381D01*
X56853Y61722D01*
X61253D01*
X61437Y61599D01*
X62100Y61467D01*
X62763Y61599D01*
X63242Y61918D01*
X64081Y61469D01*
D02*
G37*
D10*
X31262Y30600D02*
D03*
X26538D02*
D03*
X24258Y41739D02*
D03*
X28983D02*
D03*
X37338Y30600D02*
D03*
X42062D02*
D03*
X48738Y25400D02*
D03*
X53462D02*
D03*
X36462Y13900D02*
D03*
X31738D02*
D03*
X24158Y47339D02*
D03*
X28883D02*
D03*
X48738Y30600D02*
D03*
X53462D02*
D03*
X48162Y59500D02*
D03*
X43438D02*
D03*
X70738Y58500D02*
D03*
X75462D02*
D03*
X58962Y59500D02*
D03*
X54238D02*
D03*
X82338Y43500D02*
D03*
X87062D02*
D03*
X65538Y69600D02*
D03*
X70262D02*
D03*
D11*
X91724Y56440D02*
D03*
Y48960D02*
D03*
X82276D02*
D03*
Y52700D02*
D03*
Y56440D02*
D03*
D12*
X48480Y53457D02*
D03*
Y50898D02*
D03*
Y48339D02*
D03*
Y45779D02*
D03*
Y43220D02*
D03*
Y40661D02*
D03*
Y38102D02*
D03*
Y35543D02*
D03*
X70920Y53457D02*
D03*
Y50898D02*
D03*
Y48339D02*
D03*
Y45779D02*
D03*
Y43220D02*
D03*
Y40661D02*
D03*
Y38102D02*
D03*
Y35543D02*
D03*
D13*
X82700Y62838D02*
D03*
Y67562D02*
D03*
X77800Y36462D02*
D03*
Y31738D02*
D03*
X71000Y25538D02*
D03*
Y30262D02*
D03*
X31300Y19938D02*
D03*
Y24662D02*
D03*
X92200Y43062D02*
D03*
Y38338D02*
D03*
X34721Y41562D02*
D03*
Y36838D02*
D03*
X40220Y46862D02*
D03*
Y42138D02*
D03*
X34721Y51962D02*
D03*
Y47238D02*
D03*
X82900Y31738D02*
D03*
Y36462D02*
D03*
D14*
X53462Y30600D02*
Y36538D01*
X51898Y38102D02*
X53462Y36538D01*
X48480Y38102D02*
X51898D01*
X71000Y23100D02*
Y25538D01*
X48480Y30858D02*
X48738Y30600D01*
X48480Y30858D02*
Y35543D01*
Y30658D02*
X48538Y30600D01*
X53462Y25400D02*
Y30600D01*
X15000Y69600D02*
X65500D01*
X42062Y38762D02*
X43961Y40661D01*
X70738Y58500D02*
Y61600D01*
X57800Y47600D02*
X62170Y43230D01*
X57700Y47600D02*
X57800D01*
X55000Y40300D02*
X65873Y29427D01*
X23300Y13900D02*
X31162D01*
X21900Y15300D02*
X23300Y13900D01*
X31162D02*
X31738D01*
X94500Y52600D02*
Y52700D01*
X31300Y14038D02*
Y19938D01*
X78100Y54680D02*
X79860Y56440D01*
X78100Y51300D02*
Y54680D01*
X79860Y56440D02*
X82276D01*
X70920Y43220D02*
X78400D01*
X70920Y45779D02*
X76100D01*
X77100Y36462D02*
X82900D01*
X82700Y67562D02*
Y69600D01*
X81700Y70600D02*
X82700Y69600D01*
X55600Y63200D02*
X62100D01*
X54238Y61838D02*
X55600Y63200D01*
X54238Y59500D02*
Y61838D01*
X36162Y11138D02*
Y13900D01*
Y11138D02*
X40300Y7000D01*
X43961Y40661D02*
X47300D01*
X42062Y30600D02*
Y38762D01*
X42200Y26700D02*
Y29962D01*
Y26700D02*
X43500Y25400D01*
X48738D01*
X54238Y49638D02*
Y59500D01*
X52939Y48339D02*
X54238Y49638D01*
X48480Y48339D02*
X52939D01*
X43438Y54062D02*
Y59500D01*
Y54062D02*
X44043Y53457D01*
X48480D01*
X40220Y42138D02*
X41303Y43220D01*
X48480D01*
X40220Y46862D02*
X41303Y45779D01*
X48480D01*
X29159Y41562D02*
X34721D01*
X35296Y42138D02*
X40220D01*
X35096Y46862D02*
X40220D01*
X28883Y47339D02*
X34620D01*
X17161D02*
X24158D01*
X15000Y49500D02*
X17161Y47339D01*
X17239Y41739D02*
X24258D01*
X15000Y39500D02*
X17239Y41739D01*
X15000Y59500D02*
X43438D01*
X70920Y48339D02*
X82054D01*
X76324Y30262D02*
X77800Y31738D01*
X71000Y30262D02*
X76324D01*
X70920Y38102D02*
X75460D01*
X77100Y36462D01*
X70920Y53457D02*
Y58317D01*
X56700Y33600D02*
X57900Y32400D01*
Y18800D02*
Y32400D01*
X31262Y30600D02*
X37338D01*
X31262Y24700D02*
Y30600D01*
D15*
X92300Y43238D02*
X92938Y42600D01*
X31162Y13900D02*
X31300Y14038D01*
X92124Y48960D02*
X92300Y48784D01*
X82276Y48560D02*
X82338Y48498D01*
X82054Y48339D02*
X82276Y48560D01*
X82676Y62813D02*
X82700Y62838D01*
X82676Y62813D02*
Y62938D01*
X82276Y55940D02*
X82976D01*
X41812Y30350D02*
X42200Y29962D01*
X52939Y48061D02*
Y48339D01*
X28983Y41739D02*
X29159Y41562D01*
X34721D02*
X35296Y42138D01*
X34721Y47238D02*
X35096Y46862D01*
X34620Y47339D02*
X34721Y47238D01*
X70920Y30342D02*
Y35543D01*
Y30342D02*
X71000Y30262D01*
X70738Y58500D02*
X70920Y58317D01*
X31262Y24700D02*
X31300Y24662D01*
D16*
X92300Y43238D02*
Y48784D01*
X82338Y43500D02*
Y48498D01*
D17*
X57900Y18800D02*
X79100D01*
X87200Y26900D01*
X87062Y43500D02*
X92038D01*
X87262Y37524D02*
Y43300D01*
X86200Y36462D02*
X87200Y35462D01*
X82900Y36462D02*
X86200D01*
X87262Y37524D01*
X87200Y26900D02*
Y35462D01*
D18*
X65500Y52500D02*
Y69600D01*
Y52500D02*
X67102Y50898D01*
X70920D01*
D19*
X82276Y56440D02*
X82676Y56840D01*
Y62813D01*
D20*
X57700Y-79851D02*
X61699D01*
X59699D01*
Y-85849D01*
X64698D02*
X66697D01*
X67697Y-84850D01*
Y-82850D01*
X66697Y-81851D01*
X64698D01*
X63698Y-82850D01*
Y-84850D01*
X64698Y-85849D01*
X69696Y-87849D02*
Y-81851D01*
X72695D01*
X73695Y-82850D01*
Y-84850D01*
X72695Y-85849D01*
X69696D01*
X81692Y-79851D02*
Y-85849D01*
X85691D01*
X88690Y-81851D02*
X90689D01*
X91689Y-82850D01*
Y-85849D01*
X88690D01*
X87690Y-84850D01*
X88690Y-83850D01*
X91689D01*
X93688Y-81851D02*
Y-84850D01*
X94688Y-85849D01*
X97687D01*
Y-86849D01*
X96687Y-87849D01*
X95688D01*
X97687Y-85849D02*
Y-81851D01*
X102685Y-85849D02*
X100686D01*
X99686Y-84850D01*
Y-82850D01*
X100686Y-81851D01*
X102685D01*
X103685Y-82850D01*
Y-83850D01*
X99686D01*
X105684Y-81851D02*
Y-85849D01*
Y-83850D01*
X106684Y-82850D01*
X107684Y-81851D01*
X108684D01*
D21*
X47500Y90158D02*
D03*
X15000Y59600D02*
D03*
Y49600D02*
D03*
Y39600D02*
D03*
Y29600D02*
D03*
X47500Y11700D02*
D03*
D22*
X57500Y89657D02*
D03*
Y11700D02*
D03*
D23*
X15000Y69600D02*
D03*
D24*
X62120Y43180D02*
D03*
X55000Y40300D02*
D03*
X21900Y15300D02*
D03*
X71000Y23100D02*
D03*
X71400Y66600D02*
D03*
X63600Y47900D02*
D03*
X76100Y45779D02*
D03*
X81700Y70600D02*
D03*
X62100Y63200D02*
D03*
X40300Y7000D02*
D03*
X70800Y61600D02*
D03*
X78100Y51300D02*
D03*
X78400Y43220D02*
D03*
X25900Y53000D02*
D03*
X50900Y62100D02*
D03*
X86400Y74000D02*
D03*
X57700Y47600D02*
D03*
X56700Y33600D02*
D03*
X57900Y18800D02*
D03*
X65873Y29427D02*
D03*
X94500Y52600D02*
D03*
X87062Y43500D02*
D03*
M02*
